<?xml version="1.0" encoding="utf-8"?>
<!-- Generator: Adobe Illustrator 24.0.0, SVG Export Plug-In . SVG Version: 6.00 Build 0)  -->
<svg version="1.1" id="圖層_1" xmlns="http://www.w3.org/2000/svg" xmlns:xlink="http://www.w3.org/1999/xlink" x="0px" y="0px"
	 viewBox="0 0 384 384" style="enable-background:new 0 0 384 384;" xml:space="preserve">
<style type="text/css">
	.st0{fill:#FFFFFF;}
</style>
<title>footer_icon_fb</title>
<path class="st0" d="M208.1,384.8h-29.9c-8.3-1.1-16.6-2-24.7-3.7C48.6,359.1-18.4,253.9,6.1,149.6C29.7,48.3,129.7-15.8,231.6,5
	c72.6,14.6,130.9,71.1,148.2,143.3c2.3,9.6,3.5,19.3,4.9,29V208c-1.2,9.1-2,18.3-4.4,27.2c-19.6,75.5-67,123.6-142.2,144.4
	C228.4,382.5,218.2,383.4,208.1,384.8z M192.8,110.2c-12,0-23.9-0.2-35.9,0c-16.8,0.2-33.6,1.2-50.3,3
	c-15.7,1.8-25.4,10.5-28.7,26.1c-2.9,14-3.3,28.2-3.9,42.4c-0.8,20.9,0.3,41.9,3.3,62.6c1.9,13,8.3,22.6,21.2,26.9
	c5,1.6,10.2,2.1,15.4,2.6c18.1,1.6,36.3,2.1,54.5,2.5c36.8,0.8,73.5,0.4,110.2-3.2c17.9-1.8,27.5-11.1,30.4-29
	c2.3-13.9,2.9-28,3.3-42.1c0.6-20.5-0.1-40.9-3.6-61.1c-2.6-15.2-11.5-24.4-25.3-26.8c-6.1-1.1-12.3-1.8-18.5-2.3
	C240.9,110.2,216.9,109.9,192.8,110.2z"/>
<path class="st0" d="M169,193.1c0-10.9,0.1-21.7,0-32.5c0-2.8,0.6-3.7,3.4-2.1c18.9,10.9,37.8,21.8,56.7,32.7c2.6,1.5,2.7,2.4,0,3.9
	c-18.9,10.8-37.8,21.7-56.7,32.7c-2.7,1.6-3.4,0.9-3.4-2.1C169,214.8,169,204,169,193.1z"/>
</svg>
