<?xml version="1.0" encoding="utf-8"?>
<!-- Generator: Adobe Illustrator 24.0.0, SVG Export Plug-In . SVG Version: 6.00 Build 0)  -->
<svg version="1.1" id="圖層_1" xmlns="http://www.w3.org/2000/svg" xmlns:xlink="http://www.w3.org/1999/xlink" x="0px" y="0px"
	 viewBox="0 0 384 384" style="enable-background:new 0 0 384 384;" xml:space="preserve">
<style type="text/css">
	.st0{fill:#FFFFFF;}
</style>
<title>footer_icon_fb</title>
<path class="st0" d="M0,207.9v-32.2c0.2-0.9,0.4-1.7,0.5-2.6c3.5-34.7,14.9-66.6,36.2-94.2C85.4,15.8,149.9-10.6,228.2,3.9
	C331.1,22.5,399.5,121,380.8,224c-0.2,0.9-0.3,1.7-0.5,2.6C365.6,304,318,354.1,242.6,377.2c-11.3,3.5-23.4,4.5-35.2,6.6H176
	c-6.2-0.9-12.4-1.6-18.5-2.7C85.2,368.4,25.2,313.6,6.5,242.7C3.4,231.3,2.1,219.5,0,207.9z M205.7,239.3c0-14.7,0.1-29.4,0-44.2
	c0-3.1,1-4.2,4.1-4.1c6.1,0.2,12.2,0,18.4,0.1c3.1,0.1,4.6-1.1,4.9-4.3c0.6-7.8,1.3-15.6,2-23.5c0.4-3.7-1.3-4.8-4.8-4.8
	c-6.9,0.2-13.7,0-20.6,0.1c-2.9,0.1-4.1-0.9-4-3.9c0.1-5,0-10,0-15c0-7.1,3.3-10.5,10.5-10.7c5.1-0.1,10.2-0.1,15.4,0
	c2.8,0,4.2-1,4.1-4c-0.1-8-0.1-16,0-24c0-2.9-1.2-4.1-4-4c-7.2,0.1-14.5,0-21.7,0c-4.9,0-9.8-0.3-14.6,0.5
	c-16.8,3-28,16.8-28.1,33.9c-0.1,7.7-0.1,15.5,0,23.2c0,3-1.1,4-4,3.9c-3.7-0.1-7.5,0.1-11.2,0c-3-0.1-4.4,1.1-4.3,4.2
	c0.1,8,0.1,16,0,24c0,3,1.4,4.3,4.4,4.3c3.1,0,6.2,0,9.4,0c5.8,0,5.8,0,5.8,5.7c0,28.3,0,56.7,0,85c0,4.8,0.4,5.3,5,5.3
	c9.5,0,19,0,28.4,0c4.4,0,4.9-0.5,4.9-5.1C205.6,267.8,205.7,253.5,205.7,239.3z"/>
</svg>
