<?xml version="1.0" encoding="utf-8"?>
<!-- Generator: Adobe Illustrator 24.0.0, SVG Export Plug-In . SVG Version: 6.00 Build 0)  -->
<svg version="1.1" id="圖層_1" xmlns="http://www.w3.org/2000/svg" xmlns:xlink="http://www.w3.org/1999/xlink" x="0px" y="0px"
	 viewBox="0 0 384 384" style="enable-background:new 0 0 384 384;" xml:space="preserve">
<style type="text/css">
	.st0{fill:#FFFFFF;}
</style>
<title>footer_icon_fb</title>
<path class="st0" d="M205.1,384.8h-24c-1-0.7-2.1-0.6-3.3-0.6c-40.2-3.3-76.5-17.2-106.9-43.6c-57.8-50-79.9-113.4-64.9-188.4
	C23.1,67.2,100.7,3.4,187.3,1.5c37.2-0.8,72.1,7.6,103.8,27c49.6,30.3,80,74.3,90.7,131.6c1.3,7,2,14,2.9,21.1v24
	c-0.3,0.9-0.5,1.9-0.6,2.9c-2.5,33-12.8,63.4-31.3,90.8c-30.5,45.1-72.7,73-126.4,83C219.4,383.1,212.2,383.8,205.1,384.8z
	 M192.9,290.6c16.3-0.3,32.7,0.2,49-1.7c25-2.9,41.9-18.5,46.4-43.3c2.4-13.3,2.1-26.8,2.2-40.3c0.1-20.3,0.7-40.7-1.6-60.9
	c-2.8-25.1-18.5-41.9-43.2-46.5c-13.2-2.4-26.6-2.2-39.9-2.2c-20.6-0.1-41.2-0.9-61.7,1.7c-21.7,2.7-37.3,13.9-44.3,35.4
	c-1.8,5.6-2.9,11.4-3.2,17.2c-1.5,28.6-1.5,57.4,0,86c1.7,30.9,18.7,49.1,49.5,53.1C161.7,291,177.3,290.4,192.9,290.6L192.9,290.6z
	"/>
<path class="st0" d="M113.1,193c0.1-14.8,0.1-29.7,1.4-44.5c1.8-20.4,13.6-32.4,34.1-34c29.7-2.2,59.6-2.2,89.3,0
	c20.2,1.5,32.3,13.6,33.8,33.7c2.3,29.8,2.3,59.8,0,89.7c-1.5,20.2-13.6,32.2-33.8,33.8c-29.7,2.2-59.6,2.2-89.3,0
	c-20.5-1.5-32.3-13.6-34.1-33.9C113.1,222.9,113.2,207.9,113.1,193z M143.1,193.1c0,27.6,22.3,50,49.9,50.1
	c27.6,0,50-22.3,50.1-49.9c0-27.6-22.3-50-49.9-50.1c0,0-0.1,0-0.1,0C165.6,143.3,143.3,165.5,143.1,193.1L143.1,193.1z
	 M245.1,152.9c6.4,0,11.6-5.2,11.6-11.6c-0.1-6.4-5.3-11.6-11.7-11.7c-6.4,0.1-11.6,5.3-11.6,11.7c0,6.3,5.1,11.5,11.4,11.6
	C244.9,152.8,245,152.8,245.1,152.9L245.1,152.9z"/>
<path class="st0" d="M193.3,160.8c17.8,0.1,32.2,14.7,32.1,32.5s-14.7,32.2-32.5,32.1c-17.8-0.1-32.2-14.7-32.1-32.5
	c0,0,0-0.1,0-0.1c0.1-17.7,14.5-32.1,32.3-32C193.2,160.8,193.2,160.8,193.3,160.8z"/>
</svg>
