<svg id="圖層_1" data-name="圖層 1" xmlns="http://www.w3.org/2000/svg" viewBox="0 0 62.9 62.6"><defs><style>.cls-1{fill:#eb2d55;}</style></defs><title>login</title><path class="cls-1" d="M30.4,50.6c5.2,0,9.5-.5,13.5-2.3a10.93,10.93,0,0,0,1.5-.8,3.22,3.22,0,0,0,1.8-3.3A16.42,16.42,0,0,0,42.5,34a1.76,1.76,0,0,1-.2-2.5h0a1.87,1.87,0,0,1,2.6,0,19.11,19.11,0,0,1,5.8,14c0,2.4-1.7,3.9-3.6,5-5,2.9-10.6,3.5-16.3,3.5a34.58,34.58,0,0,1-12.7-2.1C15.9,51,13.8,50,12.5,48a4.89,4.89,0,0,1-.8-2.3,18.1,18.1,0,0,1,5.5-14,1.91,1.91,0,0,1,2.7-.2h0c.7.8.6,1.7-.3,2.6A17.39,17.39,0,0,0,15.1,44a3.29,3.29,0,0,0,2,3.5A26.52,26.52,0,0,0,30.4,50.6Z"/><path class="cls-1" d="M31.2,32.8A12.21,12.21,0,0,1,18.9,20.6v-.3A12.4,12.4,0,1,1,31.2,32.8Zm9-12.3a8.85,8.85,0,1,0-8.9,8.8A8.83,8.83,0,0,0,40.2,20.5Z"/></svg>