<svg id="圖層_1" data-name="圖層 1" xmlns="http://www.w3.org/2000/svg" viewBox="0 0 62.88 62.64"><defs><style>.cls-1{fill:#902608;}</style></defs><title>login-deep</title><path class="cls-1" d="M30.44,50.63c5.24,0,9.5-.54,13.52-2.3a9.94,9.94,0,0,0,1.49-.76,3.31,3.31,0,0,0,1.82-3.32,16.52,16.52,0,0,0-4.67-10.2,1.8,1.8,0,0,1-.18-2.54h0a1.89,1.89,0,0,1,2.6,0,18.65,18.65,0,0,1,5.75,14c-.05,2.41-1.69,3.89-3.6,5-5,2.94-10.61,3.55-16.29,3.54A34.32,34.32,0,0,1,18.2,52c-2.16-.86-4.27-1.87-5.57-3.92a5,5,0,0,1-.82-2.31,18.42,18.42,0,0,1,5.46-14A1.92,1.92,0,0,1,20,31.56l0,0c.69.75.56,1.7-.3,2.63a16.82,16.82,0,0,0-4.46,9.93,3.34,3.34,0,0,0,2,3.54A28.39,28.39,0,0,0,30.44,50.63Z"/><path class="cls-1" d="M31.16,32.85a12.24,12.24,0,0,1-12.3-12.2v-.33a12.41,12.41,0,1,1,12.3,12.53Zm9-12.32a8.88,8.88,0,1,0-8.93,8.83A8.89,8.89,0,0,0,40.16,20.53Z"/></svg>