<svg id="圖層_1" data-name="圖層 1" xmlns="http://www.w3.org/2000/svg" viewBox="0 0 62.88 62.64"><defs><style>.cls-1{fill:#902608;}</style></defs><title>magnifier-deep</title><path class="cls-1" d="M46.5,30.93a15.25,15.25,0,0,1-2.87,9.18c-.58.85-.44,1.32.27,2,2.19,2.09,4.32,4.26,6.45,6.41a2.34,2.34,0,0,1-2.59,3.9,2.24,2.24,0,0,1-.65-.65c-2.1-2.07-4.25-4.11-6.24-6.29-.89-1-1.46-.9-2.47-.24a17.44,17.44,0,0,1-19.9-.77c-5.87-4.71-8-10.86-6.41-18.24a17.55,17.55,0,0,1,31-6.33A17.27,17.27,0,0,1,46.5,30.93ZM29,43.45A13,13,0,0,0,42,30.67,12.86,12.86,0,0,0,29.36,17.59H29.1A12.68,12.68,0,0,0,16.18,30v.4a12.86,12.86,0,0,0,12.7,13Z"/></svg>