<svg id="圖層_1" data-name="圖層 1" xmlns="http://www.w3.org/2000/svg" viewBox="0 0 62.88 62.64"><defs><style>.cls-1{fill:#eb2d55;}</style></defs><title>login</title><path class="cls-1" d="M22.16,18.15c.35-6.75,5.45-9.66,9.53-9.56s8.81,3.22,9.14,9.56h4.09c1.5,0,2,.51,2.14,2,.76,9.32,1.56,18.64,2.25,28A8.83,8.83,0,0,1,48.78,52a3.65,3.65,0,0,1-3.63,2q-13.63,0-27.25,0a4.26,4.26,0,0,1-4.33-5c.4-4.27.68-8.55,1-12.82q.68-8.08,1.37-16.17c.13-1.51.62-1.9,2.17-1.91ZM19,21.42c-.76,9.37-1.51,18.65-2.25,27.93-.09,1.2.22,1.5,1.47,1.5H44.77c1.29,0,1.58-.31,1.48-1.58q-.89-11.21-1.79-22.42c-.14-1.8-.32-3.6-.48-5.39H40.76c0,2.6,0,5.12,0,7.63A1.59,1.59,0,0,1,39.1,30.8a1.56,1.56,0,0,1-1.51-1.72c0-.89,0-1.78,0-2.67V21.47H25.41c0,2.6,0,5.12,0,7.63a1.54,1.54,0,0,1-1.63,1.7,1.58,1.58,0,0,1-1.51-1.73c0-.89,0-1.78,0-2.67v-5Zm18.59-3.34a5.91,5.91,0,0,0-2.83-5.39,5.76,5.76,0,0,0-6.46,0,5.81,5.81,0,0,0-2.83,5.4Z"/></svg>