<svg id="圖層_1" data-name="圖層 1" xmlns="http://www.w3.org/2000/svg" viewBox="0 0 62.88 62.64"><defs><style>.cls-1{fill:#902608;}</style></defs><title>Shopping-deep</title><path class="cls-1" d="M22.16,18.15c.35-6.75,5.45-9.66,9.53-9.56s8.81,3.22,9.14,9.56h4.09c1.5,0,2,.51,2.14,2,.76,9.32,1.56,18.64,2.25,28A8.85,8.85,0,0,1,48.78,52a3.65,3.65,0,0,1-3.63,2H17.9a4.27,4.27,0,0,1-4.33-5c.4-4.27.68-8.55,1-12.82Q15.25,28.1,15.94,20c.13-1.51.62-1.9,2.17-1.91ZM19,21.42c-.76,9.37-1.51,18.65-2.25,27.93-.09,1.2.22,1.5,1.47,1.5H44.77c1.29,0,1.58-.31,1.48-1.58q-.89-11.21-1.79-22.42c-.14-1.8-.32-3.6-.48-5.39H40.76v7.63A1.59,1.59,0,0,1,39.3,30.8h-.2a1.56,1.56,0,0,1-1.52-1.6s0-.08,0-.12V21.47H25.41V29.1A1.53,1.53,0,0,1,24,30.79a1.13,1.13,0,0,1-.26,0,1.58,1.58,0,0,1-1.52-1.64.28.28,0,0,0,0-.09V21.4Zm18.59-3.34a5.9,5.9,0,0,0-2.83-5.39,5.76,5.76,0,0,0-6.46,0,5.81,5.81,0,0,0-2.83,5.4Z"/></svg>