<svg id="圖層_1" data-name="圖層 1" xmlns="http://www.w3.org/2000/svg" viewBox="0 0 500 300"><defs><style>.cls-1{fill:#e9939b;}.cls-2{fill:#b8595e;}.cls-14,.cls-16,.cls-17,.cls-21,.cls-3{fill:#d3ecf4;}.cls-14,.cls-16,.cls-21,.cls-3{stroke:#b8595e;}.cls-10,.cls-11,.cls-12,.cls-13,.cls-14,.cls-16,.cls-19,.cls-20,.cls-21,.cls-23,.cls-24,.cls-28,.cls-29,.cls-3,.cls-4,.cls-6,.cls-7,.cls-8{stroke-miterlimit:10;}.cls-3,.cls-7{stroke-width:0.5px;}.cls-10,.cls-4{fill:none;stroke:#cb5c6a;}.cls-4{stroke-width:0.75px;}.cls-5{fill:#ca5e65;}.cls-12,.cls-13,.cls-20,.cls-24,.cls-29,.cls-6,.cls-7,.cls-8{fill:#fff;}.cls-11,.cls-12,.cls-13,.cls-19,.cls-20,.cls-23,.cls-24,.cls-28,.cls-6,.cls-8{stroke:#c15c61;}.cls-6{stroke-width:0.56px;}.cls-29,.cls-7{stroke:#fff;}.cls-8{stroke-width:0.25px;}.cls-9{fill:#ca5e64;}.cls-10{stroke-width:0.89px;}.cls-11,.cls-18,.cls-19,.cls-23,.cls-28{fill:#fbfbfc;}.cls-11,.cls-12{stroke-width:0.67px;}.cls-11,.cls-19,.cls-23,.cls-28{opacity:0.63;}.cls-13{stroke-width:0.67px;}.cls-14{stroke-width:0.6px;}.cls-15{fill:#e2f0f0;}.cls-16{stroke-width:0.46px;}.cls-19,.cls-20{stroke-width:0.35px;}.cls-21{stroke-width:0.45px;}.cls-22{fill:#6d95a4;}.cls-23,.cls-24{stroke-width:0.38px;}.cls-25{fill:#608593;}.cls-26{fill:#587d8b;}.cls-27{fill:#5b808f;}.cls-28{stroke-width:0.31px;}.cls-29{font-size:58.91px;stroke-width:0.24px;font-family:DFJinWen-W3-WINP-BF, DFPJinWenW3-B5;}</style></defs><title>banner_slogan_phone</title><rect class="cls-1" width="500" height="300"/><path class="cls-2" d="M-4.11,31.81C24.35,93.64,60.3,149.71,89.08,174.65l.65-.76C58.16,146.53,23.22,88.46-3,31.55Z"/><path class="cls-3" d="M3.56,94.44a4.25,4.25,0,0,0,2.43,3A3.38,3.38,0,0,0,9.45,96.1a9.18,9.18,0,0,0,1.49-3.6A79.27,79.27,0,0,0,13,68.38q.18,6.25.38,12.5c.18,5.87.59,12.33,4.7,16.55,1.15,1.18,2.83,2.17,4.4,1.64,2.17-.72,2.53-3.62,2.32-5.89a45.25,45.25,0,0,0-10-24.43,54.48,54.48,0,0,0,7,11.86,25.86,25.86,0,0,0,10.88,8.2,3.63,3.63,0,0,0,3,.11,3.19,3.19,0,0,0,1.17-3.14c-.28-2.9-2.2-5.36-4.27-7.42a40.12,40.12,0,0,0-15.13-9.42c5.3,2.75,10.81,5.56,16.78,5.91a7.73,7.73,0,0,0,4.46-.79,3.44,3.44,0,0,0,1.66-3.9,5,5,0,0,0-2.4-2.3,40.7,40.7,0,0,0-7.86-3.59,28.6,28.6,0,0,0-8.4-1.5c-2.53-.05-6.89,0-9,1.61C12,64.89-.24,77.63,3.56,94.44Z"/><path class="cls-3" d="M25.71,121.69a3.15,3.15,0,0,0,1.86,2.2,2.52,2.52,0,0,0,2.57-1,6.82,6.82,0,0,0,1.07-2.71A59.18,59.18,0,0,0,32.43,102q.24,4.68.46,9.36c.21,4.4.61,9.23,3.74,12.33.88.87,2.15,1.59,3.32,1.18,1.62-.58,1.85-2.75,1.66-4.45a33.87,33.87,0,0,0-7.84-18.16,41.56,41.56,0,0,0,5.37,8.79,19.45,19.45,0,0,0,8.27,6,2.72,2.72,0,0,0,2.28,0,2.37,2.37,0,0,0,.84-2.37c-.25-2.16-1.72-4-3.3-5.49a30,30,0,0,0-11.46-6.86c4,2,8.17,4,12.65,4.21a5.85,5.85,0,0,0,3.33-.66A2.57,2.57,0,0,0,52.94,103a3.79,3.79,0,0,0-1.83-1.7,31,31,0,0,0-5.94-2.58,21.46,21.46,0,0,0-6.31-1c-1.9,0-5.16.1-6.71,1.33C31.65,99.44,22.64,109.15,25.71,121.69Z"/><path class="cls-3" d="M46.87,147.34a2.72,2.72,0,0,0,1.91,1.55,2.17,2.17,0,0,0,2-1.28,5.81,5.81,0,0,0,.46-2.45,50.52,50.52,0,0,0-1.89-15.32q.95,3.89,1.88,7.75c.89,3.64,2,7.62,5.12,9.71a2.89,2.89,0,0,0,3,.45c1.27-.74,1.11-2.59.68-4a28.87,28.87,0,0,0-9.48-13.92,34.35,34.35,0,0,0,5.91,6.48A16.41,16.41,0,0,0,64.27,140a2.32,2.32,0,0,0,1.92-.33,2,2,0,0,0,.32-2.12,8.17,8.17,0,0,0-3.65-4.06,25.48,25.48,0,0,0-10.69-3.89c3.68,1,7.49,2,11.26,1.48A4.87,4.87,0,0,0,66.11,130a2.2,2.2,0,0,0,.52-2.65,3.12,3.12,0,0,0-1.8-1.12A26.18,26.18,0,0,0,59.45,125a18.37,18.37,0,0,0-5.44.17c-1.59.3-4.3.91-5.4,2.18C48.26,127.79,42.28,137.36,46.87,147.34Z"/><path class="cls-3" d="M66.35,169.25A2.42,2.42,0,0,0,68,170.61a1.89,1.89,0,0,0,1.75-1.13,5.1,5.1,0,0,0,.4-2.16,44.68,44.68,0,0,0-1.66-13.51q.82,3.42,1.66,6.83c.78,3.22,1.76,6.73,4.51,8.57a2.54,2.54,0,0,0,2.61.39c1.12-.65,1-2.28.6-3.51a25.43,25.43,0,0,0-8.37-12.28,30.85,30.85,0,0,0,5.22,5.72,14.49,14.49,0,0,0,6.95,3.25,2.06,2.06,0,0,0,1.69-.29,1.81,1.81,0,0,0,.28-1.87A7.22,7.22,0,0,0,80.46,157,22.49,22.49,0,0,0,71,153.6c3.25.9,6.61,1.81,9.93,1.31a4.23,4.23,0,0,0,2.36-.95,1.94,1.94,0,0,0,.47-2.34,2.82,2.82,0,0,0-1.59-1,22.67,22.67,0,0,0-4.75-1.06,16.1,16.1,0,0,0-4.8.14c-1.4.27-3.79.81-4.76,1.93C67.58,152,62.31,160.44,66.35,169.25Z"/><path class="cls-3" d="M85.13,184.77a1.88,1.88,0,0,0,1.33,1.06,1.47,1.47,0,0,0,1.37-.88,4,4,0,0,0,.31-1.69,35,35,0,0,0-1.3-10.59l1.3,5.35c.61,2.52,1.38,5.27,3.54,6.72a2,2,0,0,0,2,.31c.87-.51.76-1.8.46-2.76a20,20,0,0,0-6.55-9.62,24.13,24.13,0,0,0,4.08,4.48,11.48,11.48,0,0,0,5.45,2.55,1.59,1.59,0,0,0,1.32-.23,1.39,1.39,0,0,0,.22-1.46,5.6,5.6,0,0,0-2.52-2.81,17.51,17.51,0,0,0-7.39-2.69c2.54.7,5.18,1.41,7.79,1a3.37,3.37,0,0,0,1.85-.75A1.52,1.52,0,0,0,98.8,171a2.18,2.18,0,0,0-1.25-.77,18.07,18.07,0,0,0-3.72-.84,12.81,12.81,0,0,0-3.76.12c-1.09.21-3,.63-3.73,1.51C86.1,171.25,82,177.86,85.13,184.77Z"/><path class="cls-3" d="M-5.54,80a2.6,2.6,0,0,0,1.26-.5C-2.07,78-1,75.38-.28,72.83c3-10.71,1.8-24.27-.81-35.31L-2.41,34c.75,2.66.91,9.61-2.43,24.88C-6,64.51-7.4,70.15-7.78,75.91a5.89,5.89,0,0,0,.24,2.61A2.21,2.21,0,0,0-5.54,80Z"/><path class="cls-4" d="M4.85-25.09C24,28.85,50.65,76.4,84.58,117l.77-.64C51.5,75.86,24.9,28.41,5.8-25.4Z"/><path class="cls-5" d="M95.74,107.18a1.68,1.68,0,0,0-2.11-1.44,4.1,4.1,0,0,0-1.21.7q-7.55,5.63-14.9,11.5a13.75,13.75,0,0,0-2.74,2.64c-1,2.92,6.56,2.93,12.39-1.6a31.72,31.72,0,0,0,6.1-6.26C94.39,111.16,96,109,95.74,107.18Z"/><path class="cls-6" d="M93.28,102.47a48.42,48.42,0,0,0,.63-8.32,18,18,0,0,0-2-8,6.27,6.27,0,0,0-1.86-2.25,3,3,0,0,0-2.8-.43,3.3,3.3,0,0,0-1.81,2.8c-.11,1.16,1.61,13.39,2.65,18.29a10.77,10.77,0,0,0,1,3,3.25,3.25,0,0,0,1.42,1.53c.94.37,1.52-.82,1.81-1.5a10.83,10.83,0,0,0,.62-2.38C93.13,104.28,93.15,103.37,93.28,102.47Z"/><path class="cls-6" d="M72.46,118.08a50.78,50.78,0,0,1-8.67-1.53,19.16,19.16,0,0,1-7.7-4.11A6.5,6.5,0,0,1,54.28,110a3.19,3.19,0,0,1,.29-3,3.48,3.48,0,0,1,3.33-1.11c1.22.18,13.28,5.13,18,7.47a11.31,11.31,0,0,1,2.82,1.81A3.46,3.46,0,0,1,79.91,117c.14,1.06-1.23,1.34-2,1.46a11.22,11.22,0,0,1-2.59,0C74.35,118.4,73.42,118.19,72.46,118.08Z"/><path class="cls-6" d="M82,93.5a6.56,6.56,0,0,0-3.13-3.07,6.19,6.19,0,0,0-4.29.47,2.17,2.17,0,0,0-1,.68,2.2,2.2,0,0,0,0,1.88c1.92,6.39,6.41,11.65,10.78,16.69.86,1,2.14,2.18,3.51,1.26,1-.64.47-2.06.22-3-.46-1.63-1-3.23-1.58-4.84s-1.17-3.28-1.84-4.89a43.16,43.16,0,0,0-2.3-4.68C82.23,93.86,82.12,93.68,82,93.5Z"/><path class="cls-6" d="M73.9,100.32a15.67,15.67,0,0,0-3.81-3.51,4.79,4.79,0,0,0-4.77-.31,2.61,2.61,0,0,0-1.27,1.79,4.49,4.49,0,0,0,1.1,3.11c2.56,3.65,6.08,6.49,9.64,9.14A44.08,44.08,0,0,0,80,114a5.05,5.05,0,0,0,3.07.85,2,2,0,0,0,1.66-1.65,1.07,1.07,0,0,0-.1-.61c-.17-.24-.43-.47-.63-.7l-1.38-1.59-2.78-3.19L77,103.91c-.92-1.07-1.85-2.13-2.78-3.19C74.13,100.58,74,100.45,73.9,100.32Z"/><path class="cls-6" d="M56.28,121.43a15,15,0,0,0,7.57,2.74,26.3,26.3,0,0,0,8.1-.65c2.65-.46,3.47-1.41,3.47-1.41a1.2,1.2,0,0,0,.09-1.57,3.24,3.24,0,0,0-1.78-.91c-4.71-1.23-9.43-2.46-14.23-3.22-1.67-.26-3.51-.43-4.91.51a1.48,1.48,0,0,0-.55.56,1.55,1.55,0,0,0,0,1.14A6,6,0,0,0,56.28,121.43Z"/><path class="cls-6" d="M102.58,89a14.94,14.94,0,0,1-.66,8,26.7,26.7,0,0,1-4,7.08c-1.53,2.21-2.74,2.56-2.74,2.56a1.2,1.2,0,0,1-1.46-.57,3.17,3.17,0,0,1-.08-2,144.09,144.09,0,0,1,3-14.27c.46-1.62,1.07-3.36,2.51-4.24a1.41,1.41,0,0,1,.74-.26,1.51,1.51,0,0,1,1,.48A5.85,5.85,0,0,1,102.58,89Z"/><path class="cls-4" d="M27.17,26.28C38.63,55.4,39.82,75.83,38.8,87.85c-1.11,13.08-4.9,19.17-5.06,19.42l-.84-.53c.15-.25,15.08-24.84-6.66-80.09Z"/><path class="cls-4" d="M11.38-10.47C26.11,27.8,48.5,52.6,77.93,63.25l-.34.94C47.87,53.44,25.28,28.44,10.45-10.11Z"/><path class="cls-5" d="M64.8,57.44C61.78,68.29,81,70.21,82.59,67.93S71.8,51.25,64.8,57.44Z"/><path class="cls-5" d="M38.42,91.37c-11.27.34-7.45,19.21-4.79,20.08S46.41,96.21,38.42,91.37Z"/><path class="cls-5" d="M-1,41.07A6.94,6.94,0,0,1,.71,39q3.9,11.1,7.82,22.2a69.54,69.54,0,0,0,6.73-27.11,7.74,7.74,0,0,0,3.66,1.6,55.9,55.9,0,0,1-5.48-22q1.63,1.62,3.29,3.22A177.26,177.26,0,0,0,9.94-12.8L7.73-18.45a50.29,50.29,0,0,0-9.58,40A5.78,5.78,0,0,1,.67,19.13,95,95,0,0,0-1,41.07Z"/><path class="cls-5" d="M29.62-27.68c-.74-1.59-1.57-3.14-2.46-4.65L6.62-25.66c1,2,2,4,3.05,6,.29-1.7.58-3.39.86-5.09A63,63,0,0,1,20.06-1.18,8.75,8.75,0,0,0,22.33-5a77.82,77.82,0,0,0,24,20.18L38.78-10.19a7.73,7.73,0,0,1,2.93.81,106.44,106.44,0,0,0-16-18.83A6.49,6.49,0,0,1,29.62-27.68Z"/><path class="cls-7" d="M-11.35,67c2.6,19.37,6.56,39.55,13.17,59,10.7,31.44,27.53,57.7,48.67,75.93l-.18.2c-21.18-18.26-38-44.55-48.75-76C-5.06,106.61-9,86.41-11.62,67Z"/><path class="cls-7" d="M55.13,200.67a11,11,0,0,1,4,.2c1.42.36,2.74,1.4,2.54,2.7a2.22,2.22,0,0,1-1.38,1.61,5.71,5.71,0,0,1-1.72.38,2.28,2.28,0,0,1,.33,2.92,2.23,2.23,0,0,1-1.52.85,2.28,2.28,0,0,1-1.22-.18,2.15,2.15,0,0,1-.31,2.3,1.7,1.7,0,0,1-1.53.45,1.43,1.43,0,0,1-.7-.33,3.82,3.82,0,0,1-.32,1.91,2.46,2.46,0,0,1-2,1.45,2.68,2.68,0,0,1-2.4-1.47,6.18,6.18,0,0,1-.6-2.78,19.59,19.59,0,0,1,1.19-7.22q0-.12.09-.27a3,3,0,0,1,.67-1.27,2,2,0,0,1,1-.4l.31-.07.19,0a25.62,25.62,0,0,1,3.2-.71Zm-2.06,12.69a3.75,3.75,0,0,0,.22-2.29l.27-.08a1.06,1.06,0,0,0,.83.64,1.42,1.42,0,0,0,1.28-.37,2,2,0,0,0,0-2.43l-.6-.86.8.68a2,2,0,0,0,1.47.41h0a1.86,1.86,0,0,0,1.29-.73,1.91,1.91,0,0,0,.3-1.49,1.89,1.89,0,0,0-.84-1.26l-.36-.22.42,0a6.11,6.11,0,0,0,2-.38,2,2,0,0,0,1.22-1.4c.18-1.14-1-2.07-2.34-2.39h0a10.51,10.51,0,0,0-3.92-.19,22.61,22.61,0,0,0-3.32.72l-.19.05-.33.07a1.66,1.66,0,0,0-.84.33,2.79,2.79,0,0,0-.6,1.16,2.31,2.31,0,0,1-.1.28,19.2,19.2,0,0,0-1.16,7.11,5.85,5.85,0,0,0,.56,2.66,2.41,2.41,0,0,0,2.14,1.33h.1A2.23,2.23,0,0,0,53.07,213.36Z"/><path class="cls-7" d="M60.31,201.35l.39,0,.18,0c10.11-1.34,14.12.29,15.71,1.89a2.37,2.37,0,0,1,.61,2.73c-.45.69-1.38.94-2.77.74l-2.85-.39c-3.44-.45-8.16-1.07-10.58-1.59l-.24,0,.18-.18a1.7,1.7,0,0,0,.48-.9,2,2,0,0,0-1.19-1.92l-.44-.27Zm.38.23a2.1,2.1,0,0,1,1,2h0a1.73,1.73,0,0,1-.4.87c2.47.51,7,1.1,10.32,1.54l2.86.39c1.27.18,2.11,0,2.49-.62a2.11,2.11,0,0,0-.57-2.39c-1.54-1.56-5.47-3.13-15.48-1.81l-.17,0Z"/><path class="cls-7" d="M53.64,211.94a51.25,51.25,0,0,1,.8,5.69q.09,1,.21,2c0,.38.1.77.16,1.16.26,1.81.53,3.68-.34,5.25-.25.46-1,1.52-2,1.48-.88,0-1.65-.82-2.06-2.12a18.37,18.37,0,0,1-.68-4.62,31.85,31.85,0,0,1,.2-6.38l0-.21.18.12a2,2,0,0,0,1.22.34,2.22,2.22,0,0,0,1.75-1.3,3.13,3.13,0,0,0,.29-1.39l0-1.19Zm-2.3,3a2.19,2.19,0,0,1-1.21-.27,32,32,0,0,0-.16,6.11,17.82,17.82,0,0,0,.66,4.56c.14.44.69,1.88,1.81,1.92.92,0,1.56-.92,1.79-1.33.82-1.49.56-3.31.3-5.08-.05-.39-.11-.79-.15-1.17-.08-.68-.15-1.35-.22-2-.16-1.65-.32-3.22-.62-4.81a2.61,2.61,0,0,1-.22.63,2.52,2.52,0,0,1-1.86,1.44Z"/><path class="cls-7" d="M59.21,207.53c4.54,3.18,8.88,6.42,12,11h0a8.68,8.68,0,0,1,1.33,2.67,3.66,3.66,0,0,1-.38,2.94,2.29,2.29,0,0,1-1.8,1.06,2.91,2.91,0,0,1-1.81-.7,14.56,14.56,0,0,1-2.72-2.81c-1.79-2.25-3.53-4.57-5.22-6.81l-1.35-1.8a30.39,30.39,0,0,1,3.35,9.29c.28,1.49.46,3.39-.52,4.85a2.09,2.09,0,0,1-1,.83,2.32,2.32,0,0,1-2.55-1.27,54.61,54.61,0,0,1-3.88-10.75c-.4-1.4-.81-2.85-1.26-4.26v0a4.53,4.53,0,0,0-.08-.68l.27-.08a1.06,1.06,0,0,0,.83.64,1.42,1.42,0,0,0,1.28-.37,2,2,0,0,0,0-2.43l-.6-.86.8.68a2,2,0,0,0,1.47.41h0a1.86,1.86,0,0,0,1.29-.73,1.69,1.69,0,0,0,.3-.7l0-.21Zm-1.81,1.8a2.28,2.28,0,0,1-1.22-.18,2.15,2.15,0,0,1-.31,2.3,1.7,1.7,0,0,1-1.53.45,1.43,1.43,0,0,1-.71-.34c0,.06,0,.11,0,.16.44,1.41.86,2.86,1.26,4.25a54.51,54.51,0,0,0,3.85,10.7A2.05,2.05,0,0,0,61,227.8a1.69,1.69,0,0,0,.86-.72c.93-1.37.75-3.2.48-4.64a30.36,30.36,0,0,0-5.07-12l.22-.16,3.34,4.44c1.68,2.25,3.42,4.56,5.21,6.81a14.63,14.63,0,0,0,2.67,2.76,2.74,2.74,0,0,0,1.64.65A2,2,0,0,0,71.9,224a3.41,3.41,0,0,0,.35-2.73A8.74,8.74,0,0,0,71,218.71h0c-3-4.52-7.28-7.71-11.75-10.84a1.91,1.91,0,0,1-.29.61,2.24,2.24,0,0,1-1.49.85Z"/><path class="cls-7" d="M61.05,204.41a49.08,49.08,0,0,1,9.27,3.65h0A12.24,12.24,0,0,1,75.23,212a3.38,3.38,0,0,1,.63,2.17,1.79,1.79,0,0,1-1.51,1.62,6,6,0,0,1-2.39-.58c-2.46-1.5-4.8-2.84-7-4.13-1.88-1.08-3.83-2.2-5.84-3.4l-.08,0v-.09a2,2,0,0,0-.85-2l-.36-.22.42,0a6.11,6.11,0,0,0,2-.38,2.33,2.33,0,0,0,.72-.48l.06-.06Zm-2.46,1.15a2.28,2.28,0,0,1,.69,1.91c2,1.18,3.91,2.28,5.76,3.35,2.26,1.29,4.6,2.63,7.06,4.14a6,6,0,0,0,2.23.53h.07a1.53,1.53,0,0,0,1.19-1.37,3.06,3.06,0,0,0-.6-2,11.78,11.78,0,0,0-4.8-3.82,48.42,48.42,0,0,0-9.14-3.61,2.62,2.62,0,0,1-.74.48,4.55,4.55,0,0,1-1.24.33Z"/><path class="cls-7" d="M54.13,148.2a1.08,1.08,0,0,1,.28,1.21,2.83,2.83,0,0,1-.45.79,1.78,1.78,0,0,1,1,.17,1.15,1.15,0,0,1,.62.65,1.07,1.07,0,0,1-.11.86,1.67,1.67,0,0,1-.59.59,1.2,1.2,0,0,1,1,.86.91.91,0,0,1-.31.78,1.25,1.25,0,0,1-.49.3,2,2,0,0,1,.76.68,1.22,1.22,0,0,1-.09,1.44,2.3,2.3,0,0,1-1.85.65,4.46,4.46,0,0,1-1.77-.59,11.09,11.09,0,0,1-3.36-2.78h0a1.47,1.47,0,0,0-.1-.13,1.44,1.44,0,0,1-.41-.74,1,1,0,0,1,.22-.61l.1-.16.06-.11a13.14,13.14,0,0,1,1.07-1.76,7.85,7.85,0,0,1,1.87-1.78A3.5,3.5,0,0,1,53,148,1.5,1.5,0,0,1,54.13,148.2Zm1.37,8.15a.93.93,0,0,0,.07-1.11,2.21,2.21,0,0,0-1.1-.79l.07-.26a.93.93,0,0,0,.8-.27.64.64,0,0,0,.22-.54c-.06-.4-.61-.72-1.23-.71H53l1.31-.28a1.43,1.43,0,0,0,.92-.66.81.81,0,0,0,.09-.63.88.88,0,0,0-.48-.49,1.52,1.52,0,0,0-1.18-.07l-.46.16.31-.38a3.42,3.42,0,0,0,.65-1,.78.78,0,0,0-.2-.9c-.51-.42-1.55-.14-2.26.33a7.31,7.31,0,0,0-1.8,1.72,14.37,14.37,0,0,0-1,1.72l-.06.11a1.63,1.63,0,0,1-.11.17.89.89,0,0,0-.18.45,1.24,1.24,0,0,0,.35.58l.1.14h0a10.94,10.94,0,0,0,3.28,2.71,4.12,4.12,0,0,0,1.66.55,2.08,2.08,0,0,0,.5,0A1.75,1.75,0,0,0,55.5,156.35Z"/><path class="cls-7" d="M54.21,148.37c3.23-.2,8.77-.22,9.62,2l0,0v0c-.66,2.91-5.31,4.92-8,5.85l-.29.11.12-.29a1,1,0,0,0-.07-.87,2.21,2.21,0,0,0-1.1-.79l.07-.26a.93.93,0,0,0,.8-.27.64.64,0,0,0,.22-.54c-.06-.4-.61-.72-1.23-.71H53l1.31-.28a1.43,1.43,0,0,0,.92-.66.81.81,0,0,0,.09-.63.91.91,0,0,0-.48-.49,1.56,1.56,0,0,0-1.18-.07l-.46.16.31-.38a3.42,3.42,0,0,0,.65-1h0a.9.9,0,0,0,0-.74l-.13-.19Zm.2,1a2.83,2.83,0,0,1-.45.79,1.78,1.78,0,0,1,1,.17,1.15,1.15,0,0,1,.62.65,1.07,1.07,0,0,1-.11.86,1.67,1.67,0,0,1-.59.59,1.2,1.2,0,0,1,1,.86.91.91,0,0,1-.31.78,1.25,1.25,0,0,1-.49.3,2,2,0,0,1,.76.68A1.25,1.25,0,0,1,56,156c2.25-.8,6.92-2.78,7.59-5.53-.85-2-6.51-1.94-9.14-1.78a1.13,1.13,0,0,1,0,.77Z"/><path class="cls-7" d="M12.84,193.83l.16,0a1.48,1.48,0,0,1,.78.32,1.06,1.06,0,0,1,.22.62,1.13,1.13,0,0,0,0,.18l0,.12a13.21,13.21,0,0,1,.27,2A7.38,7.38,0,0,1,14,199.7c-.28.9-1,1.87-1.81,1.88a1.06,1.06,0,0,1-1-.76,2.7,2.7,0,0,1-.15-.9,1.81,1.81,0,0,1-.87.49,1.18,1.18,0,0,1-.9-.11,1,1,0,0,1-.45-.73,1.57,1.57,0,0,1,.08-.83,1.21,1.21,0,0,1-1.3-.07.87.87,0,0,1-.25-.79,1.25,1.25,0,0,1,.19-.54,2,2,0,0,1-1-.05,1.21,1.21,0,0,1-.84-1.17,2.23,2.23,0,0,1,1-1.67,4.41,4.41,0,0,1,1.74-.66l.63-.1A10.84,10.84,0,0,1,12.84,193.83ZM8,196.94l.11.25a1,1,0,0,0-.45.72.64.64,0,0,0,.17.56c.3.27.92.16,1.4-.23l1-.86-.83,1.05a1.41,1.41,0,0,0-.3,1.09.78.78,0,0,0,.33.55.91.91,0,0,0,.68.08,1.61,1.61,0,0,0,1-.69l.26-.41v.48a3.31,3.31,0,0,0,.12,1.19.83.83,0,0,0,.73.58c.65,0,1.29-.87,1.55-1.68a7.35,7.35,0,0,0,.31-2.47,14.8,14.8,0,0,0-.27-2l0-.12a1.23,1.23,0,0,1,0-.2,1,1,0,0,0-.14-.46,1.36,1.36,0,0,0-.64-.24l-.17,0h0a10.69,10.69,0,0,0-4.26,0,4.35,4.35,0,0,0-1.64.61A2,2,0,0,0,6,196.12a1,1,0,0,0,.66.91,1.63,1.63,0,0,0,.76.05A2.43,2.43,0,0,0,8,196.94Z"/><path class="cls-7" d="M6,196.4a.94.94,0,0,0,.61.63A2.19,2.19,0,0,0,8,196.94l.11.25a1,1,0,0,0-.45.72.64.64,0,0,0,.17.56c.3.27.92.16,1.4-.23l1-.86-.83,1.05a1.41,1.41,0,0,0-.3,1.09.78.78,0,0,0,.33.55.91.91,0,0,0,.68.08,1.61,1.61,0,0,0,1-.69l.26-.41v.48a3.31,3.31,0,0,0,.12,1.19h0a.85.85,0,0,0,.52.54l.21.08-.17.15c-2.37,2.2-6.67,5.7-8.72,4.53l0,0,0,0c-1.33-2.67,1-7.16,2.53-9.6l.16-.26Zm5.67,5a1.23,1.23,0,0,1-.48-.61,2.7,2.7,0,0,1-.15-.9,1.81,1.81,0,0,1-.87.49,1.18,1.18,0,0,1-.9-.11,1,1,0,0,1-.45-.73,1.57,1.57,0,0,1,.08-.83,1.21,1.21,0,0,1-1.3-.07.87.87,0,0,1-.25-.79,1.25,1.25,0,0,1,.19-.54,2,2,0,0,1-1-.05,1.26,1.26,0,0,1-.68-.56c-1.24,2-3.61,6.51-2.39,9.07C5.41,206.83,9.75,203.2,11.69,201.43Z"/><path class="cls-7" d="M31.78,182.25a9.07,9.07,0,0,1,1.29,2.14,50.89,50.89,0,0,1,2.48,9.16,34.08,34.08,0,0,1,.39,8.85c0,.33-.07.65-.11,1h0c-.63,4.64-2.44,8.47-4.19,12.17l-.27.59v-.65a29.38,29.38,0,0,0-1.45-8.18c-.38-1.42-.78-2.89-1.06-4.32a31.3,31.3,0,0,1-.47-8.57,43.29,43.29,0,0,1,1.44-7.89,33.11,33.11,0,0,1,1.71-4.24l.09-.2Zm3.78,21.08h0c0-.31.08-.63.11-1a33.49,33.49,0,0,0-.4-8.77,50.3,50.3,0,0,0-2.46-9.11,8.18,8.18,0,0,0-1.11-1.89,30.4,30.4,0,0,0-1.59,4,42.42,42.42,0,0,0-1.44,7.83,31.21,31.21,0,0,0,.47,8.5c.28,1.42.67,2.88,1.06,4.29a33.48,33.48,0,0,1,1.46,7.65A38.86,38.86,0,0,0,35.56,203.33Z"/><path class="cls-7" d="M20.49,165.66a41,41,0,0,1,5.62.39,47.64,47.64,0,0,1,9.13,2.53,31,31,0,0,1,8.37,4.87c1.24,1,2.43,2.19,3.58,3.32,2.22,2.18,4.51,4.43,7.22,5.7l.58.27h-.64c-5.1-.06-10.38-.13-15.58-1.85h0c-.36-.12-.72-.24-1.07-.38A33.55,33.55,0,0,1,29,175.56a45.91,45.91,0,0,1-7.43-7.28,8.09,8.09,0,0,1-1.2-2.45l-.05-.17ZM47,177c-1.14-1.13-2.33-2.29-3.56-3.31a30.71,30.71,0,0,0-8.29-4.83,47.44,47.44,0,0,0-9.07-2.51,40.7,40.7,0,0,0-5.39-.39,7.42,7.42,0,0,0,1.09,2.18,45.74,45.74,0,0,0,7.39,7.23,33.92,33.92,0,0,0,8.63,4.91l1.07.37h0c5,1.64,10,1.77,14.89,1.83A30.28,30.28,0,0,1,47,177Z"/><path class="cls-7" d="M-7.88,88.53a38.57,38.57,0,0,1,4.82,1.8,43.72,43.72,0,0,1,7.31,4.56,27.86,27.86,0,0,1,6,6.42c.81,1.21,1.54,2.54,2.25,3.82A25,25,0,0,0,17.35,112l.47.42-.61-.19c-4.44-1.38-9-2.8-13.14-5.65-.28-.19-.56-.4-.84-.61a30.58,30.58,0,0,1-6.31-6.55,41.87,41.87,0,0,1-4.58-8.27,7.41,7.41,0,0,1-.4-2.45v-.18ZM12.3,105.26c-.71-1.27-1.44-2.59-2.24-3.8a27.92,27.92,0,0,0-6-6.35,44.2,44.2,0,0,0-7.26-4.54,37.63,37.63,0,0,0-4.6-1.72A6.57,6.57,0,0,0-7.4,91a40.64,40.64,0,0,0,4.55,8.22,30.31,30.31,0,0,0,6.25,6.5l.83.6h0c3.89,2.69,8.24,4.11,12.49,5.43A27.54,27.54,0,0,1,12.3,105.26Z"/><path class="cls-7" d="M-.45,119.72a40.82,40.82,0,0,1,5.55,1,47.42,47.42,0,0,1,8.8,3.5A30.94,30.94,0,0,1,21.69,130c1.12,1.15,2.17,2.44,3.19,3.69,2,2.4,4,4.89,6.57,6.44l.54.34-.63-.08c-5.07-.62-10.3-1.26-15.29-3.53h0c-.34-.15-.69-.32-1-.49a33.81,33.81,0,0,1-8.12-5.86,45.39,45.39,0,0,1-6.6-8,7.9,7.9,0,0,1-.93-2.56l0-.18Zm16.64,16.86c4.75,2.16,9.75,2.84,14.6,3.43a30.14,30.14,0,0,1-6.12-6.18c-1-1.24-2.07-2.53-3.18-3.67a30.81,30.81,0,0,0-7.72-5.7A47.87,47.87,0,0,0,5,121a40,40,0,0,0-5.31-1,7.33,7.33,0,0,0,.85,2.28,45.71,45.71,0,0,0,6.56,8,33.65,33.65,0,0,0,8.05,5.8c.34.17.68.34,1,.49Z"/><path class="cls-7" d="M10.51,147.19a7.78,7.78,0,0,1,1.12,2.24A44.39,44.39,0,0,1,13,158.89a31.59,31.59,0,0,1-1,9.05c-.09.34-.18.66-.28,1h0c-1.47,4.71-4.14,8.55-6.73,12.26l-.36.53.11-.63a26.58,26.58,0,0,0-.32-8.41c-.21-1.47-.43-3-.52-4.45a28.88,28.88,0,0,1,.85-8.78,44,44,0,0,1,2.91-8,37.22,37.22,0,0,1,2.62-4.26l.12-.16Zm.94,21.66h0c.1-.32.2-.65.28-1a31.39,31.39,0,0,0,1-9,43.71,43.71,0,0,0-1.33-9.4,7.05,7.05,0,0,0-1-2,35.21,35.21,0,0,0-2.48,4.06,43.12,43.12,0,0,0-2.89,8,28.61,28.61,0,0,0-.85,8.69c.09,1.46.31,3,.52,4.43a29,29,0,0,1,.42,7.9C7.58,177,10.07,173.31,11.45,168.85Z"/><path class="cls-7" d="M3.06,129.52l-.24.14c9.55,17.18,32.59,24.63,45.55,23.41l0-.28C35.46,154,12.56,146.61,3.06,129.52Z"/><path class="cls-7" d="M16.34,159l-.26.08c5.4,17,1.61,28.47-2.51,35.08l.23.15C18,187.68,21.77,176.14,16.34,159Z"/><path class="cls-7" d="M506,133.26a474.13,474.13,0,0,0-31.94-52.75c-23.38-33.18-41.22-47.73-41.4-47.87l-.39.48c.18.14,18,14.64,41.29,47.75a474.14,474.14,0,0,1,33.06,54.92Z"/><path class="cls-7" d="M434.81,35.11c-.54.13-2,.07-6.29-1a49.14,49.14,0,0,1-8.83-2.83c-3.84-1.92-6.31-4.35-7.36-7.22s-.34-6.58,2.51-8.22,6.81-.25,9.37,1.7a25.24,25.24,0,0,1,5.34,5.66c1,1.44,6.27,10.32,5.59,11.63C435.11,35,435.05,35.05,434.81,35.11ZM416.46,15.9a5,5,0,0,0-1.31.52c-2.57,1.48-3.16,5-2.24,7.48,1,2.72,3.36,5,7,6.88s13.43,4.06,14.65,3.77h0c.15-1-3.68-8.24-5.57-10.94a24.64,24.64,0,0,0-5.2-5.52C421.8,16.53,418.94,15.29,416.46,15.9Z"/><path class="cls-7" d="M429.76,54.47a12.57,12.57,0,0,1-8.15-.36c-2.68-1.18-5-4.31-4.19-7.5S422,41.54,425.14,41a25.52,25.52,0,0,1,7.79.08c1.74.27,11.8,2.62,12.29,4,.06.21.25.83-5.11,4.27a50.24,50.24,0,0,1-8.18,4.4h0C431.19,54.07,430.46,54.29,429.76,54.47ZM424.1,41.88c-2.68.66-5.42,2.21-6.09,4.88-.71,2.87,1.4,5.71,3.85,6.79,2.65,1.17,6,1.06,9.87-.32h0c3.83-1.35,12.27-6.87,12.87-7.94-.65-.84-8.5-3.06-11.76-3.56a24.61,24.61,0,0,0-7.6-.08A11.5,11.5,0,0,0,424.1,41.88Z"/><path class="cls-7" d="M445.12,45.51a.44.44,0,0,1-.21,0c-1.38-.56-3.24-10.71-3.43-12.45a25.16,25.16,0,0,1,.31-7.77c.65-3.16,2.56-6.79,5.95-7.43C451,17.22,454,19.66,455,22.4s.83,6.31-.8,10.27h0a49.55,49.55,0,0,1-4.81,7.93C446.52,44.67,445.52,45.41,445.12,45.51Zm2.5-27c-2.95.72-4.63,4-5.23,6.9a24.89,24.89,0,0,0-.3,7.58c.35,3.27,2.18,11.16,3,11.91,1.11-.57,7-8.71,8.58-12.45s1.84-7.12.8-9.82c-1-2.5-3.69-4.74-6.6-4.17Z"/><path class="cls-7" d="M446.65,75.24c-4,1-7.42.79-10.17-.58-2.92-1.46-5.3-5-4.26-8.54,1.1-3.68,5.32-5.39,8.89-5.78a28.12,28.12,0,0,1,8.67.51c2.46.5,13,3.61,13.46,5.12.06.23.23.91-5.92,4.44A54.84,54.84,0,0,1,448,74.88C447.53,75,447.09,75.14,446.65,75.24ZM439.19,61.3c-2.81.69-5.56,2.25-6.38,5-.95,3.19,1.25,6.48,3.94,7.82,2.9,1.45,6.62,1.51,11.05.19,4.27-1.29,14.2-7.11,14.83-8.21-.59-1-9.3-3.89-13-4.64a27.89,27.89,0,0,0-8.49-.5A16.17,16.17,0,0,0,439.19,61.3Z"/><path class="cls-7" d="M463.18,66.32a.33.33,0,0,1-.25,0c-1.44-.67-3-11.54-3.13-14.05a28.12,28.12,0,0,1,.76-8.64c.9-3.47,3.17-7.37,7-7.94,3.61-.52,6.83,2.36,7.85,5.45S476,48.19,474,52.52h0a55.11,55.11,0,0,1-5.79,8.58C464.79,65.39,463.63,66.21,463.18,66.32Zm3.95-29.93c-3.19.79-5.17,4.27-6,7.39a27.77,27.77,0,0,0-.74,8.45c.22,3.72,1.85,12.71,2.72,13.48,1.19-.47,8.39-9.42,10.28-13.45s2.44-7.86,1.42-10.94c-.94-2.85-3.88-5.51-7.17-5Z"/><path class="cls-7" d="M463.77,100.83h0c-5.33,1.29-9.75,1-13.14-1-3.23-1.85-5.74-6.1-4.32-10,1.48-4.12,6.4-5.82,10.52-6a32.44,32.44,0,0,1,9.9,1.12c2.48.66,14.67,5,15.08,6.69C482.07,93.15,468.16,99.75,463.77,100.83Zm-.18-.58.05,0c5.12-1.26,16.87-7.33,17.52-8.51-.53-1.13-10.4-5.07-14.63-6.19a31.82,31.82,0,0,0-9.71-1.1c-3.92.2-8.59,1.79-10,5.63-1.31,3.62,1,7.56,4,9.27,3.25,1.86,7.52,2.16,12.69.92Z"/><path class="cls-7" d="M492.7,79.19c-3.52,5-9.91,11.9-11,12.18-1-.8-2.29-11.32-2.3-15.69A31.56,31.56,0,0,1,480.78,66c1.06-3.33,3.35-7,6.73-8l-.15-.6c-3.62,1.06-6.05,4.88-7.17,8.38a32.38,32.38,0,0,0-1.41,9.85c0,2.56,1.09,15.43,2.68,16.26a.35.35,0,0,0,.27,0c1.67-.41,7.72-7.31,11.16-12Z"/><path class="cls-7" d="M482.57,132.34a30.4,30.4,0,0,1-3.09.62c-6.27.76-11.28-.2-14.9-2.85-3.45-2.54-5.74-7.72-3.61-12,2.24-4.51,8.09-5.8,12.81-5.5a37.31,37.31,0,0,1,11.19,2.6c2.75,1.08,16.14,7.61,16.37,9.63C501.46,126.34,489.39,130.66,482.57,132.34Zm-14.45-18.65c-2.8.69-5.33,2.14-6.6,4.69-2,4,.18,8.85,3.42,11.23,3.49,2.56,8.36,3.49,14.47,2.74s20.78-6.32,21.33-7.51c-.16-1.27-11.69-7.38-16-9.06a37,37,0,0,0-11-2.56A18.93,18.93,0,0,0,468.12,113.69Z"/><path class="cls-7" d="M503.53,123.26a6.84,6.84,0,0,1-2.18,1.34c-.84-.58-1.06-8.17-.88-13.82L500,108.7c-.25,5.23-.33,15.46,1.06,16.41a.55.55,0,0,0,.45,0,8.08,8.08,0,0,0,2.22-1.26Z"/><path class="cls-7" d="M515,169.82c-6.11,2.09-14.81,4.48-19.49,4.81-7.45.53-13.29-.89-17.36-4.21-3.79-3.09-6.12-9.12-3.45-13.86a11.17,11.17,0,0,1,7.41-5.1,22.29,22.29,0,0,1,7.74-.41A44.13,44.13,0,0,1,503,154.82a106.13,106.13,0,0,1,9.6,5.26l-.21-.84c-3.45-2.06-7.13-4.07-9.14-5a45,45,0,0,0-13.34-3.82c-5.67-.65-12.79.54-15.76,5.82-2.82,5-.39,11.38,3.6,14.64,4.2,3.42,10.18,4.88,17.79,4.34a56.12,56.12,0,0,0,8.4-1.57c3.71-.91,7.81-2.1,11.2-3.26Z"/><path class="cls-8" d="M261.31,32.24c.65-.55.07-1.25-.48-1.72a.77.77,0,0,1-.11-1.05,1.4,1.4,0,0,0,.13-1.7c-.5-.78-3.74.71-6.06,1.92a.31.31,0,0,1-.39-.47c1.41-1.87,3.16-4.39,3-5.22s-1.05-.68-1.73-.44a.76.76,0,0,1-1-.42,1.4,1.4,0,0,0-1.41-.95c-.93,0-1.23,3.6-1.32,6.22a.31.31,0,0,1-.6.11c-.93-2.15-2.26-4.92-3.06-5.19s-1.11.57-1.23,1.28a.76.76,0,0,1-.84.64,1.39,1.39,0,0,0-1.53.76c-.41.83,2.53,2.84,4.76,4.21a.32.32,0,0,1-.2.58c-2.33-.25-5.39-.46-6,.1s-.05,1.25.51,1.7a.77.77,0,0,1,.14,1,1.4,1.4,0,0,0-.09,1.71c.5.73,3.44-.67,5.7-1.89a.31.31,0,0,1,.39.47c-1.41,1.8-3,4.08-2.9,4.87s.86.73,1.5.54a1,1,0,0,1,1.24.53,1.36,1.36,0,0,0,1.33.83c.92,0,1.3-3.57,1.45-6.18a.32.32,0,0,1,.61-.1c.88,2.17,2.14,5,2.94,5.26s1-.37,1.2-1a1.1,1.1,0,0,1,1.11-.84,1.36,1.36,0,0,0,1.35-.74c.43-.82-2.47-2.9-4.66-4.32a.32.32,0,0,1,.21-.58C257.6,32.5,260.66,32.78,261.31,32.24Z"/><path class="cls-9" d="M252.38,33.34a1.78,1.78,0,0,1,0-3.56A1.78,1.78,0,0,1,252.38,33.34Z"/><path class="cls-10" d="M503.93,220.51l1.2-.18a299.56,299.56,0,0,0-18.06-48.52C471,138,453.9,119.05,453.73,118.87l-.9.81c.17.19,17.13,19,33.17,52.69A298.44,298.44,0,0,1,503.93,220.51Z"/><path class="cls-11" d="M422.57,97c3.34-4.3,7.74-4.47,11.16-3.68-.09-3.69,1-8.1,6-10.22,9.55-4,15.13,6.82,15.13,6.82l-17.7,8.32-11,15.34S416.22,105.2,422.57,97Z"/><path class="cls-12" d="M416.27,116.74a8.29,8.29,0,0,1,3.21-9.41,10.34,10.34,0,0,1,10.23-.47,11,11,0,0,1,15.74-12.92c-.3-.16.13-2.89.18-3.26a14.25,14.25,0,0,1,.85-3.34,8.82,8.82,0,0,1,4.71-5.08c4.61-1.87,9,.94,11.43,4.85,2.74,4.47,1.58,10.85.41,15.65-1.65,6.78-5,14.34-10.95,18.36-3.87,2.62-8.63,3.28-13.18,3.56a37.81,37.81,0,0,1-13.77-1.24C421.69,122.37,417.62,120.29,416.27,116.74Z"/><path class="cls-9" d="M462.52,104.7c-3.76,3.15-6.77,6.73-8.18,11.22,0,0-5.86-6-7.4-4.74s2.29,9,2.29,9a21.8,21.8,0,0,0-11.51,4.61,19.58,19.58,0,0,0,16.41-3.68C462.11,114.92,462.52,104.7,462.52,104.7Z"/><path class="cls-9" d="M445.7,135.53s18.31-8,23.58,6.17C467.59,148.64,448.64,142.93,445.7,135.53Z"/><path class="cls-9" d="M464.05,168.27s18.31-8,23.58,6.16C485.94,181.38,467,175.67,464.05,168.27Z"/><path class="cls-9" d="M481.85,208.88s19.33-5.12,22.34,9.73C501.44,225.2,483.6,216.64,481.85,208.88Z"/><path class="cls-9" d="M483.71,132.29s-15.92,12.08-6,23.57C484.57,157.76,488.77,138.44,483.71,132.29Z"/><path class="cls-9" d="M504.37,170.84s-17.17,10.24-8.63,22.76C502.39,196.25,508.71,177.52,504.37,170.84Z"/><path class="cls-9" d="M28.44,233.91a41.71,41.71,0,0,0,7,12.2,58.11,58.11,0,0,0,10.85,9.56c1.16.85,2.31,1.7,3.43,2.59s2.24,1.92,3.35,2.89a.56.56,0,0,0,.79-.79,40.16,40.16,0,0,0-5.74-4.74c-2-1.49-4.07-2.93-6-4.52a44.59,44.59,0,0,1-9.33-10.52,48.38,48.38,0,0,1-3.64-7c-.17-.39-.83-.11-.68.28Z"/><path class="cls-13" d="M54.9,259.35c6.67-7.87,20.19-4.28,23.05-1.54s-3.41,4.31-3.41,4.31,3.56,4.28,2.58,6.26c-1.65,3.33-7.81,2.07-7.81,2.07s4,3.81,1.86,6.61c-1.23,1.57-4.42,2.88-7-.39,0,0,4,8.08,1,8.48-4.13.56-13.93-10.58-13.08-18.17S54.9,259.35,54.9,259.35Z"/><path class="cls-14" d="M60.61,257.69c2.57-1.74,3-4.21-4.26-1.13s-5,12-3.44,14.66,2.41-5.92,2.41-5.92,1.7,4.47,3.84,2.49-.85-5.59-.85-5.59A5.43,5.43,0,0,0,63,260.87C65.17,258.88,60.61,257.69,60.61,257.69Z"/><path class="cls-14" d="M30.61,239.3c2.26,1.07,7.08,5.29,8.28,14.52a26.59,26.59,0,0,1-2.33,15.43S30,262,28.77,252.76,30.61,239.3,30.61,239.3Z"/><path class="cls-9" d="M73.19,261.67a29.75,29.75,0,0,0-3.89-1.23c-.66-.16-1.33-.29-2-.4a12.14,12.14,0,0,0-1.91-.22c-.09,0-.12.15,0,.17.66.14,1.35.18,2,.3s1.28.27,1.92.42a28.8,28.8,0,0,1,3.82,1.23c.16.06.23-.2.07-.27Z"/><path class="cls-9" d="M75.38,267.08A30.38,30.38,0,0,0,60.46,262c-.17,0-.17.24,0,.26a36.14,36.14,0,0,1,7.7,1.62,31.3,31.3,0,0,1,7.07,3.45.15.15,0,0,0,.15-.25Z"/><path class="cls-9" d="M65.94,265.79a10.36,10.36,0,0,1-3.39-1.09.14.14,0,0,0-.14.24,9.15,9.15,0,0,0,3.53,1.13c.18,0,.17-.26,0-.28Z"/><path class="cls-9" d="M60.29,271.57c-.38-.4-.76-.8-1.15-1.19l-.57-.58a6.79,6.79,0,0,0-.6-.6.14.14,0,0,0-.2.19,8.22,8.22,0,0,0,.57.61c.2.19.39.39.58.59l1.17,1.18a.14.14,0,0,0,.2-.2Z"/><path class="cls-9" d="M55.76,271.45a47,47,0,0,0,3.59,6.13c.62.9,1.28,1.78,2,2.64A18,18,0,0,0,63.73,283c.07.06.19,0,.13-.1-.62-.89-1.43-1.66-2.11-2.5s-1.53-2-2.23-3a49.55,49.55,0,0,1-3.56-6c-.07-.13-.27,0-.2.12Z"/><path class="cls-9" d="M75.68,258.64a25.52,25.52,0,0,0-12.1-1.1c-.13,0-.1.24,0,.23a39.65,39.65,0,0,1,6-.09,28.89,28.89,0,0,1,6,1.2c.15.05.22-.19.07-.24Z"/><path class="cls-9" d="M68.44,269.68l-2.09-1.16c-.7-.39-1.39-.8-2.12-1.12a.09.09,0,0,0-.09.16,23.62,23.62,0,0,0,2.06,1.21l2.1,1.16a.14.14,0,0,0,.14-.25Z"/><path class="cls-9" d="M64.06,272.05l3.1,2.49c.69.55,1.64,1.53,2.58,1,0,0,0-.06,0-.05a1.64,1.64,0,0,1-1.49-.34c-.48-.32-.92-.7-1.37-1.06L64.15,272c-.06-.05-.16,0-.09.1Z"/><path class="cls-15" d="M32,243.66c.48,3.05,1.06,6.09,1.66,9.12s1.12,6.1,1.91,9.08c0,.07.12,0,.11,0-.43-3.06-1.16-6.09-1.72-9.13s-1.1-6.09-1.57-9.15c0-.25-.43-.15-.39.11Z"/><path class="cls-15" d="M58.46,258.63a4.55,4.55,0,0,0-2.1.28.26.26,0,1,0,.14.51,5.23,5.23,0,0,1,1-.22,4.87,4.87,0,0,1,1,0,.29.29,0,0,0,.28-.28.3.3,0,0,0-.28-.29Z"/><path class="cls-15" d="M55.87,261.51a2,2,0,0,1-.35,0c.08,0,0,0,0,0l-.08,0-.16,0-.07,0s-.11,0,0,0l-.09,0h0l-.08,0-.3-.17a.25.25,0,0,0-.31.4,2,2,0,0,0,1.5.53.28.28,0,0,0,.29-.28.3.3,0,0,0-.29-.29Z"/><path class="cls-15" d="M53,264.91l-.05.6a2.64,2.64,0,0,0,0,.29.67.67,0,0,0,0,.2.28.28,0,0,0,.25.21.29.29,0,0,0,.24-.16,1,1,0,0,0,0-.25c0-.1,0-.2,0-.29l0-.6a.27.27,0,1,0-.54,0Z"/><path class="cls-16" d="M95.72,27.28C93.84,30,91.14,36.23,95.21,41s5.83-.8,6.86-1.73,1.34,9.44,6.79,8c4.84-1.25,1.07-5.91,3-5.52s5.24,4,7.5.56-4.16-6.33-3-7.41,2.83-2.19,2-4.29c-2.46-6.24-10.47-.86-10.12-2.54s3.86-3.71,1.83-6.23C107.12,18.13,99.41,22,95.72,27.28Z"/><path class="cls-17" d="M91.24,24.76c4.68,3.88,4.06,2.85,9.38,5.78"/><path class="cls-2" d="M91.09,24.91a27.81,27.81,0,0,0,4.48,3.3c.62.35,1.27.65,1.91,1l1.3.66a14.91,14.91,0,0,0,1.78.91c.2.07.39-.23.21-.37a10.62,10.62,0,0,0-1.68-.94q-.68-.36-1.35-.69c-.63-.3-1.25-.6-1.87-.92a30.06,30.06,0,0,1-4.48-3.22c-.21-.17-.51.12-.3.3Z"/><path class="cls-17" d="M98.28,29.44a118.12,118.12,0,0,0,15.79,10"/><path class="cls-2" d="M98.16,29.64A115.9,115.9,0,0,0,113.92,39.7c.33.18.63-.33.3-.5a124.77,124.77,0,0,1-15.82-10c-.25-.18-.47.22-.24.4Z"/><path class="cls-17" d="M108,42.51a17.1,17.1,0,0,0-1.27-6"/><path class="cls-2" d="M108.19,42.51A16.47,16.47,0,0,0,107,36.39c-.14-.33-.68-.19-.54.15a17.74,17.74,0,0,1,1.29,6,.25.25,0,0,0,.49,0Z"/><path class="cls-17" d="M98.13,36.19a7.89,7.89,0,0,1,2.19-4.76"/><path class="cls-2" d="M98.43,36.19a7.66,7.66,0,0,1,.7-2.48,8.14,8.14,0,0,1,.65-1.1,6.51,6.51,0,0,0,.77-1,.28.28,0,0,0-.37-.38,2.71,2.71,0,0,0-.94,1,7.64,7.64,0,0,0-.71,1.24,8.4,8.4,0,0,0-.71,2.74c0,.39.57.39.61,0Z"/><path class="cls-17" d="M107.26,34.25l6.37-2.33"/><path class="cls-2" d="M107.34,34.55l3.38-1.18,1.65-.6c.45-.16,1.19-.31,1.46-.73a.23.23,0,0,0-.14-.34c-.48-.15-1.12.22-1.57.39l-1.65.61c-1.1.41-2.2.84-3.29,1.26-.37.13-.22.72.16.59Z"/><path class="cls-17" d="M100.33,29.8l4.44-5"/><path class="cls-2" d="M100.55,30l2.28-2.5,1.09-1.23a7.54,7.54,0,0,0,1-1.35c.1-.19-.12-.46-.32-.32a7.12,7.12,0,0,0-1.18,1.15L102.34,27l-2.23,2.55c-.26.3.17.74.44.44Z"/><path class="cls-18" d="M379.08,23a42.52,42.52,0,0,0-4.34,3.58,99.29,99.29,0,0,0-7.69,8.33L366.13,36a.37.37,0,0,0,.23.59,19,19,0,0,0,5.21-.54,19.89,19.89,0,0,0,2.51-.82c.31-.13.63-.27.94-.42a29.78,29.78,0,0,0,2.81-1.28A28.68,28.68,0,0,0,386.24,27c1.14-1.31,2.33-2.93,1.86-4.77s-2.36-2.36-4-2a9.93,9.93,0,0,0-2.69,1.23C380.63,21.94,379.84,22.46,379.08,23Zm8.07-1.23-1.6,1.48q-.9.83-1.83,1.62-1.87,1.61-3.85,3.1a80,80,0,0,1-8.17,5.45l-1.28.74.76-.55c1.3-1,2.53-2,3.75-3.07s2.43-2.16,3.67-3.21,2.47-2,3.79-2.94c.66-.45,1.34-.88,2-1.27s1.41-.74,2.14-1.07l.54-.26s0,0,0,0Zm-11.68,9.6a82.55,82.55,0,0,0,7.92-6q1-.9,2.07-1.83c.6-.54,1.2-1.09,1.76-1.67a2.59,2.59,0,0,1,.14.29,18,18,0,0,1-6,6.56,52.13,52.13,0,0,1-8.94,5.13q-1.74.78-3.54,1.44C371.16,34.11,373.35,32.78,375.47,31.37ZM386.15,26a27.5,27.5,0,0,1-7.77,6.47c-.66.38-1.35.73-2,1a.25.25,0,0,0-.24,0c-.77.34-1.52.73-2.3,1l0,0a31.78,31.78,0,0,1-4.41,1.16c-.34.05-.68.08-1,.11A55.86,55.86,0,0,0,376.8,32a50.8,50.8,0,0,0,4.38-2.73,26.35,26.35,0,0,0,3.56-2.94,14.92,14.92,0,0,0,2.73-3.68,3.24,3.24,0,0,1-.06,1.16A5.75,5.75,0,0,1,386.15,26Zm.91-4.34h0a11.2,11.2,0,0,0-2.19,1c-.7.37-1.39.77-2.05,1.2A41.22,41.22,0,0,0,379,26.67c-1.25,1-2.46,2.12-3.69,3.18S372.84,32,371.55,33a30.57,30.57,0,0,1-3.69,2.49c2.08-2.08,4.21-4.09,6.43-6,1.24-1.09,2.51-2.15,3.79-3.19s2.58-2.08,3.92-3a10.8,10.8,0,0,1,4.44-2.08,2.37,2.37,0,0,1,.48.37A2.09,2.09,0,0,1,387.06,21.65Zm-.92-.68a9.86,9.86,0,0,0-3.67,1.6c-1.39.92-2.7,2-4,3-2.62,2.07-5.15,4.26-7.6,6.54-.93.87-1.85,1.76-2.75,2.66,1.84-2.17,3.72-4.33,5.73-6.35a40.79,40.79,0,0,1,8.41-6.62C383.34,21.18,384.9,20.49,386.14,21Z"/><path class="cls-18" d="M113.74,263.42c-.54-.25-1.07-.52-1.6-.8a.44.44,0,0,0-.63.33.17.17,0,0,0-.05.26,71.59,71.59,0,0,0,10.38,11.48,28.86,28.86,0,0,0,11.67,6.23,21.1,21.1,0,0,0,3.26.53,5.29,5.29,0,0,0,3-.48,2.15,2.15,0,0,0,1.13-2.38,7.25,7.25,0,0,0-1.63-2.76c-3-3.73-7.44-6-11.86-7.61S118.13,265.45,113.74,263.42Zm1.72,3-.17-.19c.46.37.92.73,1.39,1.08a52.15,52.15,0,0,0,5.36,3.59,54.77,54.77,0,0,0,11.84,5.12c1.14.34,2.28.66,3.38,1.11a11,11,0,0,1,2.73,1.66c-.94-.14-1.88-.28-2.81-.47s-2-.45-3.05-.74a42,42,0,0,1-11.42-5.18,40.77,40.77,0,0,1-5-3.81C117,267.93,116.19,267.21,115.46,266.46Zm22.28,14.26a13.29,13.29,0,0,1-3.07-.32,27.23,27.23,0,0,1-11.44-5.5,49.1,49.1,0,0,1-5.35-4.95c-1.71-1.8-3.3-3.72-4.94-5.58l-.41-.46c.48.45,1,.88,1.47,1.3l.77.85q1.07,1.17,2.22,2.25a40.64,40.64,0,0,0,4.94,3.94,41.57,41.57,0,0,0,11.38,5.5,40.86,40.86,0,0,0,6.18,1.38l.69.08a1.05,1.05,0,0,1-.08.35C139.76,280.45,138.57,280.68,137.74,280.72Zm2-3a13.85,13.85,0,0,0-4.48-2c-2.06-.61-4.1-1.24-6.1-2a57,57,0,0,1-11.44-6.13c-1-.69-2-1.41-2.89-2.17l-.54-.44,1.31.65c.9.43,1.81.84,2.72,1.22,1.84.77,3.71,1.46,5.57,2.16a67,67,0,0,1,11.05,4.92,30.94,30.94,0,0,1,2.79,1.88c.56.42,1.09.88,1.61,1.34C139.43,277.3,139.57,277.5,139.7,277.7Zm-1.22-1.63-.26-.21a26.72,26.72,0,0,0-2.47-1.79,41,41,0,0,0-5.35-2.86c-3.68-1.67-7.53-2.92-11.27-4.43-1-.42-2.06-.86-3.07-1.33-.52-.24-1-.49-1.54-.75-.25-.13-.51-.26-.75-.4l-.16-.08a112.49,112.49,0,0,0,11.08,3.86c4.34,1.42,8.76,3.18,12.17,6.3A17.22,17.22,0,0,1,138.48,276.07Z"/><path class="cls-5" d="M346,280.83A63.92,63.92,0,0,1,364,289.19,76.22,76.22,0,0,1,378,301.91c1.24,1.39,2.45,2.82,3.63,4.27l1.89,2.33a19.19,19.19,0,0,0,2,2.33.24.24,0,0,0,.38-.29,16.13,16.13,0,0,0-1.59-2.26c-.51-.67-1-1.33-1.56-2-1.09-1.34-2.2-2.67-3.33-4a97.54,97.54,0,0,0-6.81-7.13,64.21,64.21,0,0,0-15.55-10.91,68.8,68.8,0,0,0-10.84-4.19.38.38,0,0,0-.2.73Z"/><path class="cls-19" d="M342.43,278.91s-3.08-5.34,0-4.4,5.08,3.55,4.39,5.83-3.78,3.36-6.89,2.42S342.43,278.91,342.43,278.91Z"/><path class="cls-5" d="M364.13,254.7c-1.36,6.88-.25,13.89,1.79,20.53,1.05,3.39,2.32,6.71,3.68,10,1.26,3.07,2.55,6.14,4,9.13a36.23,36.23,0,0,0,6,9.3c.18.19.52-.06.36-.27a66.3,66.3,0,0,1-5.16-8.19c-1.52-2.95-2.82-6-4.1-9.06-2.65-6.31-5.15-12.8-6.14-19.61a36,36,0,0,1,.1-11.68c.06-.33-.45-.48-.52-.14Z"/><path class="cls-5" d="M372.25,280a36.5,36.5,0,0,0,1.24,9.65,37.84,37.84,0,0,0,1.58,4.64c.29.71.6,1.41.94,2.1a5.61,5.61,0,0,0,1.2,2.05c.1.08.31,0,.29-.11a6.36,6.36,0,0,0-.86-1.92c-.37-.74-.72-1.5-1-2.27a38.3,38.3,0,0,1-1.56-4.52A41.15,41.15,0,0,1,372.6,280a.18.18,0,0,0-.35,0Z"/><path class="cls-19" d="M365,250.37s4.3-4.43,4.25-1.18-2,5.86-4.4,5.82-4.27-2.7-4.22-5.95S365,250.37,365,250.37Z"/><path class="cls-5" d="M357.72,277.87q5.73,6.54,11.19,13.31c3.66,4.52,7.15,9.16,10.67,13.78,1,1.3,2.09,2.49,3.06,3.8.47.63.94,1.27,1.4,1.91l.75,1.06c.09.13.18.25.26.38a2.26,2.26,0,0,1,.16.26c-.15,1-.35,1.16-.62.54a0,0,0,0,0,0,0c-.13.43.53.49.73.2s-.22-1-.42-1.29l-1.42-2c-1-1.39-1.89-2.8-2.78-4.24s-1.91-2.71-2.9-4q-5.93-7.87-12.27-15.43c-2.44-2.89-4.95-5.72-7.49-8.53-.19-.21-.49.1-.31.32Z"/><path class="cls-20" d="M356.36,275.59s.56-6.15,2.56-3.59,2.1,5.83.23,7.29-5,.58-7-2S356.36,275.59,356.36,275.59Z"/><path class="cls-5" d="M378.44,264.8a30.32,30.32,0,0,0-2.87,8.17,31.36,31.36,0,0,0-.42,7.68,58.83,58.83,0,0,0,1,7.34c.48,2.52.92,5.09,1.51,7.59a33.87,33.87,0,0,1,1.2,9.18h0c0-2.67-.32-5.32-.54-8a63.83,63.83,0,0,0-1.24-7.25c-1-4.92-1.79-9.94-1.17-15a30.72,30.72,0,0,1,2.89-9.54c.12-.25-.25-.48-.38-.22Z"/><path class="cls-20" d="M379,262.33s4.68-4,4.34-.79-2.55,5.64-4.92,5.39-4-3.08-3.66-6.32S379,262.33,379,262.33Z"/><path class="cls-19" d="M372.76,276.93s3.93-4.75,4.14-1.51-1.56,6-3.94,6.15-4.46-2.36-4.67-5.61S372.76,276.93,372.76,276.93Z"/><path class="cls-2" d="M472.44,302.42c-36.9-39.86-65.85-51.77-66.23-51.92l-.33.83c.37.15,29.12,12,65.83,51.61Z"/><path class="cls-21" d="M398.72,252.07a7.94,7.94,0,0,1-5.2-2.68,3.83,3.83,0,0,1,0-4.76c1.29-1.39,3.53-1.27,5.3-.62a14.61,14.61,0,0,1,3.88,2.2c1.24,1,5.14,4.68,5,5.32C407.6,252,401.11,252.46,398.72,252.07Z"/><path class="cls-21" d="M409.23,262.47a7.91,7.91,0,0,1-5.54,1.9,3.82,3.82,0,0,1-3.46-3.27c-.11-1.88,1.54-3.41,3.23-4.24a14.59,14.59,0,0,1,4.28-1.28c1.56-.23,6.95-.47,7.34,0S411.17,261,409.23,262.47Z"/><path class="cls-21" d="M417.91,247.05a8,8,0,0,0-1.28-5.71,3.82,3.82,0,0,0-4.6-1.23c-1.66.89-2.12,3.09-1.94,5a14.33,14.33,0,0,0,1.15,4.31c.62,1.44,3.23,6.16,3.88,6.21C415.59,255.62,417.69,249.46,417.91,247.05Z"/><path class="cls-21" d="M421.75,271.41a8.89,8.89,0,0,1-6.29,1.82,4.28,4.28,0,0,1-3.68-3.84c0-2.1,1.9-3.73,3.84-4.56a16.13,16.13,0,0,1,4.84-1.19c1.75-.17,7.77-.15,8.18.45S424,269.9,421.75,271.41Z"/><path class="cls-21" d="M432.26,254.67a8.88,8.88,0,0,0-1.12-6.44,4.28,4.28,0,0,0-5.07-1.62c-1.9.91-2.52,3.34-2.42,5.44a15.67,15.67,0,0,0,1.05,4.87c.61,1.64,3.27,7,4,7.14C429.21,264.11,431.88,257.34,432.26,254.67Z"/><path class="cls-21" d="M434.94,283.1c-2.67,1.59-5.17,2.17-7.33,1.7s-4.07-2.43-4-4.64c.11-2.41,2.41-4.16,4.68-5a18.71,18.71,0,0,1,5.64-1.06c2-.09,8.92.32,9.34,1C443.59,275.67,437.61,281.52,434.94,283.1Z"/><path class="cls-21" d="M448.05,264.56c.6-3,.31-5.59-.87-7.46s-3.66-3-5.71-2.17c-2.24.92-3.11,3.66-3.13,6.08a18.65,18.65,0,0,0,.9,5.65c.6,1.93,3.31,8.29,4.13,8.45C444,275.2,447.45,267.61,448.05,264.56Z"/><path class="cls-21" d="M449.2,298.21c-3.28,1.47-6.22,1.81-8.63,1s-4.35-3.32-3.94-5.84c.45-2.76,3.32-4.45,6-5.1a21.25,21.25,0,0,1,6.6-.47c2.32.17,10.19,1.55,10.58,2.43C460.1,290.84,452.47,296.75,449.2,298.21Z"/><path class="cls-21" d="M466.69,278.69c1.09-3.41,1.09-6.37,0-8.67s-3.8-3.95-6.26-3.25c-2.69.75-4,3.79-4.39,6.56a21.5,21.5,0,0,0,.28,6.6c.43,2.29,2.69,9.95,3.6,10.23C460.58,290.34,465.6,282.1,466.69,278.69Z"/><path class="cls-21" d="M489,290.53a10.74,10.74,0,0,0-.75-4.6c-1.2-2.85-4.34-5-7.36-4.32-3.3.75-5.12,4.34-5.71,7.66a25.86,25.86,0,0,0-.08,8c.09.66.29,1.69.55,2.87Z"/><path class="cls-9" d="M405.61,169.51l.07-.06,11.56,8.92a24.22,24.22,0,0,1-11-1.79c-.35-.15-.9-.22-1,.16s.16.46.36.61c2.84,2.06,6.52,2.63,10,2.49a10.63,10.63,0,0,1,3.19.14,9,9,0,0,1,2.31,1.13l8.83,5.44a70.67,70.67,0,0,1-15.58.89c-.28.54.52,1,1.12,1.08a36.84,36.84,0,0,0,12.78-.41,8.74,8.74,0,0,1,3.36-.31,7.71,7.71,0,0,1,2.59,1.19l7.18,4.43a70,70,0,0,1-17.8,1.36c-.31.51.46,1,1.05,1.08a35.77,35.77,0,0,0,14.53-.65,8.46,8.46,0,0,1,3.1-.43,7.64,7.64,0,0,1,2.46,1c5.5,2.94,11.05,5.86,16.3,9.23a108.27,108.27,0,0,1,14.29,11.62,12.79,12.79,0,0,1,2.11,2.35,6.47,6.47,0,0,0,1,.79,56.93,56.93,0,0,0-10.13-4.65c-3.14-1.05-6.38-1.63-9.59-2.38a7.1,7.1,0,0,1-4.13-2.67c-1.3-1.63-2.58-3.27-3.94-4.85a2.41,2.41,0,0,0-1.15-1,.47.47,0,0,0-.5.17,1.38,1.38,0,0,0,.4,1.07c.72,1,1.41,2.08,2.21,3a21.85,21.85,0,0,0,2.88,3.28c-1.67-.24-3.5-.63-5.34-1a4,4,0,0,1-2.38-1.37c-1.46-1.71-2.65-3.61-4-5.37a13.77,13.77,0,0,0-3.57-3.69c-.33,0-.62,0-.73.38a47.55,47.55,0,0,1,3.95,5.1,36.59,36.59,0,0,0,3.28,4.46,11.11,11.11,0,0,0-2.52-.37c-5.05-.55-5.05-.56-8.55-4.22-.48-.5-.85-1.14-1.58-1.36a.36.36,0,0,0-.4.28,2,2,0,0,0,.63,1.24,30.24,30.24,0,0,0,2.87,3.2c-1.62-.06-3.12-.34-4.65-.38a7.56,7.56,0,0,1-4.33-1.62c-1.18-.85-2.3-1.78-3.4-2.72a14.12,14.12,0,0,0-2.82-2.11c-.6-.17-1.08-.91-1.81-.36a1.59,1.59,0,0,0,.78,1,36.45,36.45,0,0,1,3.1,2.73,19,19,0,0,0,3.15,2.47l.21.1-.15-.05c-3.29-.51-6.63-.76-9.93-1.33a1.21,1.21,0,0,0-.91.11c-.15.37.12.55.36.73,2.59,1,5.36,1,8.1,1.46-3.1,1.44-6.05,3.09-9.38,3.81-.29.07-.7.14-.62.56s.43.32.69.33a9.76,9.76,0,0,0,4.58-.9c1.59-.69,3.06-1.6,4.61-2.38a6.59,6.59,0,0,1,3.47-1c1.95.16,3.89.4,6,.64a50.49,50.49,0,0,0-6.88,4.7,29.92,29.92,0,0,1-6.21,3.81c-.35.16-.76.24-.94.65a.42.42,0,0,0,.18.45,1.88,1.88,0,0,0,1.26-.11,13,13,0,0,0,4-1.94c2.65-1.76,5.07-3.82,7.69-5.62a7.06,7.06,0,0,1,5.6-1.46c2.22.44,4.51.56,6.77.81.22.05.48-.12.66.13-.16-.17-.35-.08-.53-.06a20.55,20.55,0,0,0-6.74,3.3c-2.63,1.72-4.94,3.88-7.7,5.43a1,1,0,0,0-.6.68.46.46,0,0,0,.2.46,5.11,5.11,0,0,0,2.95-1.31,96.55,96.55,0,0,1,9.73-6.4,10.83,10.83,0,0,1,8.07-1.12,16.18,16.18,0,0,0,3.18.76,12.87,12.87,0,0,0-4.35,1.58c-2.07,1.19-4.23,2.27-5.78,4.17a.53.53,0,0,0,.16.65c.59.17,1-.25,1.36-.54,1.37-1,2.79-1.9,4.25-2.75a14,14,0,0,1,8-2.09,48.23,48.23,0,0,1,9,1.64,52.07,52.07,0,0,1,7.32,2.85,33.7,33.7,0,0,1,8.57,5.07,12.32,12.32,0,0,1,.88.89c.12.19.38.25.46.47a18.25,18.25,0,0,1,1.94,2.51c.93,1.35,2,2.64,2.86,4a75.45,75.45,0,0,1,6.38,13.36c1.62,4.11,3.15,8.27,4.45,12.49.5,1.65,1,3.35,1.38,5.05.34,1.53.52,3.13.81,4.68s.89,3.19,1.31,4.79q.74,2.8,1.33,5.64c.64,3,1.2,6.09,1.86,9.12.91,4.11,1.59,8.26,2.53,12.36,1.57,6.82,2.82,13.7,4.24,20.55.48,2.34.94,4.7,1.58,7l3,1.57c1.06.55,1.11,0,1-1-.44-3.14-1.12-6.25-1.85-9.34-.66-2.87-1.42-5.72-2-8.6q-1.6-7.73-3.05-15.49c-.41-2.22-1.23-4.26-.94-6.56-.08,0-.11.15-.16.24s-.17.14-.23.07a.41.41,0,0,1,0-.08,8.11,8.11,0,0,1-.34-2.71c.11-1.08.28-2.16.49-3.23a60.05,60.05,0,0,1,1.65-6.33c1.22-3.92,2.69-7.75,3.89-11.68a11.33,11.33,0,0,1,2-4.41,9,9,0,0,1,4.12-2.33c5.5-1.77,11.49-1.88,16.79-4.19a3.74,3.74,0,0,0,1.88-1.42,47.46,47.46,0,0,1-8.06,2.55c-5,1.11-10.32,1.47-14.63,4.21l1.78-5.1c-.38,0-.62.4-.76.75l-2.75,6.67a149.51,149.51,0,0,1-3.6-19.58,3.39,3.39,0,0,0-.36,1.81,37.46,37.46,0,0,0,.12,4.37c.5,4.81,2.81,9.38,2.73,14.21-.08,4-1.81,7.79-3.24,11.49a33.77,33.77,0,0,0-1.53,4.79c-.38,1.73-.78,3.44-1.22,5.15a8.24,8.24,0,0,0-.26-1.44c-.07-.52-.13-1.05-.2-1.57-.15-1.06-.43-2.07-.66-3.11s-.49-2.35-.65-3.54c-.66-5.17-2.16-10.14-3.46-15.15-1-4-2.86-7.64-4.27-11.47a32.9,32.9,0,0,1-2-5.84,29.22,29.22,0,0,1-.3-6.13c.08-2,.31-4.08.54-6.11a9.34,9.34,0,0,1,.63-2.87,9.19,9.19,0,0,1,2.82-3.17,73,73,0,0,0,7.51-6.54,18.93,18.93,0,0,0,4.91-8.53c0-.22.07-.5-.12-.63s-.58.14-.73.41a49.85,49.85,0,0,1-4.05,6.75c-3,3.74-7.6,5.92-10.65,9.62.78-3.41-.93-7.13.31-10.39a11.17,11.17,0,0,1,3.32-4.14,74.25,74.25,0,0,0,7.17-6.55,14.37,14.37,0,0,0,3.94-8.67c-.92.1-1.29,1.2-1.56,2.09-1,3.4-3.56,6.13-6.2,8.51s-5.52,4.55-7.63,7.41c0-4.22-2.78-8.41-1.53-12.45a13.45,13.45,0,0,1,3.31-4.86c3.19-3.49,6.46-7.27,7.32-11.91a.67.67,0,0,0-.1-.59c-.3-.27-.71.17-.87.53-2.51,5.68-6.69,10.41-10.82,15-.3-3.53-2.45-6.87-1.94-10.37.33-2.21,1.67-4.11,2.79-6.05s2.07-4.18,1.52-6.34q-2.76,5.69-5.67,11.31-2-5.13-4-10.25a.89.89,0,0,0-.19-.31c-.26-.25-.74,0-.86.32a1.66,1.66,0,0,0,.12,1.07q1.88,5.43,4,10.75a56.64,56.64,0,0,1-9.62-7,.83.83,0,0,0-.61-.31c-.5.06-.41.82-.15,1.24,1.47,2.37,3.93,3.91,6.36,5.26a14.56,14.56,0,0,1,4,2.78c2.55,2.88,2.18,7.24,3.39,10.89-5.7-2.55-11.67-5.32-15.25-10.43-.26-.37-.9-.73-1.06-.31a.65.65,0,0,0,0,.39c.95,3,3.41,5.26,6.09,6.86s5.65,2.69,8.41,4.18a5.1,5.1,0,0,1,1.81,1.4,5.68,5.68,0,0,1,.78,2.28c.57,3.11,1.15,6.21,1.72,9.32-2.08-2.36-4.81-4-7.3-5.93a41.73,41.73,0,0,1-8.31-8.58c-.28-.37-.75-.8-1.14-.54s-.19.8,0,1.18c2.67,4.8,7,8.44,11.6,11.47,1.87,1.24,3.9,2.5,4.88,4.53,1.36,2.82.29,6.18.71,9.28-1.92-3.55-5.16-6.17-8.31-8.69l-5.7-4.54c-.38.28-.11.89.2,1.26a37.43,37.43,0,0,0,5.28,5.25c2.56,2.08,5.52,3.95,7,6.92a11.57,11.57,0,0,1,1,5.38,24.34,24.34,0,0,1-.22,2.82,9.14,9.14,0,0,0-.25,2.54c.1.62.07,1.27.15,1.89a3.39,3.39,0,0,0-.41-.65,34.73,34.73,0,0,1-2.26-4c-.79-1.42-1.63-2.81-2.55-4.14a93.53,93.53,0,0,0-10.31-12.84,86,86,0,0,0-10.37-9.27c-3.7-2.69-8.14-4.6-12.23-6.67-3.61-1.82-7.35-3.44-10.77-5.58a13.38,13.38,0,0,1-3.08-2.42,15.22,15.22,0,0,1-2.24-3.9l-4.23-9.43c-.27-.6-.9-1.31-1.43-.93q2.19,6.57,4.87,12.95c-2.86-2.44-7.12-3.15-9.29-6.21a14.32,14.32,0,0,1-1.65-3.75,92.22,92.22,0,0,0-5.44-12.74c-.32-.62-.91-1.34-1.55-1.08l6.66,17.13c-3.53-1.83-7.23-3.79-9.43-7.11-1.49-2.26-2.16-4.94-3.16-7.46a29.88,29.88,0,0,0-2.78-5.39c-.33-.5-.88-1.06-1.44-.83l5.31,13.4c-3.36-2.61-6.77-5.16-10.18-7.7a5.34,5.34,0,0,0-2.67-1.17c-.3,0-.13.34-.37.53A5.08,5.08,0,0,1,405.61,169.51Z"/><path class="cls-22" d="M496.17,238.85a.16.16,0,0,0,0-.09A.11.11,0,0,1,496.17,238.85Z"/><path class="cls-23" d="M497.23,238.23a2,2,0,0,1-.21-.74,29.7,29.7,0,0,1,.15-5.25,38,38,0,0,0,.36-4.1,6.49,6.49,0,0,1,2-4.73,33.57,33.57,0,0,1,3.54-3.1c1.17-.93,2.37-1.82,3.5-2.79a21.75,21.75,0,0,0,6.24-8.7,4.34,4.34,0,0,0,.67-2.41c-.8,1.51-1.47,2.88-2.23,4.18a23.7,23.7,0,0,1-5.08,6.28c-1.23,1-2.52,2-3.79,3a20,20,0,0,0-4,3.77.45.45,0,0,1-.43.21c0-1.63.09-3.28,0-4.92a24.08,24.08,0,0,0-.23-3.4,5,5,0,0,1,1.32-4.22,36.49,36.49,0,0,1,4.73-4.57,64.12,64.12,0,0,0,5.51-5.3,16.07,16.07,0,0,0,3.5-7.71,1.42,1.42,0,0,1-.06-.85c.05.47-.45.83-.48,1.36-.39,1.07-.72,2.16-1.17,3.2a17.6,17.6,0,0,1-4,5.45c-1.57,1.54-3.22,3-4.89,4.42a20.35,20.35,0,0,0-4.72,5.23c-.36-1.81-.68-3.41-1-5-.42-2.2-.8-4.4-1.22-6.6a3.14,3.14,0,0,1,.56-2.54c2.14-3.06,4.68-5.79,7-8.68a18.1,18.1,0,0,0,3.49-7,4,4,0,0,0,.1-.69c0-.06-.08-.12-.13-.19-.31,0-.36.26-.41.46-1,3.5-3.08,6.31-5.43,9-1.6,1.82-3.13,3.71-4.67,5.59a15.17,15.17,0,0,0-.89,1.38,15.76,15.76,0,0,1-.71-2.64c-.52-1.89-.9-3.83-1.49-5.7a6.36,6.36,0,0,1,.42-4.79c.73-1.52,1.53-3,2.38-4.48a17.29,17.29,0,0,0,2-5.75c-.33-.22-.33-.22-.43.31-1.12,4.09-3.88,7.42-5.38,11.66-1.28-4.1-3.62-7.54-4.26-11.74-.41.2-.44.53-.56.78-.25,0-.4-.67-.76-.1a1.06,1.06,0,0,1-1.59.45c-.49-.28-.82,0-1.06.41a3.57,3.57,0,0,1-1.62,1.3,3.31,3.31,0,0,0-2,2.15c-.15.63-.62.77-1.13.85-.71.1-.94.41-.71,1.13.34,1.06-.56,1.73-.94,2.55a1.69,1.69,0,0,0-.3,1.06c.12.78-.3,1.17-1.1,1.11.63-4.75,2.42-8.76,7.08-10.88a6.4,6.4,0,0,1,1.8-.57,14.79,14.79,0,0,0,4.66-1.59,15.67,15.67,0,0,1,5.2-1.79,11.78,11.78,0,0,1,10,3.21,33.16,33.16,0,0,1,8.67,13.27,30.37,30.37,0,0,1,1.81,8.5c.13,2.23.32,4.46.44,6.69a20.8,20.8,0,0,1-6.27,16.18c-1.48,1.52-3.13,2.87-4.64,4.35a20.75,20.75,0,0,0-6.42,11.38c-.12.71-.2,1.44-.26,2.15a3.11,3.11,0,0,0,0,.61c.07.43-.22.2-.35,0A.08.08,0,0,1,497.23,238.23Z"/><path class="cls-24" d="M432.74,204.56a23.56,23.56,0,0,0,4.18,4.73.34.34,0,0,1-.4.19c-1.91-.2-3.81-.47-5.73-.57a6.91,6.91,0,0,1-3.91-1.69c-1.62-1.24-3.17-2.55-4.73-3.85a8.28,8.28,0,0,0-1.17-.79,7,7,0,0,0-2.62-1.25c.23.18.7.14.83.57a37.77,37.77,0,0,1,4.38,3.72,33.57,33.57,0,0,0,3,2.41.25.25,0,0,1-.2.36c-3.65-.47-7.31-.83-10.94-1.45a.86.86,0,0,1-.45.08c.34.12.58.46,1,.43a28.35,28.35,0,0,0,5.77,1.07c1,.11,1.92.24,2.89.44-3.52,1.56-6.76,3.73-10.65,4.35a2.45,2.45,0,0,0,1.63.19,13.58,13.58,0,0,0,4.68-1.5,36.9,36.9,0,0,1,4.95-2.48,5.08,5.08,0,0,1,2.42-.25c1.78.25,3.59.39,5.38.58.26,0,.56,0,.83.23-.12.27-.42.28-.64.39a38.42,38.42,0,0,0-6,4,33,33,0,0,1-8,4.88c-.35.24-.15.32.12.38a14.15,14.15,0,0,0,5-2.2c2.35-1.57,4.51-3.4,6.81-5a16.34,16.34,0,0,1,3.67-2.11,2.34,2.34,0,0,1,1.14-.21l8.52,1a1.35,1.35,0,0,1,.34.11c.26.05.26.19.11.37a28.48,28.48,0,0,0-8.51,4.62,65.86,65.86,0,0,1-6.62,4.62,4.45,4.45,0,0,1-1.63,1c.59-.07,1-.71,1.75-.55a13.37,13.37,0,0,0,3.38-1.89,86,86,0,0,1,9-6,12.62,12.62,0,0,1,4.55-1.52,7.29,7.29,0,0,1,1.4,0,40.66,40.66,0,0,1,6.19,1.4A24.86,24.86,0,0,0,444,219.08a8.67,8.67,0,0,1-2.33,2.06c.8-.34,1.34-1.27,2.33-1.5,1.77-1.15,3.54-2.32,5.33-3.44a15.09,15.09,0,0,1,5.94-2.12,13.52,13.52,0,0,1,3,0,37.84,37.84,0,0,1,8,1.84c.25.28.72,0,.52.38-1.65-.35-3.28-.75-4.95-1a6.86,6.86,0,0,0-3.8.5,12.79,12.79,0,0,0-4.43,3.24,22.24,22.24,0,0,1-9.16,6,24.89,24.89,0,0,1-9.72,1.5c-1.95-.1-3.92.13-5.88.16a17.75,17.75,0,0,1-11.22-3.67,14.45,14.45,0,0,1-5.51-8.92,9.63,9.63,0,0,1,.58-5.55,9.11,9.11,0,0,0,.65-3.79,10.57,10.57,0,0,1,.74-4.27,3.85,3.85,0,0,1,1.1-1.78c.46-.51,1-.37,1.48-.1a28.24,28.24,0,0,0,12.43,3,2.49,2.49,0,0,1,1.46.34,5.75,5.75,0,0,1,.74.56C431.83,203.19,432.67,203.61,432.74,204.56Z"/><path class="cls-23" d="M436.41,178.5c1.15,2.49,2,5.11,2.94,7.68a38.57,38.57,0,0,0,2.28,5.28,2.31,2.31,0,0,1,.1.49A14.45,14.45,0,0,1,440,191a34.43,34.43,0,0,0-4.07-2.36c-1.18-.63-2.23-1.46-3.42-2.07a2.37,2.37,0,0,1-.88-1.07,34.5,34.5,0,0,1-2.22-5.06,65.38,65.38,0,0,0-4.07-9.88,19,19,0,0,0-1.84-3c-.1-.13-.26-.28-.37-.25s.07.22,0,.35a52.86,52.86,0,0,1,4.45,10.75,40.32,40.32,0,0,0,2.61,6.31c.08.16.26.3.12.63-.54-.29-1.09-.54-1.6-.86-2.46-1.55-4.9-3.12-7.35-4.65a3.29,3.29,0,0,1-1.12-1.34,29.49,29.49,0,0,1-1.94-4.55,40.81,40.81,0,0,0-3.46-8,4.86,4.86,0,0,0-1.73-2c2.45,4.41,3.64,9.31,5.75,13.93a6.61,6.61,0,0,1-2.29-1.5q-3.67-2.94-7.49-5.68a25,25,0,0,0-3.68-2.32c2.8-7.94,10.1-10.16,16.51-9.06,7.17,1.23,12.91,5,17.57,10.4a28.47,28.47,0,0,1,4.85,9,75.39,75.39,0,0,1,2.54,8.83,20.38,20.38,0,0,0,3.56,7.63,6.13,6.13,0,0,0,1.91,1.71c2.23,1.25,4.38,2.65,6.66,3.8.28.15.48.28.49.6-1,.09-2.5-.81-3.44-1.22-1.16-.5-2.3-1-3.45-1.56a18.19,18.19,0,0,1-2.55-1.42c-1.57-1-3.19-2-4.83-2.92a5.17,5.17,0,0,1-2.23-2.3c-1.66-3.41-3.19-6.89-4.75-10.35a26.41,26.41,0,0,0-1.55-3.16,32.54,32.54,0,0,1-2.06-3.51,4.75,4.75,0,0,0-.63-1c-.1,0-.07-.19-.19-.2s.14.07.14.17A16.47,16.47,0,0,1,436.41,178.5Z"/><path class="cls-23" d="M430.47,202.3c-.33-.49-.85-.33-1.3-.34a30.37,30.37,0,0,1-7.41-1,19.63,19.63,0,0,1-3.17-1.05c-.61-.28-1.26-.48-1.89-.74a20.52,20.52,0,0,1-4.42-2.75,28,28,0,0,1-7.37-8.1,25.07,25.07,0,0,1-3-7.64,13,13,0,0,1,.05-5.75,10.08,10.08,0,0,1,1.07-2.71c.17-.31,2-3.26,2.09-3.22a60,60,0,0,1,5.31,3.77c2,1.49,4,3,6,4.51l.94.74c.16.13.7.72.89.71a41.35,41.35,0,0,1-6.58-.26,18,18,0,0,1-6.05-1.86.26.26,0,0,0-.07.34.81.81,0,0,0,.29.26,15.8,15.8,0,0,0,5,2,21.66,21.66,0,0,0,5.15.3,12.12,12.12,0,0,1,3.13.15,7.26,7.26,0,0,1,2.76,1.45c.84.64,1.77,1.18,2.66,1.74,1.88,1.18,3.79,2.31,5.69,3.46.32.2.17.39-.13.44a55.9,55.9,0,0,1-12.95,1,11,11,0,0,0-3.44,0,32.74,32.74,0,0,0,12.32.37c1.42-.21,2.84-.62,4.27-.71a5.64,5.64,0,0,1,2.54.37,13.65,13.65,0,0,1,2.37,1.49c1,.7,2.14,1.18,3.16,1.86a34.17,34.17,0,0,1,3.69,2.34c0,.2-.19.16-.32.17-1.84.18-3.65.53-5.47.85a43.5,43.5,0,0,1-11.73.44c-.27,0-.55,0-.82,0a1.27,1.27,0,0,1-.58.05c.28-.09.48.46.88.38a34.43,34.43,0,0,0,12.76,0c1.93-.35,3.83-.9,5.79-1.08a4.19,4.19,0,0,1,2.44,1c3.64,2.25,7.35,4.41,11.19,6.31a17.78,17.78,0,0,1,1.69,1l.89.56a5.34,5.34,0,0,1,.9.52.25.25,0,0,1-.25.27,5.83,5.83,0,0,1-1.88-.77c-3.31-1.49-6.51-3.26-10.21-3.68a2.86,2.86,0,0,0-1.05-.13,8.5,8.5,0,0,0-4,.4,9,9,0,0,1-3,.74.68.68,0,0,0-.58.19c-1.25.86-2.77.79-4.15,1.17-1.06.28-2.2.13-3.22.62C430.94,202.52,430.75,202.21,430.47,202.3Z"/><path class="cls-23" d="M475.56,186.77l.41-.23c.45-.26.79-.54.28-1.08-.25-.27-.22-.48.16-.73.73-.49.88-1.42,1.33-2.13.13-.21-.05-.43-.16-.65-.37-.73-.08-1.19.75-1.27s.86-.08,1.08-1a.93.93,0,0,1,.43-.68,1.77,1.77,0,0,0,.9-.89.69.69,0,0,1,.55-.37c.85-.21,1.62-.5,1.88-1.51.12-.45.79-.54,1.28-.29.76.39.78.41,1.23-.31.25-.41.6-.41,1-.44.1.25-.12.51.1.7a12.25,12.25,0,0,1,.52,2.17,51.94,51.94,0,0,0,2,4.92c.65,1.6,1.26,3.21,1.82,4.85a.27.27,0,0,1-.11.35c-3.47-2.72-7.71-4.43-10.68-7.92a4.43,4.43,0,0,0,1.65,2.87,33.5,33.5,0,0,0,4.9,3.45,31.33,31.33,0,0,1,3.5,2.16,4.59,4.59,0,0,1,1.9,2.6c.74,3.05,1.57,6.08,2.12,9.18a.69.69,0,0,1-.07.64c-.52-.11-.81-.63-1.27-.87-2.07-1-4.1-2.17-6.18-3.19-3.38-1.65-6.37-3.71-8.2-7.12a3.67,3.67,0,0,0-.27-.38c-.13-.32-.55-.4-.6-.63s-.21,0-.09-.1,0,0,.08.07a.92.92,0,0,1,.06.65,12.58,12.58,0,0,0,5.83,6.82,57.32,57.32,0,0,0,6.51,3.26,14.23,14.23,0,0,1,3.88,2.2,1.91,1.91,0,0,1,.75,1.14c.6,3.59,1.46,7.14,2,10.75a.85.85,0,0,1,0,.23c-.09.24-.22.32-.43.14-2.16-2.18-4.76-3.79-7.15-5.68a41.24,41.24,0,0,1-8.76-9.08,2.52,2.52,0,0,0-.3-.35c-.2-.21-.34-.26-.36.11a19.61,19.61,0,0,0,4.52,6.4,53.26,53.26,0,0,0,8.59,6.74c.68.45,1.3,1,1.95,1.51a5.88,5.88,0,0,1,2.46,5.17c-.08,2.15.12,4.32-.17,6.47-.08.23-.22.26-.4.11a16.1,16.1,0,0,0-5-5.84c-2.87-2.25-5.7-4.55-8.37-7-.08-.08-.15-.19-.32-.13,0,.43.32.66.56.94a45.87,45.87,0,0,0,7.41,6.86A21.19,21.19,0,0,1,495,224.2a8.49,8.49,0,0,1,1.78,6.06,18.78,18.78,0,0,1-.34,2.8c0,.31-.12.54-.49.32a15.53,15.53,0,0,0-3.64-7c-2.14-2.45-4.36-4.83-6.49-7.29-4.55-5.26-8.13-11.07-9.74-17.92a42.11,42.11,0,0,1-.63-13.94A1.87,1.87,0,0,1,475.56,186.77Z"/><path class="cls-9" d="M501.25,266.63c1.43,2.56,1.63,5.45,2.32,8.21-.09.22-.21.28-.4.11a59.49,59.49,0,0,0-4.3-7.83c-.64-.94-1.35-1.84-2-2.78a2.3,2.3,0,0,0-2-1c-1.92-.06-3.84-.15-5.76-.24a48.16,48.16,0,0,1-7.94-.91,24.56,24.56,0,0,0-2.72-.49,35.24,35.24,0,0,1-4.61-1.57c-1-.44-1-.49-.91-1.54a.13.13,0,0,1,0-.15s.06-.06.08-.05c.28-.41.59-.22.92-.07a25.34,25.34,0,0,0,5.44,1.8,37.09,37.09,0,0,0,6.65.82c2.7.12,5.39.33,8.09.51.08-.42-.26-.58-.46-.79a41.62,41.62,0,0,0-11.11-8.44c-2.11-1.07-4.07-2.36-6.07-3.61-.3-.19-.6-.37-.89-.58a11,11,0,0,0-7-2.1A38.23,38.23,0,0,1,453.67,243c-.55-.56-.35-1.07.09-1.58,1.22.44,2.43.89,3.66,1.31a28.23,28.23,0,0,0,7.52,1.29,16.33,16.33,0,0,0,3.48.11,12.13,12.13,0,0,0-1.31-.85,16.5,16.5,0,0,1-5.29-4.24c-1-1.08-2.05-2.06-3.11-3.05-.24-.25-.48-.53-.13-.86s.63-.43,1,0c1.29,1.08,2.35,2.41,3.65,3.49a22.42,22.42,0,0,0,4,2.75q6.92,3.68,13.84,7.34a50.58,50.58,0,0,1,5,2.93c.16.1.31.51.49,0-1.35-2.88-2.75-5.73-4.26-8.53a2.28,2.28,0,0,0-1.75-1.31,25.79,25.79,0,0,1-8.22-3.12c-1.15-.68-2.27-1.41-3.4-2.12-.51-.44-.91-.87,0-1.33a37.31,37.31,0,0,0,8.48,4.28,22.37,22.37,0,0,0,2.9.84c.18-.38-.1-.56-.23-.76a33.45,33.45,0,0,0-11.18-10.73c-1.33-.75-2.63-1.57-3.94-2.35a13.13,13.13,0,0,1-1.77-.86c-.49-.22-.62-.52-.33-1s.61-.46,1.06-.22a14.17,14.17,0,0,0,2.59,1.28c2.09.94,3.79,2.5,5.74,3.66a29.33,29.33,0,0,1,5.07,4.5,1.51,1.51,0,0,0,.34.24l.05.08,0-.09a.93.93,0,0,1,0-.33,22,22,0,0,0-4.64-6.46c-.62-.65-1.29-1.26-1.93-1.9s-.21-1.09.51-1.32a41.87,41.87,0,0,1,5.48,6,13.58,13.58,0,0,1,2.54,5.77,3.36,3.36,0,0,0,.63,1.25,86,86,0,0,1,6.22,10.67c.89,1.83,1.75,3.68,2.61,5.54a3.8,3.8,0,0,0,1.09,1.34C494.34,258.13,498.35,261.87,501.25,266.63Z"/><path class="cls-9" d="M459.75,235.28a2.19,2.19,0,0,1-.67.89c-2.2,1.72-5.89-.33-6-2.93-.22-4,4.86-4.34,6.4-1.17a4.61,4.61,0,0,1,.53,2.14A2.82,2.82,0,0,1,459.75,235.28Z"/><path class="cls-9" d="M468.72,235.2c-.07.6,0,1.11-.66,1.36-1.29.51-2.78,1-4.07.28a3.69,3.69,0,0,1-1.79-3.55,2.71,2.71,0,0,1,1.8-2.65,3.61,3.61,0,0,1,3.77,1A4,4,0,0,1,468.72,235.2Z"/><path class="cls-9" d="M453.76,241.41c0,.53-.27,1-.09,1.58a3.87,3.87,0,0,0-.41.4,3.19,3.19,0,0,1-3.77,1.08,3.09,3.09,0,0,1-2.2-3.25c0-2.56,1.4-3.61,3.92-3.08a3,3,0,0,1,2.26,2A10.32,10.32,0,0,1,453.76,241.41Z"/><path class="cls-9" d="M458.87,226.12l.12,0a3.06,3.06,0,0,0,2.53-.12,4.74,4.74,0,0,0,1.25-1,2.79,2.79,0,0,0,.54-.78c.54-1.38-.58-3.28-1.84-3.82a3.07,3.07,0,0,0-3.58.8A3.18,3.18,0,0,0,458.87,226.12Z"/><path class="cls-9" d="M471.39,224c-.15.33-.31.66-.44,1a.32.32,0,0,1-.3.26,7.12,7.12,0,0,1-2.72.07,3,3,0,0,1-1.8-4.44,3.41,3.41,0,0,1,3.71-1.35,3.18,3.18,0,0,1,1.92,2.39A3.4,3.4,0,0,1,471.39,224Z"/><path class="cls-9" d="M473,258.36a.72.72,0,0,0-.09.2,6.8,6.8,0,0,1-.73,1.05,3.1,3.1,0,0,1-4.94-.44,3.23,3.23,0,0,1,3.91-5,3.57,3.57,0,0,1,1.92,3.46C473.08,257.91,472.93,258.12,473,258.36Z"/><path class="cls-24" d="M443.87,206a45.86,45.86,0,0,0,3.08,4,2.37,2.37,0,0,0,1.47.88c1.31.25,2.6.58,3.91.82.87.16,1.76.23,2.82.36a56.72,56.72,0,0,1-6.07-7.65.73.73,0,0,0-.22-.53c.15.12.38.26.6.41a27.68,27.68,0,0,1,2.45,2.85,41.8,41.8,0,0,0,4.24,4.87,2.17,2.17,0,0,0,1,.56c1.76.4,3.42.52,5.18.88.86.17,1.95.45,2.79.66-.5-.74-1.48-1-2.35-1.38s-1.9-.84-2.83-1.32a18.55,18.55,0,0,1-5.37-3.93c-1-1.16-2.06-2.35-3-3.6a20.86,20.86,0,0,0-3.63-3.82,3.31,3.31,0,0,0-1.6-.89,3.39,3.39,0,0,0-1.94-.21,24.43,24.43,0,0,0-5.23,1.5A28,28,0,0,1,443.87,206Z"/><path class="cls-24" d="M431.21,202.39c0-.26,0-.47.35-.48a32.47,32.47,0,0,0,6.78-1.21h.24a24.3,24.3,0,0,1,4.54,5.66,38.28,38.28,0,0,0,2.59,3.48c.15.18.36.32.32.68l-4.28-.46a17.21,17.21,0,0,0-1.87-.2,3.76,3.76,0,0,1-2.59-1.15c-1.51-1.32-2.85-2.79-4.22-4.24a19.25,19.25,0,0,1-1.71-1.79A.32.32,0,0,1,431.21,202.39Z"/><path class="cls-9" d="M436.41,178.5l-2.5-4.82h0a1,1,0,0,1,.55.42,24.65,24.65,0,0,1,2.32,4.29Z"/><path class="cls-9" d="M444,219.64a9.92,9.92,0,0,1-2.74,1.82,16.78,16.78,0,0,1,2.74-2.38C443.88,219.27,443.8,219.45,444,219.64Z"/><path class="cls-23" d="M430,221.3a7.24,7.24,0,0,1-2.5,1,4.71,4.71,0,0,1,2.38-1.38Z"/><path class="cls-9" d="M431.37,202.56a6.19,6.19,0,0,1,1.7,1.9l-.33.1-1.48-1.8c0-.08,0-.14,0-.17S431.35,202.55,431.37,202.56Z"/><path class="cls-9" d="M414.77,188.11a4.56,4.56,0,0,1-2.27-.49,3.44,3.44,0,0,1,1.95,0C414.45,187.89,414.62,188,414.77,188.11Z"/><path class="cls-9" d="M419.19,201.9a2,2,0,0,1-1-.7,4.62,4.62,0,0,1,2.77,1.38C420.36,202.42,419.91,201.79,419.19,201.9Z"/><path class="cls-25" d="M477.8,189.56a2.26,2.26,0,0,1-.42-1.53,4.07,4.07,0,0,1,1,1.54A.5.5,0,0,0,477.8,189.56Z"/><path class="cls-9" d="M424,195.4a3.14,3.14,0,0,1-1.82-.51,2,2,0,0,1,1.52.08C423.66,195.19,423.82,195.29,424,195.4Z"/><path class="cls-23" d="M416,207.45a6.45,6.45,0,0,1-1.92-.44c.59-.41,1,0,1.39-.07C415.5,207.25,415.79,207.3,416,207.45Z"/><path class="cls-9" d="M449.08,204.45c-.22-.32-.66-.51-.63-1.1a2.34,2.34,0,0,1,1,1Z"/><path class="cls-23" d="M419.37,219.71a1.38,1.38,0,0,1-1.11.13,1,1,0,0,1,1-.51Z"/><path class="cls-9" d="M423.21,167.7a1.85,1.85,0,0,1-.53-.93,1.07,1.07,0,0,1,.86.83Z"/><path class="cls-26" d="M479.7,199.1a1.33,1.33,0,0,1-.28-.8c.46.07.52.4.64.69Z"/><path class="cls-27" d="M497,175.16c-.12-.41.1-.69.32-1a.73.73,0,0,1,.11.71C497.17,174.85,497.07,175,497,175.16Z"/><path class="cls-9" d="M431.37,202.56c0,.07-.07.14-.11.2l-.79-.46c.28-.23.49,0,.74.09Z"/><path class="cls-9" d="M433.91,173.68l-.05-.14s.05,0,.05.05a.14.14,0,0,1,0,.09Z"/><path class="cls-9" d="M446.63,201.68c-.82-.16-1.29-.79-2.08-1.38A2.32,2.32,0,0,1,446.63,201.68Z"/><path class="cls-28" d="M254.49,264.3a.39.39,0,0,1,.29.71c-2.68,1.87-6.21,4.6-5.63,5.61a1.7,1.7,0,0,0,1.72.87,1.35,1.35,0,0,1,1.42,1c.23.79.68,1.58,1.56,1.21s2.43-3.95,3.43-6.71a.39.39,0,0,1,.76.1c.31,3.26.94,7.67,2.1,7.66a1.7,1.7,0,0,0,1.62-1.1,1.3,1.3,0,0,1,1.53-.71c.81.2,1.73.2,1.85-.75s-2-3.77-3.86-6a.39.39,0,0,1,.48-.6c2.87,1.43,6.62,3,7.2,2.1a1.73,1.73,0,0,0-.19-2.12,1,1,0,0,1,.13-1.33c.68-.58,1.38-1.47.56-2.15s-4.64-.27-7.54.16a.39.39,0,0,1-.27-.72c2.72-1.81,6.3-4.46,5.75-5.48a1.76,1.76,0,0,0-1.94-.88,1,1,0,0,1-1.09-.76c-.17-.88-.6-1.93-1.59-1.55s-2.52,3.9-3.58,6.63a.39.39,0,0,1-.76-.11c-.24-3.26-.77-7.69-1.93-7.71a1.74,1.74,0,0,0-1.72,1.26,1,1,0,0,1-1.2.57c-.86-.28-2-.44-2.14.62s2.15,4.12,4,6.39a.39.39,0,0,1-.47.6c-2.95-1.41-7.06-3.13-7.66-2.13a1.75,1.75,0,0,0,.25,2.12,1,1,0,0,1-.1,1.32c-.67.61-1.35,1.51-.51,2.17S251.6,264.79,254.49,264.3Z"/><text class="cls-29" transform="translate(132.19 125.57) scale(1 1.02)">香伴四季<tspan x="0" y="83.33">覓花獨韻</tspan></text></svg>