<svg id="圖層_1" data-name="圖層 1" xmlns="http://www.w3.org/2000/svg" viewBox="0 0 1145.25 509.43"><defs><style>.cls-1{opacity:0.71;}.cls-2{fill:#f2a7a8;}.cls-3{opacity:0.51;}.cls-4{fill:none;}.cls-5{fill:#ebb3b4;}.cls-6{fill:#f1cccb;}</style></defs><title>Border_bg</title><g class="cls-1"><path class="cls-2" d="M445.84,394.66h-1.35v.63C444.94,395.06,445.38,394.85,445.84,394.66Z"/></g><path class="cls-2" d="M1137.15,27.8V5.68H1115V21.91h-12.09V5.68H582.68V21.91H561V5.68H40.78V21.91H28.68V5.68H6.56V27.8H22.8V39.9H6.56V244.3H23.28V265H6.56v205.4H22.8v12.1H6.56v22.12H28.68V488.41h12.1v16.24H561V488.47h21.64v16.18h520.26V488.41H1115v16.24h22.12V482.53h-16.23v-12.1h16.23V265h-16.23V244.3h16.23V39.9h-16.23V27.8Zm-16.23-16.23h10.35V21.91h-10.35Zm-532.36,0h508.49V21.91H625.57V48H602V40.94h13.41v-19h-19.3V35.05h-7.51ZM602,35.05V27.8h7.53v7.25ZM555.15,11.57V35.05h-7.5V21.91H528.34v19h13.42V48H518.15V21.91H46.66V11.57ZM541.76,27.8v7.25h-7.53V27.8ZM12.45,21.91V11.57H22.8V21.91ZM40.78,27.8V39.9H28.68V27.8Zm-28.33,18H22.8V201.41H48.89V225H41.82V211.6h-19v19.3H35.94v7.51H12.45ZM35.94,217.49V225H28.68v-7.53ZM12.45,464.54V270.92H35.94v7.5H22.8v19.31h19V284.31h7.07v23.61H22.8V464.54ZM35.94,284.31v7.53H28.68v-7.53ZM22.8,498.76H12.45V488.41H22.8Zm18-16.23H28.68v-12.1h12.1Zm514.37,16.23H46.66V488.41H518.15V462.32h23.61v7.07H528.34v19h19.31V475.27h7.5Zm-13.39-23.49v7.26h-7.53v-7.26Zm46.8,23.49V475.27h7.51v13.14h19.3v-19H602v-7.07h23.61v26.09h471.48v10.35ZM602,482.53v-7.26h7.53v7.26Zm529.31,5.88v10.35h-10.35V488.41Zm-28.33-5.88v-12.1H1115v12.1Zm28.33-18h-10.35V307.92h-26.1V284.31h7.07v13.42h19V278.42h-13.14v-7.5h23.49Zm-23.49-172.7v-7.53H1115v7.53ZM1115,265h-13.14v13.39h-13v35.39H1115V464.54h-18v18H631.45v-26.1H596.07v13H582.68v13.19H561V469.39H547.65v-13H512.26v26.1H46.66v-18h-18V313.81h26.1V278.42h-13V265H29.17V244.3H41.82V230.9h13V195.52H28.68V45.78h18v-18h465.6V53.9h35.39v-13H561V27.8h21.64V40.94h13.39v13h35.38V27.8h465.6v18h18V195.52h-26.09V230.9h13v13.4H1115Zm16.24-219.25V238.41h-23.49V230.9h13.14V211.6h-19V225h-7.07V201.41h26.1V45.78ZM1107.78,225v-7.53H1115V225ZM1115,39.9h-12.09V27.8H1115Z"/><g class="cls-3"><path class="cls-4" d="M115.75,50.55c3.33-2.76,8.77-8.63,9.81-15.16l-6.31-2.69c-4.32,19.69-30.47,23.36-40.54,6.77-1.18-1.95-2.17-5.43-3-6.65L69.6,35.29C73.41,54.1,99.35,64.19,115.75,50.55Z"/><path class="cls-4" d="M39.35,63.85c4.56,16.92,30.44,16.77,34.66,0-2.3-2.27-3.31-2.16-6.56-5.56-9.37-9.8-8.3-13.79-10.93-17.23a41,41,0,0,1-7,13.13C44.13,60.88,40.68,62.31,39.35,63.85Z"/><path class="cls-4" d="M126.84,53.65c2.8-2.88,8.92-12.9,8.23-16.65l-5.6-.73c-3,12.95-15.68,24.4-31.55,24.55A32.91,32.91,0,0,1,65.76,36.38l-5.9.69C64.16,61.25,100.31,80.86,126.84,53.65Z"/><path class="cls-4" d="M126.74,59.32l-5.52,4.53c5.06,17.55,30.74,16.09,34.66,0-4.52-4.68-10-6-15.79-19.05-.3-.68-.47-1.25-.75-1.91l-1-1.88C137,47.08,131.19,55.56,126.74,59.32Z"/><path class="cls-4" d="M1115.28,189.66a39.2,39.2,0,0,0-10.88,5.86h10.88Z"/><path class="cls-4" d="M97.92,317.1a32.71,32.71,0,0,1-21-7.27c-9.12-7.25-9.51-14-11.52-17.18l-5.64.77A38.84,38.84,0,0,0,97.47,323c19.09.07,34.6-13.8,37.95-29.75l-5.83-.7C124.3,307.23,114.3,317,97.92,317.1Z"/><path class="cls-4" d="M115.62,287.1c-4.06-4.28-10.19-6.12-15.86-18.31-3.47-7.43-2.62,0-9.68,8.7-2.07,2.56-7.17,7.66-10.45,9.11C81.18,306.29,112.35,308.32,115.62,287.1Z"/><path class="cls-4" d="M115.8,306.77c3.7-2.69,8.74-9.13,9.87-15.43L119.36,289c-3.29,10.17-10.26,17.35-21.9,17.3a22.21,22.21,0,0,1-18.8-10.63c-1.2-1.91-2.21-5.59-3-6.59l-6.1,2.48C72.71,307.27,95,321.94,115.8,306.77Z"/><path class="cls-4" d="M120.2,263c-1.16-1.65-1.58-3.27-2.71-4.82l-6.07,2.53c1.25,4.24,5.32,9.58,7.63,11.44,19.48,15.75,43.13,4.19,47.7-14.54,2.76-11.3-1.64-24.23-11.05-30.6-1.33-.9-1.37-.7-3.11-.07a42.49,42.49,0,0,1-8,2c5.32,2.88,11.67,4.66,15,14.28,3.12,9-.31,17.42-4.71,22.52C147.11,274.75,129.37,276.15,120.2,263Z"/><path class="cls-4" d="M135.42,229.21c-6-.74-5.62-1.32-6.53,1.27-2.3,6.52-4.91,10.16-10,14.84-14.13,12.86-41,10.15-51.37-11.82-.7-1.49-1.1-3.67-2-4.95l-5.63.8A38.82,38.82,0,0,0,97.47,259C116.26,259,132.44,245,135.42,229.21Z"/><path class="cls-4" d="M163.74,221.24,159,224.31c1.79,2.71,4.93,3.63,8.76,10.79,14.16,26.49-12.24,56.79-40.32,46.53-9.51-3.48-16.19-10.46-19.85-19.73-1.71.15-4.7.35-5.86,1.19,15,41.11,72.59,31,75.69-9.38a38.34,38.34,0,0,0-3.46-19.48C171.87,229.86,167,222.6,163.74,221.24Z"/><path class="cls-4" d="M121.17,255.94c2.68,11.1,19.73,19.22,31.45,6.26,4.33-4.78,5.72-13.15,2.19-20-2.75-5.32-7.82-9.64-16.17-10C136.39,242.66,128.85,250,121.17,255.94Z"/><path class="cls-4" d="M169.54,197.75c-8.24,24.5-42.4,29.4-57.44,8.45-1.69-2.35-3.52-6.76-4.84-8.38l-5.63.92a38.8,38.8,0,0,0,36.31,26.69c18.51.28,33.26-12.5,37.46-26.38l-2.79-.78C171.51,198.1,170.64,197.93,169.54,197.75Z"/><path class="cls-4" d="M208.61,59.36l-5.52,4.49c1.48,6.55,8.87,12.67,17.13,12.75s15.94-5.94,17.53-12.75a7.7,7.7,0,0,0-1.32-1.11l-4.19-3.36c-5-4.15-8.51-10.51-11-16.53l-1-1.87C218.81,47,212.83,55.81,208.61,59.36Z"/><path class="cls-4" d="M212.3,48.82c1.4-2.14,5.23-9,4.62-11.82l-5.58-.73c-3,12.95-15.74,24.41-31.59,24.55s-29.49-11.59-32.12-24.49l-5.9.74C147.35,67,192,79.77,212.3,48.82Z"/><path class="cls-4" d="M202.67,71.61c-1.43-1.9-2.21-4-3.36-5.63l-5.94,2.46c1.22,5.58,6.21,10.33,9.58,13.12,3.94,3.27,10.67,5.77,17.27,5.82,13.08.11,24.34-9,27.3-18.64l-6-2.77c-1.15,1.48-2.07,3.92-3.14,5.42A22.2,22.2,0,0,1,202.67,71.61Z"/><path class="cls-4" d="M197.56,50.54c3.34-2.66,8.87-8.59,9.87-15.15l-6.31-2.7c-4,19.16-30.12,23.82-40.53,6.73-1.2-2-1.88-5.1-3.08-6.61l-6,2.46C153.82,50.93,178.35,65.8,197.56,50.54Z"/><path class="cls-4" d="M205.3,126.52c-2,.83-3.56,2.09-5.52,3.13,3.37,3.65,6.28,5.68,9,11,8,16.07,2.67,33.34-10.65,42.47a32.94,32.94,0,0,1-50.5-18.7l-5.89.75c4.4,22.48,33.95,39.25,58.28,23.84a38.65,38.65,0,0,0,18.22-28.84c1.13-10.8-2.68-23.5-10-30.53A15.44,15.44,0,0,1,205.3,126.52Z"/><path class="cls-4" d="M240.2,84.73c-15.55,12.12-39.52,7-48.8-10.75-.7-1.33-1.42-3.35-2.32-4.32l-5.6,1c9.85,27.9,42.32,33.67,60.71,18.53,6-5,9.63-8.86,13.16-18.42l-6-1.16C249.3,76.52,244.63,81.29,240.2,84.73Z"/><path class="cls-4" d="M151.85,110c-1.73-2.68-3.33-7.83-4.57-9.59l-5.36.75c.1,3.68,3.08,9.17,4.78,11.76a39,39,0,0,0,57.47,9.16c4.89-4,11.54-12.07,13.1-21l-5.91-.73C204.56,127.9,167.08,133.61,151.85,110Z"/><path class="cls-4" d="M877.29,450.14c18.44-3,33.71,10,37,24.11l5.55-.74c.69-2.95-3.62-10.39-5-12.34a42,42,0,0,0-8.83-9.41c-11.86-8.78-28.92-11.06-42.41-3.17-11.15,6.52-21.29,20.06-20.1,33.94h5.92C850,465.22,861.81,452.67,877.29,450.14Z"/><path class="cls-4" d="M1028.16,480.1a28.29,28.29,0,0,1,3.57,2.43h28.75a16.3,16.3,0,0,1,3.75-2.3C1061.76,459.57,1031.15,459.21,1028.16,480.1Z"/><path class="cls-4" d="M863.52,471.11a22.17,22.17,0,0,1,31.33-6.78c6.24,4.11,6.91,7.55,9,12.34l.61,1.08,6-2.46c-2.39-13.38-17.89-23.89-33.2-21.16-13.17,2.35-23.39,13.27-23.8,28.4h6.94A19.13,19.13,0,0,1,863.52,471.11Z"/><path class="cls-4" d="M995.83,482.26h29.41V478.5A38.74,38.74,0,0,0,995.83,482.26Z"/><path class="cls-4" d="M913.69,482.26h38.78C941.1,476,926.35,474.75,913.69,482.26Z"/><path class="cls-4" d="M1100.44,434.41c5.33,3.91,5.14,6.2,7.73,10.11l6.15-2.52c-9.72-26.41-46.6-23.39-54.28-.19l6.36,2.84C1069.57,432.81,1087,424.54,1100.44,434.41Z"/><path class="cls-4" d="M831.81,482.26h39A39.28,39.28,0,0,0,831.81,482.26Z"/><path class="cls-4" d="M946.29,480.16a15.83,15.83,0,0,1,3.58,2.37h28.94a15.45,15.45,0,0,1,3.56-2.32C980.14,459.88,949.16,459,946.29,480.16Z"/><path class="cls-4" d="M1089.19,306a17.71,17.71,0,0,0-1.92-.14c-8.3-.05-16.09,6-17.43,12.81,6.77,5.62,9.72,7.75,14.18,15.7,1.22,2.19,1.87,5.1,3.24,7,3.56-11.36,9.22-16.41,17.26-22.62a13.79,13.79,0,0,0-2.19-4.93h-13.14Z"/><path class="cls-4" d="M1104.76,246.41c1.35,1.85,2,3.83,3.41,5.9l6.1-2.5a20.11,20.11,0,0,0-2.44-5.51H1103A19.17,19.17,0,0,1,1104.76,246.41Z"/><path class="cls-4" d="M1095.07,225h7.07v-.89a40.16,40.16,0,0,0-7.07-2.21Z"/><path class="cls-4" d="M1063.51,229c-5.25,4.06-11.94,11.8-13.23,18.8l5.83.89c6.11-15.4,19.82-22.53,33.08-21.72v-5.89A38.16,38.16,0,0,0,1063.51,229Z"/><path class="cls-4" d="M1070.07,236.49c-3.27,2.34-8.71,8-10,13.2l5.85,2.68c.06-.07.17-.3.19-.24l1.43-2.59c7.35-13.72,25-14.85,34.59-6v-8.37C1093.16,229.9,1080.85,228.78,1070.07,236.49Z"/><path class="cls-4" d="M1091,278.42h6.26a26.36,26.36,0,0,1,2.92-5.56c.61-.93,1.26-1.8,1.93-2.64V265h5.08a33,33,0,0,1,8.06-4.92v-6.35A38.93,38.93,0,0,0,1091,278.42Z"/><path class="cls-4" d="M63.68,246.18a45.84,45.84,0,0,1-3.89-5.89c-1.23-2.2-1.87-5-3.21-7-3.68,11.18-9.85,17.34-17.29,22.62,2.36,11.07,18.28,17.39,28.58,9.18C70,263.36,73.36,259.59,74,256,71.81,253.78,67.83,251.76,63.68,246.18Z"/><path class="cls-4" d="M868.58,470.84a17.83,17.83,0,0,0-4.42,11.69H897a16.58,16.58,0,0,1,3.54-2.35C898.42,464.53,878.51,459.27,868.58,470.84Z"/><path class="cls-4" d="M39.06,264.14c-1.35-1.85-2-3.83-3.41-5.9l-6.1,2.5a19.29,19.29,0,0,0,1.58,4h8.42Z"/><path class="cls-4" d="M79,242.38c9.7,8.9,24.91,8.89,36.72.31,3-2.15,9.3-9.09,9.74-15.18l-6.17-2.61c-1.81,6.29-3.64,8.6-7.43,12.14-8.58,8-25.14,7.27-33.22-5.42-1.25-2-2.1-5.41-3-6.6l-6,2.45C70.5,234,75.61,239.23,79,242.38Z"/><path class="cls-4" d="M33.75,95c-.72-1-3-2.41-5.88-4.93v15.67A18.23,18.23,0,0,0,33.75,95Z"/><path class="cls-4" d="M53.21,230.64H47a23.68,23.68,0,0,1-3.38,7.05A38.31,38.31,0,0,1,41,241.13V244H38.28a33.09,33.09,0,0,1-9.92,6.48v6.34C40.83,252.56,50.21,242.24,53.21,230.64Z"/><path class="cls-4" d="M43.68,99.43l-6.26-2.67a21.45,21.45,0,0,1-9.55,13.72v7.67C36.43,114.17,42.88,106.55,43.68,99.43Z"/><path class="cls-4" d="M73.75,274.06c3.27-2.34,8.71-8,10-13.2l-5.84-2.68c-.07.07-.18.3-.2.24L76.27,261c-7.52,14-25.81,14.9-35.26,5.4V275a31.42,31.42,0,0,0,6.8,3.14H54v1.27A28.53,28.53,0,0,0,73.75,274.06Z"/><path class="cls-4" d="M53.53,101.07l-5.91-.72c-1.91,9.36-9.64,18.1-19.75,22.16v6.26C41,124.32,51.54,113.17,53.53,101.07Z"/><path class="cls-4" d="M80.31,281.51c5.25-4.07,11.94-11.8,13.24-18.8l-5.84-.89C81.5,277.48,67.43,284.6,54,283.5v5.88A38.13,38.13,0,0,0,80.31,281.51Z"/><path class="cls-4" d="M33.89,50.52a37.19,37.19,0,0,0,4.87-5H29.3c-.47.34-.94.66-1.43,1v7.84A27.11,27.11,0,0,0,33.89,50.52Z"/><path class="cls-4" d="M28.7,58.06V54.75h-.83V68.22h.83V64.38a44.29,44.29,0,0,0,12-6.62,39.57,39.57,0,0,0,7.92-9c1.26-2,5.14-8.95,4.61-11.79l-5.63-.73a23.85,23.85,0,0,1-1.74,5.43v3.82h-2.1A34.5,34.5,0,0,1,28.7,58.06Z"/><path class="cls-4" d="M73.77,210c3.2-2.32,8.57-8,10-13.21l-6.26-2.88c-2.56,9-12.67,15.9-23.53,14.52v6.91A28.38,28.38,0,0,0,73.77,210Z"/><path class="cls-4" d="M88.22,209.37c1.88-2.61,4.55-7.09,5.36-10.74l-5.91-.86C82.23,213,67.86,220.44,54,219.32v5.85A37.72,37.72,0,0,0,88.22,209.37Z"/><path class="cls-4" d="M35.65,194.17,33,195.25h3.31C36.11,194.89,35.89,194.53,35.65,194.17Z"/><path class="cls-4" d="M33.89,178.62c3.37-2.72,8.87-8.56,9.77-15.15l-6.21-2.64a23.89,23.89,0,0,1-9.58,13.77v7.77A29,29,0,0,0,33.89,178.62Z"/><path class="cls-4" d="M33.75,159c-1-1.3-3.25-2.64-5.88-4.92v15.53A18.61,18.61,0,0,0,33.75,159Z"/><path class="cls-4" d="M56.56,161.36c16.78,0,33.19-11.73,37.05-26.81l-6-.86c-8.23,25.08-45.12,30.52-59.77,4.79v10.26A40.84,40.84,0,0,0,56.56,161.36Z"/><path class="cls-4" d="M53.54,165.15l-5.89-.73a31.37,31.37,0,0,1-19.78,22.15v6.37C41,188.59,51,177.52,53.54,165.15Z"/><path class="cls-4" d="M54,204.51a18.46,18.46,0,0,0,2.58.23c8.3,0,16.09-6,17.43-12.81-6.77-5.62-9.72-7.75-14.18-15.7-1.22-2.19-1.87-5.1-3.24-7C53,180.55,47.34,185.6,39.3,191.8a13.25,13.25,0,0,0,1.29,3.45H54Z"/><path class="cls-4" d="M56.55,97.29c16.68.06,33.14-11.68,37.06-26.81l-6-.88c-1.55,6.13-7.37,12.29-11.09,15.12-14.59,11.13-36,7.62-46.25-6.6a35.9,35.9,0,0,1-2.41-3.86V84.67A40.58,40.58,0,0,0,56.55,97.29Z"/><path class="cls-4" d="M125.48,204.4a21.5,21.5,0,0,1-4.56-4.34c-1.62-2.15-2-3.94-3.43-5.91l-6.09,2.53c5.59,16.9,28.22,25.06,44.17,13.33,3.4-2.49,8.61-7.77,10.06-13.19l-5.91-2.67c-1.23,1.36-2.18,3.92-3.36,5.52C149.12,209.54,135.66,211.59,125.48,204.4Z"/><path class="cls-4" d="M159,131.14l-2.42,4.27a17.58,17.58,0,0,1-4.41,4.48,22.13,22.13,0,0,1-31.4-4.16c-1.47-2-1.91-3.77-3.27-5.66l-6.1,2.55c6.56,17.93,28.7,24.53,44.21,13.37,3.38-2.43,8.44-7.84,10-13.21l-5.92-2.71C159.13,130.71,159.52,130.18,159,131.14Z"/><path class="cls-4" d="M145.55,118.05c-4.66-5.62-5.25-10.25-7.18-13-2.38,8.61-7.84,15.31-14.26,20.55a31.46,31.46,0,0,0-2.88,2.27c1.73,6.68,8.62,12.7,17.15,12.78,8.38.07,16-6,17.48-12.78C149.8,122.17,152.33,126.24,145.55,118.05Z"/><path class="cls-4" d="M79.05,114.28a29.06,29.06,0,0,0,36.67.3c3.33-2.67,8.94-8.58,9.83-15.15l-6.27-2.68c-4.89,20.48-30.87,22.85-40.59,6.78-1.2-2-1.89-5.13-3-6.64l-6.07,2.44C70.75,105.61,75.54,111.29,79.05,114.28Z"/><path class="cls-4" d="M178.86,137.75c-.92,1.15-2.27,4.51-3.17,6.09-3,5.13-9,12.18-14.22,14.65,1.38,14.8,21.31,21.53,31.75,9.55S194.64,136.79,178.86,137.75Z"/><path class="cls-4" d="M118.8,148.82a32.78,32.78,0,0,1-6.67-6.69c-2.77-3.86-4-7.37-4.87-8.38l-5.64.92c10.1,28.68,43.14,33.13,60.5,18.73,3.58-3,5.11-4.13,7.95-8.06a33.81,33.81,0,0,0,5.42-10.8l-6-.85C163.74,152,138.82,163.2,118.8,148.82Z"/><path class="cls-4" d="M141.67,176.19c-1.16-2.2-2-5.14-3.28-7.06a41.66,41.66,0,0,1-14.25,20.56,27,27,0,0,0-2.91,2.24c1.52,6.62,8.72,12.76,17.17,12.81,8.23,0,16.19-6.07,17.45-12.81-1.84-1.6-3.94-2.8-5.44-4.46C146.71,183.38,145.19,182.79,141.67,176.19Z"/><path class="cls-4" d="M115.62,223.06c-2.63-3.1-10.05-5.93-15.85-18.32-3.29-7.06-2.35-1.19-9.69,8.71-1.81,2.43-7.43,7.71-10.46,9.08C81.45,242.5,112.28,244,115.62,223.06Z"/><path class="cls-4" d="M122.34,186.11c4.92-4.06,11.4-12,13.07-21l-5.89-.72c-3.61,13.09-15.25,24.38-31.6,24.54a33,33,0,0,1-32.18-24.45l-5.92.76C67.13,194.12,101.12,203.6,122.34,186.11Z"/><path class="cls-4" d="M115.77,178.65c3.06-2.4,9.1-9,9.76-15.18l-6.21-2.65c-5.68,21.34-31.26,22.24-40.65,6.78-1.19-1.95-2-5.26-3-6.64l-6,2.42C71.35,177.9,95.57,194.48,115.77,178.65Z"/><path class="cls-4" d="M159.75,166.12c-.78-1.5-1.26-4-2.24-5.17l-6,2.42c.84,6.53,7.13,13.91,12.45,17.18a29.77,29.77,0,0,0,36.29-4.1c5.84-6,10.43-17.77,6.92-29.32a28.67,28.67,0,0,0-10.13-14.36c-1.51-1.14-1.46-1.12-3.51-.44-3.07,1-5.07,1.29-8,2.09,7.68,3.26,12.67,6.74,15.2,15.14a22.21,22.21,0,0,1-41,16.56Z"/><path class="cls-4" d="M67.81,136.92a17.15,17.15,0,0,0,6.18-9c-3.71-3.4-5.84-4.07-10.31-9.79a46.84,46.84,0,0,1-3.86-5.93c-1.22-2.19-1.89-5.15-3.28-7a42.28,42.28,0,0,1-7,13.12,38.59,38.59,0,0,1-7.33,7.34,30,30,0,0,0-2.89,2.3C41.11,137.25,55.87,145.77,67.81,136.92Z"/><path class="cls-4" d="M38.93,135.73c-1.25-1.83-2-3.71-3.28-5.63l-6.13,2.52c3.25,9.75,13.78,18.8,27,18.85,13,0,24.28-9.07,27.22-18.69l-6.31-2.86C72.94,146.18,48.47,149.77,38.93,135.73Z"/><path class="cls-4" d="M115.62,159a9.2,9.2,0,0,0-2.62-2.18,43.19,43.19,0,0,1-11.55-12.91c-2.71-4.75-3.17-9.64-5.81-3.64a41.54,41.54,0,0,1-5.58,9.11c-1.73,2.17-7.67,8-10.46,9.06C81.75,178.53,112,179.92,115.62,159Z"/><path class="cls-4" d="M135.41,101.07l-5.92-.73a32.89,32.89,0,0,1-31.57,24.54C81.76,125,69,113.53,65.75,100.45l-5.9.68c3,15.73,18.92,29.63,37.62,29.69C116.51,130.89,132.2,117,135.41,101.07Z"/><path class="cls-4" d="M27.87,314.94v6.17a39.07,39.07,0,0,0,13.38-7.57H31A30.89,30.89,0,0,1,27.87,314.94Z"/><path class="cls-4" d="M165.29,109c-6.88-6.29-5.6-9.43-7.78-12.11l-6,2.43c2.57,15.89,26.56,30.44,46.07,15.3,3.32-2.57,8.82-8.68,9.82-15.18l-5.9-2.49-3,6.54A22.3,22.3,0,0,1,165.29,109Z"/><path class="cls-4" d="M28.57,238.14h6.55v-7.5H35A23.37,23.37,0,0,1,28.57,238.14Z"/><path class="cls-4" d="M41,230.64v3.9a26,26,0,0,0,1.82-3.9Z"/><path class="cls-4" d="M28.36,244v2.16A28.54,28.54,0,0,0,32.13,244Z"/><path class="cls-4" d="M155.83,81.73c3-2.25,8.82-8.23,9.85-13.44l-6-2.29c-.06,0-.16.3-.19.23s-.16.22-.2.28l-.36.57c-.25.46-.46,1-.72,1.51-6.85,13.83-27.31,16.65-37.46,3.07-1.45-1.94-2-3.6-3.3-5.66l-6.11,2.56C119.14,87.76,141.18,92.63,155.83,81.73Z"/><path class="cls-4" d="M187.31,85.65c-6.79-7.86-6.71-16.76-9.81-9.38-2.6,6.18-10.76,16.14-16.05,18.14,2.16,20.34,33.31,21.24,36.08,0C194,92.7,189.74,88.47,187.31,85.65Z"/><path class="cls-4" d="M107.26,69.68l-5.64.94c10.16,27.63,41.27,33.73,60.51,18.75,4.69-3.65,11.33-10.66,13.36-18.9l-6-.87c-7.79,25.69-46.71,30-60,4.43A27.88,27.88,0,0,0,107.26,69.68Z"/><path class="cls-4" d="M115.65,94.52c-8-4.31-12.72-11.6-16.55-19.39-1.39-2.84-2.12-2-3.47,1.1A41,41,0,0,1,90,85.32c-1.88,2.36-7.46,7.93-10.44,9.06C82,115,112.76,115.42,115.65,94.52Z"/><path class="cls-4" d="M43.38,76.14c-5.33-3.91-5.14-6.2-7.73-10.11L29.5,68.55c9.72,26.41,46.6,23.38,54.28.19l-6.35-2.85C74.25,77.74,56.82,86,43.38,76.14Z"/><path class="cls-4" d="M1087.26,349.19c-16.78-.06-33.19,11.73-37,26.81l6,.86c8.12-24.71,44-30.35,59.1-5.9v-9.84A40.8,40.8,0,0,0,1087.26,349.19Z"/><path class="cls-4" d="M1110.07,351.53c1,1.18,2.88,2.41,5.21,4.34V341.56A18.64,18.64,0,0,0,1110.07,351.53Z"/><path class="cls-4" d="M1090.29,409.48l5.91.72c1.87-9.16,9.3-17.72,19.08-21.89V382C1102.46,386.61,1092.25,397.58,1090.29,409.48Z"/><path class="cls-4" d="M1109.93,331.93c-3.36,2.71-8.87,8.56-9.77,15.15l6.21,2.64a24.16,24.16,0,0,1,8.91-13.31v-7.92A29.38,29.38,0,0,0,1109.93,331.93Z"/><path class="cls-4" d="M1109.93,460a37.36,37.36,0,0,0-4.47,4.51h9.77l0,0v-8A27.25,27.25,0,0,0,1109.93,460Z"/><path class="cls-4" d="M1070.05,300.52c-3.19,2.31-8.57,8-10,13.2l6.26,2.89c2.51-8.82,12.26-15.61,22.87-14.59v-6.9A28.4,28.4,0,0,0,1070.05,300.52Z"/><path class="cls-4" d="M1055.6,301.18c-1.88,2.61-4.55,7.09-5.36,10.74l5.91.86c5.35-14.94,19.35-22.44,33-21.61v-5.86A37.72,37.72,0,0,0,1055.6,301.18Z"/><path class="cls-4" d="M1090.28,345.4l5.89.73a31.35,31.35,0,0,1,19.11-21.91v-6.38C1102.46,322.34,1092.82,333.24,1090.28,345.4Z"/><path class="cls-4" d="M1028.17,416c7.95,4.31,12.73,11.6,16.55,19.39,1.39,2.84,2.13,1.95,3.47-1.1a41,41,0,0,1,5.6-9.09c1.88-2.36,7.46-7.93,10.44-9.07C1061.81,395.52,1031.06,395.13,1028.17,416Z"/><path class="cls-4" d="M1108.17,316.38l6.12-2.52a.08.08,0,0,1,0-.05h-7.61C1107.12,314.66,1107.59,315.51,1108.17,316.38Z"/><path class="cls-4" d="M1031.13,482.26h3.31c-1.07-.6-2.18-1.15-3.31-1.66Z"/><path class="cls-4" d="M1110.07,415.57c.67.93,2.67,2.18,5.21,4.34V405.46A18.43,18.43,0,0,0,1110.07,415.57Z"/><path class="cls-4" d="M1087.27,413.26c-16.68-.06-33.14,11.68-37.06,26.81l6,.88c1.55-6.13,7.36-12.29,11.08-15.12,14.6-11.13,36-7.62,46.26,6.6.65.91,1.23,1.82,1.73,2.68v-9.92A40.55,40.55,0,0,0,1087.27,413.26Z"/><path class="cls-4" d="M1115.12,446.17a44.09,44.09,0,0,0-12,6.62,39.62,39.62,0,0,0-7.93,9c-1.26,2-5.13,8.95-4.61,11.79l5.63.73a23.38,23.38,0,0,1,1.07-3.8v-5.94h3.07a34.72,34.72,0,0,1,14.75-12.05v3.31h.16V442.33h-.16Z"/><path class="cls-4" d="M1102.14,278.42v-1.16c-.19.38-.37.77-.55,1.16Z"/><path class="cls-4" d="M1115.28,265v-.59l-1.13.59Z"/><path class="cls-4" d="M1100.14,411.12l6.26,2.67a21.42,21.42,0,0,1,8.88-13.29v-7.78C1107.06,396.78,1100.92,404.18,1100.14,411.12Z"/><path class="cls-4" d="M1080.14,264.37a45.84,45.84,0,0,1,3.89,5.89c1.23,2.2,1.87,5,3.21,7,3.68-11.18,9.86-17.34,17.29-22.62-2.35-11.07-18.28-17.39-28.57-9.18-2.11,1.69-5.5,5.46-6.1,9.08C1072,256.77,1076,258.79,1080.14,264.37Z"/><path class="cls-4" d="M1028.2,351.53a9.36,9.36,0,0,0,2.62,2.18,43.19,43.19,0,0,1,11.55,12.91c2.71,4.75,3.18,9.64,5.81,3.64a41.54,41.54,0,0,1,5.58-9.11c1.73-2.17,7.68-8,10.46-9.06C1062.07,332,1031.78,330.63,1028.2,351.53Z"/><path class="cls-4" d="M1008.42,409.48l5.91.73a32.91,32.91,0,0,1,31.57-24.55c16.16-.15,28.95,11.36,32.17,24.44l5.9-.68c-3-15.73-18.92-29.63-37.62-29.69C1027.31,379.66,1011.63,393.58,1008.42,409.48Z"/><path class="cls-4" d="M1028.06,331.9c-3.06,2.4-9.11,9-9.76,15.18l6.2,2.65c5.68-21.34,31.26-22.24,40.65-6.78,1.19,1.95,1.95,5.26,3,6.64l6-2.42C1072.48,332.65,1048.26,316.07,1028.06,331.9Z"/><path class="cls-4" d="M1064.78,268.17c-9.7-8.9-24.91-8.89-36.72-.31-3,2.15-9.29,9.09-9.74,15.18l6.17,2.6c1.82-6.28,3.64-8.59,7.43-12.13,8.58-8,25.14-7.27,33.22,5.42,1.25,2,2.1,5.41,3,6.6l6-2.45C1073.32,276.52,1068.21,271.32,1064.78,268.17Z"/><path class="cls-4" d="M1104.89,374.82c1.25,1.83,2,3.71,3.28,5.63l6.14-2.52c-3.26-9.75-13.78-18.8-27-18.85-13,0-24.29,9.07-27.23,18.69l6.31,2.86C1070.89,364.36,1095.35,360.78,1104.89,374.82Z"/><path class="cls-4" d="M1028.2,287.49c2.63,3.09,10,5.93,15.85,18.32,3.3,7.06,2.35,1.19,9.69-8.71,1.81-2.43,7.43-7.71,10.47-9.08C1062.38,268.05,1031.54,266.52,1028.2,287.49Z"/><path class="cls-4" d="M1021.48,324.44c-4.92,4.06-11.4,12-13.07,21l5.9.72c3.6-13.1,15.25-24.38,31.59-24.54A33,33,0,0,1,1078.09,346l5.91-.76C1076.69,316.43,1042.7,307,1021.48,324.44Z"/><path class="cls-4" d="M956.52,424.9c6.78,7.86,6.71,16.76,9.8,9.38,2.6-6.18,10.76-16.14,16-18.14-2.16-20.34-33.3-21.24-36.07-.06C949.8,417.85,954.09,422.08,956.52,424.9Z"/><path class="cls-4" d="M978.53,401.56c6.89,6.29,5.6,9.43,7.78,12.11l6-2.43c-2.57-15.89-26.56-30.44-46.07-15.3-3.32,2.57-8.82,8.68-9.82,15.18l5.9,2.49,3.05-6.54a22.3,22.3,0,0,1,33.17-5.51Z"/><path class="cls-4" d="M965,372.8c.91-1.15,2.26-4.51,3.16-6.09,3-5.14,9-12.18,14.22-14.65-1.38-14.8-21.31-21.53-31.75-9.55S949.18,373.76,965,372.8Z"/><path class="cls-4" d="M984.08,344.43c.78,1.5,1.25,4,2.23,5.17l6-2.42c-.83-6.53-7.13-13.91-12.45-17.18a29.77,29.77,0,0,0-36.29,4.09c-5.84,6-10.43,17.78-6.92,29.33a28.73,28.73,0,0,0,10.13,14.36c1.51,1.14,1.46,1.12,3.51.43,3.07-1,5.07-1.28,8-2.08-7.68-3.26-12.67-6.74-15.19-15.14a22.21,22.21,0,0,1,41-16.56Z"/><path class="cls-4" d="M988,428.82c-3,2.25-8.82,8.23-9.86,13.44l6,2.28s.16-.29.19-.22.15-.22.19-.28.3-.46.36-.57c.26-.47.47-1,.72-1.51,6.86-13.83,27.31-16.65,37.46-3.07,1.45,1.94,2,3.6,3.31,5.65l6.11-2.55C1024.69,422.79,1002.64,417.92,988,428.82Z"/><path class="cls-4" d="M1036.57,440.87l5.64-.94c-10.17-27.63-41.27-33.73-60.52-18.75-4.69,3.65-11.33,10.66-13.35,18.9l6,.86c7.79-25.68,46.71-30,60-4.42A27.08,27.08,0,0,0,1036.57,440.87Z"/><path class="cls-4" d="M998.27,392.49c4.66,5.63,5.25,10.26,7.18,13,2.38-8.61,7.84-15.31,14.26-20.55a31.46,31.46,0,0,0,2.88-2.27c-1.73-6.68-8.62-12.7-17.15-12.78s-16,6-17.48,12.78C994,388.38,991.49,384.31,998.27,392.49Z"/><path class="cls-4" d="M1064.77,396.26a29.08,29.08,0,0,0-36.67-.29c-3.33,2.66-8.94,8.58-9.83,15.15l6.27,2.68c4.89-20.48,30.88-22.85,40.59-6.78,1.21,2,1.89,5.13,3,6.64l6.07-2.44C1073.07,404.94,1068.28,399.26,1064.77,396.26Z"/><path class="cls-4" d="M1025,361.73a33,33,0,0,1,6.67,6.68c2.77,3.87,4,7.37,4.88,8.39l5.64-.92c-10.11-28.68-43.14-33.14-60.5-18.73-3.58,3-5.11,4.13-8,8.05a33.61,33.61,0,0,0-5.42,10.8l6,.86C980.08,358.53,1005,347.34,1025,361.73Z"/><path class="cls-4" d="M984.83,379.41l2.42-4.27a17.63,17.63,0,0,1,4.41-4.49,22.14,22.14,0,0,1,31.4,4.17c1.48,2,1.91,3.77,3.28,5.65l6.09-2.54c-6.56-17.94-28.7-24.53-44.21-13.37-3.38,2.43-8.44,7.84-10,13.21l5.92,2.71C984.69,379.84,984.3,380.37,984.83,379.41Z"/><path class="cls-4" d="M1002.15,334.36c1.16,2.2,2,5.14,3.28,7.06a41.66,41.66,0,0,1,14.25-20.56,27,27,0,0,0,2.91-2.24c-1.52-6.62-8.72-12.76-17.16-12.81-8.24-.05-16.2,6.07-17.46,12.81,1.84,1.6,3.94,2.8,5.44,4.46C997.11,327.17,998.64,327.76,1002.15,334.36Z"/><path class="cls-4" d="M1018.34,306.15a21.5,21.5,0,0,1,4.56,4.34c1.63,2.15,2,3.94,3.44,5.91l6.08-2.53c-5.59-16.9-28.22-25.06-44.17-13.33-3.39,2.49-8.61,7.77-10.06,13.18l5.92,2.68c1.22-1.36,2.18-3.92,3.35-5.52C994.7,301,1008.16,299,1018.34,306.15Z"/><path class="cls-4" d="M1076,373.63a17.15,17.15,0,0,0-6.18,9c3.71,3.39,5.85,4.07,10.31,9.79a45.76,45.76,0,0,1,3.86,5.93c1.22,2.19,1.89,5.14,3.28,7a42.28,42.28,0,0,1,7-13.12,38.89,38.89,0,0,1,7.33-7.34,30,30,0,0,0,2.89-2.3C1102.71,373.3,1088,364.78,1076,373.63Z"/><path class="cls-4" d="M946.27,460c-3.34,2.66-8.88,8.59-9.88,15.15l6.31,2.7c4-19.17,30.12-23.82,40.54-6.73,1.19,2,1.87,5.1,3.07,6.61l6-2.46C990,459.62,965.47,444.74,946.27,460Z"/><path class="cls-4" d="M931.52,461.73c-1.4,2.14-5.23,9-4.61,11.82l5.57.73c3-12.95,15.74-24.41,31.59-24.55s29.49,11.59,32.12,24.49l5.9-.74C996.47,443.58,951.83,430.78,931.52,461.73Z"/><path class="cls-4" d="M935.21,451.19l5.52-4.49c-1.48-6.55-8.87-12.67-17.12-12.75-8.41-.07-16,5.94-17.54,12.75a7.7,7.7,0,0,0,1.32,1.11l4.19,3.36c5,4.14,8.51,10.51,11,16.53l1,1.87C925,463.53,931,454.73,935.21,451.19Z"/><path class="cls-4" d="M903.62,425.82c15.56-12.12,39.52-7,48.8,10.75.7,1.33,1.42,3.35,2.32,4.32l5.6-1c-9.85-27.9-42.32-33.67-60.7-18.53-6,5-9.64,8.86-13.17,18.42l6,1.16C894.52,434,899.19,429.26,903.62,425.82Z"/><path class="cls-4" d="M941.16,438.94c1.42,1.9,2.2,4,3.35,5.63l5.94-2.46c-1.22-5.58-6.21-10.33-9.57-13.12-4-3.27-10.68-5.77-17.28-5.83-13.08-.11-24.34,9-27.3,18.65l6,2.77c1.15-1.48,2.07-3.92,3.14-5.42A22.21,22.21,0,0,1,941.16,438.94Z"/><path class="cls-4" d="M1017.09,451.23l5.51-4.53c-5.05-17.56-30.73-16.09-34.66,0,4.52,4.68,10,6,15.79,19.05.3.67.48,1.25.75,1.91l1,1.88C1006.85,463.47,1012.63,455,1017.09,451.23Z"/><path class="cls-4" d="M1104.47,446.7c-4.56-16.92-30.44-16.77-34.65,0,2.29,2.27,3.31,2.16,6.55,5.56,9.37,9.8,8.3,13.79,10.94,17.23a41,41,0,0,1,7-13.13C1099.69,449.67,1103.15,448.24,1104.47,446.7Z"/><path class="cls-4" d="M1008.4,281.34c6,.74,5.62,1.32,6.53-1.27,2.3-6.52,4.91-10.16,10.05-14.84,14.13-12.86,41-10.15,51.37,11.82.7,1.48,1.1,3.67,2,4.95l5.64-.8a38.84,38.84,0,0,0-37.66-29.62C1027.56,251.51,1011.38,265.54,1008.4,281.34Z"/><path class="cls-4" d="M1017,456.9c-2.81,2.88-8.93,12.9-8.24,16.65l5.6.73c3-12.95,15.68-24.4,31.55-24.55a32.91,32.91,0,0,1,32.16,24.44l5.9-.69C1079.66,449.3,1043.52,429.69,1017,456.9Z"/><path class="cls-4" d="M1028.07,460c-3.32,2.76-8.77,8.62-9.81,15.16l6.31,2.69c4.32-19.69,30.48-23.36,40.54-6.77,1.18,1.95,2.17,5.43,3,6.65l6.08-2.47C1070.41,456.45,1044.48,446.36,1028.07,460Z"/><path class="cls-4" d="M1028.21,223.45c4,4.28,10.18,6.12,15.85,18.31,3.47,7.43,2.62,0,9.68-8.7,2.07-2.56,7.17-7.66,10.45-9.11C1062.64,204.26,1031.47,202.23,1028.21,223.45Z"/><path class="cls-4" d="M1028,203.78c-3.7,2.69-8.74,9.13-9.87,15.43l6.32,2.33c3.28-10.17,10.25-17.35,21.89-17.3a22.21,22.21,0,0,1,18.8,10.63c1.21,1.91,2.21,5.59,3,6.59l6.1-2.48C1071.11,203.28,1048.88,188.61,1028,203.78Z"/><path class="cls-4" d="M1022.66,254.61c-2.69-11.1-19.74-19.22-31.46-6.26-4.32,4.78-5.72,13.15-2.19,20,2.75,5.32,7.82,9.64,16.17,10C1007.43,267.89,1015,260.52,1022.66,254.61Z"/><path class="cls-4" d="M1045.9,193.45a32.71,32.71,0,0,1,20.95,7.27c9.12,7.25,9.51,14,11.52,17.18l5.64-.77a38.84,38.84,0,0,0-37.66-29.62c-19.09-.07-34.6,13.8-37.95,29.75l5.83.7C1019.52,203.32,1029.52,193.59,1045.9,193.45Z"/><path class="cls-4" d="M1023.62,247.51c1.16,1.65,1.58,3.27,2.72,4.82l6.06-2.53c-1.25-4.24-5.32-9.58-7.62-11.44-19.49-15.75-43.13-4.19-47.71,14.54-2.76,11.3,1.65,24.23,11,30.6,1.33.9,1.37.7,3.11.07a42.68,42.68,0,0,1,8-2c-5.32-2.88-11.66-4.66-15-14.28-3.11-9,.32-17.42,4.71-22.52C996.71,235.8,1014.45,234.4,1023.62,247.51Z"/><path class="cls-4" d="M938.52,384c2-.83,3.56-2.09,5.52-3.13-3.37-3.65-6.28-5.68-9-11.06-8-16.06-2.67-33.33,10.65-42.46a32.94,32.94,0,0,1,50.5,18.7l5.89-.75c-4.4-22.48-34-39.25-58.28-23.84a38.63,38.63,0,0,0-18.22,28.84c-1.13,10.8,2.68,23.5,10,30.53A15.44,15.44,0,0,1,938.52,384Z"/><path class="cls-4" d="M992,400.56c1.74,2.68,3.33,7.83,4.57,9.59l5.36-.75c-.1-3.68-3.08-9.17-4.78-11.76a39,39,0,0,0-57.47-9.16c-4.89,4-11.54,12.07-13.1,21l5.91.73C939.26,382.65,976.75,376.94,992,400.56Z"/><path class="cls-4" d="M974.28,312.8c8.24-24.5,42.4-29.4,57.44-8.46,1.69,2.36,3.52,6.77,4.85,8.39l5.62-.92a38.79,38.79,0,0,0-36.31-26.69c-18.51-.28-33.26,12.5-37.46,26.38l2.79.78C972.31,312.45,973.18,312.62,974.28,312.8Z"/><path class="cls-4" d="M980.09,289.31l4.77-3.08c-1.78-2.7-4.93-3.62-8.76-10.78-14.16-26.49,12.24-56.79,40.32-46.53,9.51,3.48,16.19,10.46,19.85,19.73,1.71-.15,4.7-.35,5.86-1.19-15-41.11-72.59-31-75.69,9.38a38.36,38.36,0,0,0,3.46,19.48C972,280.68,976.79,288,980.09,289.31Z"/><path class="cls-5" d="M1096.23,474.28l-5.63-.73c-.52-2.84,3.35-9.77,4.61-11.79a39.62,39.62,0,0,1,7.93-9,44.09,44.09,0,0,1,12-6.62v-3.84h.16v-7.22c-.5-.86-1.08-1.77-1.73-2.68-10.27-14.22-31.66-17.73-46.26-6.6-3.72,2.83-9.53,9-11.08,15.12l-6-.88c3.92-15.13,20.38-26.87,37.06-26.81a40.55,40.55,0,0,1,28,11.93v-5.28c-2.54-2.16-4.54-3.41-5.21-4.34a18.43,18.43,0,0,1,5.21-10.11v-5a21.42,21.42,0,0,0-8.88,13.29l-6.26-2.67c.78-6.94,6.92-14.34,15.14-18.4v-4.41c-9.78,4.17-17.21,12.73-19.08,21.89l-5.91-.72c2-11.9,12.17-22.87,25-27.47V371c-15.07-24.45-51-18.81-59.1,5.9l-6-.86c3.86-15.08,20.27-26.87,37-26.81a40.8,40.8,0,0,1,28,11.93v-5.25c-2.33-1.93-4.25-3.16-5.21-4.34a18.64,18.64,0,0,1,5.21-10v-5.15a24.16,24.16,0,0,0-8.91,13.31l-6.21-2.64c.9-6.59,6.41-12.44,9.77-15.15a29.38,29.38,0,0,1,5.35-3.44v-4.27a31.35,31.35,0,0,0-19.11,21.91l-5.89-.73c2.54-12.16,12.18-23.06,25-27.56v-4h-1a.08.08,0,0,0,0,.05l-6.12,2.52c-.58-.87-1.05-1.72-1.51-2.57h-4.33a13.79,13.79,0,0,1,2.19,4.93c-8,6.21-13.7,11.26-17.26,22.62-1.37-1.94-2-4.85-3.24-7-4.46-7.95-7.41-10.08-14.18-15.7,1.34-6.78,9.13-12.86,17.43-12.81a17.71,17.71,0,0,1,1.92.14V302c-10.61-1-20.36,5.77-22.87,14.59l-6.26-2.89c1.42-5.22,6.8-10.89,10-13.2a28.4,28.4,0,0,1,19.14-5.4v-3.95c-13.69-.83-27.69,6.67-33,21.61l-5.91-.86c.81-3.65,3.48-8.13,5.36-10.74a37.72,37.72,0,0,1,33.59-15.87v-6.89H1091a38.93,38.93,0,0,1,24.25-24.66V244.3h-3.45a20.11,20.11,0,0,1,2.44,5.51l-6.1,2.5c-1.38-2.07-2.06-4.05-3.41-5.9a19.17,19.17,0,0,0-1.79-2.11h-.83v-.81c-9.61-8.8-27.24-7.67-34.59,6l-1.43,2.59c0-.06-.13.17-.19.24l-5.85-2.68c1.28-5.24,6.72-10.86,10-13.2,10.78-7.71,23.09-6.59,32.07-1.37V230.9h-13V227c-13.26-.81-27,6.32-33.08,21.72l-5.83-.89c1.29-7,8-14.74,13.23-18.8a38.16,38.16,0,0,1,25.68-7.92V208.18c-1.21,2.48-1.86,4.22-2.37,4.59-.55-6.61-9.28-16.24-14.09-20.15-11.94-9.69-28.31-11.47-42.78-6a42.26,42.26,0,0,0-24.78,26.81,25.27,25.27,0,0,1-1.07,3.82c-12.06,0-21.29,4.61-29,12.34A43,43,0,0,0,970.93,286c1.47,1.95,3.74,4.72,5.6,6-2.61,3.89-6.65,5.74-10.23,13.79-.79,1.79-1.42,4.09-2.23,5.78a43.48,43.48,0,0,0-17.15,3.74,38.68,38.68,0,0,0-9.63,5.94,43.09,43.09,0,0,0-7.21,59.45c1.32,1.76,3.44,5,5.53,5.59-4.08,6.1-9.94,8.53-13.34,23.12a39.81,39.81,0,0,0-15.83,3.3c-10.69,4.47-19.67,13.74-23.33,24.69-1.13,3.38-1.38,2.09-7,2.81-9.1,1.19-19.07,6.19-25.13,13.12-.85,1-1.1,1.43-2,2.44-6.39,7.08-9.33,16.89-9.45,26.83h4c-1.19-13.88,8.95-27.42,20.1-33.94,13.49-7.89,30.55-5.61,42.41,3.17a42,42,0,0,1,8.83,9.41c1.33,1.95,5.64,9.39,5,12.34l-5.55.74c-3.32-14.13-18.59-27.12-37-24.11-15.48,2.53-27.27,15.08-27.79,32.39h4c.41-15.13,10.63-26,23.8-28.4,15.31-2.73,30.81,7.78,33.2,21.16l-6,2.46-.61-1.08c-2.11-4.79-2.78-8.23-9-12.34a22.17,22.17,0,0,0-31.33,6.78,19.13,19.13,0,0,0-3.12,11.42h3.76a17.83,17.83,0,0,1,4.42-11.69c9.93-11.57,29.84-6.31,31.93,9.34a16.58,16.58,0,0,0-3.54,2.35h6.9a39.25,39.25,0,0,1,39,0h7a15.83,15.83,0,0,0-3.58-2.37c2.87-21.18,33.85-20.28,36.08,0a15.45,15.45,0,0,0-3.56,2.32h6.94c12.66-7.51,27.41-6.28,38.78,0h7.2a28.29,28.29,0,0,0-3.57-2.43c3-20.89,33.6-20.53,36.07.13a16.3,16.3,0,0,0-3.75,2.3h7.41a38.74,38.74,0,0,1,29.41-3.76v-8.29A23.38,23.38,0,0,0,1096.23,474.28ZM1114.32,442l-6.15,2.52c-2.59-3.91-2.4-6.2-7.73-10.11-13.44-9.87-30.87-1.6-34,10.24l-6.36-2.84C1067.72,418.61,1104.6,415.59,1114.32,442Zm-60.53-16.77a41,41,0,0,0-5.6,9.09c-1.34,3.05-2.08,3.94-3.47,1.1-3.82-7.79-8.6-15.08-16.55-19.39,2.89-20.9,33.64-20.51,36.06.13C1061.25,417.3,1055.67,422.87,1053.79,425.23Zm-79.47,15.71-6-.86c2-8.24,8.66-15.25,13.35-18.9,19.25-15,50.35-8.88,60.52,18.75l-5.64.94a27.08,27.08,0,0,1-2.28-4.35C1021,411,982.11,415.26,974.32,440.94Zm58.13,1.05-6.11,2.55c-1.32-2.05-1.86-3.71-3.31-5.65-10.15-13.58-30.6-10.76-37.46,3.07-.25.51-.46,1-.72,1.51-.06.11-.3.49-.36.57s-.17.34-.19.28-.14.18-.19.22l-6-2.28c1-5.21,6.83-11.19,9.86-13.44C1002.64,417.92,1024.69,422.79,1032.45,442Zm-50.08-25.85c-5.29,2-13.45,12-16,18.14-3.09,7.38-3-1.52-9.8-9.38-2.43-2.82-6.72-7-10.22-8.82C949.07,394.9,980.21,395.8,982.37,416.14Zm-37-9.07-3.05,6.54-5.9-2.49c1-6.5,6.5-12.61,9.82-15.18,19.51-15.14,43.5-.59,46.07,15.3l-6,2.43c-2.18-2.68-.89-5.82-7.78-12.11a22.3,22.3,0,0,0-33.17,5.51ZM943.06,361c2.52,8.4,7.51,11.88,15.19,15.14-2.93.8-4.93,1.06-8,2.08-2,.69-2,.71-3.51-.43a28.73,28.73,0,0,1-10.13-14.36c-3.51-11.55,1.08-23.32,6.92-29.33A29.77,29.77,0,0,1,979.82,330c5.32,3.27,11.62,10.65,12.45,17.18l-6,2.42c-1-1.17-1.45-3.67-2.23-5.17a22.21,22.21,0,0,0-41,16.56Zm7.54-18.48c10.44-12,30.37-5.25,31.75,9.55-5.26,2.47-11.26,9.51-14.22,14.65-.9,1.58-2.25,4.94-3.16,6.09C949.18,373.76,940.08,354.59,950.6,342.51Zm23.16,22.69c2.84-3.92,4.37-5.08,8-8.05,17.36-14.41,50.39-9.95,60.5,18.73l-5.64.92c-.83-1-2.11-4.52-4.88-8.39a33,33,0,0,0-6.67-6.68c-20-14.39-44.94-3.2-50.71,15.13l-6-.86A33.61,33.61,0,0,1,973.76,365.2Zm31.67-59.39c8.44.05,15.64,6.19,17.16,12.81a27,27,0,0,1-2.91,2.24,41.66,41.66,0,0,0-14.25,20.56c-1.31-1.92-2.12-4.86-3.28-7.06-3.51-6.6-5-7.19-8.74-11.28-1.5-1.66-3.6-2.86-5.44-4.46C989.23,311.88,997.19,305.76,1005.43,305.81Zm-18,5.07c-1.17,1.6-2.13,4.16-3.35,5.52l-5.92-2.68c1.45-5.41,6.67-10.69,10.06-13.18,16-11.73,38.58-3.57,44.17,13.33l-6.08,2.53c-1.44-2-1.81-3.76-3.44-5.91a21.5,21.5,0,0,0-4.56-4.34C1008.16,299,994.7,301,987.46,310.88Zm.76,53.68c15.51-11.16,37.65-4.57,44.21,13.37l-6.09,2.54c-1.37-1.88-1.8-3.66-3.28-5.65a22.14,22.14,0,0,0-31.4-4.17,17.63,17.63,0,0,0-4.41,4.49l-2.42,4.27c-.53,1-.14.43-.73,1.07l-5.92-2.71C979.78,372.4,984.84,367,988.22,364.56Zm17.22,5.32c8.53.08,15.42,6.1,17.15,12.78a31.46,31.46,0,0,1-2.88,2.27c-6.42,5.24-11.88,11.94-14.26,20.55-1.93-2.73-2.52-7.36-7.18-13-6.78-8.18-4.25-4.11-10.31-9.83C989.44,375.86,997.06,369.81,1005.44,369.88Zm62.7,43.78c-1.12-1.51-1.8-4.64-3-6.64-9.71-16.07-35.7-13.7-40.59,6.78l-6.27-2.68c.89-6.57,6.5-12.49,9.83-15.15a29.08,29.08,0,0,1,36.67.29c3.51,3,8.3,8.68,9.44,15Zm33.43-28.7a38.89,38.89,0,0,0-7.33,7.34,42.28,42.28,0,0,0-7,13.12c-1.39-1.9-2.06-4.85-3.28-7a45.76,45.76,0,0,0-3.86-5.93c-4.46-5.72-6.6-6.4-10.31-9.79a17.15,17.15,0,0,1,6.18-9c11.94-8.85,26.7-.33,28.45,9A30,30,0,0,1,1101.57,385Zm-14.29-25.88c13.25.05,23.77,9.1,27,18.85l-6.14,2.52c-1.28-1.92-2-3.8-3.28-5.63-9.54-14-34-10.46-38.53,5.81l-6.31-2.86C1063,368.15,1074.28,359,1087.28,359.08ZM1084,409.42l-5.9.68c-3.22-13.08-16-24.59-32.17-24.44a32.91,32.91,0,0,0-31.57,24.55l-5.91-.73c3.21-15.9,18.89-29.82,37.93-29.75C1065.05,379.79,1081,393.69,1084,409.42Zm-30.21-48.27a41.54,41.54,0,0,0-5.58,9.11c-2.63,6-3.1,1.11-5.81-3.64a43.19,43.19,0,0,0-11.55-12.91,9.36,9.36,0,0,1-2.62-2.18c3.58-20.9,33.87-19.51,36,.56C1061.44,353.1,1055.49,359,1053.76,361.15Zm14.38-11.56c-1-1.38-1.8-4.69-3-6.64-9.39-15.46-35-14.56-40.65,6.78l-6.2-2.65c.65-6.22,6.7-12.78,9.76-15.18,20.2-15.83,44.42.75,46.08,15.27Zm15.86-4.31-5.91.76a33,33,0,0,0-32.19-24.45c-16.34.16-28,11.44-31.59,24.54l-5.9-.72c1.67-8.94,8.15-16.91,13.07-21C1042.7,307,1076.69,316.43,1084,345.28Zm-30.26-48.18c-7.34,9.9-6.39,15.77-9.69,8.71-5.8-12.39-13.22-15.23-15.85-18.32,3.34-21,34.18-19.44,36,.53C1061.17,289.39,1055.55,294.67,1053.74,297.1Zm14.4-11.57c-.9-1.19-1.75-4.64-3-6.6-8.08-12.69-24.64-13.43-33.22-5.42-3.79,3.54-5.61,5.85-7.43,12.13l-6.17-2.6c.45-6.09,6.78-13,9.74-15.18,11.81-8.58,27-8.59,36.72.31,3.43,3.15,8.54,8.35,9.39,14.91Zm7.82-40c10.29-8.21,26.22-1.89,28.57,9.18-7.43,5.28-13.61,11.44-17.29,22.62-1.34-2-2-4.84-3.21-7a45.84,45.84,0,0,0-3.89-5.89c-4.14-5.58-8.13-7.6-10.28-9.79C1070.46,251,1073.85,247.19,1076,245.5Zm8,35.7-5.64.8c-.92-1.28-1.32-3.47-2-4.95-10.34-22-37.24-24.68-51.37-11.82-5.14,4.68-7.75,8.32-10.05,14.84-.91,2.59-.55,2-6.53,1.27,3-15.8,19.16-29.83,37.95-29.76A38.84,38.84,0,0,1,1084,281.2Zm-99.75-13.9c3.34,9.62,9.68,11.4,15,14.28a42.68,42.68,0,0,0-8,2c-1.74.63-1.78.83-3.11-.07-9.4-6.37-13.81-19.3-11-30.6,4.58-18.73,28.22-30.29,47.71-14.54,2.3,1.86,6.37,7.2,7.62,11.44l-6.06,2.53c-1.14-1.55-1.56-3.17-2.72-4.82-9.17-13.11-26.91-11.71-34.65-2.73C984.58,249.88,981.15,258.3,984.26,267.3Zm4.75,1c-3.53-6.83-2.13-15.2,2.19-20,11.72-13,28.77-4.84,31.46,6.26-7.69,5.91-15.23,13.28-17.48,23.68C996.83,278,991.76,273.65,989,268.33Zm64.73-35.27c-7.06,8.74-6.21,16.13-9.68,8.7-5.67-12.19-11.8-14-15.85-18.31,3.26-21.22,34.43-19.19,36,.5C1060.91,225.4,1055.81,230.5,1053.74,233.06Zm14.4-11.6c-.77-1-1.77-4.68-3-6.59a22.21,22.21,0,0,0-18.8-10.63c-11.64-.05-18.61,7.13-21.89,17.3l-6.32-2.33c1.13-6.3,6.17-12.74,9.87-15.43,20.86-15.17,43.09-.5,46.22,15.2Zm-21.79-34A38.84,38.84,0,0,1,1084,217.13l-5.64.77c-2-3.17-2.4-9.93-11.52-17.18a32.71,32.71,0,0,0-20.95-7.27c-16.38.14-26.38,9.87-31.67,24.51l-5.83-.7C1011.75,201.31,1027.26,187.44,1046.35,187.51ZM969.9,276.32a38.36,38.36,0,0,1-3.46-19.48c3.1-40.41,60.68-50.49,75.69-9.38-1.16.84-4.15,1-5.86,1.19-3.66-9.27-10.34-16.25-19.85-19.73-28.08-10.26-54.48,20-40.32,46.53,3.83,7.16,7,8.08,8.76,10.78l-4.77,3.08C976.79,288,972,280.68,969.9,276.32Zm36,8.8a38.79,38.79,0,0,1,36.31,26.69l-5.62.92c-1.33-1.62-3.16-6-4.85-8.39-15-20.94-49.2-16-57.44,8.46-1.1-.18-2-.35-3.07-.52l-2.79-.78C972.62,297.62,987.37,284.84,1005.88,285.12Zm-80.27,65.21a38.63,38.63,0,0,1,18.22-28.84c24.33-15.41,53.88,1.36,58.28,23.84l-5.89.75a32.94,32.94,0,0,0-50.5-18.7c-13.32,9.13-18.68,26.4-10.65,42.46,2.69,5.38,5.6,7.41,9,11.06-2,1-3.52,2.3-5.52,3.13a15.44,15.44,0,0,0-2.89-3.17C928.29,373.83,924.48,361.13,925.61,350.33Zm14,38.15a39,39,0,0,1,57.47,9.16c1.7,2.59,4.68,8.08,4.78,11.76l-5.36.75c-1.24-1.76-2.83-6.91-4.57-9.59-15.22-23.62-52.71-17.91-59.51,9.65l-5.91-.73C928.11,400.55,934.76,392.46,939.65,388.48Zm-53.18,51.33c3.53-9.56,7.14-13.46,13.17-18.42,18.38-15.14,50.85-9.37,60.7,18.53l-5.6,1c-.9-1-1.62-3-2.32-4.32-9.28-17.71-33.24-22.87-48.8-10.75-4.43,3.44-9.1,8.2-11.18,15.15Zm15.79,4.77-6-2.77c3-9.6,14.22-18.76,27.3-18.65,6.6.06,13.33,2.56,17.28,5.83,3.36,2.79,8.35,7.54,9.57,13.12l-5.94,2.46c-1.15-1.59-1.93-3.73-3.35-5.63a22.21,22.21,0,0,0-35.76.22C904.33,440.66,903.41,443.1,902.26,444.58Zm20.36,23.12c-2.53-6-6.07-12.39-11-16.53l-4.19-3.36a7.7,7.7,0,0,1-1.32-1.11c1.59-6.81,9.13-12.82,17.54-12.75,8.25.08,15.64,6.2,17.12,12.75l-5.52,4.49c-4.22,3.54-10.2,12.34-11.58,18.38Zm63.69,10c-1.2-1.51-1.88-4.65-3.07-6.61-10.42-17.09-36.51-12.44-40.54,6.73l-6.31-2.7c1-6.56,6.54-12.49,9.88-15.15,19.2-15.27,43.73-.39,46.05,15.27Zm9.88-3.52c-2.63-12.9-16.4-24.62-32.12-24.49s-28.57,11.6-31.59,24.55l-5.57-.73c-.62-2.83,3.21-9.68,4.61-11.82,20.31-31,65-18.15,70.57,11.75Zm9.28-4.68-1-1.88c-.27-.66-.45-1.24-.75-1.91-5.75-13.05-11.27-14.37-15.79-19.05,3.93-16.09,29.61-17.56,34.66,0l-5.51,4.53C1012.63,455,1006.85,463.47,1005.47,469.54Zm62.67,8.19c-.86-1.22-1.85-4.7-3-6.65-10.06-16.59-36.22-12.92-40.54,6.77l-6.31-2.69c1-6.54,6.49-12.4,9.81-15.16,16.41-13.64,42.34-3.55,46.15,15.26Zm9.92-3.56a32.91,32.91,0,0,0-32.16-24.44c-15.87.15-28.52,11.6-31.55,24.55l-5.6-.73c-.69-3.75,5.43-13.77,8.24-16.65,26.53-27.21,62.67-7.6,67,16.58Zm9.25-4.68c-2.64-3.44-1.57-7.43-10.94-17.23-3.24-3.4-4.26-3.29-6.55-5.56,4.21-16.77,30.09-16.92,34.65,0-1.32,1.54-4.78,3-10.21,9.66A41,41,0,0,0,1087.31,469.49Z"/><path class="cls-6" d="M1114.15,265l1.13-.59v-4.33a33,33,0,0,0-8.06,4.92Z"/><path class="cls-6" d="M1100.21,272.86a26.36,26.36,0,0,0-2.92,5.56h4.3c.18-.39.36-.78.55-1.16v-7C1101.47,271.06,1100.82,271.93,1100.21,272.86Z"/><path class="cls-6" d="M1115.12,452.49a34.72,34.72,0,0,0-14.75,12.05h5.09a37.36,37.36,0,0,1,4.47-4.51,27.25,27.25,0,0,1,5.35-3.49v-.74h-.16Z"/><path class="cls-6" d="M1115.28,464.54v0l0,0Z"/><path class="cls-6" d="M1098.24,195.52h6.16a39.2,39.2,0,0,1,10.88-5.86V185.4a42.15,42.15,0,0,0-13.6,7.11A39.82,39.82,0,0,0,1098.24,195.52Z"/><path class="cls-6" d="M1108,234.42v4h4A32.36,32.36,0,0,0,1108,234.42Z"/><path class="cls-6" d="M952.89,482.48H960c-.09-.08-.2-.15-.29-.22h-7.2Z"/><path class="cls-6" d="M777.43,482.48h4a1.62,1.62,0,0,0,0-.22h-4A1.62,1.62,0,0,0,777.43,482.48Z"/><path class="cls-6" d="M788.34,482.48h3.76v-.22h-3.76Z"/><path class="cls-6" d="M767.5,482.48h4c0-.07,0-.15,0-.22h-4Z"/><path class="cls-6" d="M1116.87,455.8h-1.59v.74C1115.81,456.28,1116.34,456,1116.87,455.8Z"/><path class="cls-6" d="M988.13,482.48h7.28l.42-.22h-7.41A3.15,3.15,0,0,0,988.13,482.48Z"/><path class="cls-6" d="M906.47,482.48h6.83l.39-.22h-6.94Z"/><path class="cls-6" d="M824.64,482.48h6.77l.4-.22h-6.9Z"/><path class="cls-6" d="M871.17,482.48h6.92l-.28-.22h-7C870.9,482.34,871,482.4,871.17,482.48Z"/><path class="cls-6" d="M1102.14,244.3h.83c-.27-.28-.54-.55-.83-.81Z"/><path class="cls-6" d="M32.13,244a28.54,28.54,0,0,1-3.77,2.16v4.32A33.09,33.09,0,0,0,38.28,244Z"/><path class="cls-6" d="M33.89,50.52a27.11,27.11,0,0,1-6,3.8v.43h.83v3.31A34.5,34.5,0,0,0,43.76,45.52h-5A37.19,37.19,0,0,1,33.89,50.52Z"/><path class="cls-5" d="M47.59,36.27l5.63.73c.53,2.84-3.35,9.77-4.61,11.79a39.57,39.57,0,0,1-7.92,9,44.29,44.29,0,0,1-12,6.62v3.84h-.83v6a35.9,35.9,0,0,0,2.41,3.86c10.26,14.22,31.66,17.73,46.25,6.6,3.72-2.83,9.54-9,11.09-15.12l6,.88C89.69,85.61,73.23,97.35,56.55,97.29A40.58,40.58,0,0,1,27.87,84.67v5.38C30.72,92.57,33,94,33.75,95a18.23,18.23,0,0,1-5.88,10.74v4.76a21.45,21.45,0,0,0,9.55-13.72l6.26,2.67c-.8,7.12-7.25,14.74-15.81,18.72v4.36c10.11-4.06,17.84-12.8,19.75-22.16l5.91.72c-2,12.1-12.53,23.25-25.66,27.7v9.71c14.65,25.73,51.54,20.29,59.77-4.79l6,.86c-3.86,15.08-20.27,26.86-37,26.81a40.84,40.84,0,0,1-28.69-12.62v5.36c2.63,2.28,4.83,3.62,5.88,4.92a18.61,18.61,0,0,1-5.88,10.61v5a23.89,23.89,0,0,0,9.58-13.77l6.21,2.64c-.9,6.59-6.4,12.43-9.77,15.15a29,29,0,0,1-6,3.75v4.2a31.37,31.37,0,0,0,19.78-22.15l5.89.73C51,177.52,41,188.59,27.87,192.94v2.31H33l2.63-1.08c.24.36.46.72.68,1.08h4.26a13.25,13.25,0,0,1-1.29-3.45c8-6.2,13.7-11.25,17.26-22.61,1.37,1.94,2,4.85,3.24,7,4.46,8,7.41,10.08,14.18,15.7-1.34,6.78-9.13,12.86-17.43,12.81a18.46,18.46,0,0,1-2.58-.23v4c10.86,1.38,21-5.52,23.53-14.52l6.26,2.88c-1.42,5.23-6.79,10.89-10,13.21A28.38,28.38,0,0,1,54,215.37v3.95c13.89,1.12,28.26-6.37,33.7-21.55l5.91.86c-.81,3.65-3.48,8.13-5.36,10.74A37.72,37.72,0,0,1,54,225.17v5.47h-.76c-3,11.6-12.38,21.92-24.85,26.21v7.91h2.77a19.29,19.29,0,0,1-1.58-4l6.1-2.5c1.38,2.07,2.06,4.05,3.41,5.9l.49.62H41v1.65c9.45,9.5,27.74,8.64,35.26-5.4l1.43-2.59c0,.06.13-.17.2-.24l5.84,2.68c-1.28,5.24-6.72,10.86-10,13.2A28.53,28.53,0,0,1,54,279.43v4.07c13.46,1.1,27.53-6,33.74-21.68l5.84.89c-1.3,7-8,14.73-13.24,18.8A38.13,38.13,0,0,1,54,289.38v14.31c1.65-3.18,2.43-5.48,3-5.91.55,6.61,9.28,16.24,14.09,20.15,11.94,9.69,28.31,11.47,42.78,6a42.28,42.28,0,0,0,24.78-26.81,26.5,26.5,0,0,1,1.07-3.82c12.06,0,21.29-4.61,29-12.34a43,43,0,0,0,4.15-56.41c-1.47-2-3.73-4.72-5.59-6,2.6-3.89,6.64-5.74,10.22-13.79.79-1.79,1.42-4.1,2.23-5.78a43.57,43.57,0,0,0,17.16-3.74,38.86,38.86,0,0,0,9.63-5.94,43.09,43.09,0,0,0,7.2-59.45c-1.32-1.76-3.44-5-5.53-5.59,4.08-6.1,9.94-8.53,13.34-23.12a39.77,39.77,0,0,0,15.83-3.3c10.69-4.48,19.67-13.74,23.33-24.69,1.13-3.38,1.38-2.09,7-2.81,9.09-1.19,19.06-6.2,25.13-13.12.84-1,1.09-1.43,2-2.45,6.44-7.13,9.38-17,9.45-27h-4c1.32,14-8.88,27.6-20.09,34.16-13.49,7.89-30.55,5.61-42.41-3.17a42.19,42.19,0,0,1-8.83-9.41c-1.33-2-5.64-9.39-5-12.34l5.56-.74c3.31,14.13,18.58,27.12,37,24.11,15.55-2.54,27.38-15.18,27.81-32.61h-4c-.32,15.25-10.57,26.26-23.8,28.62-15.32,2.73-30.82-7.78-33.2-21.16l6-2.46.61,1.08c2.11,4.79,2.78,8.23,9,12.34a22.17,22.17,0,0,0,31.33-6.78,19.18,19.18,0,0,0,3.12-11.64h-3.76a17.76,17.76,0,0,1-4.42,11.91c-9.92,11.57-29.83,6.31-31.92-9.34a17.51,17.51,0,0,0,3.8-2.57h-6.77a39.29,39.29,0,0,1-39.76,0h-6.92a16.59,16.59,0,0,0,3.86,2.59c-2.87,21.18-33.85,20.28-36.08-.05a16.53,16.53,0,0,0,3.84-2.54h-6.82c-12.9,7.86-28.06,6.55-39.6,0H111.8a28.2,28.2,0,0,0,3.86,2.65c-3,20.89-33.6,20.53-36.07-.13a16.94,16.94,0,0,0,4-2.52H76.35a38.82,38.82,0,0,1-30.5,3.81V41.7A23.85,23.85,0,0,0,47.59,36.27ZM29.5,68.55,35.65,66c2.59,3.91,2.4,6.2,7.73,10.11C56.82,86,74.25,77.74,77.43,65.89l6.35,2.85C76.1,91.93,39.22,95,29.5,68.55ZM90,85.32a41,41,0,0,0,5.6-9.09c1.35-3.06,2.08-3.94,3.47-1.1,3.83,7.79,8.6,15.08,16.55,19.39C112.76,115.42,82,115,79.59,94.38,82.57,93.25,88.15,87.68,90,85.32ZM169.5,69.6l6,.87c-2,8.24-8.67,15.25-13.36,18.9-19.24,15-50.35,8.88-60.51-18.75l5.64-.94A27.88,27.88,0,0,1,109.53,74C122.79,99.57,161.71,95.29,169.5,69.6Zm-58.12-1L117.49,66c1.31,2.06,1.85,3.72,3.3,5.66,10.15,13.58,30.61,10.76,37.46-3.07.26-.51.47-1,.72-1.51l.36-.57c0-.06.17-.34.2-.28s.13-.18.19-.23l6,2.29c-1,5.21-6.83,11.19-9.85,13.44C141.18,92.63,119.14,87.76,111.38,68.56Zm50.07,25.85c5.29-2,13.45-12,16.05-18.14,3.1-7.38,3,1.52,9.81,9.38,2.43,2.82,6.71,7,10.22,8.81C194.76,115.65,163.61,114.75,161.45,94.41Zm37,9.07,3-6.54,5.9,2.49c-1,6.5-6.5,12.61-9.82,15.18-19.51,15.14-43.5.59-46.07-15.3l6-2.43c2.18,2.68.9,5.82,7.78,12.11a22.3,22.3,0,0,0,33.17-5.51Zm2.31,46.08c-2.53-8.4-7.52-11.88-15.2-15.14,2.93-.8,4.93-1.06,8-2.09,2.05-.68,2-.7,3.51.44a28.67,28.67,0,0,1,10.13,14.36c3.51,11.55-1.08,23.32-6.92,29.32a29.77,29.77,0,0,1-36.29,4.1c-5.32-3.27-11.61-10.65-12.45-17.18l6-2.42c1,1.17,1.46,3.67,2.24,5.17a22.21,22.21,0,0,0,41-16.56ZM193.22,168c-10.44,12-30.37,5.25-31.75-9.55,5.26-2.47,11.26-9.52,14.22-14.65.9-1.58,2.25-4.94,3.17-6.09C194.64,136.79,203.74,156,193.22,168Zm-23.15-22.7c-2.84,3.93-4.37,5.09-7.95,8.06-17.36,14.4-50.4,9.95-60.5-18.73l5.64-.92c.82,1,2.1,4.52,4.87,8.38a32.78,32.78,0,0,0,6.67,6.69c20,14.38,44.94,3.19,50.71-15.13l6,.85A33.81,33.81,0,0,1,170.07,145.34Zm-31.67,59.4c-8.45-.05-15.65-6.19-17.17-12.81a27,27,0,0,1,2.91-2.24,41.66,41.66,0,0,0,14.25-20.56c1.31,1.92,2.12,4.86,3.28,7.06,3.52,6.6,5,7.19,8.74,11.28,1.5,1.66,3.6,2.86,5.44,4.46C154.59,198.67,146.63,204.79,138.4,204.74Zm18-5.07c1.18-1.6,2.13-4.16,3.36-5.52l5.91,2.67c-1.45,5.42-6.66,10.7-10.06,13.19-15.95,11.73-38.58,3.57-44.17-13.33l6.09-2.53c1.43,2,1.81,3.76,3.43,5.91a21.5,21.5,0,0,0,4.56,4.34C135.66,211.59,149.12,209.54,156.36,199.67ZM155.6,146c-15.51,11.16-37.65,4.56-44.21-13.37l6.1-2.55c1.36,1.89,1.8,3.67,3.27,5.66a22.13,22.13,0,0,0,31.4,4.16,17.58,17.58,0,0,0,4.41-4.48l2.42-4.27c.53-1,.14-.43.73-1.07l5.92,2.71C164,138.15,159,143.56,155.6,146Zm-17.22-5.32c-8.53-.08-15.42-6.1-17.15-12.78a31.46,31.46,0,0,1,2.88-2.27c6.42-5.24,11.88-11.94,14.26-20.55,1.93,2.73,2.52,7.36,7.18,13,6.78,8.19,4.25,4.12,10.31,9.84C154.39,134.69,146.76,140.74,138.38,140.67ZM75.68,96.89c1.12,1.51,1.81,4.64,3,6.64,9.72,16.07,35.7,13.7,40.59-6.78l6.27,2.68c-.89,6.57-6.5,12.48-9.83,15.15a29.06,29.06,0,0,1-36.67-.3c-3.51-3-8.3-8.67-9.44-15Zm-33.43,28.7a38.59,38.59,0,0,0,7.33-7.34,42.28,42.28,0,0,0,7-13.12c1.39,1.89,2.06,4.85,3.28,7a46.84,46.84,0,0,0,3.86,5.93c4.47,5.72,6.6,6.39,10.31,9.79a17.15,17.15,0,0,1-6.18,9c-11.94,8.85-26.7.33-28.45-9A30,30,0,0,1,42.25,125.59Zm14.3,25.88c-13.25-.05-23.78-9.1-27-18.85l6.13-2.52c1.28,1.92,2,3.8,3.28,5.63,9.54,14,34,10.45,38.53-5.81l6.31,2.86C80.83,142.4,69.55,151.51,56.55,151.47Zm3.3-50.34,5.9-.68c3.22,13.08,16,24.59,32.17,24.43a32.89,32.89,0,0,0,31.57-24.54l5.92.73c-3.21,15.89-18.9,29.82-37.94,29.75C78.77,130.76,62.83,116.86,59.85,101.13ZM90.06,149.4a41.54,41.54,0,0,0,5.58-9.11c2.64-6,3.1-1.11,5.81,3.64A43.19,43.19,0,0,0,113,156.84a9.2,9.2,0,0,1,2.62,2.18c-3.58,20.9-33.87,19.51-36-.56C82.39,157.45,88.33,151.57,90.06,149.4ZM75.68,161c1,1.38,1.8,4.69,3,6.64,9.39,15.46,35,14.56,40.65-6.78l6.21,2.65c-.66,6.22-6.7,12.78-9.76,15.18-20.2,15.83-44.42-.75-46.09-15.27Zm-15.86,4.31,5.92-.76A33,33,0,0,0,97.92,189c16.35-.16,28-11.45,31.6-24.54l5.89.72c-1.67,8.94-8.15,16.91-13.07,21C101.12,203.6,67.13,194.12,59.82,165.27Zm30.26,48.18c7.34-9.9,6.4-15.77,9.69-8.71,5.8,12.39,13.22,15.22,15.85,18.32-3.34,21-34.17,19.44-36-.53C82.65,221.16,88.27,215.88,90.08,213.45ZM75.68,225c.9,1.19,1.75,4.64,3,6.6,8.08,12.69,24.64,13.43,33.22,5.42,3.79-3.54,5.62-5.85,7.43-12.14l6.17,2.61c-.44,6.09-6.77,13-9.74,15.18-11.81,8.58-27,8.59-36.72-.31-3.43-3.15-8.54-8.35-9.39-14.91Zm-7.81,40c-10.3,8.21-26.22,1.89-28.58-9.18,7.44-5.28,13.61-11.44,17.29-22.62,1.34,2,2,4.84,3.21,7a45.84,45.84,0,0,0,3.89,5.89c4.15,5.58,8.13,7.6,10.28,9.79C73.36,259.59,70,263.36,67.87,265.05Zm-8.05-35.7,5.63-.8c.92,1.28,1.32,3.46,2,4.95,10.34,22,37.24,24.68,51.37,11.82,5.14-4.68,7.75-8.32,10-14.84.91-2.59.56-2,6.53-1.27C132.44,245,116.26,259,97.47,259A38.82,38.82,0,0,1,59.82,229.35Zm99.74,13.9c-3.33-9.62-9.68-11.4-15-14.28a42.49,42.49,0,0,0,8-2c1.74-.63,1.78-.83,3.11.07,9.41,6.37,13.81,19.3,11.05,30.6-4.57,18.73-28.22,30.29-47.7,14.54-2.31-1.86-6.38-7.2-7.63-11.44l6.07-2.53c1.13,1.55,1.55,3.17,2.71,4.82,9.17,13.11,26.91,11.71,34.65,2.73C159.25,260.67,162.68,252.25,159.56,243.25Zm-4.75-1c3.53,6.83,2.14,15.2-2.19,20-11.72,13-28.77,4.84-31.45-6.26,7.68-5.91,15.22-13.28,17.47-23.68C147,232.58,152.06,236.9,154.81,242.22ZM90.08,277.49c7.06-8.74,6.21-16.13,9.68-8.7,5.67,12.19,11.8,14,15.86,18.31-3.27,21.22-34.44,19.19-36-.5C82.91,285.15,88,280.05,90.08,277.49Zm-14.4,11.6c.77,1,1.78,4.68,3,6.59a22.21,22.21,0,0,0,18.8,10.63c11.64.05,18.61-7.13,21.9-17.3l6.31,2.33c-1.13,6.3-6.17,12.74-9.87,15.43-20.85,15.17-43.09.5-46.22-15.2Zm21.79,34a38.84,38.84,0,0,1-37.66-29.62l5.64-.77c2,3.17,2.4,9.93,11.52,17.18a32.71,32.71,0,0,0,21,7.27c16.38-.14,26.38-9.87,31.67-24.51l5.83.7C132.07,309.24,116.56,323.11,97.47,323Zm76.45-88.81a38.34,38.34,0,0,1,3.46,19.48c-3.1,40.41-60.67,50.49-75.69,9.38,1.16-.84,4.15-1,5.86-1.19,3.66,9.27,10.34,16.25,19.85,19.73,28.08,10.26,54.48-20,40.32-46.53-3.83-7.16-7-8.08-8.76-10.79l4.78-3.07C167,222.6,171.87,229.86,173.92,234.23Zm-36-8.8a38.8,38.8,0,0,1-36.31-26.69l5.63-.92c1.32,1.62,3.15,6,4.84,8.38,15,21,49.2,16.05,57.44-8.45,1.1.18,2,.35,3.07.52l2.79.78C171.2,212.93,156.45,225.71,137.94,225.43Zm80.27-65.21A38.65,38.65,0,0,1,200,189.06c-24.33,15.41-53.88-1.36-58.28-23.84l5.89-.75a32.94,32.94,0,0,0,50.5,18.7c13.32-9.13,18.69-26.4,10.65-42.47-2.69-5.37-5.6-7.4-9-11,2-1,3.52-2.3,5.52-3.13a15.44,15.44,0,0,0,2.89,3.17C215.53,136.72,219.34,149.42,218.21,160.22Zm-14-38.15a39,39,0,0,1-57.47-9.16c-1.7-2.59-4.68-8.08-4.78-11.76l5.36-.75c1.24,1.76,2.84,6.91,4.57,9.59,15.23,23.62,52.71,17.91,59.51-9.65l5.91.73C215.71,110,209.06,118.09,204.17,122.07Zm53.18-51.33c-3.53,9.56-7.14,13.46-13.16,18.42-18.39,15.14-50.86,9.37-60.71-18.53l5.6-1c.9,1,1.62,3,2.32,4.32,9.28,17.71,33.25,22.87,48.8,10.75,4.43-3.44,9.1-8.21,11.18-15.15ZM241.56,66l6,2.77c-3,9.6-14.22,18.75-27.3,18.64-6.6,0-13.33-2.55-17.27-5.82-3.37-2.79-8.36-7.54-9.58-13.12L199.31,66c1.15,1.59,1.93,3.73,3.36,5.63a22.2,22.2,0,0,0,35.75-.22C239.49,69.89,240.41,67.45,241.56,66ZM221.2,42.85c2.53,6,6.07,12.38,11,16.53l4.19,3.36a7.7,7.7,0,0,1,1.32,1.11c-1.59,6.81-9.13,12.82-17.53,12.75s-15.65-6.2-17.13-12.75l5.52-4.49C212.83,55.81,218.81,47,220.19,41Zm-63.69-10c1.2,1.51,1.88,4.65,3.08,6.61,10.41,17.09,36.5,12.43,40.53-6.73l6.31,2.7c-1,6.56-6.53,12.49-9.87,15.15-19.21,15.26-43.74.39-46.06-15.27Zm-9.88,3.52C150.26,49.23,164,61,179.75,60.82s28.57-11.6,31.59-24.55l5.58.73c.61,2.83-3.22,9.68-4.62,11.82C192,79.77,147.35,67,141.73,37.07ZM138.35,41l1,1.88c.28.66.45,1.23.75,1.91,5.75,13.05,11.27,14.37,15.79,19.05-3.92,16.09-29.6,17.55-34.66,0l5.52-4.53C131.19,55.56,137,47.08,138.35,41ZM75.68,32.82c.86,1.22,1.85,4.7,3,6.65,10.07,16.59,36.22,12.92,40.54-6.77l6.31,2.69c-1,6.53-6.48,12.4-9.81,15.16C99.35,64.19,73.41,54.1,69.6,35.29Zm-9.92,3.56A32.91,32.91,0,0,0,97.92,60.82c15.87-.15,28.52-11.6,31.55-24.55l5.6.73c.69,3.75-5.43,13.77-8.23,16.65-26.53,27.21-62.68,7.6-67-16.58Zm-9.24,4.68c2.63,3.44,1.56,7.43,10.93,17.23,3.25,3.4,4.26,3.29,6.56,5.56-4.22,16.77-30.1,16.92-34.66,0,1.33-1.54,4.78-3,10.21-9.66A41,41,0,0,0,56.52,41.06Z"/><path class="cls-6" d="M27.87,314.94a30.89,30.89,0,0,0,3.1-1.4h-3.1Z"/><path class="cls-6" d="M27.87,45.52v1c.49-.3,1-.62,1.43-1Z"/><path class="cls-6" d="M41,278.16h6.8A31.42,31.42,0,0,1,41,275Z"/><path class="cls-6" d="M18,238.14H28.57a23.37,23.37,0,0,0,6.47-7.5H30.61A18.4,18.4,0,0,1,18,238.14Z"/><path class="cls-6" d="M43.62,237.69A23.68,23.68,0,0,0,47,230.64H42.83a26,26,0,0,1-1.82,3.9v6.59A38.31,38.31,0,0,0,43.62,237.69Z"/><path class="cls-6" d="M47.05,313.54h-5.8a39.07,39.07,0,0,1-13.38,7.57v4.25A41.94,41.94,0,0,0,42.14,318,43.46,43.46,0,0,0,47.05,313.54Z"/><path class="cls-6" d="M41,266.41v-1.65H39.55A21,21,0,0,0,41,266.41Z"/></g></svg>