<svg xmlns="http://www.w3.org/2000/svg" viewBox="0 0 393.7 770.72"><defs><style>.cls-1{isolation:isolate;}.cls-2{opacity:0.71;}.cls-3{fill:#f2a7a8;}.cls-4{opacity:0.5;mix-blend-mode:screen;}.cls-5{fill:none;}.cls-6{fill:#ebb3b4;}</style></defs><title>Border_bg_phone</title><g class="cls-1"><g id="圖層_1" data-name="圖層 1"><g class="cls-2"><path class="cls-3" d="M200.81,315.91h-.74v.34C200.31,316.13,200.56,316,200.81,315.91Z"/></g><g class="cls-4"><path class="cls-5" d="M371.73,720.5c4.52,3.32,4.36,5.25,6.56,8.57l5.21-2.13c-8.24-22.41-39.52-19.84-46-.17l5.38,2.42C345.55,719.14,360.33,712.13,371.73,720.5Z"/><path class="cls-5" d="M249.66,712.43c5.75,6.66,5.69,14.22,8.31,8,2.21-5.24,9.13-13.68,13.61-15.38-1.83-17.25-28.24-18-30.59,0C244,706.45,247.59,710,249.66,712.43Z"/><path class="cls-5" d="M276.36,715.75c-2.57,1.92-7.48,7-8.36,11.4l5.06,1.94s.13-.25.16-.19.13-.18.17-.23l.3-.49c.21-.39.39-.84.61-1.28,5.81-11.73,23.16-14.12,31.77-2.6,1.23,1.64,1.69,3.05,2.81,4.79l5.18-2.16C307.48,710.64,288.78,706.51,276.36,715.75Z"/><path class="cls-5" d="M310.43,704.91c6.75,3.65,10.8,9.84,14,16.44,1.18,2.41,1.8,1.66,2.94-.93a34.92,34.92,0,0,1,4.75-7.71c1.6-2,6.33-6.72,8.86-7.69C339,687.51,312.89,687.18,310.43,704.91Z"/><path class="cls-5" d="M317.55,726l4.79-.8c-8.63-23.44-35-28.61-51.33-15.9-4,3.09-9.61,9-11.33,16l5.08.74c6.6-21.79,39.62-25.41,50.87-3.75A22.93,22.93,0,0,0,317.55,726Z"/><path class="cls-5" d="M197.35,745.87c5.3,3.49,5.87,6.41,7.65,10.47l.52.92,5.07-2.09c-2-11.35-15.17-20.26-28.16-17.95-11.21,2-19.9,11.32-20.19,24.23h5.26v-6.19H169a17.65,17.65,0,0,1,1.78-3.64A18.81,18.81,0,0,1,197.35,745.87Z"/><path class="cls-5" d="M182.46,733.84c15.64-2.56,28.59,8.47,31.4,20.45l4.71-.63c.59-2.5-3.07-8.81-4.2-10.47a35.8,35.8,0,0,0-7.48-8c-10.07-7.44-24.53-9.38-36-2.69-7.82,4.58-15.06,13.23-16.75,22.74h3.2v6.19h1.52C159.26,746.69,169.28,736,182.46,733.84Z"/><path class="cls-5" d="M310.45,650.2a8.07,8.07,0,0,0,2.23,1.85,36.73,36.73,0,0,1,9.8,11c2.29,4,2.69,8.18,4.92,3.09a35.44,35.44,0,0,1,4.73-7.73c1.47-1.84,6.52-6.83,8.88-7.69C339.19,633.65,313.49,632.47,310.45,650.2Z"/><path class="cls-5" d="M360.56,611.42c-7,0-13.65,5.11-14.78,10.86,5.74,4.77,8.24,6.58,12,13.32,1,1.86,1.59,4.33,2.75,6,3-9.64,7.82-13.93,14.64-19.19C374,616.73,367.66,611.47,360.56,611.42Z"/><path class="cls-5" d="M371.76,611.83c4,2.78,4.57,5.6,6.53,8.56l5.19-2.14c-4-13.38-23.24-21.69-37.53-11.32-2.71,2-7.26,6.77-8.47,11.2l5.31,2.45C345.67,610.46,359.82,603.46,371.76,611.83Z"/><path class="cls-5" d="M268.33,692.63c5.84,5.34,4.75,8,6.6,10.28l5.08-2.07c-2.18-13.47-22.53-25.82-39.08-13-2.82,2.19-7.48,7.37-8.33,12.88l5,2.11,2.58-5.54a18.91,18.91,0,0,1,28.14-4.68Z"/><path class="cls-5" d="M293.68,699.35l5,.62a28,28,0,0,1,54.07-.09l5-.58c-2.53-13.34-16.05-25.13-31.91-25.18C309.71,674.06,296.4,685.87,293.68,699.35Z"/><path class="cls-5" d="M341.49,579.49c-8.23-7.55-21.13-7.53-31.15-.26-2.52,1.82-7.88,7.71-8.27,12.88l5.24,2.21c1.54-5.34,3.09-7.29,6.3-10.3,7.28-6.79,21.32-6.16,28.18,4.6,1.06,1.66,1.78,4.59,2.54,5.6l5.12-2.08C348.73,586.57,344.4,582.16,341.49,579.49Z"/><path class="cls-5" d="M351,560.27c-1.79,1.43-4.66,4.63-5.16,7.69,1.82,1.87,5.2,3.58,8.72,8.31a40.76,40.76,0,0,1,3.29,5c1.05,1.86,1.58,4.27,2.72,6,3.12-9.48,8.36-14.71,14.67-19.19C373.2,558.66,359.69,553.31,351,560.27Z"/><path class="cls-5" d="M375.51,670c1.05,1.55,1.69,3.15,2.78,4.78l5.2-2.14c-2.76-8.27-11.69-15.94-22.93-16-11,0-20.59,7.68-23.09,15.84l5.35,2.43C346.66,661.09,367.41,658.05,375.51,670Z"/><path class="cls-5" d="M304.76,627.22c-4.17,3.44-9.67,10.21-11.09,17.79l5,.61a28,28,0,0,1,54.1-.08l5-.64C351.58,620.43,322.75,612.39,304.76,627.22Z"/><path class="cls-5" d="M310.46,595.88c2.23,2.63,8.52,5,13.44,15.54,2.8,6,2,1,8.22-7.39,1.54-2.06,6.3-6.54,8.88-7.7C339.44,579.39,313.29,578.09,310.46,595.88Z"/><path class="cls-5" d="M310.33,633.55c-2.59,2-7.72,7.6-8.27,12.87l5.26,2.25c4.82-18.1,26.51-18.86,34.48-5.75,1,1.66,1.65,4.47,2.53,5.64l5.09-2.06C348,634.19,327.47,620.12,310.33,633.55Z"/><path class="cls-5" d="M256.82,668.24c.78-1,1.92-3.83,2.69-5.16,2.51-4.36,7.6-10.33,12.06-12.43-1.17-12.55-18.08-18.26-26.93-8.1S243.44,669.06,256.82,668.24Z"/><path class="cls-5" d="M307.76,658.85a27.9,27.9,0,0,1,5.66,5.67c2.35,3.28,3.43,6.25,4.13,7.11l4.79-.78c-8.57-24.33-36.59-28.1-51.32-15.89-3,2.53-4.33,3.51-6.74,6.84a28.56,28.56,0,0,0-4.6,9.16l5.07.73C269.64,656.14,290.78,646.65,307.76,658.85Z"/><path class="cls-5" d="M351,668.94a14.57,14.57,0,0,0-5.24,7.66c3.15,2.88,5,3.45,8.74,8.31a36.78,36.78,0,0,1,3.27,5c1,1.86,1.61,4.36,2.79,6a35.68,35.68,0,0,1,5.9-11.13,33.05,33.05,0,0,1,6.22-6.23,24,24,0,0,0,2.45-1.95C373.66,668.66,361.14,661.43,351,668.94Z"/><path class="cls-5" d="M281,626.07c3.14,3.47,4.43,4,7.41,9.57,1,1.86,1.67,4.36,2.79,6a35.32,35.32,0,0,1,12.08-17.44,22,22,0,0,0,2.47-1.9c-1.29-5.61-7.4-10.81-14.56-10.86-7,0-13.73,5.15-14.8,10.86C277.9,623.64,279.68,624.66,281,626.07Z"/><path class="cls-5" d="M273,644.18c.66,1.27,1.07,3.39,1.9,4.38l5.05-2c-.71-5.54-6.05-11.8-10.56-14.57a25.24,25.24,0,0,0-30.78,3.47,26.25,26.25,0,0,0-5.86,24.87,24.22,24.22,0,0,0,8.59,12.18c1.27,1,1.23.95,3,.37,2.6-.86,4.3-1.09,6.79-1.77-6.51-2.76-10.75-5.71-12.89-12.84a18.84,18.84,0,0,1,34.79-14Z"/><path class="cls-5" d="M285.07,684.94c3.95,4.77,4.45,8.71,6.09,11,2-7.3,6.65-13,12.1-17.43a26.77,26.77,0,0,0,2.44-1.93c-1.47-5.66-7.31-10.77-14.55-10.83s-13.57,5.06-14.83,10.83C281.47,681.45,279.32,678,285.07,684.94Z"/><path class="cls-5" d="M341.48,688.14a24.67,24.67,0,0,0-31.11-.24c-2.82,2.25-7.58,7.27-8.33,12.84l5.31,2.27c4.15-17.36,26.19-19.38,34.43-5.75,1,1.7,1.61,4.36,2.55,5.64l5.15-2.07C348.51,695.5,344.45,690.68,341.48,688.14Z"/><path class="cls-5" d="M302.09,611.71a18.2,18.2,0,0,1,3.87,3.68c1.38,1.83,1.7,3.34,2.92,5l5.16-2.15C309.29,603.92,290.1,597,276.57,607c-2.88,2.11-7.3,6.59-8.53,11.18l5,2.27c1-1.15,1.85-3.32,2.84-4.68A18.69,18.69,0,0,1,302.09,611.71Z"/><path class="cls-5" d="M342.62,565.89l1.21-2.2c6.86-12.79,24.25-12.69,31.56-2.65,1.15,1.56,1.73,3.24,2.9,5l5.17-2.12c-3.26-12.22-22.19-22.23-37.49-11.29-2.77,2-7.38,6.74-8.47,11.19l5,2.27C342.51,566,342.6,565.84,342.62,565.89Z"/><path class="cls-5" d="M273.67,673.84l2.05-3.61a14.79,14.79,0,0,1,3.75-3.81A18.76,18.76,0,0,1,306.1,670c1.25,1.69,1.62,3.2,2.78,4.8l5.17-2.16c-5.57-15.21-24.35-20.81-37.5-11.34-2.87,2.06-7.16,6.65-8.52,11.2l5,2.31C273.55,674.21,273.23,674.66,273.67,673.84Z"/><path class="cls-5" d="M383.85,753v-2.27a13.31,13.31,0,0,0-1.8,2.27Z"/><path class="cls-5" d="M173.77,755.26v-2.1a15.48,15.48,0,0,0-1.15,2.1Z"/><path class="cls-5" d="M360.56,702.56c-14.15,0-28.11,9.9-31.44,22.73l5.09.75c1.32-5.2,6.25-10.42,9.4-12.82,12.38-9.44,30.53-6.46,39.24,5.6.36.5.69,1,1,1.5v-8.1A34.35,34.35,0,0,0,360.56,702.56Z"/><path class="cls-5" d="M374,736.08a33.75,33.75,0,0,0-6.72,7.61c-1.07,1.72-4.36,7.6-3.92,10l4.78.61c1.42-7.58,7.63-14.7,15.69-18.32V730.6A37.82,37.82,0,0,0,374,736.08Z"/><path class="cls-5" d="M379.78,742.23c-2.72,2.28-7.58,7.41-8.32,12.83l4,1.68V753h2.82a17.5,17.5,0,0,1,5.61-6.65v-6.83A22.75,22.75,0,0,0,379.78,742.23Z"/><path class="cls-5" d="M379.9,704.52c.52.73,2,1.69,4,3.29V696.4A15.81,15.81,0,0,0,379.9,704.52Z"/><path class="cls-5" d="M379.9,650.2a32.8,32.8,0,0,0,4,3.3V642.23A15.76,15.76,0,0,0,379.9,650.2Z"/><path class="cls-5" d="M380.86,546.54c-12.24-9.21-28.59-9.4-40.45-.23-4.45,3.44-10.13,10-11.23,15.94l4.95.75c9-22.78,37.7-24.25,49.72-5.73v-8A27.89,27.89,0,0,0,380.86,546.54Z"/><path class="cls-5" d="M379.91,541.83c1.39,1,2.7,2,3.94,3V533.51A13.81,13.81,0,0,0,379.91,541.83Z"/><path class="cls-5" d="M371.38,538l5.33,2c2.13-5.86,2.45-6.37,6.12-10,.33-.32.67-.62,1-.91v-6.74C377.36,525.58,372.59,531.54,371.38,538Z"/><path class="cls-5" d="M363.1,536.31c8.19,1.06,3.06.92,8.41-7.18a31.4,31.4,0,0,1,5.62-6.44,24.63,24.63,0,0,1,6.72-4.31v-5.31A32.75,32.75,0,0,0,363.1,536.31Z"/><path class="cls-5" d="M371.48,700.74l5.31,2.27a18.17,18.17,0,0,1,7.06-10.93v-6.71C377.11,688.86,372.12,695,371.48,700.74Z"/><path class="cls-5" d="M360.55,648.21c-14.23,0-28.15,10-31.43,22.74l5.07.74c6.8-20.71,36.61-25.64,49.66-5.79v-8A34.63,34.63,0,0,0,360.55,648.21Z"/><path class="cls-5" d="M379.78,633.58c-2.85,2.3-7.52,7.26-8.28,12.84l5.26,2.24a20.64,20.64,0,0,1,7.09-10.93V630.9A24.4,24.4,0,0,0,379.78,633.58Z"/><path class="cls-5" d="M363.12,699.35l5,.61c1.55-7.62,7.65-14.75,15.71-18.35v-5.39C373.2,680.22,364.76,689.41,363.12,699.35Z"/><path class="cls-5" d="M363.12,645l5,.62a26.55,26.55,0,0,1,15.74-18.39v-5.44C373.2,625.7,365.23,634.83,363.12,645Z"/><path class="cls-5" d="M363.11,590.66c8.12,1.06,2.94,1.09,8.42-7.19a28.93,28.93,0,0,1,12.32-10.6v-5.44C373.16,571.35,365.25,580.52,363.11,590.66Z"/><path class="cls-5" d="M371.39,592.29l5.35,2a22,22,0,0,1,7.11-10.87v-6.86C377.4,579.9,372.7,585.85,371.39,592.29Z"/><path class="cls-5" d="M379.9,596.17a23.46,23.46,0,0,1,4,2.81v-11.1A14.64,14.64,0,0,0,379.9,596.17Z"/><path class="cls-5" d="M333.7,607.5c-1.6,2.21-3.86,6-4.55,9.1l5,.73c7.77-21.7,37.07-24.9,49.68-5.78v-8.19C370.8,590.83,346.65,589.52,333.7,607.5Z"/><path class="cls-5" d="M293.67,590.66c5.06.63,4.76,1.12,5.53-1.07,1.95-5.53,4.17-8.62,8.53-12.59,12-10.91,34.79-8.61,43.57,10,.59,1.26.93,3.11,1.71,4.19l4.78-.67a33,33,0,0,0-31.94-25.13C309.92,565.37,296.19,577.26,293.67,590.66Z"/><rect class="cls-5" x="144.79" y="758.02" width="3.53" height="3.4"/><path class="cls-5" d="M264.72,617.35c7-20.78,36-24.94,48.72-7.17,1.44,2,3,5.74,4.11,7.11l4.77-.78a32.9,32.9,0,0,0-30.79-22.64c-15.7-.24-28.22,10.6-31.78,22.38l2.37.66C263.05,617.05,263.79,617.2,264.72,617.35Z"/><path class="cls-5" d="M310.31,524.88c-3.14,2.28-7.42,7.74-8.37,13.09l5.35,2c2.78-8.62,8.7-14.71,18.57-14.67a18.82,18.82,0,0,1,15.94,9c1,1.62,1.88,4.74,2.53,5.58l5.18-2.1C346.85,524.46,328,512,310.31,524.88Z"/><path class="cls-5" d="M310.46,541.56c3.44,3.64,8.64,5.19,13.45,15.53,2.94,6.31,2.22,0,8.21-7.38,1.75-2.17,6.08-6.49,8.87-7.72C339.67,525.29,313.23,523.56,310.46,541.56Z"/><path class="cls-5" d="M228.46,743.67c-1.19,1.82-4.44,7.62-3.92,10l4.73.62c2.56-11,13.35-20.71,26.8-20.83s25,9.83,27.24,20.77l5-.63C283.55,728.27,245.68,717.42,228.46,743.67Z"/><path class="cls-5" d="M241,742.21c-2.83,2.25-7.53,7.29-8.38,12.85l5.36,2.29c3.41-16.25,25.55-20.2,34.38-5.71,1,1.67,1.59,4.33,2.61,5.61l5.09-2.09C278.06,741.88,257.25,729.26,241,742.21Z"/><path class="cls-5" d="M310.35,742.2c-2.82,2.34-7.44,7.32-8.32,12.86l5.35,2.28c3.66-16.7,25.85-19.81,34.38-5.74,1,1.65,1.85,4.61,2.57,5.64l5.16-2.09C346.26,739.19,324.26,730.64,310.35,742.2Z"/><path class="cls-5" d="M301,734.77l4.68-3.85c-4.29-14.89-26.07-13.64-29.4,0,3.84,4,8.51,5.09,13.39,16.16.26.57.41,1.06.64,1.62l.84,1.59C292.35,745.15,297.25,738,301,734.77Z"/><path class="cls-5" d="M305.76,568c-2.28-9.42-16.75-16.31-26.69-5.32-3.66,4.05-4.85,11.15-1.85,17,2.33,4.51,6.63,8.18,13.72,8.45C292.84,579.26,299.24,573,305.76,568Z"/><path class="cls-5" d="M279.73,691.78c1.47,2.28,2.82,6.64,3.87,8.14l4.55-.64c-.08-3.12-2.61-7.78-4-10a33.1,33.1,0,0,0-48.75-7.77c-4.15,3.38-9.79,10.24-11.11,17.81l5,.62C235,676.6,266.81,671.75,279.73,691.78Z"/><path class="cls-5" d="M234.39,677.76c1.7-.7,3-1.77,4.69-2.65-2.86-3.1-5.33-4.82-7.61-9.38-6.82-13.62-2.27-28.27,9-36a27.95,27.95,0,0,1,42.83,15.85l5-.63c-3.74-19.06-28.8-33.29-49.44-20.22a32.79,32.79,0,0,0-15.45,24.46c-.95,9.16,2.27,19.93,8.5,25.89A13.75,13.75,0,0,1,234.39,677.76Z"/><path class="cls-5" d="M204.79,713.21c13.19-10.28,33.52-5.9,41.39,9.12a20,20,0,0,0,2,3.66l4.75-.82c-8.35-23.67-35.89-28.56-51.49-15.72-5.11,4.21-8.17,7.52-11.17,15.63l5.07,1C197.07,720.17,201,716.13,204.79,713.21Z"/><path class="cls-5" d="M236.63,724.34c1.2,1.61,1.86,3.42,2.84,4.77l5-2.08c-1-4.74-5.26-8.76-8.12-11.13A24.62,24.62,0,0,0,221.73,711c-11.08-.09-20.64,7.67-23.15,15.81l5.06,2.35c1-1.25,1.75-3.33,2.66-4.59A18.83,18.83,0,0,1,236.63,724.34Z"/><path class="cls-5" d="M269.65,597.42l4.05-2.6c-1.52-2.3-4.18-3.07-7.43-9.15-12-22.47,10.38-48.17,34.19-39.47a28.21,28.21,0,0,1,16.84,16.74c1.45-.13,4-.3,5-1-12.73-34.87-61.57-26.32-64.2,8A32.56,32.56,0,0,0,261,586.4C262.75,590.11,266.85,596.27,269.65,597.42Z"/><path class="cls-5" d="M325.47,516.12a27.71,27.71,0,0,1,17.77,6.16c7.73,6.15,8.07,11.89,9.77,14.58l4.78-.65a32.93,32.93,0,0,0-31.94-25.13c-16.19-.06-29.34,11.71-32.19,25.24l4.95.59C303.09,524.49,311.58,516.24,325.47,516.12Z"/><path class="cls-5" d="M231.59,734.73l4.68-3.81c-1.26-5.55-7.53-10.74-14.53-10.81s-13.52,5-14.87,10.81a6.65,6.65,0,0,0,1.12.94l3.55,2.85c4.22,3.52,7.22,8.92,9.36,14l.86,1.59C222.94,745.2,228,737.74,231.59,734.73Z"/><path class="cls-5" d="M375.15,730.92c-3.87-14.35-25.82-14.22-29.39,0,1.94,1.92,2.8,1.84,5.55,4.72,7.95,8.31,7.05,11.7,9.28,14.61a34.78,34.78,0,0,1,5.9-11.13C371.09,733.44,374,732.23,375.15,730.92Z"/><path class="cls-5" d="M306.57,562c1,1.4,1.34,2.77,2.31,4.09l5.14-2.14a24.6,24.6,0,0,0-6.47-9.71C291,540.85,271,550.65,267.09,566.54c-2.34,9.59,1.39,20.55,9.37,26,1.13.76,1.17.59,2.64.06a35.9,35.9,0,0,1,6.81-1.69c-4.51-2.44-9.89-4-12.72-12.12-2.64-7.63.27-14.77,4-19.09C283.75,552,298.8,550.85,306.57,562Z"/><path class="cls-5" d="M301,739.57c-2.39,2.45-7.57,10.95-7,14.13l4.75.61c2.57-11,13.3-20.69,26.76-20.82a27.92,27.92,0,0,1,27.28,20.73l5-.58C354.1,733.13,323.45,716.49,301,739.57Z"/><path class="cls-6" d="M170.26,761.5h1.06a14.73,14.73,0,0,1,.38-3.48h-1.44Z"/><path class="cls-6" d="M151.08,761.5h2.8a22.51,22.51,0,0,1-.06-3.48h-2.74Z"/><path class="cls-6" d="M378.24,753h3.81a13.31,13.31,0,0,1,1.8-2.27v-4.38A17.5,17.5,0,0,0,378.24,753Z"/><path class="cls-6" d="M371.46,755.06c.74-5.42,5.6-10.55,8.32-12.83a22.75,22.75,0,0,1,4.07-2.72V736c-8.06,3.62-14.27,10.74-15.69,18.32l-4.78-.61c-.44-2.41,2.85-8.29,3.92-10a33.75,33.75,0,0,1,6.72-7.61,37.82,37.82,0,0,1,9.83-5.48V720.32c-.31-.5-.64-1-1-1.5-8.71-12.06-26.86-15-39.24-5.6-3.15,2.4-8.08,7.62-9.4,12.82l-5.09-.75c3.33-12.83,17.29-22.78,31.44-22.73a34.35,34.35,0,0,1,23.29,9.66v-4.41c-1.93-1.6-3.43-2.56-4-3.29a15.81,15.81,0,0,1,4-8.12v-4.32A18.17,18.17,0,0,0,376.79,703l-5.31-2.27c.64-5.75,5.63-11.88,12.37-15.37v-3.76c-8.06,3.6-14.16,10.73-15.71,18.35l-5-.61c1.64-9.94,10.08-19.13,20.73-23.13V665.9C370.8,646.05,341,651,334.19,671.69l-5.07-.74c3.28-12.78,17.2-22.78,31.43-22.74a34.63,34.63,0,0,1,23.3,9.67V653.5a32.8,32.8,0,0,1-4-3.3,15.76,15.76,0,0,1,4-8v-4.5a20.64,20.64,0,0,0-7.09,10.93l-5.26-2.24c.76-5.58,5.43-10.54,8.28-12.84a24.4,24.4,0,0,1,4.07-2.68v-3.67a26.55,26.55,0,0,0-15.74,18.39l-5-.62c2.11-10.17,10.08-19.3,20.73-23.21V611.55c-12.61-19.12-41.91-15.92-49.68,5.78l-5-.73c.69-3.1,3-6.89,4.55-9.1,12.95-18,37.1-16.67,50.15-4.14V599a23.46,23.46,0,0,0-4-2.81,14.64,14.64,0,0,1,4-8.29v-4.45a22,22,0,0,0-7.11,10.87l-5.35-2c1.31-6.44,6-12.39,12.46-15.72v-3.7a28.93,28.93,0,0,0-12.32,10.6c-5.48,8.28-.3,8.25-8.42,7.19,2.14-10.14,10.05-19.31,20.74-23.23V557.27c-12-18.52-40.68-17-49.72,5.73l-4.95-.75c1.1-5.94,6.78-12.5,11.23-15.94,11.86-9.17,28.21-9,40.45.23a27.89,27.89,0,0,1,3,2.68v-4.36c-1.24-1-2.55-2-3.94-3a13.81,13.81,0,0,1,3.94-8.32V529c-.35.29-.69.59-1,.91-3.67,3.67-4,4.18-6.12,10l-5.33-2c1.21-6.42,6-12.38,12.47-15.72v-3.86a24.63,24.63,0,0,0-6.72,4.31,31.4,31.4,0,0,0-5.62,6.44c-5.35,8.1-.22,8.24-8.41,7.18a32.75,32.75,0,0,1,20.75-23.24v-3.63a35.68,35.68,0,0,0-11.07,5.88c-9.53,7.46-11.45,16.35-12.6,17.19-.47-5.61-7.87-13.78-11.95-17.1-10.13-8.22-24-9.73-36.29-5.11a35.87,35.87,0,0,0-21,22.74,21.63,21.63,0,0,1-.9,3.24c-10.23,0-18.06,3.91-24.62,10.47a36.5,36.5,0,0,0-3.52,47.84,24.76,24.76,0,0,0,4.75,5.06c-2.21,3.3-5.64,4.87-8.67,11.7-.68,1.51-1.21,3.47-1.89,4.9a36.94,36.94,0,0,0-14.56,3.17,32.58,32.58,0,0,0-8.16,5,36.54,36.54,0,0,0-6.12,50.42c1.13,1.49,2.92,4.27,4.7,4.74-3.47,5.17-8.44,7.24-11.32,19.61a33.78,33.78,0,0,0-13.43,2.8,35.69,35.69,0,0,0-19.79,21c-1,2.86-1.17,1.76-5.91,2.38-7.72,1-16.17,5.25-21.32,11.12-.71.83-.92,1.22-1.69,2.08a31.88,31.88,0,0,0-7.39,16v.71h3.08c1.69-9.51,8.93-18.16,16.75-22.74,11.45-6.69,25.91-4.75,36,2.69a35.8,35.8,0,0,1,7.48,8c1.13,1.66,4.79,8,4.2,10.47l-4.71.63c-2.81-12-15.76-23-31.4-20.45-13.18,2.15-23.2,12.85-23.58,27.61h3.36c.29-12.91,9-22.23,20.19-24.23,13-2.31,26.13,6.6,28.16,17.95l-5.07,2.09-.52-.92c-1.78-4.06-2.35-7-7.65-10.47a18.81,18.81,0,0,0-26.57,5.75,17.65,17.65,0,0,0-1.78,3.64h3.62a15.48,15.48,0,0,1,1.15-2.1v-4h3.64c8.87-6.77,23.12-2,24.74,10.13a14.44,14.44,0,0,0-3.14,2.1h5.78a33.32,33.32,0,0,1,33.46,0h5.91A13.6,13.6,0,0,0,241,759.3c2.44-18,28.71-17.2,30.6,0a14.07,14.07,0,0,0-3.16,2.08h5.83c10.86-6.55,23.58-5.46,33.31,0h6a23.87,23.87,0,0,0-3.17-2.17c2.53-17.72,28.49-17.41,30.59.11a14,14,0,0,0-3.33,2.06h6.21a33,33,0,0,1,31.52-.89v-3.79Zm12-28.12-5.21,2.13c-2.2-3.32-2-5.25-6.56-8.57-11.4-8.37-26.18-1.36-28.88,8.69l-5.38-2.42C344,707.1,375.26,704.53,383.5,726.94Zm-51.34-14.23a34.92,34.92,0,0,0-4.75,7.71c-1.14,2.59-1.76,3.34-2.94.93-3.24-6.6-7.29-12.79-14-16.44,2.46-17.73,28.54-17.4,30.59.11C338.49,706,333.76,710.71,332.16,712.71ZM264.76,726l-5.08-.74c1.72-7,7.35-12.93,11.33-16,16.32-12.71,42.7-7.54,51.33,15.9l-4.79.8a22.93,22.93,0,0,1-1.92-3.69C304.38,700.63,271.36,704.25,264.76,726Zm49.3.89-5.18,2.16c-1.12-1.74-1.58-3.15-2.81-4.79-8.61-11.52-26-9.13-31.77,2.6-.22.44-.4.89-.61,1.28l-.3.49c0,.05-.15.29-.17.23s-.12.16-.16.19L268,727.15c.88-4.42,5.79-9.48,8.36-11.4C288.78,706.51,307.48,710.64,314.06,726.93ZM271.58,705c-4.48,1.7-11.4,10.14-13.61,15.38-2.62,6.27-2.56-1.29-8.31-8-2.07-2.39-5.7-6-8.67-7.48C243.34,687,269.75,687.75,271.58,705Zm-31.39-7.69-2.58,5.54-5-2.11c.85-5.51,5.51-10.69,8.33-12.88,16.55-12.84,36.9-.49,39.08,13l-5.08,2.07c-1.85-2.28-.76-4.94-6.6-10.28a18.91,18.91,0,0,0-28.14,4.68Zm-1.95-39.09c2.14,7.13,6.38,10.08,12.89,12.84-2.49.68-4.19.91-6.79,1.77-1.74.58-1.7.6-3-.37a24.22,24.22,0,0,1-8.59-12.18,26.25,26.25,0,0,1,5.86-24.87,25.24,25.24,0,0,1,30.78-3.47c4.51,2.77,9.85,9,10.56,14.57l-5.05,2c-.83-1-1.24-3.11-1.9-4.38a18.84,18.84,0,0,0-34.79,14Zm6.4-15.67c8.85-10.16,25.76-4.45,26.93,8.1-4.46,2.1-9.55,8.07-12.06,12.43-.77,1.33-1.91,4.19-2.69,5.16C243.44,669.06,235.71,652.8,244.64,642.55Zm19.64,19.25c2.41-3.33,3.7-4.31,6.74-6.84,14.73-12.21,42.75-8.44,51.32,15.89l-4.79.78c-.7-.86-1.78-3.83-4.13-7.11a27.9,27.9,0,0,0-5.66-5.67c-17-12.2-38.12-2.71-43,12.84l-5.07-.73A28.56,28.56,0,0,1,264.28,661.8Zm26.86-50.38c7.16.05,13.27,5.25,14.56,10.86a22,22,0,0,1-2.47,1.9,35.32,35.32,0,0,0-12.08,17.44c-1.12-1.62-1.8-4.12-2.79-6-3-5.6-4.27-6.1-7.41-9.57-1.27-1.41-3.05-2.43-4.61-3.79C277.41,616.57,284.15,611.38,291.14,611.42Zm-15.24,4.3c-1,1.36-1.8,3.53-2.84,4.68l-5-2.27c1.23-4.59,5.65-9.07,8.53-11.18,13.53-10,32.72-3,37.47,11.31l-5.16,2.15c-1.22-1.68-1.54-3.19-2.92-5a18.2,18.2,0,0,0-3.87-3.68A18.69,18.69,0,0,0,275.9,615.72Zm.65,45.53c13.15-9.47,31.93-3.87,37.5,11.34l-5.17,2.16c-1.16-1.6-1.53-3.11-2.78-4.8a18.76,18.76,0,0,0-26.63-3.53,14.79,14.79,0,0,0-3.75,3.81l-2.05,3.61c-.44.82-.12.37-.62.92l-5-2.31C269.39,667.9,273.68,663.31,276.55,661.25Zm14.6,4.52c7.24.06,13.08,5.17,14.55,10.83a26.77,26.77,0,0,1-2.44,1.93c-5.45,4.44-10.08,10.13-12.1,17.43-1.64-2.31-2.14-6.25-6.09-11-5.75-6.93-3.6-3.49-8.75-8.34C277.58,670.83,284.05,665.7,291.15,665.77Zm53.18,37.13c-.94-1.28-1.53-3.94-2.55-5.64-8.24-13.63-30.28-11.61-34.43,5.75L302,700.74c.75-5.57,5.51-10.59,8.33-12.84a24.67,24.67,0,0,1,31.11.24c3,2.54,7,7.36,8,12.69Zm28.36-24.35a33.05,33.05,0,0,0-6.22,6.23,35.68,35.68,0,0,0-5.9,11.13c-1.18-1.61-1.75-4.11-2.79-6a36.78,36.78,0,0,0-3.27-5c-3.78-4.86-5.59-5.43-8.74-8.31a14.57,14.57,0,0,1,5.24-7.66c10.13-7.51,22.65-.28,24.13,7.66A24,24,0,0,1,372.69,678.55Zm-12.13-21.94c11.24,0,20.17,7.71,22.93,16l-5.2,2.14c-1.09-1.63-1.73-3.23-2.78-4.78-8.1-11.9-28.85-8.86-32.69,4.93l-5.35-2.43C340,664.29,349.54,656.57,360.56,656.61Zm-2.8,42.69-5,.58a28,28,0,0,0-54.07.09l-5-.62c2.72-13.48,16-25.29,32.17-25.23C341.71,674.17,355.23,686,357.76,699.3Zm-25.63-40.94a35.44,35.44,0,0,0-4.73,7.73c-2.23,5.09-2.63.94-4.92-3.09a36.73,36.73,0,0,0-9.8-11,8.07,8.07,0,0,1-2.23-1.85c3-17.73,28.74-16.55,30.56.47C338.65,651.53,333.6,656.52,332.13,658.36Zm12.2-9.8c-.88-1.17-1.52-4-2.53-5.64-8-13.11-29.66-12.35-34.48,5.75l-5.26-2.25c.55-5.27,5.68-10.84,8.27-12.87,17.14-13.43,37.68.64,39.09,13Zm16.22-7c-1.16-1.65-1.71-4.12-2.75-6-3.78-6.74-6.28-8.55-12-13.32,1.13-5.75,7.74-10.9,14.78-10.86s13.44,5.31,14.63,11C368.37,627.65,363.57,631.94,360.55,641.58ZM346,606.93c14.29-10.37,33.51-2.06,37.53,11.32l-5.19,2.14c-2-3-2.57-5.78-6.53-8.56-11.94-8.37-26.09-1.37-29,8.75l-5.31-2.45C338.69,613.7,343.24,608.9,346,606.93Zm11.83,38-5,.64a28,28,0,0,0-54.1.08l-5-.61c1.42-7.58,6.92-14.35,11.09-17.79C322.75,612.39,351.58,620.43,357.78,644.9ZM332.12,604c-6.22,8.4-5.42,13.38-8.22,7.39-4.92-10.51-11.21-12.91-13.44-15.54,2.83-17.79,29-16.49,30.54.45C338.42,597.49,333.66,602,332.12,604Zm12.21-9.81c-.76-1-1.48-3.94-2.54-5.6-6.86-10.76-20.9-11.39-28.18-4.6-3.21,3-4.76,5-6.3,10.3l-5.24-2.21c.39-5.17,5.75-11.06,8.27-12.88,10-7.27,22.92-7.29,31.15.26,2.91,2.67,7.24,7.08,8,12.65Zm16.2-7c-1.14-1.7-1.67-4.11-2.72-6a40.76,40.76,0,0,0-3.29-5c-3.52-4.73-6.9-6.44-8.72-8.31.5-3.06,3.37-6.26,5.16-7.69,8.73-7,22.24-1.61,24.24,7.78C368.89,572.53,363.65,577.76,360.53,587.24ZM346,552.63c15.3-10.94,34.23-.93,37.49,11.29L378.29,566c-1.17-1.76-1.75-3.44-2.9-5-7.31-10-24.7-10.14-31.56,2.65l-1.21,2.2s-.11.15-.16.2l-5-2.27C338.59,559.37,343.2,554.61,346,552.63Zm11.82,37.92-4.78.67c-.78-1.08-1.12-2.93-1.71-4.19-8.78-18.64-31.59-20.94-43.57-10-4.36,4-6.58,7.06-8.53,12.59-.77,2.19-.47,1.7-5.53,1.07,2.52-13.4,16.25-25.29,32.18-25.24A33,33,0,0,1,357.79,590.55Zm-84.6-11.8c2.83,8.17,8.21,9.68,12.72,12.12a35.9,35.9,0,0,0-6.81,1.69c-1.47.53-1.51.7-2.64-.06-8-5.41-11.71-16.37-9.37-26,3.88-15.89,23.93-25.69,40.46-12.33a24.6,24.6,0,0,1,6.47,9.71l-5.14,2.14c-1-1.32-1.32-2.69-2.31-4.09-7.77-11.12-22.82-9.93-29.39-2.31C273.46,564,270.55,571.12,273.19,578.75Zm4,.88c-3-5.8-1.81-12.9,1.85-17,9.94-11,24.41-4.1,26.69,5.32-6.52,5-12.92,11.26-14.82,20.08C283.85,587.81,279.55,584.14,277.22,579.63Zm54.9-29.92c-6,7.41-5.27,13.69-8.21,7.38-4.81-10.34-10-11.89-13.45-15.53,2.77-18,29.21-16.27,30.53.43C338.2,543.22,333.87,547.54,332.12,549.71Zm12.21-9.84c-.65-.84-1.5-4-2.53-5.58a18.82,18.82,0,0,0-15.94-9c-9.87,0-15.79,6.05-18.57,14.67l-5.35-2c.95-5.35,5.23-10.81,8.37-13.09,17.68-12.87,36.54-.42,39.2,12.89Zm-18.48-28.79a32.93,32.93,0,0,1,31.94,25.13l-4.78.65c-1.7-2.69-2-8.43-9.77-14.58a27.71,27.71,0,0,0-17.77-6.16c-13.89.12-22.38,8.37-26.86,20.79l-4.95-.59C296.51,522.79,309.66,511,325.85,511.08ZM261,586.4a32.56,32.56,0,0,1-2.94-16.52c2.63-34.27,51.47-42.82,64.2-8-1,.71-3.52.88-5,1a28.21,28.21,0,0,0-16.84-16.74c-23.81-8.7-46.2,17-34.19,39.47,3.25,6.08,5.91,6.85,7.43,9.15l-4.05,2.6C266.85,596.27,262.75,590.11,261,586.4Zm30.52,7.47a32.9,32.9,0,0,1,30.79,22.64l-4.77.78c-1.12-1.37-2.67-5.11-4.11-7.11-12.75-17.77-41.73-13.61-48.72,7.17-.93-.15-1.67-.3-2.6-.44l-2.37-.66C263.31,604.47,275.83,593.63,291.53,593.87Zm-68.09,55.31a32.79,32.79,0,0,1,15.45-24.46c20.64-13.07,45.7,1.16,49.44,20.22l-5,.63a27.95,27.95,0,0,0-42.83-15.85c-11.3,7.74-15.85,22.39-9,36,2.28,4.56,4.75,6.28,7.61,9.38-1.67.88-3,1.95-4.69,2.65a13.75,13.75,0,0,0-2.45-2.69C225.71,669.11,222.49,658.34,223.44,649.18Zm11.91,32.36a33.1,33.1,0,0,1,48.75,7.77c1.44,2.19,4,6.85,4,10l-4.55.64c-1.05-1.5-2.4-5.86-3.87-8.14-12.92-20-44.71-15.18-50.48,8.19l-5-.62C225.56,691.78,231.2,684.92,235.35,681.54Zm-45.11,43.54c3-8.11,6.06-11.42,11.17-15.63,15.6-12.84,43.14-8,51.49,15.72l-4.75.82a20,20,0,0,1-2-3.66c-7.87-15-28.2-19.4-41.39-9.12-3.76,2.92-7.72,7-9.48,12.85Zm13.4,4-5.06-2.35c2.51-8.14,12.07-15.9,23.15-15.81a24.62,24.62,0,0,1,14.66,4.94c2.86,2.37,7.09,6.39,8.12,11.13l-5,2.08c-1-1.35-1.64-3.16-2.84-4.77a18.83,18.83,0,0,0-30.33.19C205.39,725.79,204.61,727.87,203.64,729.12Zm17.26,19.61c-2.14-5.1-5.14-10.5-9.36-14L208,731.86a6.65,6.65,0,0,1-1.12-.94c1.35-5.77,7.74-10.88,14.87-10.81s13.27,5.26,14.53,10.81l-4.68,3.81c-3.59,3-8.65,10.47-9.83,15.59Zm54,8.52c-1-1.28-1.6-3.94-2.61-5.61-8.83-14.49-31-10.54-34.38,5.71l-5.36-2.29c.85-5.56,5.55-10.6,8.38-12.85,16.29-13,37.1-.33,39.06,12.95Zm8.38-3c-2.23-10.94-13.91-20.88-27.24-20.77s-24.24,9.84-26.8,20.83l-4.73-.62c-.52-2.41,2.73-8.21,3.92-10,17.22-26.25,55.09-15.4,59.86,10Zm7-5.56c-.23-.56-.38-1.05-.64-1.62-4.88-11.07-9.55-12.19-13.39-16.16,3.33-13.64,25.11-14.89,29.4,0L301,734.77c-3.78,3.18-8.68,10.38-9.85,15.52Zm54,8.54c-.72-1-1.56-4-2.57-5.64-8.53-14.07-30.72-11-34.38,5.74L302,755.06c.88-5.54,5.5-10.52,8.32-12.86,13.91-11.56,35.91-3,39.14,12.95Zm8.42-3a27.92,27.92,0,0,0-27.28-20.73c-13.46.13-24.19,9.84-26.76,20.82L294,753.7c-.58-3.18,4.6-11.68,7-14.13,22.5-23.08,53.15-6.44,56.8,14.07Zm-1.44-18.58c-2.75-2.88-3.61-2.8-5.55-4.72,3.57-14.22,25.52-14.35,29.39,0-1.13,1.31-4.06,2.52-8.66,8.2a34.78,34.78,0,0,0-5.9,11.13C358.36,747.34,359.26,744,351.31,735.64Z"/><path class="cls-6" d="M307.7,761.5h6l-.1-.08h-6Z"/><path class="cls-6" d="M198.92,761.5h5.74l.13-.08H199Z"/><path class="cls-6" d="M238.39,761.5h5.87l-.1-.08h-5.91Z"/><path class="cls-6" d="M268.33,761.5h5.79l.13-.08h-5.83Z"/><path class="cls-6" d="M173.77,753.16a16.26,16.26,0,0,1,1.3-1.76,15.17,15.17,0,0,1,2.34-2.21h-3.64Z"/><path class="cls-6" d="M151.08,754.55a42.36,42.36,0,0,0-.63,7h.63V758h2.74a23.63,23.63,0,0,1,.34-2.76h-3.08Z"/><path class="cls-6" d="M337.59,761.5h6.17l.14-.08h-6.21Z"/><path class="cls-6" d="M168.13,761.5h2.13V758h1.44a14.42,14.42,0,0,1,.92-2.76H169A16.74,16.74,0,0,0,168.13,761.5Z"/><path class="cls-6" d="M158.87,761.5h3.37v0h-3.36Z"/></g><g class="cls-4"><path class="cls-5" d="M21.62,50.36c-4.52-3.32-4.36-5.25-6.55-8.57L9.85,43.92c8.25,22.41,39.52,19.84,46,.17L50.5,41.67C47.8,51.72,33,58.73,21.62,50.36Z"/><path class="cls-5" d="M143.7,58.43c-5.76-6.67-5.69-14.22-8.32-8-2.21,5.24-9.12,13.68-13.61,15.38,1.83,17.25,28.25,18,30.6,0C149.39,64.41,145.76,60.82,143.7,58.43Z"/><path class="cls-5" d="M117,55.11c2.56-1.92,7.48-7,8.35-11.4l-5-1.94s-.14.25-.17.19-.13.18-.16.23-.25.39-.3.49c-.22.39-.4.84-.62,1.28-5.81,11.73-23.16,14.12-31.77,2.6-1.23-1.65-1.69-3.05-2.8-4.79l-5.19,2.16C85.88,60.22,104.58,64.35,117,55.11Z"/><path class="cls-5" d="M82.92,66c-6.74-3.65-10.79-9.84-14-16.45-1.19-2.4-1.81-1.65-3,.94a35.15,35.15,0,0,1-4.75,7.71c-1.6,2-6.33,6.72-8.86,7.69C54.39,83.35,80.47,83.68,82.92,66Z"/><path class="cls-5" d="M75.8,44.88l-4.78.8c8.62,23.44,35,28.61,51.32,15.9,4-3.09,9.61-9,11.33-16l-5.08-.74C122,66.61,89,70.23,77.73,48.57A23,23,0,0,0,75.8,44.88Z"/><path class="cls-5" d="M196,25c-5.29-3.49-5.86-6.41-7.65-10.47l-.52-.92-5.07,2.09c2,11.35,15.18,20.26,28.16,18,11.21-2,19.9-11.32,20.19-24.23h-5.25V15.6h-1.5a17.91,17.91,0,0,1-1.79,3.63A18.81,18.81,0,0,1,196,25Z"/><path class="cls-5" d="M210.89,37c-15.63,2.55-28.59-8.47-31.4-20.45l-4.71.63c-.59,2.5,3.07,8.81,4.2,10.47a36,36,0,0,0,7.48,8c10.07,7.44,24.53,9.38,36,2.68,7.82-4.57,15.06-13.22,16.75-22.73H236V9.41h-1.52C234.09,24.17,224.07,34.87,210.89,37Z"/><path class="cls-5" d="M82.9,120.66a8,8,0,0,0-2.22-1.85,36.63,36.63,0,0,1-9.81-11c-2.29-4-2.69-8.18-4.92-3.09a35.44,35.44,0,0,1-4.73,7.73c-1.47,1.84-6.52,6.83-8.88,7.68C54.16,137.21,79.86,138.38,82.9,120.66Z"/><path class="cls-5" d="M32.8,159.44c7,0,13.64-5.11,14.77-10.86-5.73-4.77-8.24-6.58-12-13.32-1-1.86-1.59-4.33-2.75-6-3,9.64-7.82,13.93-14.64,19.19C19.36,154.13,25.69,159.39,32.8,159.44Z"/><path class="cls-5" d="M21.59,159c-3.95-2.78-4.56-5.6-6.52-8.56l-5.19,2.14c4,13.38,23.24,21.69,37.52,11.32,2.71-2,7.26-6.77,8.47-11.2l-5.31-2.45C47.68,160.4,33.53,167.4,21.59,159Z"/><path class="cls-5" d="M125,78.23c-5.84-5.34-4.74-8-6.6-10.28L113.34,70c2.19,13.47,22.54,25.81,39.08,13,2.82-2.18,7.48-7.36,8.33-12.87l-5-2.11-2.59,5.54A18.93,18.93,0,0,1,125,78.23Z"/><path class="cls-5" d="M99.68,71.51l-5-.62A28,28,0,0,1,40.59,71l-5,.58c2.53,13.34,16,25.13,31.91,25.18C83.65,96.8,97,85,99.68,71.51Z"/><path class="cls-5" d="M51.87,191.37c8.23,7.54,21.13,7.53,31.14.26,2.52-1.82,7.89-7.71,8.27-12.88L86,176.54c-1.54,5.34-3.08,7.29-6.3,10.3-7.28,6.79-21.32,6.16-28.17-4.6-1.06-1.66-1.79-4.59-2.55-5.6l-5.11,2.08C44.62,184.29,49,188.7,51.87,191.37Z"/><path class="cls-5" d="M42.39,210.59c1.79-1.43,4.66-4.63,5.17-7.7-1.82-1.86-5.2-3.57-8.72-8.31a38.86,38.86,0,0,1-3.3-5c-1-1.86-1.58-4.27-2.72-6-3.12,9.48-8.36,14.71-14.67,19.19C20.15,212.2,33.66,217.55,42.39,210.59Z"/><path class="cls-5" d="M17.84,100.91c-1.05-1.56-1.69-3.15-2.77-4.78L9.86,98.27c2.76,8.27,11.69,15.94,22.93,16,11,0,20.6-7.68,23.09-15.84L50.53,96C46.69,109.77,25.94,112.81,17.84,100.91Z"/><path class="cls-5" d="M88.59,143.63c4.17-3.43,9.67-10.2,11.09-17.78l-5-.61a28,28,0,0,1-54.1.08l-5,.64C41.77,150.43,70.6,158.47,88.59,143.63Z"/><path class="cls-5" d="M82.89,175c-2.23-2.63-8.52-5-13.44-15.54-2.79-6-2-1-8.22,7.39-1.54,2.06-6.3,6.54-8.88,7.7C53.91,191.47,80.06,192.77,82.89,175Z"/><path class="cls-5" d="M83,137.31c2.59-2,7.72-7.6,8.28-12.88L86,122.19c-4.81,18.09-26.51,18.86-34.48,5.75-1-1.66-1.65-4.47-2.53-5.64l-5.09,2.06C45.34,136.67,65.88,150.74,83,137.31Z"/><path class="cls-5" d="M136.53,102.62c-.78,1-1.92,3.83-2.69,5.16-2.51,4.36-7.59,10.33-12.06,12.43,1.18,12.55,18.08,18.26,26.93,8.1S149.92,101.8,136.53,102.62Z"/><path class="cls-5" d="M85.59,112a27.6,27.6,0,0,1-5.66-5.66c-2.35-3.28-3.43-6.25-4.13-7.11L71,100c8.57,24.32,36.59,28.1,51.31,15.89,3-2.53,4.34-3.51,6.74-6.84a28.56,28.56,0,0,0,4.6-9.16l-5.06-.73C123.71,114.72,102.57,124.21,85.59,112Z"/><path class="cls-5" d="M42.34,101.92a14.58,14.58,0,0,0,5.25-7.66c-3.15-2.88-5-3.46-8.75-8.31a38.76,38.76,0,0,1-3.27-5c-1-1.86-1.61-4.36-2.79-6a35.68,35.68,0,0,1-5.9,11.13,32.7,32.7,0,0,1-6.22,6.22,27,27,0,0,0-2.45,2C19.7,102.2,32.21,109.42,42.34,101.92Z"/><path class="cls-5" d="M112.4,144.79c-3.13-3.47-4.43-4-7.41-9.57-1-1.86-1.67-4.36-2.79-6a35.37,35.37,0,0,1-12.08,17.44,21.13,21.13,0,0,0-2.46,1.9c1.28,5.61,7.39,10.81,14.55,10.86,7,0,13.74-5.15,14.8-10.86A54.86,54.86,0,0,1,112.4,144.79Z"/><path class="cls-5" d="M120.32,126.68c-.66-1.27-1.07-3.39-1.9-4.38l-5,2c.71,5.54,6,11.8,10.56,14.57a25.25,25.25,0,0,0,30.78-3.47,26.25,26.25,0,0,0,5.87-24.87A24.25,24.25,0,0,0,152,98.4c-1.27-1-1.23-1-3-.37-2.6.86-4.3,1.08-6.79,1.77,6.52,2.76,10.75,5.71,12.89,12.84a18.84,18.84,0,0,1-34.79,14Z"/><path class="cls-5" d="M108.28,85.91c-4-4.77-4.45-8.7-6.09-11-2,7.3-6.65,13-12.09,17.43a26.88,26.88,0,0,0-2.45,1.93C89.12,99.92,95,105,102.2,105.09S115.77,100,117,94.26C111.89,89.41,114,92.85,108.28,85.91Z"/><path class="cls-5" d="M51.88,82.72A24.65,24.65,0,0,0,83,83c2.82-2.25,7.58-7.27,8.33-12.84L86,67.85C81.85,85.21,59.81,87.22,51.57,73.6,50.55,71.9,50,69.24,49,68L43.87,70C44.84,75.36,48.9,80.18,51.88,82.72Z"/><path class="cls-5" d="M91.26,159.15a18.2,18.2,0,0,1-3.87-3.68c-1.38-1.83-1.7-3.35-2.91-5l-5.17,2.15c4.75,14.33,23.94,21.26,37.47,11.31,2.88-2.12,7.3-6.59,8.53-11.18l-5-2.27c-1,1.15-1.85,3.32-2.85,4.68A18.69,18.69,0,0,1,91.26,159.15Z"/><path class="cls-5" d="M50.73,205l-1.21,2.2C42.67,220,25.27,219.85,18,209.82c-1.15-1.57-1.72-3.24-2.89-5l-5.18,2.12c3.26,12.22,22.19,22.23,37.49,11.29,2.77-2,7.39-6.74,8.48-11.19l-5-2.27C50.84,204.82,50.75,205,50.73,205Z"/><path class="cls-5" d="M119.68,97l-2.05,3.61a14.92,14.92,0,0,1-3.74,3.81,18.76,18.76,0,0,1-26.63-3.53c-1.26-1.69-1.63-3.2-2.78-4.8L79.3,98.27c5.57,15.21,24.35,20.8,37.5,11.34,2.87-2.06,7.16-6.65,8.52-11.2l-5-2.31C119.8,96.65,120.13,96.2,119.68,97Z"/><path class="cls-5" d="M9.5,17.87v2.27a13.88,13.88,0,0,0,1.81-2.27Z"/><path class="cls-5" d="M219.58,15.6v2.1a15.56,15.56,0,0,0,1.16-2.1Z"/><path class="cls-5" d="M32.8,68.3c14.14,0,28.1-9.9,31.43-22.74l-5.09-.74c-1.31,5.2-6.25,10.42-9.4,12.82C37.36,67.08,19.21,64.1,10.51,52c-.37-.5-.7-1-1-1.5v8.1A34.36,34.36,0,0,0,32.8,68.3Z"/><path class="cls-5" d="M19.33,34.77a33.53,33.53,0,0,0,6.73-7.6c1.06-1.72,4.35-7.6,3.91-10l-4.78-.61c-1.41,7.58-7.63,14.7-15.69,18.32v5.39A37.56,37.56,0,0,0,19.33,34.77Z"/><path class="cls-5" d="M13.57,28.63c2.72-2.28,7.58-7.41,8.32-12.83l-4-1.68v3.75H15.11A17.42,17.42,0,0,1,9.5,24.52v6.83A23.29,23.29,0,0,0,13.57,28.63Z"/><path class="cls-5" d="M13.45,66.34c-.52-.73-2-1.69-3.95-3.29V74.46A15.81,15.81,0,0,0,13.45,66.34Z"/><path class="cls-5" d="M13.45,120.66a32.8,32.8,0,0,0-3.95-3.3v11.27A15.76,15.76,0,0,0,13.45,120.66Z"/><path class="cls-5" d="M12.5,224.32c12.23,9.21,28.58,9.4,40.45.23,4.44-3.44,10.12-10,11.22-15.94l-5-.76c-9,22.79-37.7,24.26-49.72,5.74v8A28.1,28.1,0,0,0,12.5,224.32Z"/><path class="cls-5" d="M13.44,229c-1.39-1-2.7-2-3.94-3v11.35A13.81,13.81,0,0,0,13.44,229Z"/><path class="cls-5" d="M22,232.9l-5.33-2c-2.13,5.86-2.45,6.37-6.12,10a12.72,12.72,0,0,1-1,.91v6.74C16,245.28,20.76,239.32,22,232.9Z"/><path class="cls-5" d="M30.25,234.55c-8.19-1.06-3.06-.92-8.41,7.18a31.11,31.11,0,0,1-5.62,6.44,24.48,24.48,0,0,1-6.72,4.31v5.31A32.73,32.73,0,0,0,30.25,234.55Z"/><path class="cls-5" d="M21.87,70.12l-5.31-2.27A18.12,18.12,0,0,1,9.5,78.78v6.71C16.24,82,21.23,75.87,21.87,70.12Z"/><path class="cls-5" d="M32.8,122.65c14.23,0,28.15-10,31.43-22.74l-5.07-.74C52.36,119.88,22.55,124.81,9.5,105v8A34.63,34.63,0,0,0,32.8,122.65Z"/><path class="cls-5" d="M13.58,137.28c2.85-2.3,7.52-7.26,8.28-12.85l-5.27-2.24A20.63,20.63,0,0,1,9.5,133.13V140A24.89,24.89,0,0,0,13.58,137.28Z"/><path class="cls-5" d="M30.23,71.51l-5-.61C23.66,78.51,17.56,85.64,9.5,89.25v5.39C20.15,90.64,28.59,81.45,30.23,71.51Z"/><path class="cls-5" d="M30.24,125.86l-5-.62A26.55,26.55,0,0,1,9.5,143.63v5.44C20.15,145.16,28.12,136,30.24,125.86Z"/><path class="cls-5" d="M30.24,180.2c-8.12-1.06-2.94-1.09-8.42,7.19A28.93,28.93,0,0,1,9.5,198v5.44C20.2,199.51,28.1,190.33,30.24,180.2Z"/><path class="cls-5" d="M22,178.57l-5.36-2A22,22,0,0,1,9.5,187.43v6.86C16,191,20.65,185,22,178.57Z"/><path class="cls-5" d="M13.45,174.69a23.46,23.46,0,0,1-3.95-2.81V183A14.58,14.58,0,0,0,13.45,174.69Z"/><path class="cls-5" d="M59.65,163.36c1.6-2.21,3.86-6,4.55-9.1l-5-.73c-7.78,21.7-37.08,24.9-49.69,5.78v8.18C22.55,180,46.7,181.34,59.65,163.36Z"/><path class="cls-5" d="M99.69,180.2c-5.07-.63-4.77-1.12-5.54,1.07-2,5.53-4.16,8.62-8.52,12.59-12,10.9-34.8,8.61-43.58-10-.59-1.26-.93-3.11-1.71-4.19l-4.78.67A33,33,0,0,0,67.5,205.44C83.43,205.49,97.16,193.6,99.69,180.2Z"/><rect class="cls-5" x="245.03" y="9.44" width="3.53" height="3.4"/><path class="cls-5" d="M128.63,153.51c-7,20.78-36,24.94-48.72,7.17-1.44-2-3-5.74-4.11-7.11l-4.77.78A32.91,32.91,0,0,0,101.82,177c15.7.24,28.22-10.6,31.78-22.38l-2.37-.66C130.3,153.81,129.56,153.66,128.63,153.51Z"/><path class="cls-5" d="M83.05,246c3.13-2.28,7.41-7.74,8.37-13.09l-5.36-2c-2.78,8.62-8.7,14.71-18.57,14.67a18.83,18.83,0,0,1-15.94-9c-1-1.62-1.88-4.74-2.53-5.58l-5.18,2.09C46.5,246.4,65.36,258.85,83.05,246Z"/><path class="cls-5" d="M82.89,229.3c-3.44-3.64-8.64-5.19-13.45-15.53-2.94-6.31-2.22,0-8.21,7.38-1.75,2.17-6.08,6.49-8.86,7.72C53.69,245.57,80.12,247.3,82.89,229.3Z"/><path class="cls-5" d="M164.9,27.19c1.18-1.82,4.43-7.62,3.91-10l-4.72-.62c-2.57,11-13.36,20.71-26.8,20.83s-25-9.83-27.25-20.77l-5,.63C109.81,42.58,147.67,53.44,164.9,27.19Z"/><path class="cls-5" d="M152.39,28.65c2.83-2.25,7.53-7.29,8.38-12.85l-5.35-2.29C152,29.76,129.87,33.71,121,19.22c-1-1.67-1.59-4.33-2.61-5.61l-5.09,2.09C115.29,29,136.1,41.6,152.39,28.65Z"/><path class="cls-5" d="M83,28.66c2.82-2.34,7.44-7.32,8.32-12.86L86,13.52c-3.66,16.7-25.85,19.81-34.38,5.74-1-1.65-1.84-4.61-2.57-5.64l-5.16,2.09C47.09,31.66,69.09,40.22,83,28.66Z"/><path class="cls-5" d="M92.32,36.09l-4.68,3.85c4.29,14.89,26.07,13.64,29.4,0-3.83-4-8.51-5.09-13.39-16.16-.25-.57-.4-1.06-.63-1.62l-.85-1.59C101,25.71,96.1,32.91,92.32,36.09Z"/><path class="cls-5" d="M87.6,202.86c2.27,9.42,16.74,16.31,26.68,5.32,3.67-4.06,4.85-11.15,1.86-17-2.34-4.51-6.64-8.18-13.72-8.45C100.51,191.6,94.12,197.86,87.6,202.86Z"/><path class="cls-5" d="M113.62,79.07c-1.47-2.27-2.82-6.63-3.87-8.13l-4.54.64c.08,3.12,2.6,7.77,4,10A33.1,33.1,0,0,0,158,89.32c4.15-3.38,9.79-10.24,11.11-17.81l-5-.62C158.33,94.26,126.54,99.11,113.62,79.07Z"/><path class="cls-5" d="M159,93.1c-1.69.7-3,1.77-4.68,2.65,2.85,3.1,5.32,4.82,7.61,9.38,6.81,13.62,2.26,28.27-9,36A27.95,27.95,0,0,1,110,125.29l-5,.63c3.73,19.06,28.79,33.29,49.43,20.22a32.81,32.81,0,0,0,15.45-24.46c1-9.16-2.27-19.93-8.5-25.89A13.75,13.75,0,0,1,159,93.1Z"/><path class="cls-5" d="M188.56,57.65c-13.19,10.28-33.52,5.9-41.39-9.12a19.43,19.43,0,0,0-2-3.66l-4.76.82c8.36,23.66,35.9,28.55,51.49,15.71,5.11-4.2,8.17-7.51,11.17-15.62l-5.07-1C196.28,50.69,192.32,54.73,188.56,57.65Z"/><path class="cls-5" d="M156.72,46.52c-1.2-1.61-1.86-3.42-2.84-4.77l-5,2.08c1,4.74,5.26,8.76,8.12,11.13a24.73,24.73,0,0,0,14.66,4.94c11.09.09,20.64-7.67,23.15-15.81l-5.05-2.35c-1,1.25-1.76,3.32-2.67,4.59A18.83,18.83,0,0,1,156.72,46.52Z"/><path class="cls-5" d="M123.7,173.44l-4,2.6c1.52,2.3,4.18,3.07,7.43,9.15,12,22.47-10.38,48.17-34.19,39.46a28.17,28.17,0,0,1-16.84-16.73c-1.45.13-4,.3-5,1,12.73,34.87,61.57,26.32,64.2-8a32.56,32.56,0,0,0-2.94-16.52C130.6,180.75,126.5,174.59,123.7,173.44Z"/><path class="cls-5" d="M67.88,254.74a27.68,27.68,0,0,1-17.77-6.17c-7.73-6.14-8.06-11.88-9.77-14.57l-4.78.65A32.93,32.93,0,0,0,67.5,259.78c16.19.06,29.35-11.71,32.19-25.24L94.75,234C90.26,246.37,81.77,254.62,67.88,254.74Z"/><path class="cls-5" d="M161.76,36.13l-4.67,3.81c1.25,5.55,7.52,10.74,14.52,10.81s13.52-5,14.87-10.81a6.65,6.65,0,0,0-1.12-.94l-3.55-2.85c-4.22-3.52-7.22-8.92-9.36-14l-.86-1.59C170.42,25.66,165.35,33.12,161.76,36.13Z"/><path class="cls-5" d="M18.21,39.94c3.86,14.35,25.81,14.22,29.39,0-2-1.93-2.81-1.84-5.56-4.72-7.95-8.31-7-11.7-9.28-14.61a34.78,34.78,0,0,1-5.9,11.13C22.26,37.42,19.33,38.63,18.21,39.94Z"/><path class="cls-5" d="M86.78,208.89c-1-1.4-1.34-2.78-2.3-4.09l-5.15,2.14a24.6,24.6,0,0,0,6.47,9.71c16.53,13.36,36.58,3.56,40.46-12.34,2.34-9.58-1.39-20.55-9.37-25.95-1.13-.76-1.16-.59-2.64-.06a35.9,35.9,0,0,1-6.81,1.69c4.51,2.44,9.89,3.95,12.72,12.11,2.65,7.64-.26,14.78-4,19.1C109.61,218.82,94.56,220,86.78,208.89Z"/><path class="cls-5" d="M92.41,31.28c2.38-2.44,7.57-10.94,7-14.12l-4.75-.61c-2.57,11-13.3,20.69-26.76,20.82A27.9,27.9,0,0,1,40.61,16.64l-5,.58C39.25,37.73,69.9,54.37,92.41,31.28Z"/><path class="cls-6" d="M223.1,9.36H222a14.22,14.22,0,0,1-.38,3.48h1.45Z"/><path class="cls-6" d="M242.27,9.36h-2.8a22.47,22.47,0,0,1,.06,3.48h2.74Z"/><path class="cls-6" d="M15.11,17.87h-3.8A13.88,13.88,0,0,1,9.5,20.14v4.38A17.42,17.42,0,0,0,15.11,17.87Z"/><path class="cls-6" d="M21.89,15.8c-.74,5.42-5.6,10.55-8.32,12.83A23.29,23.29,0,0,1,9.5,31.35v3.52c8.06-3.62,14.28-10.74,15.69-18.32l4.78.61c.44,2.41-2.85,8.29-3.91,10a33.53,33.53,0,0,1-6.73,7.6A37.56,37.56,0,0,1,9.5,40.26V50.54c.31.49.64,1,1,1.5,8.7,12.06,26.85,15,39.23,5.6,3.15-2.4,8.09-7.62,9.4-12.82l5.09.74C60.9,58.4,46.94,68.35,32.8,68.3A34.36,34.36,0,0,1,9.5,58.64v4.41c1.93,1.6,3.43,2.56,3.95,3.29A15.81,15.81,0,0,1,9.5,74.46v4.32a18.12,18.12,0,0,0,7.06-10.93l5.31,2.27C21.23,75.87,16.24,82,9.5,85.49v3.76c8.06-3.61,14.16-10.74,15.72-18.35l5,.61C28.59,81.45,20.15,90.64,9.5,94.64V105c13.05,19.86,42.86,14.93,49.66-5.78l5.07.74C61,112.69,47,122.69,32.8,122.65A34.63,34.63,0,0,1,9.5,113v4.38a32.8,32.8,0,0,1,3.95,3.3,15.76,15.76,0,0,1-3.95,8v4.5a20.63,20.63,0,0,0,7.09-10.94l5.27,2.24C21.1,130,16.43,135,13.58,137.28A24.89,24.89,0,0,1,9.5,140v3.67a26.55,26.55,0,0,0,15.74-18.39l5,.62C28.12,136,20.15,145.16,9.5,149.07v10.24c12.61,19.12,41.91,15.92,49.69-5.78l5,.73c-.69,3.1-3,6.89-4.55,9.1-12.95,18-37.1,16.67-50.15,4.13v4.39a23.46,23.46,0,0,0,3.95,2.81A14.58,14.58,0,0,1,9.5,183v4.45a22,22,0,0,0,7.11-10.87l5.36,2C20.65,185,16,191,9.5,194.29V198a28.93,28.93,0,0,0,12.32-10.6c5.48-8.28.3-8.25,8.42-7.19-2.14,10.13-10,19.31-20.74,23.23v10.16c12,18.52,40.69,17,49.72-5.74l5,.76c-1.1,5.94-6.78,12.5-11.22,15.94-11.87,9.17-28.22,9-40.45-.23a28.1,28.1,0,0,1-3-2.69V226c1.24,1,2.55,2,3.94,3a13.81,13.81,0,0,1-3.94,8.32v4.53a12.72,12.72,0,0,0,1-.91c3.67-3.67,4-4.18,6.12-10l5.33,2c-1.21,6.42-6,12.38-12.47,15.72v3.86a24.48,24.48,0,0,0,6.72-4.31,31.11,31.11,0,0,0,5.62-6.44c5.35-8.1.22-8.24,8.41-7.18A32.73,32.73,0,0,1,9.5,257.79v3.63a35.68,35.68,0,0,0,11.07-5.88c9.54-7.46,11.45-16.35,12.61-17.19.46,5.61,7.86,13.78,12,17.1,10.12,8.22,24,9.73,36.28,5.11a35.87,35.87,0,0,0,21-22.74,21.63,21.63,0,0,1,.9-3.24c10.23,0,18.07-3.91,24.62-10.47a36.49,36.49,0,0,0,3.52-47.84,24.76,24.76,0,0,0-4.75-5.06c2.21-3.3,5.64-4.87,8.68-11.7.67-1.51,1.2-3.47,1.89-4.9a36.93,36.93,0,0,0,14.55-3.17,32.82,32.82,0,0,0,8.17-5A36.54,36.54,0,0,0,166.12,96c-1.12-1.49-2.92-4.27-4.7-4.74,3.47-5.18,8.44-7.24,11.32-19.62a33.79,33.79,0,0,0,13.43-2.79A35.69,35.69,0,0,0,206,47.88c1-2.86,1.17-1.76,5.91-2.38,7.72-1,16.17-5.25,21.32-11.13.71-.82.93-1.21,1.69-2.07a31.72,31.72,0,0,0,7.39-16V15.6h-3.08c-1.69,9.51-8.93,18.16-16.75,22.73-11.45,6.7-25.91,4.76-36-2.68a36,36,0,0,1-7.48-8c-1.13-1.66-4.79-8-4.2-10.47l4.71-.63c2.81,12,15.77,23,31.4,20.45,13.18-2.15,23.2-12.85,23.59-27.61h-3.37c-.29,12.91-9,22.23-20.19,24.23-13,2.31-26.13-6.6-28.16-18l5.07-2.09.52.92c1.79,4.06,2.36,7,7.65,10.47a18.81,18.81,0,0,0,26.57-5.76,17.91,17.91,0,0,0,1.79-3.63h-3.62a15.56,15.56,0,0,1-1.16,2.1v4h-3.64c-8.87,6.77-23.12,2-24.74-10.13a14.2,14.2,0,0,0,3.14-2.1h-5.78a33.32,33.32,0,0,1-33.46,0h-5.91a13.81,13.81,0,0,0,3.18,2.12c-2.44,18-28.71,17.2-30.6,0a14.07,14.07,0,0,0,3.16-2.08h-5.82c-10.87,6.55-23.59,5.46-33.32,0h-6a24,24,0,0,0,3.18,2.17C80.39,29.33,54.43,29,52.33,11.5a14.31,14.31,0,0,0,3.33-2.06H49.45a33,33,0,0,1-31.52.89v3.79Zm-12,28.12,5.22-2.13c2.19,3.32,2,5.25,6.55,8.57C33,58.73,47.8,51.72,50.5,41.67l5.39,2.42C49.37,63.76,18.1,66.33,9.85,43.92ZM61.19,58.15a35.15,35.15,0,0,0,4.75-7.71c1.14-2.59,1.76-3.34,3-.94,3.24,6.61,7.29,12.8,14,16.45-2.45,17.73-28.53,17.4-30.59-.11C54.86,64.87,59.59,60.15,61.19,58.15Zm67.4-13.33,5.08.74c-1.72,7-7.35,12.93-11.33,16C106,74.29,79.64,69.12,71,45.68l4.78-.8a23,23,0,0,1,1.93,3.69C89,70.23,122,66.61,128.59,44.82Zm-49.3-.89,5.19-2.16c1.11,1.74,1.57,3.14,2.8,4.79,8.61,11.52,26,9.13,31.77-2.6.22-.44.4-.89.62-1.28,0-.1.25-.42.3-.49s.14-.29.16-.23.12-.16.17-.19l5,1.94c-.87,4.42-5.79,9.48-8.35,11.4C104.58,64.35,85.88,60.22,79.29,43.93Zm42.48,21.93c4.49-1.7,11.4-10.14,13.61-15.38,2.63-6.27,2.56,1.28,8.32,8,2.06,2.39,5.69,6,8.67,7.48C150,83.88,123.6,83.11,121.77,65.86Zm31.39,7.69L155.75,68l5,2.11c-.85,5.51-5.51,10.69-8.33,12.87-16.54,12.84-36.89.5-39.08-13L118.42,68c1.86,2.28.76,4.94,6.6,10.28a18.93,18.93,0,0,0,28.14-4.68Zm2,39.09c-2.14-7.13-6.37-10.08-12.89-12.84,2.49-.69,4.19-.91,6.79-1.77,1.74-.58,1.7-.6,3,.37a24.25,24.25,0,0,1,8.6,12.18,26.25,26.25,0,0,1-5.87,24.87,25.25,25.25,0,0,1-30.78,3.47c-4.51-2.77-9.85-9-10.56-14.57l5-2c.83,1,1.24,3.11,1.9,4.38a18.84,18.84,0,0,0,34.79-14Zm-6.4,15.67c-8.85,10.16-25.75,4.45-26.93-8.1,4.47-2.1,9.55-8.07,12.06-12.43.77-1.33,1.91-4.19,2.69-5.16C149.92,101.8,157.64,118.06,148.71,128.31Zm-19.64-19.25c-2.4,3.33-3.7,4.31-6.74,6.84C107.61,128.11,79.59,124.33,71,100l4.78-.78c.7.86,1.78,3.83,4.13,7.11A27.6,27.6,0,0,0,85.59,112c17,12.21,38.12,2.72,43-12.83l5.06.73A28.56,28.56,0,0,1,129.07,109.06Zm-26.86,50.38c-7.16-.05-13.27-5.25-14.55-10.86a21.13,21.13,0,0,1,2.46-1.9,35.37,35.37,0,0,0,12.08-17.44c1.12,1.62,1.8,4.12,2.79,6,3,5.6,4.28,6.1,7.41,9.57a54.86,54.86,0,0,0,4.61,3.79C116,154.29,109.2,159.48,102.21,159.44Zm15.24-4.3c1-1.36,1.8-3.53,2.85-4.68l5,2.27c-1.23,4.59-5.65,9.06-8.53,11.18-13.53,10-32.72,3-37.47-11.31l5.17-2.15c1.21,1.67,1.53,3.19,2.91,5a18.2,18.2,0,0,0,3.87,3.68A18.69,18.69,0,0,0,117.45,155.14Zm-.65-45.53c-13.15,9.46-31.93,3.87-37.5-11.34l5.18-2.16c1.15,1.6,1.52,3.11,2.78,4.8a18.76,18.76,0,0,0,26.63,3.53,14.92,14.92,0,0,0,3.74-3.81L119.68,97c.45-.82.12-.37.62-.92l5,2.31C124,103,119.67,107.55,116.8,109.61Zm-14.6-4.52C95,105,89.12,99.92,87.65,94.26a26.88,26.88,0,0,1,2.45-1.93c5.44-4.45,10.07-10.13,12.09-17.43,1.64,2.31,2.14,6.24,6.09,11,5.75,6.94,3.61,3.5,8.75,8.35C115.77,100,109.31,105.16,102.2,105.09ZM49,68c.94,1.28,1.53,3.94,2.55,5.64C59.81,87.22,81.85,85.21,86,67.85l5.31,2.27C90.56,75.69,85.8,80.71,83,83a24.65,24.65,0,0,1-31.1-.24c-3-2.54-7-7.36-8-12.69ZM20.66,92.3a32.7,32.7,0,0,0,6.22-6.22A35.68,35.68,0,0,0,32.78,75c1.18,1.61,1.75,4.11,2.79,6a38.76,38.76,0,0,0,3.27,5c3.79,4.85,5.6,5.43,8.75,8.31a14.58,14.58,0,0,1-5.25,7.66c-10.13,7.5-22.64.28-24.13-7.66A27,27,0,0,1,20.66,92.3Zm12.13,22c-11.24,0-20.17-7.71-22.93-16l5.21-2.14c1.08,1.63,1.72,3.22,2.77,4.78,8.1,11.9,28.85,8.86,32.69-4.93l5.35,2.43C53.39,106.57,43.81,114.29,32.79,114.25Zm2.8-42.69,5-.58a28,28,0,0,0,54.07-.09l5,.62C97,85,83.65,96.8,67.5,96.74,51.64,96.69,38.12,84.9,35.59,71.56ZM61.22,112.5A35.44,35.44,0,0,0,66,104.77c2.23-5.09,2.63-.94,4.92,3.09a36.63,36.63,0,0,0,9.81,11,8,8,0,0,1,2.22,1.85c-3,17.72-28.74,16.55-30.56-.48C54.7,119.33,59.75,114.34,61.22,112.5ZM49,122.3c.88,1.17,1.53,4,2.53,5.64,8,13.11,29.67,12.34,34.48-5.75l5.27,2.24c-.56,5.28-5.69,10.85-8.28,12.88-17.14,13.43-37.68-.64-39.09-13Zm-16.22,7c1.16,1.65,1.71,4.12,2.75,6,3.78,6.74,6.29,8.55,12,13.32-1.13,5.75-7.74,10.9-14.77,10.86s-13.44-5.31-14.64-11C25,143.21,29.78,138.92,32.8,129.28Zm14.6,34.65C33.12,174.3,13.89,166,9.88,152.61l5.19-2.14c2,3,2.57,5.78,6.52,8.56,11.94,8.37,26.09,1.37,29-8.75l5.31,2.45C54.66,157.16,50.11,162,47.4,163.93ZM35.57,126l5-.64a28,28,0,0,0,54.1-.08l5,.61c-1.42,7.58-6.92,14.35-11.09,17.78C70.6,158.47,41.77,150.43,35.57,126Zm25.66,40.87c6.23-8.4,5.43-13.38,8.22-7.39C74.37,170,80.66,172.35,82.89,175c-2.83,17.79-29,16.49-30.54-.45C54.93,173.37,59.69,168.89,61.23,166.83ZM49,176.64c.76,1,1.49,3.94,2.55,5.6,6.85,10.76,20.89,11.39,28.17,4.6,3.22-3,4.76-5,6.3-10.3l5.24,2.21c-.38,5.17-5.75,11.06-8.27,12.88-10,7.27-22.91,7.28-31.14-.26-2.91-2.67-7.25-7.08-8-12.65Zm-16.2,7c1.14,1.7,1.67,4.11,2.72,6a38.86,38.86,0,0,0,3.3,5c3.52,4.74,6.9,6.45,8.72,8.31-.51,3.07-3.38,6.27-5.17,7.7-8.73,7-22.24,1.61-24.24-7.78C24.46,198.33,29.7,193.1,32.82,183.62Zm14.56,34.61c-15.3,10.94-34.23.93-37.49-11.29l5.18-2.12c1.17,1.76,1.74,3.43,2.89,5,7.31,10,24.71,10.14,31.56-2.65l1.21-2.2c0,.05.11-.15.17-.2l5,2.27C54.77,211.49,50.15,216.25,47.38,218.23ZM35.56,180.31l4.78-.67c.78,1.08,1.12,2.93,1.71,4.19,8.78,18.64,31.59,20.93,43.58,10,4.36-4,6.57-7.06,8.52-12.59.77-2.19.47-1.7,5.54-1.07-2.53,13.4-16.26,25.29-32.19,25.24A33,33,0,0,1,35.56,180.31Zm84.6,11.79c-2.83-8.16-8.21-9.67-12.72-12.11a35.9,35.9,0,0,0,6.81-1.69c1.48-.53,1.51-.7,2.64.06,8,5.4,11.71,16.37,9.37,25.95-3.88,15.9-23.93,25.7-40.46,12.34a24.6,24.6,0,0,1-6.47-9.71l5.15-2.14c1,1.31,1.32,2.69,2.3,4.09,7.78,11.11,22.83,9.93,29.39,2.31C119.9,206.88,122.81,199.74,120.16,192.1Zm-4-.87c3,5.8,1.81,12.89-1.86,17-9.94,11-24.41,4.1-26.68-5.32,6.52-5,12.91-11.26,14.82-20.08C109.5,183.05,113.8,186.72,116.14,191.23ZM61.23,221.15c6-7.42,5.27-13.69,8.21-7.38,4.81,10.34,10,11.89,13.45,15.53-2.77,18-29.2,16.27-30.52-.43C55.15,227.64,59.48,223.32,61.23,221.15ZM49,231c.65.84,1.5,4,2.53,5.58a18.83,18.83,0,0,0,15.94,9c9.87,0,15.79-6.05,18.57-14.67l5.36,2c-1,5.35-5.24,10.81-8.37,13.09-17.69,12.87-36.55.42-39.21-12.9ZM67.5,259.78a32.93,32.93,0,0,1-31.94-25.13l4.78-.65c1.71,2.69,2,8.43,9.77,14.57a27.68,27.68,0,0,0,17.77,6.17c13.89-.12,22.38-8.37,26.87-20.79l4.94.59C96.85,248.07,83.69,259.84,67.5,259.78Zm64.84-75.32A32.56,32.56,0,0,1,135.28,201c-2.63,34.27-51.47,42.82-64.2,8,1-.71,3.52-.88,5-1a28.17,28.17,0,0,0,16.84,16.73c23.81,8.71,46.2-17,34.19-39.46-3.25-6.08-5.91-6.85-7.43-9.15l4-2.6C126.5,174.59,130.6,180.75,132.34,184.46ZM101.82,177A32.91,32.91,0,0,1,71,154.35l4.77-.78c1.13,1.37,2.67,5.11,4.11,7.11,12.76,17.77,41.73,13.61,48.72-7.17.93.15,1.67.3,2.6.44l2.37.66C130,166.39,117.52,177.23,101.82,177Zm68.09-55.31a32.81,32.81,0,0,1-15.45,24.46c-20.64,13.07-45.7-1.16-49.43-20.22l5-.63a27.95,27.95,0,0,0,42.83,15.85c11.3-7.74,15.85-22.39,9-36-2.29-4.56-4.76-6.28-7.61-9.38,1.66-.88,3-2,4.68-2.65a13.75,13.75,0,0,0,2.45,2.69C167.64,101.75,170.87,112.52,169.91,121.68ZM158,89.32a33.1,33.1,0,0,1-48.75-7.77c-1.44-2.2-4-6.85-4-10l4.54-.64c1,1.5,2.4,5.86,3.87,8.13,12.92,20,44.71,15.19,50.48-8.18l5,.62C167.79,79.08,162.15,85.94,158,89.32Zm45.11-43.54c-3,8.11-6.06,11.42-11.17,15.62-15.59,12.84-43.13,7.95-51.49-15.71l4.76-.82a19.43,19.43,0,0,1,2,3.66c7.87,15,28.2,19.4,41.39,9.12,3.76-2.92,7.72-7,9.48-12.85Zm-13.39-4,5.05,2.35c-2.51,8.14-12.06,15.9-23.15,15.81A24.73,24.73,0,0,1,157,55c-2.86-2.37-7.08-6.39-8.12-11.13l5-2.08c1,1.35,1.64,3.16,2.84,4.77a18.83,18.83,0,0,0,30.33-.19C188,45.06,188.74,43,189.72,41.74ZM172.45,22.13c2.14,5.1,5.14,10.5,9.36,14L185.36,39a6.65,6.65,0,0,1,1.12.94c-1.35,5.77-7.74,10.87-14.87,10.81s-13.27-5.26-14.52-10.81l4.67-3.81c3.59-3,8.66-10.47,9.83-15.59Zm-54-8.52c1,1.28,1.6,3.94,2.61,5.61,8.84,14.49,31,10.54,34.39-5.71l5.35,2.29c-.85,5.56-5.55,10.6-8.38,12.85-16.29,13-37.1.33-39.06-12.95Zm-8.38,3c2.24,10.94,13.91,20.88,27.25,20.77s24.23-9.84,26.8-20.83l4.72.62c.52,2.41-2.73,8.21-3.91,10-17.23,26.25-55.09,15.39-59.86-10Zm-7,5.56c.23.56.38,1.05.63,1.62C108.53,34.85,113.21,36,117,39.94c-3.33,13.64-25.11,14.89-29.4,0l4.68-3.85c3.78-3.18,8.68-10.38,9.85-15.52ZM49,13.62c.73,1,1.57,4,2.57,5.64,8.53,14.07,30.72,11,34.38-5.74l5.35,2.28c-.88,5.54-5.5,10.52-8.32,12.86-13.91,11.56-35.91,3-39.14-12.95Zm-8.41,3A27.9,27.9,0,0,0,67.88,37.37c13.46-.13,24.19-9.84,26.76-20.82l4.75.61c.59,3.18-4.6,11.68-7,14.12C69.9,54.37,39.25,37.73,35.6,17.22ZM42,35.22c2.75,2.88,3.61,2.79,5.56,4.72-3.58,14.22-25.53,14.35-29.39,0,1.12-1.31,4.05-2.52,8.65-8.2a34.78,34.78,0,0,0,5.9-11.13C35,23.52,34.09,26.91,42,35.22Z"/><path class="cls-6" d="M85.65,9.36h-6l.1.08h6Z"/><path class="cls-6" d="M194.43,9.36h-5.74l-.13.08h5.78Z"/><path class="cls-6" d="M155,9.36h-5.87l.1.08h5.91Z"/><path class="cls-6" d="M125,9.36h-5.78l-.13.08h5.82Z"/><path class="cls-6" d="M219.58,17.7a16.26,16.26,0,0,1-1.3,1.76,15.67,15.67,0,0,1-2.34,2.21h3.64Z"/><path class="cls-6" d="M242.27,16.31a42.36,42.36,0,0,0,.63-6.95h-.63v3.48h-2.74a23.63,23.63,0,0,1-.34,2.76h3.08Z"/><path class="cls-6" d="M55.76,9.36H49.59l-.14.08h6.21Z"/><path class="cls-6" d="M225.22,9.36H223.1v3.48h-1.45a15.11,15.11,0,0,1-.91,2.76h3.62A16.54,16.54,0,0,0,225.22,9.36Z"/><path class="cls-6" d="M234.48,9.36h-3.37v.05h3.37Z"/></g><path class="cls-3" d="M391.52,11V2.34h-8.66V8.69h-4.73V2.34H202.21V8.69h-8.47V2.34H15.61V8.69H10.87V2.34H2.22V11H8.57v4.73H2.22V356H8.76v8.11H2.22V754.83H8.57v4.74H2.22v8.65h8.65v-6.35h4.74v6.35H193.74v-6.33h8.47v6.33H378.13v-6.35h4.73v6.35h8.66v-8.65h-6.35v-4.74h6.35V364.07h-6.35V356h6.35V15.73h-6.35V11Zm-6.35-6.36h4V8.69h-4Zm-180.66,0H375.82V8.69H219V18.9h-9.24V16.14H215V8.69h-7.55v5.14h-2.94Zm5.24,9.19V11h2.95v2.83ZM191.44,4.64v9.19H188.5V8.69H181v7.45h5.25V18.9H177V8.69h-159v-4ZM186.2,11v2.83h-2.95V11ZM4.52,8.69v-4H8.57V8.69ZM15.61,11v4.73H10.87V11ZM4.52,18H8.57V339.18H18.78v9.24H16v-5.25H8.57v7.55h5.14v2.94H4.52Zm9.19,327.44v2.95H10.87v-2.95ZM4.52,752.53V366.38h9.19v2.94H8.57v7.55H16v-5.25h2.77v9.24H8.57V752.53Zm9.19-380.91v2.95H10.87v-2.95ZM8.57,765.92H4.52v-4H8.57Zm7-6.35H10.87v-4.74h4.74Zm175.83,6.35H17.91v-4H177V751.66h9.24v2.77H181v7.44h7.55v-5.14h2.94Zm-5.24-9.19v2.84h-2.95v-2.84Zm18.31,9.19v-9.19h2.94v5.14H215v-7.44h-5.25v-2.77H219v10.21H375.82v4Zm5.24-6.35v-2.84h2.95v2.84Zm179.46,2.3v4h-4v-4Zm-11.08-2.3v-4.74h4.73v4.74Zm11.08-7h-4V380.86H375v-9.24h2.77v5.25h7.45v-7.55H380v-2.94h9.19Zm-9.19-378v-2.95h2.84v2.95Zm2.84-10.5h-5.14v5.25h-5.07v13.84h10.21V752.53h-7v7H221.3V749.36H207.45v5.07h-5.24v5.16h-8.47v-5.16H188.5v-5.07H174.65v10.21H17.91v-7h-7V383.16H21.09V369.32H16v-5.25h-5V356h5v-5.24h5.08V336.87H10.87V18h7V11H174.65V21.21H188.5V16.14h5.24V11h8.47v5.14h5.24v5.07H221.3V11H375.82v7h7V336.87H372.65v13.85h5.07V356h5.14Zm6.35-346V353.66H380v-2.94h5.15v-7.55h-7.45v5.25H375v-9.24h10.22V18ZM380,348.42v-2.95h2.84v2.95Zm2.84-332.69h-4.73V11h4.73Z"/></g></g></svg>