<svg id="圖層_1" data-name="圖層 1" xmlns="http://www.w3.org/2000/svg" viewBox="0 0 366.13 245.96"><defs><style>.cls-1{fill:#e77a8e;opacity:0.8;}</style></defs><title>category_bg</title><path class="cls-1" d="M4,4.69V241.27h358V4.69ZM358.76,41.57H349V17.9H325.22V8h33.54ZM345.63,189.21h-12V201H321.88v11.9h-12v11.85H56.08V212.88H44.24V201H32.33V189.21H20.5V56.73H32.33V44.9H44.24V33.07H56.08V21.23H309.84V33.07h12V44.9h11.71V56.73h12Zm-32.45,35.51v-8.51h8.5v8.51Zm20.47-20.34v8.5h-8.43v-8.57h8.37v.07Zm11.77-3.4h-8.5v-8.43h8.5Zm-313.09,3.4v-.07h8.58v8.57H32.28v-8.5Zm20.42,20.34H44.24v-8.51h8.51ZM32.28,41.57v-8.5h8.63v8.5H32.28ZM336.92,44.9h8.5v8.5h-8.5Zm-3.33-3.33h-8.37v-8.5h8.43v8.5ZM313.18,21.23h8.5v8.5h-8.5ZM337,41.57v-8.5h8.65v8.5Zm8.65-11.84H337v-8.5h8.65Zm-12,0h-8.43v-8.5h8.43ZM321.88,17.9H44.24V8H321.88ZM52.75,21.23v8.5H44.24v-8.5Zm-11.84,8.5H32.28v-8.5h8.63Zm-12,0H20.5v-8.5H29ZM20.5,33.07H29v8.5H20.5ZM29,44.9v8.5H20.5V44.9ZM17.17,56.73V201H7.37V44.9h9.8ZM20.5,192.55H29V201H20.5ZM29,204.38v8.5H20.5v-8.5ZM20.5,216.21H29v8.52H20.5Zm11.78,0h8.63v8.52H32.28Zm289.6,11.85v9.87H44.24v-9.87Zm3.34-11.85h8.43v8.52h-8.43Zm11.76,0h8.65v8.52H337Zm8.65-3.33H337v-8.5h8.65ZM349,44.9h9.8V201H349ZM40.91,8V17.9H17.17V41.57H7.37V8ZM7.37,204.31h9.8v23.75H40.91v9.87H7.37Zm317.85,33.62v-9.87H349V204.31h9.8v33.62Z"/></svg>