<svg id="圖層_1" data-name="圖層 1" xmlns="http://www.w3.org/2000/svg" viewBox="0 0 123.66 123.77"><defs><style>.cls-1{fill:#f2a7a8;}</style></defs><title>ccc</title><path class="cls-1" d="M61.83,1.34A60.69,60.69,0,1,0,122.52,62,60.76,60.76,0,0,0,61.83,1.34ZM109.6,29.55a57.59,57.59,0,0,1,9.77,27.3h-2.09a55.34,55.34,0,0,0-7.68-23.44Zm2.21,41.82V58.58h5c.07,1.13.11,2.28.11,3.44a55.39,55.39,0,0,1-.8,9.35Zm4,1.72a54.51,54.51,0,0,1-4,12.06V73.09Zm-14-52.72a57.24,57.24,0,0,1,6,6.79v3.56a55.83,55.83,0,0,0-6-7.41Zm0,3.83a55,55,0,0,1,6,7.62V45.11h-6Zm0,70h4.7a54.38,54.38,0,0,1-4.7,5.67ZM14.06,29.55v3.86A55.34,55.34,0,0,0,6.38,56.85H4.29A57.59,57.59,0,0,1,14.06,29.55ZM4.06,62c0-1.16,0-2.3.1-3.44H6.25c-.07,1.14-.11,2.28-.11,3.44a55.39,55.39,0,0,0,.79,9.35H4.82A57.73,57.73,0,0,1,4.06,62ZM11.85,91A57.32,57.32,0,0,1,5.12,73.09H7.24a55.25,55.25,0,0,0,4.61,13.47Zm0-5.82a54.51,54.51,0,0,1-4-12.06h4Zm0-13.78H7.55A54.37,54.37,0,0,1,6.75,62c0-1.16,0-2.31.11-3.44h5Zm10,32.3a58.07,58.07,0,0,1-8-9.5h2.53a56.94,56.94,0,0,0,5.45,6.56Zm-8.26-11v-2.9c.57,1,1.17,2,1.8,2.9Zm8.26,7.15a54.38,54.38,0,0,1-4.7-5.67h4.7Zm0-7.15H16.1c-.9-1.34-1.75-2.72-2.53-4.14V73.09h8.26Zm0-21.32H13.57V57.71a.87.87,0,0,0-.86-.86H7a54.85,54.85,0,0,1,7.07-22.24V46a.86.86,0,0,0,.87.86h6.9Zm0-26.26h-6V31.82a55,55,0,0,1,6-7.62Zm0-21.8a55.83,55.83,0,0,0-6,7.41V27.16a57.24,57.24,0,0,1,6-6.79Zm78.28,81.94a57.63,57.63,0,0,1-76.56,0v-2.82a55.59,55.59,0,0,0,76.56,0Zm0-3.66a55,55,0,0,1-76.56,0V22.45a55,55,0,0,1,76.56,0Zm0-82.59v2.61a55.59,55.59,0,0,0-76.56,0V19h-.24a57.67,57.67,0,0,1,77,0Zm1.72,84.67v-2.94a56.94,56.94,0,0,0,5.45-6.56h2.53A58.07,58.07,0,0,1,101.83,103.67Zm8.26-11h-1.8c.63-.94,1.23-1.91,1.8-2.9Zm0-4.14q-1.19,2.13-2.53,4.14h-5.73V73.09h8.26Zm0-30.84V71.37h-8.26V46.83h6.9a.86.86,0,0,0,.87-.86V34.61a55,55,0,0,1,7.07,22.24H111A.87.87,0,0,0,110.09,57.71ZM111.81,91V86.56a55.25,55.25,0,0,0,4.61-13.47h2.12A57.32,57.32,0,0,1,111.81,91Zm4.92-19.6a55.39,55.39,0,0,0,.79-9.35c0-1.16,0-2.3-.11-3.44h2.09c.07,1.14.1,2.28.1,3.44a57.73,57.73,0,0,1-.76,9.35Z"/></svg>