<svg id="圖層_1" data-name="圖層 1" xmlns="http://www.w3.org/2000/svg" viewBox="0 0 127.35 117.03"><defs><style>.cls-1{fill:#a7844d;}.cls-2{fill:#303338;}.cls-3{fill:#eaa848;}.cls-4{opacity:0.62;}.cls-5{fill:#fff;}.cls-6{fill:#c73835;}.cls-7{fill:#ed775c;}.cls-8{fill:#d9573c;}.cls-12,.cls-9{fill:#f29e88;}.cls-10{fill:#efb15d;}.cls-11{fill:#f7bca3;}.cls-12{opacity:0.44;}.cls-13{fill:#f4aa97;}.cls-14{opacity:0.47;}.cls-15{opacity:0.41;}</style></defs><title>flower_circle</title><path class="cls-1" d="M103.6,26.14a8.69,8.69,0,0,1,2.23,3.37,20,20,0,0,1,1.2,4.36,22.31,22.31,0,0,1-.46,9.41c-.11.4.53.5.63.1a22.91,22.91,0,0,0,.7-7.73,20.83,20.83,0,0,0-1.75-7,8.93,8.93,0,0,0-2.14-3c-.31-.27-.72.23-.41.5Z"/><path class="cls-1" d="M107.59,37.92a10.37,10.37,0,0,0-3.3-4C103,33,101.53,32.3,100.62,31c-.28-.38-.47-1-.11-1.28a.81.81,0,0,1,.43-.16,2.67,2.67,0,0,1,1.41.26A8.25,8.25,0,0,1,106,33.29a18.37,18.37,0,0,1,1.82,4.77"/><path class="cls-1" d="M105.66,28.7a18.38,18.38,0,0,1,.18-4.63,8.39,8.39,0,0,1,2-4.14,2.41,2.41,0,0,1,.89-.66,1,1,0,0,1,1,.15,1.21,1.21,0,0,1,.33.68,4,4,0,0,1-.24,1.8,18.07,18.07,0,0,1-3.78,6.62"/><path class="cls-1" d="M104.55,27a25.48,25.48,0,0,1-5.07-5.6,6.07,6.07,0,0,1-1.15-2.72c0-.56.16-1.27.71-1.35a1.25,1.25,0,0,1,.74.21,9,9,0,0,1,3.69,4.28,27.62,27.62,0,0,1,1.6,5.51"/><path class="cls-1" d="M105.23,29.11a22,22,0,0,1-5.66-1.77,9.25,9.25,0,0,1-2.82-1.87c-.37-.38-.7-.95-.44-1.41a1.23,1.23,0,0,1,1.28-.39c1.69.26,3.06,1.46,4.39,2.54a52.49,52.49,0,0,0,4.26,3.14"/><path class="cls-2" d="M109.72,44.63a17.2,17.2,0,0,0-3.28-5.82A13.32,13.32,0,0,0,101,35a.93.93,0,0,0-.46-.07.6.6,0,0,0-.4.62,1.74,1.74,0,0,0,.27.75,19.83,19.83,0,0,0,3.66,5.24,19.25,19.25,0,0,0,2.51,1.87A10.14,10.14,0,0,0,109.64,45"/><path class="cls-2" d="M111,48.5a14,14,0,0,0-5-3,10.91,10.91,0,0,0-5.73-1c-.19,0-.42.13-.43.32a.5.5,0,0,0,.09.24,8.36,8.36,0,0,0,4.93,3.36,15.64,15.64,0,0,0,6.06.21"/><path class="cls-2" d="M110.73,49.82a8.62,8.62,0,0,1,3.5-3,25.28,25.28,0,0,1,6.68-2.5,9,9,0,0,1,1.54-.23.49.49,0,0,1,.58.72,6.83,6.83,0,0,1-2.12,2.82,11.72,11.72,0,0,1-4.84,2.55,8.86,8.86,0,0,1-5.41-.34"/><path class="cls-2" d="M110.6,47.6a14.54,14.54,0,0,1-.89-5.65,16.26,16.26,0,0,1,.11-3A17.4,17.4,0,0,1,112,33.58c.06-.11.16-.23.27-.19s.07,0,.1.08A7.73,7.73,0,0,1,114,37.94a13.51,13.51,0,0,1-.63,4.8,11.39,11.39,0,0,1-.81,2.1,15.21,15.21,0,0,1-1.69,2.47"/><path class="cls-2" d="M108.94,44.65a13.38,13.38,0,0,1,1.45,8.41c-.09.89-.24,1.78-.4,2.66-.09.48.64.67.73.18.58-3.08.89-6.32-.09-9.35a11.14,11.14,0,0,0-1-2.28c-.26-.42-.92,0-.66.38Z"/><path class="cls-2" d="M101.38,48.28A31.4,31.4,0,0,0,104.66,61c.55,1.16,1.14,2.29,1.76,3.41.12.21.46,0,.33-.21A38.29,38.29,0,0,1,102.12,52a24.78,24.78,0,0,1-.35-3.74.2.2,0,0,0-.39,0Z"/><path class="cls-2" d="M104.12,58.79a14.64,14.64,0,0,1-.08-6.87c.06-.25-.32-.34-.37-.1a15,15,0,0,0,.08,7.07c.06.25.43.14.37-.1Z"/><path class="cls-2" d="M103.9,58.14c-1.16-1.54-2.27-3.09-3.35-4.67-.14-.21-.48,0-.34.2,1.09,1.58,2.2,3.14,3.35,4.67.15.2.49,0,.34-.2Z"/><path class="cls-2" d="M102.35,53.08a6.84,6.84,0,0,1,.93-3,.2.2,0,0,0-.35-.19,7.55,7.55,0,0,0-1,3.21c0,.25.37.24.39,0Z"/><path class="cls-3" d="M103.43,53.14a1.08,1.08,0,0,1-.37-.79,2.39,2.39,0,0,1,.16-.87,2.74,2.74,0,0,1,1-1.54.81.81,0,0,1,1,0,.88.88,0,0,1,.22.61,3.08,3.08,0,0,1-.85,2.31,1.16,1.16,0,0,1-1,.45"/><g class="cls-4"><path class="cls-5" d="M103.58,52.92a2.8,2.8,0,0,1,.27-1.66c0-.07-.07-.14-.11-.06a2.85,2.85,0,0,0-.29,1.72c0,.08.14.08.13,0Z"/></g><g class="cls-4"><path class="cls-5" d="M103.79,52.93c.23-.58.43-1.17.6-1.76,0-.08-.1-.12-.12,0a17.8,17.8,0,0,1-.59,1.74c0,.07.08.14.11.06Z"/></g><g class="cls-4"><path class="cls-5" d="M103.94,53.05a3.54,3.54,0,0,0,.91-1.77c0-.08-.12-.11-.13,0a3.31,3.31,0,0,1-.88,1.71c0,.06,0,.15.1.09Z"/></g><path class="cls-3" d="M102.76,50.3a1.07,1.07,0,0,1-.36-.79,2.38,2.38,0,0,1,.15-.87,2.74,2.74,0,0,1,1-1.54.81.81,0,0,1,1,0,.88.88,0,0,1,.22.61,3.11,3.11,0,0,1-.84,2.31,1.18,1.18,0,0,1-1,.45"/><g class="cls-4"><path class="cls-5" d="M102.91,50.08a2.8,2.8,0,0,1,.27-1.66c0-.07-.07-.14-.11-.06a2.85,2.85,0,0,0-.29,1.72c0,.08.14.08.13,0Z"/></g><g class="cls-4"><path class="cls-5" d="M103.12,50.09a14.61,14.61,0,0,0,.6-1.76c0-.08-.1-.12-.12,0A17.8,17.8,0,0,1,103,50c0,.07.08.14.11.06Z"/></g><g class="cls-4"><path class="cls-5" d="M103.27,50.21a3.46,3.46,0,0,0,.91-1.77c0-.08-.11-.11-.13,0a3.38,3.38,0,0,1-.87,1.71.06.06,0,1,0,.09.09Z"/></g><path class="cls-3" d="M101.3,49.66a1.4,1.4,0,0,1-.87-.73,3.39,3.39,0,0,1-.31-1.13,3.73,3.73,0,0,1,.37-2.4,1.08,1.08,0,0,1,1.16-.58,1.15,1.15,0,0,1,.6.61,4.08,4.08,0,0,1,.28,3.21,1.55,1.55,0,0,1-.94,1.09"/><g class="cls-4"><path class="cls-5" d="M101.33,49.32a3.67,3.67,0,0,1-.59-2.14c0-.08-.12-.08-.13,0a3.83,3.83,0,0,0,.61,2.21c0,.07.16,0,.11-.07Z"/></g><g class="cls-4"><path class="cls-5" d="M101.6,49.2c0-.81-.14-1.62-.27-2.42,0-.09-.14-.05-.12,0a23.91,23.91,0,0,1,.26,2.39.07.07,0,1,0,.13,0Z"/></g><g class="cls-4"><path class="cls-5" d="M101.84,49.26a4.6,4.6,0,0,0,.09-2.6c0-.08-.14,0-.12,0a4.45,4.45,0,0,1-.1,2.53c0,.08.1.11.13,0Z"/></g><path class="cls-3" d="M100.49,54.4a1.41,1.41,0,0,1-1.13-.14,3.09,3.09,0,0,1-.87-.78,3.66,3.66,0,0,1-1-2.21,1.07,1.07,0,0,1,.65-1.12,1.16,1.16,0,0,1,.84.18,4.07,4.07,0,0,1,2,2.55,1.52,1.52,0,0,1-.2,1.42"/><g class="cls-4"><path class="cls-5" d="M100.33,54.1a3.7,3.7,0,0,1-1.66-1.47c0-.08-.15,0-.11.06a3.76,3.76,0,0,0,1.71,1.52c.07,0,.14-.08.06-.11Z"/></g><g class="cls-4"><path class="cls-5" d="M100.49,53.85c-.48-.65-1-1.28-1.55-1.89,0-.06-.14,0-.09.1a22.91,22.91,0,0,1,1.53,1.86c.05.07.16,0,.11-.07Z"/></g><g class="cls-4"><path class="cls-5" d="M100.72,53.77a4.61,4.61,0,0,0-1.33-2.23c-.06-.06-.15,0-.09.09a4.56,4.56,0,0,1,1.3,2.18c0,.08.14,0,.12,0Z"/></g><path class="cls-1" d="M117.51,61.12a8.67,8.67,0,0,1-.88,3.94A20.36,20.36,0,0,1,114.32,69a22.33,22.33,0,0,1-7.1,6.19c-.37.2,0,.72.36.53a22.8,22.8,0,0,0,6.06-4.86,20.73,20.73,0,0,0,3.85-6.13,8.8,8.8,0,0,0,.66-3.61c0-.41-.66-.36-.64,0Z"/><path class="cls-1" d="M111.79,72.17a10.45,10.45,0,0,0,.62-5.19c-.21-1.54-.77-3.08-.5-4.61.08-.47.38-1,.86-1a.83.83,0,0,1,.4.19A2.72,2.72,0,0,1,114,62.8a8.15,8.15,0,0,1,.08,5,18.5,18.5,0,0,1-2.17,4.61"/><path class="cls-1" d="M117.1,64.38a18.34,18.34,0,0,1,3.45-3.08,8.53,8.53,0,0,1,4.35-1.46A2.37,2.37,0,0,1,126,60a1,1,0,0,1,.62.87,1.14,1.14,0,0,1-.26.7,4,4,0,0,1-1.46,1.08,18.3,18.3,0,0,1-7.4,1.86"/><path class="cls-1" d="M117.59,62.37a25.12,25.12,0,0,1,.52-7.54,6.09,6.09,0,0,1,1.16-2.72c.37-.42,1-.76,1.47-.42a1.29,1.29,0,0,1,.36.68,9,9,0,0,1-.53,5.62,26.27,26.27,0,0,1-2.87,5"/><path class="cls-1" d="M116.5,64.35a22.43,22.43,0,0,1-2.64-5.3,9.35,9.35,0,0,1-.62-3.33c0-.53.21-1.17.72-1.3s.89.27,1.16.65c1,1.4,1.08,3.22,1.22,4.93a51.65,51.65,0,0,0,.69,5.25"/><path class="cls-1" d="M94.14,79.77a8.63,8.63,0,0,1,1.37,3.8,20.1,20.1,0,0,1,.13,4.52,22.2,22.2,0,0,1-2.68,9c-.2.37.4.61.59.25A22.76,22.76,0,0,0,96.07,90a21,21,0,0,0,0-7.25,8.82,8.82,0,0,0-1.37-3.39c-.24-.34-.76,0-.52.38Z"/><path class="cls-1" d="M95.22,92.16A10.37,10.37,0,0,0,93,87.45c-1-1.18-2.3-2.18-2.89-3.62-.18-.44-.22-1.07.2-1.28a.86.86,0,0,1,.45,0,2.66,2.66,0,0,1,1.31.59A8.13,8.13,0,0,1,94.8,87.3a17.9,17.9,0,0,1,.64,5"/><path class="cls-1" d="M95.53,82.74a18.57,18.57,0,0,1,1.27-4.45,8.53,8.53,0,0,1,2.89-3.56,2.3,2.3,0,0,1,1-.43,1.06,1.06,0,0,1,1,.4,1.17,1.17,0,0,1,.15.74,3.89,3.89,0,0,1-.66,1.69A18.2,18.2,0,0,1,96,82.66"/><path class="cls-1" d="M94.87,80.78a25.44,25.44,0,0,1-3.6-6.64,6,6,0,0,1-.47-2.92c.08-.55.45-1.19,1-1.13a1.16,1.16,0,0,1,.67.37,9,9,0,0,1,2.56,5,26.22,26.22,0,0,1,.25,5.74"/><path class="cls-1" d="M95,83A22.59,22.59,0,0,1,89.94,80a9.53,9.53,0,0,1-2.3-2.48c-.27-.46-.45-1.1-.09-1.48A1.22,1.22,0,0,1,88.88,76c1.59.65,2.63,2.14,3.67,3.5A50.73,50.73,0,0,0,96,83.51"/><path class="cls-2" d="M104,69.69a17.12,17.12,0,0,0-4.59-4.85,13.27,13.27,0,0,0-6.22-2.36.79.79,0,0,0-.46,0,.59.59,0,0,0-.24.7,1.7,1.7,0,0,0,.44.66,19.89,19.89,0,0,0,4.82,4.2,20.29,20.29,0,0,0,2.89,1.21,10.17,10.17,0,0,0,3.37.79"/><path class="cls-2" d="M106.15,73.14a14.09,14.09,0,0,0-5.59-1.68,10.86,10.86,0,0,0-5.8.41c-.17.08-.38.23-.34.42a.51.51,0,0,0,.15.21,8.35,8.35,0,0,0,5.59,2.07,15.68,15.68,0,0,0,5.94-1.27"/><path class="cls-2" d="M106.24,74.48a8.59,8.59,0,0,1,2.66-3.79,25,25,0,0,1,5.88-4,9.11,9.11,0,0,1,1.44-.6.64.64,0,0,1,.62,0,.61.61,0,0,1,.11.51,6.74,6.74,0,0,1-1.37,3.26,11.75,11.75,0,0,1-4.07,3.64,8.94,8.94,0,0,1-5.34,1"/><path class="cls-2" d="M105.58,72.36a14.8,14.8,0,0,1-2.24-5.27,16.78,16.78,0,0,1-.6-2.9,17.23,17.23,0,0,1,.78-5.77c0-.12.09-.26.21-.25a.17.17,0,0,1,.12.06,7.82,7.82,0,0,1,2.73,3.93,13.62,13.62,0,0,1,.54,4.8,11.92,11.92,0,0,1-.27,2.23,15.57,15.57,0,0,1-1,2.81"/><path class="cls-2" d="M103.26,69.9a13.35,13.35,0,0,1,3.43,7.8c.13.89.2,1.79.26,2.68,0,.49.79.49.76,0-.19-3.12-.67-6.35-2.36-9a10.87,10.87,0,0,0-1.55-2c-.35-.34-.89.19-.54.53Z"/><path class="cls-6" d="M108.39,60.32a6,6,0,0,1-2.82-2.25,3.55,3.55,0,0,1,.43-3.71,5,5,0,0,1,3.4-1.79,3.09,3.09,0,0,1,2.94,1,3.06,3.06,0,0,1,.39,2.08c-.23,2-1.41,3.78-1.46,5.77"/><path class="cls-2" d="M111.3,58.29a.68.68,0,0,0-1.35-.18.68.68,0,0,0,1.35.18Z"/><path class="cls-2" d="M109.29,59.78a.68.68,0,0,0-1.35-.18.68.68,0,0,0,1.35.18Z"/><path class="cls-2" d="M106.94,57a.68.68,0,0,0-1.35-.18.68.68,0,0,0,1.35.18Z"/><path class="cls-2" d="M109.25,55.15A.68.68,0,0,0,107.9,55a.68.68,0,0,0,1.35.18Z"/><path class="cls-2" d="M109.14,57.31a.68.68,0,0,0-1.35-.18.68.68,0,0,0,1.35.18Z"/><path class="cls-2" d="M111.31,59.7a.44.44,0,0,0-.87-.12.44.44,0,0,0,.87.12Z"/><path class="cls-2" d="M106.78,59.69a.43.43,0,0,0-.86-.12.43.43,0,0,0,.86.12Z"/><path class="cls-2" d="M107.47,55.8a.44.44,0,0,0-.87-.11.44.44,0,0,0,.87.11Z"/><path class="cls-2" d="M110.79,55.11a.44.44,0,0,0-.87-.11.44.44,0,0,0,.87.11Z"/><path class="cls-2" d="M111.32,56.31a.44.44,0,0,0-.87-.11.44.44,0,0,0,.87.11Z"/><path class="cls-7" d="M110.72,64.82c-.8-.78-1.75-1.38-2.56-2.14a4.3,4.3,0,0,1-1.52-2.88A3.21,3.21,0,0,1,108,57.17a4.26,4.26,0,0,1,3-.7,2.75,2.75,0,0,1,1,.27,2.69,2.69,0,0,1,1.19,1.76,7.9,7.9,0,0,1-1.31,5.69"/><path class="cls-7" d="M111.54,64.29a5.36,5.36,0,0,0,1.87-4c0-1.61-.69-3.19-.49-4.79a1.74,1.74,0,0,1,.81-1.41,1.54,1.54,0,0,1,1.06,0,2.62,2.62,0,0,1,1.44,1.05,4,4,0,0,1,.54,1.54,8.09,8.09,0,0,1-1,5.38,5.85,5.85,0,0,1-1.64,1.82,3.69,3.69,0,0,1-2.33.69"/><path class="cls-7" d="M109.53,65a8,8,0,0,1-6.5-3.53,3.46,3.46,0,0,1-.68-2,2,2,0,0,1,.6-1.36,1.63,1.63,0,0,1,1.41-.42,2,2,0,0,1,1.22.85,7.28,7.28,0,0,1,.7,1.36,11.34,11.34,0,0,0,1.83,3,5.13,5.13,0,0,0,3,1.72"/><path class="cls-2" d="M110.78,66.72c.5,5.07-2.28,9.64-5.42,13.37-.93,1.1-1.9,2.16-2.88,3.23-.43.47.27,1.18.71.7,3.48-3.79,7.12-7.83,8.29-13a13.58,13.58,0,0,0,.3-4.31.51.51,0,0,0-.5-.5.5.5,0,0,0-.5.5Z"/><path class="cls-2" d="M110.23,64.07a10.9,10.9,0,0,1,2.21-.22.86.86,0,0,1,.6.18.81.81,0,0,1,.12.73,2.67,2.67,0,0,1-.71,1.37,2,2,0,0,1-1.41.59,2.37,2.37,0,0,1-1.73-.93,1.18,1.18,0,0,1-.31-1.14c.19-.44.76-.54,1.23-.58"/><path class="cls-6" d="M87.43,20.13a6,6,0,0,1-3.48.94,3.53,3.53,0,0,1-2.74-2.54,5,5,0,0,1,.56-3.8,3.08,3.08,0,0,1,2.52-1.79,3,3,0,0,1,1.92.91c1.46,1.35,2.21,3.37,3.79,4.59"/><path class="cls-2" d="M87.51,16.57a.68.68,0,0,0-.94,1,.68.68,0,0,0,.94-1Z"/><path class="cls-2" d="M87.53,19.07a.69.69,0,0,0-1,1,.69.69,0,0,0,1-1Z"/><path class="cls-2" d="M83.91,19.34a.68.68,0,0,0-.94,1,.68.68,0,0,0,.94-1Z"/><path class="cls-2" d="M83.76,16.37a.68.68,0,0,0-.94,1,.68.68,0,0,0,.94-1Z"/><path class="cls-2" d="M85.44,17.74c-.63-.61-1.58.38-.94,1a.68.68,0,0,0,.94-1Z"/><path class="cls-2" d="M88.65,17.4A.44.44,0,0,0,88,18c.41.39,1-.24.61-.63Z"/><path class="cls-2" d="M86,21.05a.44.44,0,0,0-.61.63c.41.39,1-.25.61-.63Z"/><path class="cls-2" d="M83.24,18.2c-.41-.39-1,.24-.61.63a.44.44,0,0,0,.61-.63Z"/><path class="cls-2" d="M84.64,15.11a.44.44,0,0,0-.6.63.44.44,0,0,0,.6-.63Z"/><path class="cls-2" d="M85.92,15.39a.44.44,0,0,0-.6.63.44.44,0,0,0,.6-.63Z"/><path class="cls-7" d="M92.43,20.9c-1.1.19-2.14.6-3.24.8A4.25,4.25,0,0,1,86,21.23a3.2,3.2,0,0,1-1.32-2.67,4.34,4.34,0,0,1,1.18-2.8,2.54,2.54,0,0,1,.8-.62,2.62,2.62,0,0,1,2.12.08c1.85.76,3,2.58,3.82,4.41"/><path class="cls-7" d="M92.49,19.93a5.34,5.34,0,0,0-2.1-3.86c-1.28-1-3-1.33-4.15-2.44a1.72,1.72,0,0,1-.66-1.48,1.6,1.6,0,0,1,.59-.88,2.6,2.6,0,0,1,1.7-.54,3.77,3.77,0,0,1,1.56.47,8.11,8.11,0,0,1,3.74,4,5.84,5.84,0,0,1,.5,2.4,3.7,3.7,0,0,1-.82,2.28"/><path class="cls-7" d="M91.84,21.94a8,8,0,0,1-6.68,3.17,3.55,3.55,0,0,1-2-.63,2,2,0,0,1-.74-1.29,1.63,1.63,0,0,1,.49-1.39,2.08,2.08,0,0,1,1.41-.48,6.9,6.9,0,0,1,1.5.24,11.37,11.37,0,0,0,3.53.31,5.16,5.16,0,0,0,3.17-1.43"/><path class="cls-2" d="M94,22c4.39,2.59,6.44,7.52,7.59,12.26.34,1.4.63,2.82.91,4.23.13.63,1.11.48,1-.15-1-5-2.12-10.37-5.6-14.37a13.33,13.33,0,0,0-3.3-2.78.51.51,0,0,0-.7.11A.52.52,0,0,0,94,22Z"/><path class="cls-2" d="M91.54,20.85a11.1,11.1,0,0,1,1.12-1.91.89.89,0,0,1,.5-.38.81.81,0,0,1,.67.33,2.64,2.64,0,0,1,.68,1.39,2,2,0,0,1-.35,1.48,2.39,2.39,0,0,1-1.77.85,1.17,1.17,0,0,1-1.1-.42c-.24-.42,0-.93.25-1.34"/><path class="cls-6" d="M53.85,101.29a6,6,0,0,0-.83-3.5,3.53,3.53,0,0,0-3.54-1.2A5.08,5.08,0,0,0,46.4,98.9,3.13,3.13,0,0,0,46,102a3.07,3.07,0,0,0,1.72,1.24c1.88.64,4,.34,5.84,1.14"/><path class="cls-2" d="M50.77,103.06a.68.68,0,0,1,.41-1.3.68.68,0,0,1-.41,1.3Z"/><path class="cls-2" d="M53,101.88a.68.68,0,0,1,.41-1.3.68.68,0,0,1-.41,1.3Z"/><path class="cls-2" d="M51.48,98.58a.68.68,0,0,1,.42-1.3.68.68,0,0,1-.42,1.3Z"/><path class="cls-2" d="M48.8,99.87a.68.68,0,0,1,.42-1.3.68.68,0,0,1-.42,1.3Z"/><path class="cls-2" d="M50.81,100.69a.68.68,0,0,1,.41-1.3.68.68,0,0,1-.41,1.3Z"/><path class="cls-2" d="M52,103.67a.44.44,0,0,1,.27-.83.44.44,0,0,1-.27.83Z"/><path class="cls-2" d="M54,99.57a.44.44,0,0,1,.27-.83.44.44,0,0,1-.27.83Z"/><path class="cls-2" d="M50.16,98.53a.44.44,0,0,1,.26-.83.44.44,0,0,1-.26.83Z"/><path class="cls-2" d="M48.12,101.24a.44.44,0,0,1,.26-.83.44.44,0,0,1-.26.83Z"/><path class="cls-2" d="M49,102.23a.44.44,0,0,1,.27-.83.44.44,0,0,1-.27.83Z"/><path class="cls-7" d="M56.92,105.32c-.36-1.06-.49-2.17-.84-3.23a4.31,4.31,0,0,0-1.95-2.6,3.24,3.24,0,0,0-3,.12A4.36,4.36,0,0,0,49.26,102a2.72,2.72,0,0,0-.17,1,2.67,2.67,0,0,0,1.09,1.82c1.55,1.26,3.72,1.42,5.7,1.24"/><path class="cls-7" d="M56.1,105.83a5.37,5.37,0,0,1-4.39,0c-1.47-.67-2.6-2-4.13-2.49a1.77,1.77,0,0,0-1.62.13,1.53,1.53,0,0,0-.48.94,2.61,2.61,0,0,0,.33,1.75A3.86,3.86,0,0,0,47,107.32a8.13,8.13,0,0,0,5.31,1.37,5.89,5.89,0,0,0,2.35-.71,3.77,3.77,0,0,0,1.61-1.81"/><path class="cls-7" d="M57.56,104.3a8,8,0,0,0-.42-7.38,3.46,3.46,0,0,0-1.51-1.47,2,2,0,0,0-1.49,0,1.64,1.64,0,0,0-1,1.09A2.06,2.06,0,0,0,53.41,98a6.83,6.83,0,0,0,.93,1.21,11,11,0,0,1,1.95,3,5.13,5.13,0,0,1,.27,3.47"/><path class="cls-2" d="M58.62,106.18c4.37,2.62,9.69,2.06,14.4.81,1.39-.37,2.77-.8,4.15-1.23.61-.19,1,.75.34.94-4.92,1.53-10.12,3.1-15.29,2a13.55,13.55,0,0,1-4-1.56.51.51,0,0,1-.23-.67.5.5,0,0,1,.66-.24Z"/><path class="cls-2" d="M56.45,104.56a10.4,10.4,0,0,0-1.14,1.9.89.89,0,0,0-.09.62.81.81,0,0,0,.61.42,2.61,2.61,0,0,0,1.54-.06,2,2,0,0,0,1.14-1,2.36,2.36,0,0,0-.11-2,1.14,1.14,0,0,0-.89-.76c-.48,0-.81.45-1.06.86"/><path class="cls-7" d="M65,18a3.7,3.7,0,0,0,3.31,1,1.94,1.94,0,0,0,1.26-.71,1.66,1.66,0,0,0,.25-1.19,1.29,1.29,0,0,0-.41-.8A1.85,1.85,0,0,0,67.9,16a4.59,4.59,0,0,0-2.59,1.07"/><path class="cls-2" d="M64.49,17.57a1.91,1.91,0,0,0,.53.6.61.61,0,0,0,.74-.05.87.87,0,0,0,.17-.51,1.2,1.2,0,0,0-.05-.5.46.46,0,0,0-.39-.28.73.73,0,0,0-.2.05,1.88,1.88,0,0,0-.73.55"/><path class="cls-2" d="M49.05,11.5a2.75,2.75,0,0,1,1.71-.85,9.42,9.42,0,0,1,1.83-.21,14,14,0,0,1,3.71.46c2.59.65,5,1.84,7.51,2.69a9.64,9.64,0,0,0,4,.62c.4,0,.41-.67,0-.63A9.27,9.27,0,0,1,64,13c-1.31-.45-2.59-1-3.88-1.49a19.56,19.56,0,0,0-7.74-1.68c-1.31.06-3,.23-3.83,1.37-.24.32.3.63.53.31Z"/><path class="cls-2" d="M57.88,11.07c2.26-1.82,5.25-2.09,8-1.91.4,0,.41-.6,0-.62-3-.2-6.09.16-8.49,2.08-.32.25.12.7.44.45Z"/><path class="cls-2" d="M58.36,11a12.23,12.23,0,0,0,6.07.12.31.31,0,0,0-.15-.6,11.7,11.7,0,0,1-5.76-.12.31.31,0,0,0-.16.6Z"/><path class="cls-2" d="M54.88,10.68A9.64,9.64,0,0,1,57.11,13a13.74,13.74,0,0,0,2.2,2.18,14.17,14.17,0,0,0,5.38,2.64.31.31,0,0,0,.16-.6,13.6,13.6,0,0,1-5.39-2.71,14.58,14.58,0,0,1-2.07-2.16,9.06,9.06,0,0,0-2.2-2.21c-.34-.21-.66.32-.31.54Z"/><path class="cls-2" d="M63.2,14.53a14.82,14.82,0,0,1-5.86-2.24c-.34-.21-.65.32-.31.54a15.32,15.32,0,0,0,6,2.3c.4.06.57-.54.17-.6Z"/><path class="cls-7" d="M67.2,14.37a5.06,5.06,0,0,0,4.68.71,2.7,2.7,0,0,0,1.56-1.22,2.19,2.19,0,0,0,.1-1.65,1.78,1.78,0,0,0-.7-1,2.62,2.62,0,0,0-2.16,0,6.33,6.33,0,0,0-3.3,2"/><path class="cls-2" d="M66.37,14a2.43,2.43,0,0,0,.83.7.84.84,0,0,0,1-.2,1.21,1.21,0,0,0,.13-.73,1.47,1.47,0,0,0-.17-.66.6.6,0,0,0-.58-.31.85.85,0,0,0-.26.11,2.61,2.61,0,0,0-.89.89"/><path class="cls-7" d="M65.94,9.12a3.71,3.71,0,0,0,3.42.52,1.93,1.93,0,0,0,1.14-.89,1.61,1.61,0,0,0,.08-1.2,1.28,1.28,0,0,0-.52-.74,1.83,1.83,0,0,0-1.57,0,4.57,4.57,0,0,0-2.41,1.43"/><path class="cls-2" d="M65.34,8.82a1.76,1.76,0,0,0,.61.51.59.59,0,0,0,.72-.14.81.81,0,0,0,.1-.53,1,1,0,0,0-.13-.49A.41.41,0,0,0,66.22,8,.46.46,0,0,0,66,8a1.78,1.78,0,0,0-.64.64"/><path class="cls-7" d="M63.25,11.45a3.71,3.71,0,0,0,3.31,1,2,2,0,0,0,1.26-.72,1.67,1.67,0,0,0,.24-1.18,1.31,1.31,0,0,0-.4-.81,1.91,1.91,0,0,0-1.56-.22,4.59,4.59,0,0,0-2.59,1.07"/><path class="cls-2" d="M62.7,11.07a1.73,1.73,0,0,0,.52.59.6.6,0,0,0,.74,0,.77.77,0,0,0,.17-.51,1.06,1.06,0,0,0,0-.5.43.43,0,0,0-.39-.28.45.45,0,0,0-.19.05,1.92,1.92,0,0,0-.74.55"/><path class="cls-7" d="M62.38,15.07a3.06,3.06,0,0,0,2.52,1.28A1.65,1.65,0,0,0,66,16a1.34,1.34,0,0,0,.36-.91,1,1,0,0,0-.21-.71,1.53,1.53,0,0,0-1.22-.4,3.8,3.8,0,0,0-2.23.49"/><path class="cls-2" d="M62,14.68a1.53,1.53,0,0,0,.34.56.5.5,0,0,0,.6.07.68.68,0,0,0,.21-.39.94.94,0,0,0,0-.41.37.37,0,0,0-.27-.28.49.49,0,0,0-.17,0,1.7,1.7,0,0,0-.67.34"/><path class="cls-2" d="M120.9,88a17.25,17.25,0,0,0-4.59-4.85,13.38,13.38,0,0,0-6.22-2.36.9.9,0,0,0-.46,0,.58.58,0,0,0-.24.69,1.74,1.74,0,0,0,.44.67,20.07,20.07,0,0,0,4.82,4.2,21.51,21.51,0,0,0,2.89,1.21,10.17,10.17,0,0,0,3.37.79"/><path class="cls-2" d="M109.54,108.47a17.26,17.26,0,0,0-2.22-6.3,13.39,13.39,0,0,0-4.72-4.68.89.89,0,0,0-.44-.15.61.61,0,0,0-.51.54,2,2,0,0,0,.14.79,20.14,20.14,0,0,0,2.69,5.79,21.08,21.08,0,0,0,2.15,2.28,10.2,10.2,0,0,0,2.76,2.1"/><path class="cls-2" d="M72.19,107.55a17,17,0,0,0-6.63.82A13.19,13.19,0,0,0,60,112a.8.8,0,0,0-.24.39.59.59,0,0,0,.42.61,1.76,1.76,0,0,0,.79,0,20,20,0,0,0,6.24-1.39A20.35,20.35,0,0,0,69.88,110a10.4,10.4,0,0,0,2.64-2.25"/><path class="cls-2" d="M101.64,32.05a17.16,17.16,0,0,0-5.15-4.25A13.26,13.26,0,0,0,90,26.21a1,1,0,0,0-.45.1.61.61,0,0,0-.16.73,1.87,1.87,0,0,0,.52.6,20,20,0,0,0,5.3,3.58,19.61,19.61,0,0,0,3,.85,10.31,10.31,0,0,0,3.44.37"/><path class="cls-2" d="M110.33,79.21A8.59,8.59,0,0,1,113,75.42a25,25,0,0,1,5.88-4,9.11,9.11,0,0,1,1.44-.6.64.64,0,0,1,.62,0,.61.61,0,0,1,.11.51,6.74,6.74,0,0,1-1.37,3.26,11.75,11.75,0,0,1-4.07,3.64,8.94,8.94,0,0,1-5.34,1"/><path class="cls-2" d="M117.1,91.93a27.1,27.1,0,0,0-11.26-1.51q-1.66.09-3.3.3a.17.17,0,0,0,0,.33,33.12,33.12,0,0,1,11.28.26,21,21,0,0,1,3.11.93.17.17,0,0,0,.12-.31Z"/><path class="cls-2" d="M107.79,90.71a12.6,12.6,0,0,1,5.53,2.17c.18.12.38-.15.2-.27a13,13,0,0,0-5.69-2.23.17.17,0,0,0,0,.33Z"/><path class="cls-2" d="M108.39,90.74c1.6-.43,3.21-.81,4.83-1.17a.17.17,0,0,0-.06-.33q-2.43.53-4.83,1.17c-.2,0-.15.38.06.33Z"/><path class="cls-2" d="M112.94,91.14a6.28,6.28,0,0,1,2.11,1.72c.13.17.39,0,.26-.21a6.42,6.42,0,0,0-2.25-1.82c-.2-.1-.32.22-.12.31Z"/><path class="cls-3" d="M112.54,92a.93.93,0,0,1,.75,0,2.23,2.23,0,0,1,.65.41,2.36,2.36,0,0,1,.9,1.32.7.7,0,0,1-.3.8.78.78,0,0,1-.56,0A2.75,2.75,0,0,1,112.4,93a1.06,1.06,0,0,1,0-1"/><g class="cls-4"><path class="cls-5" d="M112.67,92.18a2.41,2.41,0,0,1,1.24.76s.13,0,.08-.07a2.5,2.5,0,0,0-1.28-.8c-.07,0-.11.09,0,.11Z"/></g><g class="cls-4"><path class="cls-5" d="M112.59,92.35a15.32,15.32,0,0,0,1.22,1.05s.12-.05.06-.09c-.41-.32-.81-.67-1.19-1-.05,0-.14,0-.09.07Z"/></g><g class="cls-4"><path class="cls-5" d="M112.44,92.42a3.06,3.06,0,0,0,1.13,1.31c.06,0,.13-.06.06-.09a3,3,0,0,1-1.08-1.26c0-.07-.13,0-.11,0Z"/></g><path class="cls-3" d="M115,92.38a.9.9,0,0,1,.75,0,1.93,1.93,0,0,1,.65.41,2.37,2.37,0,0,1,.9,1.31.72.72,0,0,1-.29.81.75.75,0,0,1-.57,0,2.7,2.7,0,0,1-1.58-1.42,1.06,1.06,0,0,1,0-1"/><g class="cls-4"><path class="cls-5" d="M115.16,92.56a2.42,2.42,0,0,1,1.24.77s.13,0,.09-.07a2.51,2.51,0,0,0-1.29-.8c-.07,0-.11.09,0,.1Z"/></g><g class="cls-4"><path class="cls-5" d="M115.08,92.74a15.32,15.32,0,0,0,1.22,1.05.06.06,0,0,0,.07-.09,13.15,13.15,0,0,1-1.2-1s-.14,0-.09.08Z"/></g><g class="cls-4"><path class="cls-5" d="M114.94,92.81a3,3,0,0,0,1.12,1.3c.06,0,.13,0,.07-.09A2.87,2.87,0,0,1,115,92.77c0-.07-.13,0-.1,0Z"/></g><path class="cls-3" d="M116,91.41a1.25,1.25,0,0,1,.87-.46,2.84,2.84,0,0,1,1,.13,3.12,3.12,0,0,1,1.8,1.07.91.91,0,0,1,.09,1.11,1,1,0,0,1-.68.29,3.55,3.55,0,0,1-2.67-.82,1.34,1.34,0,0,1-.56-1.11"/><g class="cls-4"><path class="cls-5" d="M116.28,91.55a3.18,3.18,0,0,1,1.9.22.05.05,0,1,0,0-.1,3.22,3.22,0,0,0-2-.23c-.07,0-.05.12,0,.11Z"/></g><g class="cls-4"><path class="cls-5" d="M116.29,91.8a19.68,19.68,0,0,0,2,.58c.07,0,.08-.1,0-.12a19.76,19.76,0,0,1-2-.56c-.07,0-.11.08,0,.1Z"/></g><g class="cls-4"><path class="cls-5" d="M116.16,92a4.05,4.05,0,0,0,2,.93.06.06,0,0,0,0-.12,3.82,3.82,0,0,1-2-.9.06.06,0,0,0-.07.09Z"/></g><path class="cls-3" d="M112.49,89.22a1.24,1.24,0,0,1,.48-.86,2.65,2.65,0,0,1,.91-.44,3.13,3.13,0,0,1,2.09-.08c.37.14.74.48.69.88a1.07,1.07,0,0,1-.42.62,3.53,3.53,0,0,1-2.69.76,1.33,1.33,0,0,1-1.07-.62"/><g class="cls-4"><path class="cls-5" d="M112.78,89.2a3.14,3.14,0,0,1,1.72-.86c.07,0,0-.12,0-.11a3.31,3.31,0,0,0-1.77.88s0,.14.07.09Z"/></g><g class="cls-4"><path class="cls-5" d="M112.92,89.4a19.67,19.67,0,0,0,2-.62c.07,0,0-.13,0-.1a19.67,19.67,0,0,1-2,.61c-.07,0-.06.13,0,.11Z"/></g><g class="cls-4"><path class="cls-5" d="M112.91,89.62a4,4,0,0,0,2.22-.35c.07,0,0-.13,0-.1a3.86,3.86,0,0,1-2.17.33c-.07,0-.08.11,0,.12Z"/></g><path class="cls-2" d="M66,99a38.49,38.49,0,0,0,15.47,4.52c1.56.15,3.12.24,4.69.28.3,0,.3-.47,0-.48a47.27,47.27,0,0,1-15.76-2.76,30.85,30.85,0,0,1-4.15-2A.24.24,0,0,0,66,99Z"/><path class="cls-2" d="M78.78,102.72A17.69,17.69,0,0,1,71.5,98.5c-.23-.21-.56.13-.34.34a18.45,18.45,0,0,0,7.5,4.34c.29.09.41-.37.12-.46Z"/><path class="cls-2" d="M78,102.56q-3.49.38-7,.6c-.31,0-.3.49,0,.47,2.35-.14,4.68-.34,7-.6.3,0,.3-.51,0-.47Z"/><path class="cls-2" d="M71.66,101a8.66,8.66,0,0,1-2.59-2.86c-.15-.27-.56,0-.41.24a9.14,9.14,0,0,0,2.77,3c.25.18.48-.24.23-.41Z"/><path class="cls-3" d="M72.4,99.92a1.32,1.32,0,0,1-1.06-.11,3.13,3.13,0,0,1-.83-.71,3.47,3.47,0,0,1-1-2A1,1,0,0,1,70.12,96a1.07,1.07,0,0,1,.79.15,3.77,3.77,0,0,1,1.9,2.34,1.42,1.42,0,0,1-.16,1.33"/><g class="cls-4"><path class="cls-5" d="M72.26,99.63a3.42,3.42,0,0,1-1.57-1.34c-.06-.08-.2,0-.14.08a3.56,3.56,0,0,0,1.63,1.39c.09,0,.17-.1.08-.13Z"/></g><g class="cls-4"><path class="cls-5" d="M72.41,99.4a22.27,22.27,0,0,0-1.49-1.73c-.07-.08-.18,0-.11.11a21.45,21.45,0,0,1,1.46,1.7c.06.08.2,0,.14-.08Z"/></g><g class="cls-4"><path class="cls-5" d="M72.63,99.33a4.39,4.39,0,0,0-1.3-2.07c-.08-.07-.19,0-.11.11a4.13,4.13,0,0,1,1.25,2,.08.08,0,0,0,.16,0Z"/></g><path class="cls-3" d="M69,98.84a1.32,1.32,0,0,1-1.06-.11A3.1,3.1,0,0,1,67.1,98a3.46,3.46,0,0,1-1-2,1,1,0,0,1,.58-1.07,1.16,1.16,0,0,1,.79.15,3.82,3.82,0,0,1,1.9,2.34,1.42,1.42,0,0,1-.16,1.33"/><g class="cls-4"><path class="cls-5" d="M68.85,98.55a3.4,3.4,0,0,1-1.57-1.33c-.06-.09-.2,0-.14.08a3.56,3.56,0,0,0,1.63,1.39c.1,0,.18-.1.08-.14Z"/></g><g class="cls-4"><path class="cls-5" d="M69,98.33a22.61,22.61,0,0,0-1.48-1.74c-.08-.07-.19,0-.12.11a18.3,18.3,0,0,1,1.46,1.71c.06.08.2,0,.14-.08Z"/></g><g class="cls-4"><path class="cls-5" d="M69.22,98.25a4.24,4.24,0,0,0-1.3-2.06c-.08-.07-.19,0-.11.11a4.11,4.11,0,0,1,1.25,2,.08.08,0,0,0,.16,0Z"/></g><path class="cls-3" d="M67.4,100a1.75,1.75,0,0,1-1.32.46,4.07,4.07,0,0,1-1.37-.39,4.47,4.47,0,0,1-2.3-1.88,1.34,1.34,0,0,1,.11-1.59,1.45,1.45,0,0,1,1-.26,5,5,0,0,1,3.56,1.73,1.88,1.88,0,0,1,.55,1.67"/><g class="cls-4"><path class="cls-5" d="M67.06,99.73A4.44,4.44,0,0,1,64.44,99c-.08-.05-.16.09-.08.14a4.63,4.63,0,0,0,2.71.74c.1,0,.1-.16,0-.16Z"/></g><g class="cls-4"><path class="cls-5" d="M67.1,99.38a26.68,26.68,0,0,0-2.72-1.24c-.09,0-.13.12,0,.15A27.13,27.13,0,0,1,67,99.52c.09,0,.17-.09.07-.14Z"/></g><g class="cls-4"><path class="cls-5" d="M67.32,99.16a5.65,5.65,0,0,0-2.68-1.73c-.1,0-.14.13,0,.16a5.4,5.4,0,0,1,2.61,1.68c.07.08.18,0,.11-.11Z"/></g><path class="cls-3" d="M71.88,103.8a1.74,1.74,0,0,1-.86,1.11,3.78,3.78,0,0,1-1.36.42,4.51,4.51,0,0,1-3-.33,1.33,1.33,0,0,1-.78-1.39,1.46,1.46,0,0,1,.72-.77,5,5,0,0,1,3.93-.49,1.89,1.89,0,0,1,1.37,1.1"/><g class="cls-4"><path class="cls-5" d="M71.47,103.78a4.56,4.56,0,0,1-2.59.83.08.08,0,1,0,0,.15,4.64,4.64,0,0,0,2.67-.84c.08-.06,0-.2-.08-.14Z"/></g><g class="cls-4"><path class="cls-5" d="M71.31,103.46a29.33,29.33,0,0,0-3,.44c-.1,0-.06.18,0,.16a26.38,26.38,0,0,1,2.92-.44c.1,0,.1-.17,0-.16Z"/></g><g class="cls-4"><path class="cls-5" d="M71.37,103.16a5.68,5.68,0,0,0-3.19,0c-.1,0-.05.18,0,.15a5.49,5.49,0,0,1,3.11,0c.1,0,.14-.13,0-.16Z"/></g><path class="cls-7" d="M116,80.52a6.31,6.31,0,0,0-3.67-5.74,6.31,6.31,0,0,0-10.38.33,6.32,6.32,0,0,0,.59,11.64,6.3,6.3,0,0,0,10.37-.81A6.31,6.31,0,0,0,116,80.52Z"/><path class="cls-8" d="M110.92,80.6a2.66,2.66,0,0,0-1.55-2.42,2.67,2.67,0,0,0-4.39.13,2.67,2.67,0,0,0,.25,4.92,2.67,2.67,0,0,0,4.38-.34A2.66,2.66,0,0,0,110.92,80.6Z"/><path class="cls-2" d="M110.09,80.86A1.86,1.86,0,0,0,109,79.15a1.89,1.89,0,0,0-1.52-.77,1.87,1.87,0,0,0-1.58.86,2.33,2.33,0,1,0,3.27,3.24A1.89,1.89,0,0,0,110.09,80.86Z"/><path class="cls-9" d="M104.26,75.79s2.93-3.6,5.87-.24A5.77,5.77,0,0,0,104.26,75.79Z"/><path class="cls-9" d="M106.66,76.23s3.82-2.65,5.71,1.39A5.77,5.77,0,0,0,106.66,76.23Z"/><path class="cls-9" d="M109.91,77.09s4.88,1.93,2.27,6.23A6.52,6.52,0,0,0,109.91,77.09Z"/><path class="cls-9" d="M111.17,86s-.49,2.42-2.7,1.57A3.08,3.08,0,0,0,111.17,86Z"/><path class="cls-9" d="M111.64,79s1.47,3.55-2.12,4.37A4.75,4.75,0,0,0,111.64,79Z"/><path class="cls-9" d="M103,79.42s.9-4.59,5.1-3A5.83,5.83,0,0,0,103,79.42Z"/><path class="cls-9" d="M100.26,80.24s-1.35-3.2,1.9-3.95A4.29,4.29,0,0,0,100.26,80.24Z"/><path class="cls-9" d="M102.66,85.35s-3.15-1.4-1.31-4.16A4.27,4.27,0,0,0,102.66,85.35Z"/><path class="cls-9" d="M114.39,80.8s.4,4.63-4,4.26A5.75,5.75,0,0,0,114.39,80.8Z"/><path class="cls-9" d="M111.44,76.35s3.34.43,2.4,3.51A4.17,4.17,0,0,0,111.44,76.35Z"/><path class="cls-9" d="M103,83.82s-3.84-2.63-.73-5.84A5.78,5.78,0,0,0,103,83.82Z"/><path class="cls-9" d="M105.59,86.11s-4.43-1.4-2.39-5.37A5.77,5.77,0,0,0,105.59,86.11Z"/><path class="cls-9" d="M111.61,83.57s-3.19,6-8.3,2A8.36,8.36,0,0,0,111.61,83.57Z"/><path class="cls-10" d="M107.81,82.28a.37.37,0,0,0-.27-.69.37.37,0,0,0,.27.69Z"/><path class="cls-10" d="M106.55,81.72a.38.38,0,0,0-.28-.7.38.38,0,0,0,.28.7Z"/><path class="cls-10" d="M107.25,79.84a.38.38,0,0,0-.28-.7.38.38,0,0,0,.28.7Z"/><path class="cls-10" d="M108.77,80.45a.38.38,0,0,0-.27-.7.38.38,0,0,0,.27.7Z"/><path class="cls-10" d="M107.7,81a.38.38,0,0,0-.28-.7.38.38,0,0,0,.28.7Z"/><path class="cls-10" d="M107.14,82.67a.24.24,0,0,0-.18-.45.24.24,0,0,0,.18.45Z"/><path class="cls-10" d="M105.92,80.48a.24.24,0,0,0-.18-.44.24.24,0,0,0,.18.44Z"/><path class="cls-10" d="M108,79.76a.24.24,0,0,0-.18-.44.24.24,0,0,0,.18.44Z"/><path class="cls-10" d="M109.21,81.18a.24.24,0,0,0-.18-.45.24.24,0,0,0,.18.45Z"/><path class="cls-10" d="M108.77,81.76a.24.24,0,0,0-.18-.45.24.24,0,0,0,.18.45Z"/><path class="cls-2" d="M104.12,96.7a8.59,8.59,0,0,1,4.49-1.12,24.91,24.91,0,0,1,7.09.79,9.17,9.17,0,0,1,1.48.49c.2.09.42.23.44.44a.67.67,0,0,1-.25.47,6.84,6.84,0,0,1-3.17,1.55,11.72,11.72,0,0,1-5.46.09,9,9,0,0,1-4.68-2.76"/><path class="cls-2" d="M86.52,103.87a17.08,17.08,0,0,0-3.44,5.72,13.36,13.36,0,0,0-.61,6.63.85.85,0,0,0,.17.43.6.6,0,0,0,.74,0,1.89,1.89,0,0,0,.51-.61,19.78,19.78,0,0,0,2.76-5.77,20.18,20.18,0,0,0,.39-3.11,10.29,10.29,0,0,0-.15-3.46"/><path class="cls-2" d="M89.26,100.88a14.17,14.17,0,0,0-.11,5.84,11,11,0,0,0,1.95,5.47c.13.15.32.31.5.22a.46.46,0,0,0,.16-.2,8.36,8.36,0,0,0,.49-5.95,15.56,15.56,0,0,0-2.82-5.37"/><path class="cls-2" d="M90.53,100.43a8.64,8.64,0,0,1-4.36-1.54,25.28,25.28,0,0,1-5.48-4.57,8.67,8.67,0,0,1-1-1.23.64.64,0,0,1-.12-.61.61.61,0,0,1,.46-.25,6.69,6.69,0,0,1,3.5.45,11.66,11.66,0,0,1,4.61,2.95,8.89,8.89,0,0,1,2.37,4.87"/><path class="cls-2" d="M88.67,101.64a14.89,14.89,0,0,1-4.48,3.57,17.59,17.59,0,0,1-2.62,1.36,17.57,17.57,0,0,1-5.78.8c-.12,0-.27,0-.29-.14a.2.2,0,0,1,0-.13,7.77,7.77,0,0,1,3-3.68,13.42,13.42,0,0,1,4.49-1.81,11.92,11.92,0,0,1,2.22-.34,15.64,15.64,0,0,1,3,.25"/><path class="cls-2" d="M86.92,104.54a13.46,13.46,0,0,1,6.6-5.41c.82-.36,1.66-.67,2.51-1,.46-.16.26-.9-.2-.73-3,1-5.94,2.34-8.1,4.69a10.77,10.77,0,0,0-1.46,2c-.24.42.42.81.65.38Z"/><path class="cls-11" d="M108.9,93.15a8.67,8.67,0,0,0-5.05-7.88,8.68,8.68,0,0,0-14.28.45,8.68,8.68,0,0,0,.81,16,8.66,8.66,0,0,0,14.27-1.11A8.66,8.66,0,0,0,108.9,93.15Z"/><path class="cls-12" d="M101.9,93.26a3.68,3.68,0,0,0-2.14-3.33,3.67,3.67,0,0,0-6,.19,3.68,3.68,0,0,0,.35,6.77,3.67,3.67,0,0,0,6-.47A3.69,3.69,0,0,0,101.9,93.26Z"/><path class="cls-2" d="M100.76,93.62a2.59,2.59,0,0,0-1.51-2.35,2.59,2.59,0,0,0-2.09-1.06A2.62,2.62,0,0,0,95,91.4a2.59,2.59,0,0,0,.25,4.78,2.58,2.58,0,0,0,4.26-.33A2.59,2.59,0,0,0,100.76,93.62Z"/><path class="cls-9" d="M92.73,86.65s4-5,8.08-.33A8,8,0,0,0,92.73,86.65Z"/><path class="cls-9" d="M96,87.26s5.24-3.65,7.85,1.91A7.93,7.93,0,0,0,96,87.26Z"/><path class="cls-9" d="M100.51,88.44s6.7,2.65,3.12,8.57A9,9,0,0,0,100.51,88.44Z"/><path class="cls-9" d="M102.24,100.65s-.67,3.33-3.71,2.16A4.22,4.22,0,0,0,102.24,100.65Z"/><path class="cls-9" d="M102.89,91.08s2,4.88-2.92,6A6.55,6.55,0,0,0,102.89,91.08Z"/><path class="cls-9" d="M91.06,91.64s1.23-6.32,7-4.13A8,8,0,0,0,91.06,91.64Z"/><path class="cls-9" d="M87.23,92.78s-1.86-4.4,2.61-5.45A5.94,5.94,0,0,0,87.23,92.78Z"/><path class="cls-9" d="M90.54,99.81s-4.34-1.93-1.81-5.72A5.89,5.89,0,0,0,90.54,99.81Z"/><path class="cls-9" d="M106.67,93.54s.55,6.37-5.57,5.86A7.94,7.94,0,0,0,106.67,93.54Z"/><path class="cls-9" d="M102.61,87.42s4.59.59,3.3,4.83A5.73,5.73,0,0,0,102.61,87.42Z"/><path class="cls-9" d="M91,97.69s-5.27-3.61-1-8A8,8,0,0,0,91,97.69Z"/><path class="cls-9" d="M94.57,100.84s-6.1-1.92-3.3-7.39A7.94,7.94,0,0,0,94.57,100.84Z"/><path class="cls-9" d="M102.85,97.36s-4.39,8.17-11.43,2.7A11.54,11.54,0,0,0,102.85,97.36Z"/><path class="cls-10" d="M97.62,95.59a.52.52,0,0,0-.38-1,.52.52,0,0,0,.38,1Z"/><path class="cls-10" d="M95.89,94.81a.52.52,0,0,0-.39-1,.52.52,0,0,0,.39,1Z"/><path class="cls-10" d="M96.85,92.22a.52.52,0,0,0-.39-1,.52.52,0,0,0,.39,1Z"/><path class="cls-10" d="M98.94,93.06a.52.52,0,0,0-.38-1,.52.52,0,0,0,.38,1Z"/><path class="cls-10" d="M97.47,93.79a.52.52,0,0,0-.38-1,.52.52,0,0,0,.38,1Z"/><path class="cls-10" d="M96.69,96.11a.33.33,0,0,0-.24-.61.33.33,0,0,0,.24.61Z"/><path class="cls-10" d="M95,93.11a.33.33,0,0,0-.25-.62.33.33,0,0,0,.25.62Z"/><path class="cls-10" d="M97.85,92.12a.33.33,0,0,0-.25-.62.33.33,0,0,0,.25.62Z"/><path class="cls-10" d="M99.54,94.06a.33.33,0,0,0-.25-.61.33.33,0,0,0,.25.61Z"/><path class="cls-10" d="M98.94,94.86a.33.33,0,0,0-.25-.62.33.33,0,0,0,.25.62Z"/><path class="cls-13" d="M116.8,71.94a3.31,3.31,0,0,1,1-1.13,1.47,1.47,0,0,1,.8-.29,1.33,1.33,0,0,1,1.06.64,1.79,1.79,0,0,1,.29,1.17,1.09,1.09,0,0,1-.15.46,1.25,1.25,0,0,1-.94.45,2.35,2.35,0,0,1-1.91-.78"/><g class="cls-14"><path class="cls-5" d="M117.05,72.25a5.31,5.31,0,0,1,1.87-.51c.13,0,.13-.21,0-.2a5.67,5.67,0,0,0-2,.54c-.11.06,0,.23.1.17Z"/></g><g class="cls-14"><path class="cls-5" d="M117.05,72.34c.66,0,1.33,0,2-.09.12,0,.12-.21,0-.2-.66.06-1.33.09-2,.09-.12,0-.12.2,0,.2Z"/></g><g class="cls-14"><path class="cls-5" d="M117.1,72.15a3.2,3.2,0,0,1,1.18-.81.11.11,0,0,0,.07-.12.09.09,0,0,0-.12-.07A3.45,3.45,0,0,0,117,72a.1.1,0,0,0,.14.14Z"/></g><g class="cls-14"><path class="cls-5" d="M117.09,72.5a4.77,4.77,0,0,0,1.29.21.1.1,0,0,0,0-.2,4,4,0,0,1-1.23-.2c-.12,0-.17.15-.06.19Z"/></g><path class="cls-13" d="M116.75,72.61a3.29,3.29,0,0,1,1.32.78,1.45,1.45,0,0,1,.45.72,1.34,1.34,0,0,1-.41,1.17,1.74,1.74,0,0,1-1.07.53,1.12,1.12,0,0,1-.48-.06,1.17,1.17,0,0,1-.64-.82,2.34,2.34,0,0,1,.36-2"/><g class="cls-14"><path class="cls-5" d="M116.5,72.92a5.32,5.32,0,0,1,.89,1.72c0,.12.23.08.19,0a5.58,5.58,0,0,0-.94-1.81c-.08-.1-.22,0-.14.13Z"/></g><g class="cls-14"><path class="cls-5" d="M116.41,72.94c.14.64.31,1.29.51,1.92,0,.12.22.08.19,0q-.3-1-.51-1.92a.1.1,0,1,0-.19,0Z"/></g><g class="cls-14"><path class="cls-5" d="M116.61,72.94a3.39,3.39,0,0,1,1,1,.1.1,0,1,0,.17-.09,3.41,3.41,0,0,0-1.11-1.06.09.09,0,1,0-.1.16Z"/></g><g class="cls-14"><path class="cls-5" d="M116.27,73a4.11,4.11,0,0,0,.06,1.31c0,.12.21.08.19,0a3.75,3.75,0,0,1-.06-1.25c0-.12-.18-.13-.19,0Z"/></g><path class="cls-13" d="M116.21,72.75a3.41,3.41,0,0,1-.8,1.31,1.58,1.58,0,0,1-.73.44,1.33,1.33,0,0,1-1.16-.43A1.73,1.73,0,0,1,113,73a1.12,1.12,0,0,1,.06-.48,1.22,1.22,0,0,1,.83-.63,2.37,2.37,0,0,1,2,.39"/><g class="cls-14"><path class="cls-5" d="M115.9,72.49a5.37,5.37,0,0,1-1.74.87c-.12,0-.08.22,0,.19a5.53,5.53,0,0,0,1.83-.92c.1-.07,0-.22-.13-.14Z"/></g><g class="cls-14"><path class="cls-5" d="M115.88,72.4c-.65.13-1.29.29-1.93.48-.12,0-.08.23,0,.19.64-.19,1.28-.35,1.93-.48.12,0,.08-.21,0-.19Z"/></g><g class="cls-14"><path class="cls-5" d="M115.88,72.6a3.42,3.42,0,0,1-1,1,.1.1,0,0,0,0,.13.1.1,0,0,0,.13,0A3.55,3.55,0,0,0,116,72.7c.06-.1-.1-.21-.16-.1Z"/></g><g class="cls-14"><path class="cls-5" d="M115.81,72.26a4.11,4.11,0,0,0-1.31,0c-.12,0-.08.22,0,.19a4,4,0,0,1,1.25,0c.13,0,.14-.18,0-.19Z"/></g><path class="cls-13" d="M116.16,72.28a3.23,3.23,0,0,1-1.28-.85,1.51,1.51,0,0,1-.41-.74,1.34,1.34,0,0,1,.47-1.15,1.8,1.8,0,0,1,1.1-.47,1,1,0,0,1,.48.08,1.19,1.19,0,0,1,.6.86,2.37,2.37,0,0,1-.47,2"/><g class="cls-14"><path class="cls-5" d="M116.43,72a5.4,5.4,0,0,1-.8-1.76c0-.12-.22-.09-.19,0a5.58,5.58,0,0,0,.84,1.86c.07.1.22,0,.15-.13Z"/></g><g class="cls-14"><path class="cls-5" d="M116.52,72c-.11-.65-.24-1.3-.4-2,0-.12-.23-.09-.2,0,.17.64.3,1.29.41,1.94a.1.1,0,1,0,.19,0Z"/></g><g class="cls-14"><path class="cls-5" d="M116.32,72a3.31,3.31,0,0,1-1-1,.09.09,0,0,0-.13,0,.09.09,0,0,0,0,.12,3.41,3.41,0,0,0,1,1.12c.1.08.22-.08.11-.15Z"/></g><g class="cls-14"><path class="cls-5" d="M116.67,71.9a4.05,4.05,0,0,0,0-1.3.1.1,0,0,0-.19,0,4,4,0,0,1,0,1.25c0,.13.18.15.2,0Z"/></g><path class="cls-6" d="M115.92,72.2a.88.88,0,0,1,.52-.41.6.6,0,0,1,.61.25.87.87,0,0,1,.11.67.72.72,0,0,1-.1.24.78.78,0,0,1-.24.2.68.68,0,0,1-.29.11.64.64,0,0,1-.63-.32.78.78,0,0,1,0-.74"/><path class="cls-2" d="M16.36,70.36a17.41,17.41,0,0,0,2.84,6,13.34,13.34,0,0,0,5.17,4.19.87.87,0,0,0,.45.1.61.61,0,0,0,.45-.59,1.71,1.71,0,0,0-.22-.76,19.63,19.63,0,0,0-3.25-5.5,19.33,19.33,0,0,0-2.37-2.06A10.11,10.11,0,0,0,16.48,70"/><path class="cls-2" d="M15.41,66.41a14.06,14.06,0,0,0,4.79,3.35,10.86,10.86,0,0,0,5.63,1.43c.19,0,.43-.1.45-.29a.4.4,0,0,0-.07-.24,8.36,8.36,0,0,0-4.66-3.73,15.74,15.74,0,0,0-6-.65"/><path class="cls-2" d="M15.75,65.11A8.7,8.7,0,0,1,12,67.88a25.26,25.26,0,0,1-6.86,2A8.91,8.91,0,0,1,3.63,70a.62.62,0,0,1-.57-.24.6.6,0,0,1,0-.52,6.82,6.82,0,0,1,2.32-2.66,11.78,11.78,0,0,1,5-2.18,8.89,8.89,0,0,1,5.38.74"/><path class="cls-2" d="M15.71,67.33A14.6,14.6,0,0,1,16.18,73,17.19,17.19,0,0,1,15.85,76a17.57,17.57,0,0,1-2.55,5.24c-.07.1-.17.21-.28.17a.32.32,0,0,1-.1-.1,7.72,7.72,0,0,1-1.35-4.58,13.62,13.62,0,0,1,1-4.74,11.77,11.77,0,0,1,1-2,15.48,15.48,0,0,1,1.87-2.34"/><path class="cls-2" d="M17.15,70.4a13.38,13.38,0,0,1-.82-8.49c.16-.89.37-1.76.6-2.63.12-.47-.6-.71-.72-.24-.8,3-1.36,6.25-.61,9.34a11,11,0,0,0,.86,2.35c.23.43.91.1.69-.33Z"/><path class="cls-2" d="M25,67.35A31.44,31.44,0,0,0,22.63,54.4c-.45-1.19-1-2.36-1.5-3.52-.1-.23-.45-.05-.34.18A38.43,38.43,0,0,1,24.5,63.57a24.72,24.72,0,0,1,.07,3.75c0,.25.38.28.39,0Z"/><path class="cls-2" d="M23,56.66a14.49,14.49,0,0,1-.43,6.86c-.07.24.3.36.37.12a15.07,15.07,0,0,0,.45-7.06.2.2,0,0,0-.39.08Z"/><path class="cls-2" d="M23.18,57.33c1,1.61,2,3.25,3,4.9.12.22.47,0,.34-.17q-1.44-2.49-3-4.91c-.13-.21-.48,0-.35.18Z"/><path class="cls-2" d="M24.35,62.48a7,7,0,0,1-1.15,2.94c-.14.21.19.42.33.21a7.64,7.64,0,0,0,1.21-3.13c0-.24-.36-.27-.39,0Z"/><path class="cls-3" d="M23.28,62.34a1.08,1.08,0,0,1,.3.82,2.41,2.41,0,0,1-.21.86,2.86,2.86,0,0,1-1.14,1.46.82.82,0,0,1-1,0,.85.85,0,0,1-.17-.63,3.1,3.1,0,0,1,1-2.24,1.2,1.2,0,0,1,1-.37"/><g class="cls-4"><path class="cls-5" d="M23.11,62.55a2.79,2.79,0,0,1-.4,1.64c0,.07.07.14.11.07a2.91,2.91,0,0,0,.42-1.7c0-.08-.13-.09-.13,0Z"/></g><g class="cls-4"><path class="cls-5" d="M22.9,62.53a15.15,15.15,0,0,0-.73,1.71.06.06,0,1,0,.12,0A17.68,17.68,0,0,1,23,62.6c0-.08-.08-.15-.11-.07Z"/></g><g class="cls-4"><path class="cls-5" d="M22.76,62.39a3.49,3.49,0,0,0-1,1.7c0,.08.1.12.12,0a3.3,3.3,0,0,1,1-1.64c.06-.06,0-.15-.09-.1Z"/></g><path class="cls-3" d="M23.73,65.23A1.08,1.08,0,0,1,24,66a2.6,2.6,0,0,1-.22.86,2.81,2.81,0,0,1-1.13,1.46.84.84,0,0,1-1,0,.94.94,0,0,1-.18-.63,3.12,3.12,0,0,1,1-2.25,1.17,1.17,0,0,1,1-.36"/><g class="cls-4"><path class="cls-5" d="M23.57,65.43a2.77,2.77,0,0,1-.4,1.64c-.05.07.06.14.11.07a2.9,2.9,0,0,0,.42-1.7c0-.08-.14-.09-.13,0Z"/></g><g class="cls-4"><path class="cls-5" d="M23.35,65.41c-.27.56-.51,1.13-.73,1.71,0,.08.1.12.13,0a15.36,15.36,0,0,1,.71-1.68c0-.08-.07-.15-.11-.07Z"/></g><g class="cls-4"><path class="cls-5" d="M23.22,65.27a3.55,3.55,0,0,0-1,1.7c0,.08.1.13.12,0a3.45,3.45,0,0,1,1-1.64c.07-.05,0-.15-.08-.1Z"/></g><path class="cls-3" d="M25.14,66a1.39,1.39,0,0,1,.81.8,3,3,0,0,1,.22,1.15,3.65,3.65,0,0,1-.54,2.36,1.1,1.1,0,0,1-1.2.5,1.22,1.22,0,0,1-.56-.66,4.12,4.12,0,0,1,0-3.23,1.5,1.5,0,0,1,1-1"/><g class="cls-4"><path class="cls-5" d="M25.08,66.31a3.58,3.58,0,0,1,.43,2.18c0,.08.12.09.13,0a3.79,3.79,0,0,0-.44-2.24c0-.07-.16,0-.12.06Z"/></g><g class="cls-4"><path class="cls-5" d="M24.81,66.41a22.1,22.1,0,0,0,.08,2.44c0,.08.14.05.13,0a21.39,21.39,0,0,1-.08-2.4c0-.09-.13-.1-.13,0Z"/></g><g class="cls-4"><path class="cls-5" d="M24.57,66.33a4.68,4.68,0,0,0-.29,2.59c0,.08.15,0,.13,0a4.44,4.44,0,0,1,.29-2.52c0-.08-.1-.12-.13,0Z"/></g><path class="cls-3" d="M26.3,61.31a1.44,1.44,0,0,1,1.12.22,3.28,3.28,0,0,1,.81.85,3.65,3.65,0,0,1,.83,2.27,1.07,1.07,0,0,1-.73,1.07,1.16,1.16,0,0,1-.83-.24,4.07,4.07,0,0,1-1.78-2.69,1.54,1.54,0,0,1,.3-1.4"/><g class="cls-4"><path class="cls-5" d="M26.44,61.62A3.64,3.64,0,0,1,28,63.21a.07.07,0,0,0,.12-.06,3.87,3.87,0,0,0-1.59-1.64c-.08,0-.15.07-.07.11Z"/></g><g class="cls-4"><path class="cls-5" d="M26.26,61.85a23.11,23.11,0,0,0,1.4,2c.05.07.15,0,.1-.09a20.49,20.49,0,0,1-1.38-2c-.05-.07-.16,0-.12.06Z"/></g><g class="cls-4"><path class="cls-5" d="M26,61.91a4.54,4.54,0,0,0,1.17,2.33.06.06,0,1,0,.09-.09,4.42,4.42,0,0,1-1.13-2.26.07.07,0,0,0-.13,0Z"/></g><path class="cls-1" d="M9.83,53.33A8.68,8.68,0,0,1,11,49.47a20.73,20.73,0,0,1,2.59-3.71,22.41,22.41,0,0,1,7.55-5.64c.38-.17.05-.72-.33-.55A22.86,22.86,0,0,0,14.41,44a20.88,20.88,0,0,0-4.3,5.83,9,9,0,0,0-.93,3.55c0,.41.63.41.65,0Z"/><path class="cls-1" d="M16.36,42.75a10.52,10.52,0,0,0-1,5.12c.1,1.55.54,3.13.16,4.64-.12.46-.46,1-.93.9a.84.84,0,0,1-.39-.22,2.74,2.74,0,0,1-.7-1.27,8.16,8.16,0,0,1,.3-5,18.33,18.33,0,0,1,2.51-4.43"/><path class="cls-1" d="M10.49,50.12a18.22,18.22,0,0,1-3.68,2.81,8.5,8.5,0,0,1-4.44,1.13,2.36,2.36,0,0,1-1.08-.26,1.05,1.05,0,0,1-.55-.91,1.16,1.16,0,0,1,.31-.68,3.81,3.81,0,0,1,1.54-1,18.19,18.19,0,0,1,7.51-1.31"/><path class="cls-1" d="M9.84,52.09a25.26,25.26,0,0,1-1.08,7.48A6,6,0,0,1,7.4,62.19c-.4.4-1.07.68-1.49.3a1.16,1.16,0,0,1-.31-.69,9.05,9.05,0,0,1,1-5.58,27.11,27.11,0,0,1,3.22-4.74"/><path class="cls-1" d="M11.08,50.19a22.24,22.24,0,0,1,2.24,5.49A9.54,9.54,0,0,1,13.68,59c-.06.53-.29,1.15-.81,1.24S12,60,11.76,59.54c-.88-1.47-.83-3.29-.84-5s-.12-3.53-.31-5.28"/><path class="cls-1" d="M35.46,94.94a8.67,8.67,0,0,1-3.94-.85,20,20,0,0,1-3.91-2.27,22.34,22.34,0,0,1-6.25-7c-.21-.36-.73,0-.53.37a22.6,22.6,0,0,0,4.91,6A20.9,20.9,0,0,0,31.91,95a8.94,8.94,0,0,0,3.61.63.32.32,0,0,0-.06-.64Z"/><path class="cls-1" d="M24.37,89.31a10.31,10.31,0,0,0,5.19.57c1.54-.22,3.07-.79,4.61-.53.47.07,1,.37,1,.84a.74.74,0,0,1-.19.41,2.6,2.6,0,0,1-1.2.8,8.12,8.12,0,0,1-5,.12,18.71,18.71,0,0,1-4.64-2.12"/><path class="cls-1" d="M32.21,94.55A18,18,0,0,1,35.31,98a8.49,8.49,0,0,1,1.51,4.33,2.24,2.24,0,0,1-.18,1.09,1,1,0,0,1-.86.63,1.14,1.14,0,0,1-.7-.26A3.66,3.66,0,0,1,34,102.32,18.22,18.22,0,0,1,32.05,95"/><path class="cls-1" d="M34.22,95a25.2,25.2,0,0,1,7.55.46,6,6,0,0,1,2.72,1.13c.43.37.77,1,.43,1.46a1.21,1.21,0,0,1-.67.37A9,9,0,0,1,38.62,98a26.51,26.51,0,0,1-5-2.82"/><path class="cls-1" d="M32.23,94a22.28,22.28,0,0,1,5.28-2.69,9.51,9.51,0,0,1,3.32-.64c.53,0,1.17.19,1.3.7s-.25.9-.64,1.17c-1.39,1-3.21,1.1-4.91,1.26s-3.51.41-5.24.74"/><path class="cls-1" d="M34.71,34.18a8.66,8.66,0,0,1-1.08-3.88,20.7,20.7,0,0,1,.2-4.52A22.43,22.43,0,0,1,37.18,17c.23-.35-.35-.64-.57-.29a22.63,22.63,0,0,0-3.06,7.14,20.89,20.89,0,0,0-.5,7.22,8.73,8.73,0,0,0,1.12,3.49c.21.36.75,0,.54-.35Z"/><path class="cls-1" d="M34.55,21.75a10.43,10.43,0,0,0,1.9,4.86c.91,1.26,2.13,2.36,2.61,3.83.15.46.14,1.08-.3,1.26a.77.77,0,0,1-.45,0A2.62,2.62,0,0,1,37.05,31a8.14,8.14,0,0,1-2.44-4.4,18.45,18.45,0,0,1-.26-5.09"/><path class="cls-1" d="M33.54,31.12a18,18,0,0,1-1.6,4.34A8.35,8.35,0,0,1,28.8,38.8a2.48,2.48,0,0,1-1.05.36,1.07,1.07,0,0,1-1-.48,1.17,1.17,0,0,1-.09-.74,3.72,3.72,0,0,1,.78-1.64,18.09,18.09,0,0,1,5.64-5.13"/><path class="cls-1" d="M34.06,33.12A25.64,25.64,0,0,1,37.15,40,6,6,0,0,1,37.41,43c-.13.55-.55,1.15-1.1,1.06a1.19,1.19,0,0,1-.64-.42,9,9,0,0,1-2.18-5.22,26.81,26.81,0,0,1,.18-5.73"/><path class="cls-1" d="M34.08,30.86a22.41,22.41,0,0,1,4.83,3.43A9.46,9.46,0,0,1,41,36.94c.24.48.37,1.13,0,1.48a1.21,1.21,0,0,1-1.33,0c-1.53-.77-2.47-2.33-3.39-3.77s-2-2.92-3.09-4.3"/><path class="cls-2" d="M23.93,45.8A17.21,17.21,0,0,0,28.15,51a13.26,13.26,0,0,0,6,2.81.9.9,0,0,0,.46,0,.61.61,0,0,0,.3-.68,1.9,1.9,0,0,0-.39-.69A19.84,19.84,0,0,0,30,47.87a19.81,19.81,0,0,0-2.79-1.43,10.24,10.24,0,0,0-3.3-1"/><path class="cls-2" d="M22.05,42.2a14,14,0,0,0,5.45,2.09,10.82,10.82,0,0,0,5.81,0c.19-.07.4-.2.38-.39a.71.71,0,0,0-.13-.22,8.4,8.4,0,0,0-5.43-2.48,15.77,15.77,0,0,0-6,.82"/><path class="cls-2" d="M22.06,40.86a8.75,8.75,0,0,1-2.93,3.58A25.37,25.37,0,0,1,13,48a9.94,9.94,0,0,1-1.49.48.63.63,0,0,1-.61-.09.63.63,0,0,1-.08-.52,6.81,6.81,0,0,1,1.62-3.14,11.67,11.67,0,0,1,4.33-3.33,8.87,8.87,0,0,1,5.4-.58"/><path class="cls-2" d="M22.56,43a14.65,14.65,0,0,1,1.84,5.42,17.18,17.18,0,0,1,.39,2.93,17.36,17.36,0,0,1-1.21,5.7c0,.12-.11.26-.23.24a.29.29,0,0,1-.12-.07,7.85,7.85,0,0,1-2.42-4.12,13.75,13.75,0,0,1-.18-4.83,11.09,11.09,0,0,1,.44-2.21,16.25,16.25,0,0,1,1.24-2.72"/><path class="cls-2" d="M24.7,45.64a13.38,13.38,0,0,1-2.85-8c-.06-.9-.06-1.8-.05-2.69,0-.49-.75-.55-.76-.06,0,3.13.19,6.38,1.67,9.2a10.81,10.81,0,0,0,1.41,2.07c.32.37.9-.12.58-.49Z"/><path class="cls-6" d="M18.87,54.81a6.05,6.05,0,0,1,2.64,2.46,3.53,3.53,0,0,1-.71,3.66,5,5,0,0,1-3.52,1.54,3.1,3.1,0,0,1-2.86-1.2,3.06,3.06,0,0,1-.23-2.11c.37-1.95,1.68-3.66,1.88-5.64"/><path class="cls-2" d="M15.81,56.62a.68.68,0,0,0,1.33.28.68.68,0,0,0-1.33-.28Z"/><path class="cls-2" d="M17.92,55.28a.68.68,0,0,0,1.34.28.68.68,0,0,0-1.34-.28Z"/><path class="cls-2" d="M20.06,58.21a.68.68,0,0,0,1.34.28.68.68,0,0,0-1.34-.28Z"/><path class="cls-2" d="M17.62,59.91a.68.68,0,0,0,1.33.28.68.68,0,0,0-1.33-.28Z"/><path class="cls-2" d="M17.89,57.76a.68.68,0,0,0,1.33.28.68.68,0,0,0-1.33-.28Z"/><path class="cls-2" d="M15.91,55.22a.43.43,0,0,0,.85.18.43.43,0,0,0-.85-.18Z"/><path class="cls-2" d="M20.42,55.57a.43.43,0,0,0,.85.17.43.43,0,0,0-.85-.17Z"/><path class="cls-2" d="M19.45,59.39a.43.43,0,0,0,.85.18.43.43,0,0,0-.85-.18Z"/><path class="cls-2" d="M16.08,59.83a.44.44,0,0,0,.86.18.44.44,0,0,0-.86-.18Z"/><path class="cls-2" d="M15.65,58.59a.43.43,0,0,0,.85.18.43.43,0,0,0-.85-.18Z"/><path class="cls-7" d="M16.88,50.16c.74.83,1.64,1.5,2.39,2.32a4.32,4.32,0,0,1,1.31,3A3.26,3.26,0,0,1,19,58a4.29,4.29,0,0,1-3,.47,2.64,2.64,0,0,1-.95-.34A2.67,2.67,0,0,1,14,56.27a7.89,7.89,0,0,1,1.74-5.57"/><path class="cls-7" d="M16,50.62a5.34,5.34,0,0,0-2.16,3.82c-.15,1.6.45,3.24.13,4.82a1.76,1.76,0,0,1-.92,1.34,1.52,1.52,0,0,1-1.05,0,2.65,2.65,0,0,1-1.36-1.15,4,4,0,0,1-.43-1.58,8.08,8.08,0,0,1,1.43-5.29,5.86,5.86,0,0,1,1.77-1.7,3.73,3.73,0,0,1,2.37-.51"/><path class="cls-7" d="M18.08,50.1a8,8,0,0,1,6.21,4,3.4,3.4,0,0,1,.53,2,2,2,0,0,1-.7,1.31,1.65,1.65,0,0,1-1.43.32,2,2,0,0,1-1.16-.94,7.43,7.43,0,0,1-.59-1.4,11.23,11.23,0,0,0-1.61-3.16,5.15,5.15,0,0,0-2.88-1.94"/><path class="cls-2" d="M17,48.25c-.12-5.09,3-9.44,6.4-12.92,1-1,2.06-2,3.11-3,.47-.44-.18-1.2-.65-.76-3.75,3.53-7.68,7.28-9.24,12.35A13.42,13.42,0,0,0,16,48.18a.5.5,0,0,0,.46.53.49.49,0,0,0,.53-.46Z"/><path class="cls-2" d="M17.3,50.94a10.2,10.2,0,0,1-2.21.05.85.85,0,0,1-.58-.22.8.8,0,0,1-.07-.74,2.6,2.6,0,0,1,.81-1.31,2,2,0,0,1,1.45-.49,2.38,2.38,0,0,1,1.65,1.06,1.17,1.17,0,0,1,.23,1.16c-.23.42-.8.48-1.28.49"/><path class="cls-7" d="M16,89.4a3.35,3.35,0,0,0,.54,3.1,1.87,1.87,0,0,0,1.1.73,1.48,1.48,0,0,0,1.06-.29,1.15,1.15,0,0,0,.49-.66,1.7,1.7,0,0,0-.46-1.36,4.16,4.16,0,0,0-1.94-1.66"/><path class="cls-2" d="M16,88.79a1.69,1.69,0,0,0-.27.67.57.57,0,0,0,.34.59A.77.77,0,0,0,16.6,90a1.09,1.09,0,0,0,.38-.25.39.39,0,0,0,.07-.43.41.41,0,0,0-.12-.14,1.71,1.71,0,0,0-.75-.37"/><path class="cls-2" d="M14.6,73.76a2.43,2.43,0,0,1,1.39,1,8.1,8.1,0,0,1,.93,1.4,12.69,12.69,0,0,1,1.15,3.21c.54,2.36.57,4.8.92,7.19a8.91,8.91,0,0,0,1.15,3.52c.2.3.71.06.52-.25a8.23,8.23,0,0,1-1.11-3.38c-.19-1.25-.27-2.51-.4-3.76a17.55,17.55,0,0,0-1.83-7c-.59-1-1.42-2.34-2.69-2.55-.36-.06-.39.51,0,.57Z"/><path class="cls-2" d="M18.59,80.74c2.4,1.09,3.86,3.4,4.87,5.74.14.34.65.09.51-.25-1.08-2.49-2.65-4.87-5.2-6-.33-.15-.51.39-.18.54Z"/><path class="cls-2" d="M18.88,81.08a11.21,11.21,0,0,0,2.4,5,.28.28,0,0,0,.43-.37A10.65,10.65,0,0,1,19.43,81a.28.28,0,0,0-.55.11Z"/><path class="cls-2" d="M17.67,78.14a8.94,8.94,0,0,1-1,2.78,13.18,13.18,0,0,0-.86,2.69,13,13,0,0,0,.07,5.44.29.29,0,0,0,.56-.11,12.41,12.41,0,0,1,0-5.49,13.81,13.81,0,0,1,.89-2.58,8.38,8.38,0,0,0,.9-2.69.29.29,0,0,0-.57,0Z"/><path class="cls-2" d="M18,86.49a13.83,13.83,0,0,1-.6-5.68c0-.36-.53-.4-.56,0a14,14,0,0,0,.61,5.82c.11.35.67.24.55-.11Z"/><path class="cls-7" d="M19.76,89.66a4.6,4.6,0,0,0,1.35,4.1,2.45,2.45,0,0,0,1.63.77,2,2,0,0,0,1.38-.6,1.66,1.66,0,0,0,.54-1,2.36,2.36,0,0,0-.9-1.75,5.76,5.76,0,0,0-3-1.87"/><path class="cls-2" d="M19.75,88.83a2.19,2.19,0,0,0-.23,1,.74.74,0,0,0,.57.72,1,1,0,0,0,.65-.19,1.33,1.33,0,0,0,.47-.41.57.57,0,0,0,0-.6.58.58,0,0,0-.19-.16,2.51,2.51,0,0,0-1.09-.36"/><path class="cls-7" d="M23.5,86.48a3.39,3.39,0,0,0,1,3,1.82,1.82,0,0,0,1.2.56,1.49,1.49,0,0,0,1-.43,1.25,1.25,0,0,0,.39-.73,1.73,1.73,0,0,0-.65-1.27,4.25,4.25,0,0,0-2.16-1.37"/><path class="cls-2" d="M23.49,85.87a1.59,1.59,0,0,0-.16.7.53.53,0,0,0,.41.53.67.67,0,0,0,.47-.14.93.93,0,0,0,.35-.3.39.39,0,0,0,0-.43.44.44,0,0,0-.15-.12,1.68,1.68,0,0,0-.79-.26"/><path class="cls-7" d="M20.5,85.26a3.35,3.35,0,0,0,.54,3.1,1.87,1.87,0,0,0,1.1.73,1.5,1.5,0,0,0,1.06-.29,1.2,1.2,0,0,0,.49-.66,1.74,1.74,0,0,0-.46-1.36,4.21,4.21,0,0,0-1.94-1.66"/><path class="cls-2" d="M20.58,84.65a1.69,1.69,0,0,0-.27.67.56.56,0,0,0,.34.59.77.77,0,0,0,.49-.07,1.09,1.09,0,0,0,.38-.25.4.4,0,0,0,.07-.43.55.55,0,0,0-.12-.14,1.82,1.82,0,0,0-.75-.37"/><path class="cls-7" d="M17.2,86.05a2.78,2.78,0,0,0,0,2.57,1.43,1.43,0,0,0,.78.73,1.15,1.15,0,0,0,.89-.08,1,1,0,0,0,.49-.46,1.4,1.4,0,0,0-.18-1.15,3.39,3.39,0,0,0-1.32-1.61"/><path class="cls-2" d="M17.35,85.57a1.31,1.31,0,0,0-.31.5.45.45,0,0,0,.19.52.61.61,0,0,0,.4,0,.73.73,0,0,0,.35-.15.32.32,0,0,0,.11-.33A.26.26,0,0,0,18,86a1.44,1.44,0,0,0-.54-.4"/><path class="cls-2" d="M8.45,26.23a17.21,17.21,0,0,0,4.22,5.18,13.26,13.26,0,0,0,6,2.82.8.8,0,0,0,.46,0,.58.58,0,0,0,.29-.68,1.65,1.65,0,0,0-.39-.69,20.2,20.2,0,0,0-4.49-4.55,20.9,20.9,0,0,0-2.79-1.42,10.3,10.3,0,0,0-3.31-1"/><path class="cls-2" d="M21.31,6.71a17.25,17.25,0,0,0,1.74,6.45,13.37,13.37,0,0,0,4.36,5,.86.86,0,0,0,.43.18.58.58,0,0,0,.54-.5,1.65,1.65,0,0,0-.08-.79,19.64,19.64,0,0,0-2.25-6,20,20,0,0,0-2-2.44,10.3,10.3,0,0,0-2.6-2.29"/><path class="cls-2" d="M18.34,35.83a8.66,8.66,0,0,1-2.94,3.59A25.37,25.37,0,0,1,9.24,43a9.47,9.47,0,0,1-1.48.48.62.62,0,0,1-.61-.09.63.63,0,0,1-.08-.52,6.7,6.7,0,0,1,1.61-3.14A11.65,11.65,0,0,1,13,36.42a8.88,8.88,0,0,1,5.4-.58"/><path class="cls-2" d="M12.54,22.65A27.21,27.21,0,0,0,23.65,25c1.11,0,2.21,0,3.32-.06.21,0,.18-.34,0-.33a33.45,33.45,0,0,1-11.23-1.09,21.8,21.8,0,0,1-3-1.17.17.17,0,0,0-.14.31Z"/><path class="cls-2" d="M21.73,24.55A12.56,12.56,0,0,1,16.38,22c-.17-.14-.39.12-.22.25a13,13,0,0,0,5.51,2.65c.21.05.27-.28.06-.33Z"/><path class="cls-2" d="M21.13,24.48c-1.62.3-3.26.57-4.9.8-.21,0-.18.37,0,.34,1.64-.23,3.28-.5,4.91-.81.21,0,.18-.37,0-.33Z"/><path class="cls-2" d="M16.63,23.74a6.21,6.21,0,0,1-2-1.87c-.12-.19-.4,0-.28.19a6.54,6.54,0,0,0,2.11,2c.19.11.34-.19.15-.3Z"/><path class="cls-3" d="M17.09,22.93a1,1,0,0,1-.75,0,2.18,2.18,0,0,1-.62-.46,2.39,2.39,0,0,1-.8-1.38.71.71,0,0,1,.35-.78.81.81,0,0,1,.57.07A2.67,2.67,0,0,1,17.3,21.9a1,1,0,0,1,0,.94"/><g class="cls-4"><path class="cls-5" d="M17,22.73a2.52,2.52,0,0,1-1.18-.85.05.05,0,0,0-.09.06,2.55,2.55,0,0,0,1.23.89c.06,0,.11-.08,0-.1Z"/></g><g class="cls-4"><path class="cls-5" d="M17.06,22.56a13.5,13.5,0,0,0-1.13-1.14.06.06,0,1,0-.07.09A13,13,0,0,1,17,22.63c.05.05.14,0,.09-.07Z"/></g><g class="cls-4"><path class="cls-5" d="M17.22,22.5a3,3,0,0,0-1-1.39c-.06,0-.13.05-.07.09a2.88,2.88,0,0,1,1,1.34c0,.06.13,0,.11,0Z"/></g><path class="cls-3" d="M14.63,22.35a.9.9,0,0,1-.75,0,2.23,2.23,0,0,1-.62-.45,2.5,2.5,0,0,1-.8-1.38.73.73,0,0,1,.36-.78.79.79,0,0,1,.56.06,2.74,2.74,0,0,1,1.47,1.54,1.05,1.05,0,0,1,0,.95"/><g class="cls-4"><path class="cls-5" d="M14.52,22.15a2.35,2.35,0,0,1-1.18-.85c0-.05-.14,0-.09.07a2.54,2.54,0,0,0,1.22.89c.07,0,.12-.08,0-.11Z"/></g><g class="cls-4"><path class="cls-5" d="M14.61,22a15.33,15.33,0,0,0-1.14-1.14c-.05-.05-.12,0-.07.08.39.36.77.73,1.12,1.12,0,.06.14,0,.09-.06Z"/></g><g class="cls-4"><path class="cls-5" d="M14.76,21.92a3.11,3.11,0,0,0-1-1.38c-.06,0-.13,0-.08.09a2.84,2.84,0,0,1,1,1.33.06.06,0,0,0,.11,0Z"/></g><path class="cls-3" d="M13.58,23.24a1.23,1.23,0,0,1-.91.39,2.65,2.65,0,0,1-1-.2A3.13,3.13,0,0,1,10,22.24a.94.94,0,0,1,0-1.13,1,1,0,0,1,.7-.23,3.51,3.51,0,0,1,2.6,1A1.31,1.31,0,0,1,13.74,23"/><g class="cls-4"><path class="cls-5" d="M13.33,23.08a3.19,3.19,0,0,1-1.89-.36c-.06,0-.11.07,0,.1a3.26,3.26,0,0,0,1.94.37c.07,0,.06-.12,0-.11Z"/></g><g class="cls-4"><path class="cls-5" d="M13.34,22.83a19.65,19.65,0,0,0-2-.72c-.06,0-.08.09,0,.11a19.07,19.07,0,0,1,2,.71c.06,0,.11-.07.05-.1Z"/></g><g class="cls-4"><path class="cls-5" d="M13.48,22.67a3.89,3.89,0,0,0-2-1.07c-.07,0-.09.09,0,.11a3.82,3.82,0,0,1,1.92,1c0,.05.13,0,.08-.08Z"/></g><path class="cls-3" d="M16.93,25.69a1.23,1.23,0,0,1-.54.82,2.84,2.84,0,0,1-.94.37,3.18,3.18,0,0,1-2.09-.07.93.93,0,0,1-.62-.94,1.05,1.05,0,0,1,.46-.58,3.55,3.55,0,0,1,2.74-.56,1.32,1.32,0,0,1,1,.7"/><g class="cls-4"><path class="cls-5" d="M16.64,25.69a3.12,3.12,0,0,1-1.78.72c-.07,0-.06.12,0,.11a3.23,3.23,0,0,0,1.83-.74c.06,0,0-.14-.06-.09Z"/></g><g class="cls-4"><path class="cls-5" d="M16.51,25.48a17.9,17.9,0,0,0-2.05.47.05.05,0,1,0,0,.1,20.5,20.5,0,0,1,2-.46c.07,0,.06-.13,0-.11Z"/></g><g class="cls-4"><path class="cls-5" d="M16.54,25.26a4,4,0,0,0-2.24.18.06.06,0,0,0,0,.11,3.86,3.86,0,0,1,2.18-.18c.07,0,.09-.09,0-.11Z"/></g><path class="cls-7" d="M12.77,34.11a6.32,6.32,0,0,0,3.23,6,6.32,6.32,0,0,0,10.38.44,6.31,6.31,0,0,0,.28-11.64,6.31,6.31,0,0,0-10.41,0A6.31,6.31,0,0,0,12.77,34.11Z"/><path class="cls-8" d="M17.85,34.4a2.68,2.68,0,0,0,1.37,2.54,2.67,2.67,0,0,0,4.39.18,2.66,2.66,0,0,0,.11-4.92,2.66,2.66,0,0,0-4.39,0A2.66,2.66,0,0,0,17.85,34.4Z"/><path class="cls-2" d="M18.7,34.21a1.89,1.89,0,0,0,1,1.79,1.89,1.89,0,0,0,3.1.13,1.89,1.89,0,0,0,.09-3.48,1.92,1.92,0,0,0-1.41-.81,1.88,1.88,0,0,0-1.7.82A1.88,1.88,0,0,0,18.7,34.21Z"/><path class="cls-9" d="M24.14,39.7s-3.2,3.37-5.87-.2A5.78,5.78,0,0,0,24.14,39.7Z"/><path class="cls-9" d="M21.78,39.07s-4,2.36-5.6-1.8A5.77,5.77,0,0,0,21.78,39.07Z"/><path class="cls-9" d="M18.6,38s-4.72-2.29-1.8-6.39A6.52,6.52,0,0,0,18.6,38Z"/><path class="cls-9" d="M18,29s.66-2.37,2.8-1.36A3,3,0,0,0,18,29Z"/><path class="cls-9" d="M17,35.94s-1.21-3.65,2.44-4.21A4.77,4.77,0,0,0,17,35.94Z"/><path class="cls-9" d="M25.62,36.17s-1.23,4.51-5.31,2.62A5.82,5.82,0,0,0,25.62,36.17Z"/><path class="cls-9" d="M28.46,35.55s1.11,3.29-2.19,3.81A4.3,4.3,0,0,0,28.46,35.55Z"/><path class="cls-9" d="M26.44,30.28s3,1.63,1,4.24A4.27,4.27,0,0,0,26.44,30.28Z"/><path class="cls-9" d="M14.41,33.94S14.36,29.3,18.76,30A5.75,5.75,0,0,0,14.41,33.94Z"/><path class="cls-9" d="M17,38.6s-3.3-.67-2.13-3.68A4.16,4.16,0,0,0,17,38.6Z"/><path class="cls-9" d="M26,31.79s3.63,2.9.3,5.87A5.77,5.77,0,0,0,26,31.79Z"/><path class="cls-9" d="M23.58,29.31s4.31,1.72,2,5.53A5.77,5.77,0,0,0,23.58,29.31Z"/><path class="cls-9" d="M17.38,31.39S21,25.7,25.81,30.05A8.38,8.38,0,0,0,17.38,31.39Z"/><path class="cls-10" d="M21.08,33a.38.38,0,0,0,.22.72.38.38,0,0,0-.22-.72Z"/><path class="cls-10" d="M22.29,33.61a.38.38,0,0,0,.23.72.38.38,0,0,0-.23-.72Z"/><path class="cls-10" d="M21.46,35.43a.38.38,0,0,0,.22.72.38.38,0,0,0-.22-.72Z"/><path class="cls-10" d="M20,34.71a.38.38,0,0,0,.23.72.38.38,0,0,0-.23-.72Z"/><path class="cls-10" d="M21.09,34.26a.38.38,0,0,0,.23.72.38.38,0,0,0-.23-.72Z"/><path class="cls-10" d="M21.78,32.62a.24.24,0,0,0,.14.46.24.24,0,0,0-.14-.46Z"/><path class="cls-10" d="M22.83,34.89a.24.24,0,0,0,.15.46.24.24,0,0,0-.15-.46Z"/><path class="cls-10" d="M20.73,35.46a.24.24,0,0,0,.14.46.24.24,0,0,0-.14-.46Z"/><path class="cls-10" d="M19.61,34a.24.24,0,0,0,.14.46.24.24,0,0,0-.14-.46Z"/><path class="cls-10" d="M20.08,33.41a.24.24,0,0,0,.15.46.24.24,0,0,0-.15-.46Z"/><path class="cls-2" d="M25.84,18.85a8.56,8.56,0,0,1-4.56.79,25,25,0,0,1-7-1.32,9.52,9.52,0,0,1-1.44-.6c-.19-.11-.4-.26-.4-.48a.63.63,0,0,1,.28-.44A6.87,6.87,0,0,1,16,15.48a11.69,11.69,0,0,1,5.45.33,8.9,8.9,0,0,1,4.46,3.1"/><path class="cls-2" d="M43.92,13a17.17,17.17,0,0,0,3.86-5.46A13.33,13.33,0,0,0,48.88,1a.88.88,0,0,0-.14-.44A.6.6,0,0,0,48,.46a1.7,1.7,0,0,0-.56.57,19.75,19.75,0,0,0-3.17,5.54,20,20,0,0,0-.63,3.08,10.07,10.07,0,0,0-.11,3.46"/><path class="cls-2" d="M41,15.79A14,14,0,0,0,41.51,10,10.81,10.81,0,0,0,40,4.38c-.11-.16-.29-.33-.47-.26a.55.55,0,0,0-.18.19,8.37,8.37,0,0,0-.93,5.89,15.76,15.76,0,0,0,2.4,5.57"/><path class="cls-2" d="M39.66,16.14A8.64,8.64,0,0,1,43.9,18,25.12,25.12,0,0,1,49,23a8.67,8.67,0,0,1,.87,1.3.62.62,0,0,1,.07.61.64.64,0,0,1-.48.22A7,7,0,0,1,46,24.4a11.89,11.89,0,0,1-4.37-3.29,8.91,8.91,0,0,1-2-5"/><path class="cls-2" d="M41.61,15.08a14.79,14.79,0,0,1,4.73-3.23,18.52,18.52,0,0,1,2.72-1.16,17.46,17.46,0,0,1,5.82-.36c.12,0,.27,0,.29.16a.33.33,0,0,1,0,.13,7.77,7.77,0,0,1-3.32,3.44,13.69,13.69,0,0,1-4.6,1.47A11.32,11.32,0,0,1,45,15.7a15.5,15.5,0,0,1-3-.47"/><path class="cls-2" d="M43.57,12.32a13.38,13.38,0,0,1-7,4.9c-.85.3-1.71.54-2.58.77-.47.13-.32.87.15.75,3-.8,6.1-1.9,8.42-4.08a10.45,10.45,0,0,0,1.61-1.91c.27-.41-.35-.84-.62-.43Z"/><path class="cls-11" d="M20.8,22a8.7,8.7,0,0,0,4.45,8.24,8.68,8.68,0,0,0,14.28.61,8.69,8.69,0,0,0,.38-16,8.67,8.67,0,0,0-14.31,0A8.69,8.69,0,0,0,20.8,22Z"/><path class="cls-12" d="M27.8,22.45a3.65,3.65,0,0,0,1.88,3.48,3.66,3.66,0,0,0,6,.26,3.67,3.67,0,0,0,.16-6.77,3.66,3.66,0,0,0-6,0A3.64,3.64,0,0,0,27.8,22.45Z"/><path class="cls-2" d="M29,22.17a2.6,2.6,0,0,0,1.32,2.47,2.6,2.6,0,0,0,4.27.18A2.6,2.6,0,0,0,34.66,20a2.59,2.59,0,0,0-4.27,0A2.58,2.58,0,0,0,29,22.17Z"/><path class="cls-9" d="M36.45,29.73s-4.4,4.63-8.09-.28A8,8,0,0,0,36.45,29.73Z"/><path class="cls-9" d="M33.19,28.87s-5.5,3.25-7.69-2.49A7.93,7.93,0,0,0,33.19,28.87Z"/><path class="cls-9" d="M28.82,27.36s-6.49-3.14-2.47-8.78A9,9,0,0,0,28.82,27.36Z"/><path class="cls-9" d="M28,15.05s.91-3.26,3.86-1.87A4.22,4.22,0,0,0,28,15.05Z"/><path class="cls-9" d="M26.65,24.55S25,19.53,30,18.77A6.55,6.55,0,0,0,26.65,24.55Z"/><path class="cls-9" d="M38.48,24.88s-1.7,6.2-7.3,3.59A8,8,0,0,0,38.48,24.88Z"/><path class="cls-9" d="M42.39,24s1.52,4.52-3,5.23A5.92,5.92,0,0,0,42.39,24Z"/><path class="cls-9" d="M39.61,16.77S43.79,19,41,22.61A5.88,5.88,0,0,0,39.61,16.77Z"/><path class="cls-9" d="M23.06,21.81s-.08-6.39,6-5.43A7.93,7.93,0,0,0,23.06,21.81Z"/><path class="cls-9" d="M26.64,28.22s-4.53-.93-2.92-5.07A5.76,5.76,0,0,0,26.64,28.22Z"/><path class="cls-9" d="M39,18.85s5,4,.41,8.07A7.94,7.94,0,0,0,39,18.85Z"/><path class="cls-9" d="M35.67,15.44s5.94,2.37,2.74,7.61A7.94,7.94,0,0,0,35.67,15.44Z"/><path class="cls-9" d="M27.15,18.29s5-7.82,11.6-1.84A11.53,11.53,0,0,0,27.15,18.29Z"/><path class="cls-10" d="M32.23,20.45a.52.52,0,0,0,.31,1,.52.52,0,0,0-.31-1Z"/><path class="cls-10" d="M33.9,21.35a.52.52,0,0,0,.31,1,.52.52,0,0,0-.31-1Z"/><path class="cls-10" d="M32.76,23.86a.52.52,0,0,0,.31,1,.52.52,0,0,0-.31-1Z"/><path class="cls-10" d="M30.73,22.87a.52.52,0,0,0,.31,1,.52.52,0,0,0-.31-1Z"/><path class="cls-10" d="M32.25,22.25a.52.52,0,0,0,.31,1,.52.52,0,0,0-.31-1Z"/><path class="cls-10" d="M33.2,20a.34.34,0,0,0,.2.64.34.34,0,0,0-.2-.64Z"/><path class="cls-10" d="M34.65,23.11a.33.33,0,0,0,.19.64.33.33,0,0,0-.19-.64Z"/><path class="cls-10" d="M31.75,23.89a.34.34,0,0,0,.2.64.34.34,0,0,0-.2-.64Z"/><path class="cls-10" d="M30.21,21.82a.34.34,0,0,0,.2.64.34.34,0,0,0-.2-.64Z"/><path class="cls-10" d="M30.86,21.07a.34.34,0,0,0,.2.64.34.34,0,0,0-.2-.64Z"/><path class="cls-13" d="M11.34,42.6a3.22,3.22,0,0,1-1.12,1,1.49,1.49,0,0,1-.81.23,1.34,1.34,0,0,1-1-.72A1.75,1.75,0,0,1,8.19,42a1.06,1.06,0,0,1,.19-.45,1.22,1.22,0,0,1,1-.38,2.36,2.36,0,0,1,1.84.91"/><g class="cls-14"><path class="cls-5" d="M11.12,42.27a5.23,5.23,0,0,1-1.91.37c-.12,0-.14.2,0,.2a5.49,5.49,0,0,0,2-.4c.12,0,0-.22-.08-.17Z"/></g><g class="cls-14"><path class="cls-5" d="M11.12,42.18c-.66,0-1.32-.06-2,0-.13,0-.14.19,0,.19.66,0,1.33,0,2,.06a.1.1,0,0,0,0-.2Z"/></g><g class="cls-14"><path class="cls-5" d="M11.06,42.37a3.16,3.16,0,0,1-1.24.72.11.11,0,0,0-.08.12.1.1,0,0,0,.12.07,3.47,3.47,0,0,0,1.33-.76c.09-.09,0-.24-.13-.15Z"/></g><g class="cls-14"><path class="cls-5" d="M11.09,42a3.93,3.93,0,0,0-1.27-.3.1.1,0,0,0,0,.19,3.7,3.7,0,0,1,1.22.3c.11,0,.18-.14.06-.19Z"/></g><path class="cls-13" d="M11.44,41.94a3.24,3.24,0,0,1-1.25-.88,1.45,1.45,0,0,1-.4-.75,1.36,1.36,0,0,1,.49-1.14,1.79,1.79,0,0,1,1.11-.45,1.12,1.12,0,0,1,.48.1,1.16,1.16,0,0,1,.58.86,2.37,2.37,0,0,1-.51,2"/><g class="cls-14"><path class="cls-5" d="M11.72,41.65A5.35,5.35,0,0,1,11,39.86c0-.12-.22-.09-.19,0a5.68,5.68,0,0,0,.8,1.88c.07.1.22,0,.15-.12Z"/></g><g class="cls-14"><path class="cls-5" d="M11.81,41.63q-.13-1-.36-2c0-.12-.22-.1-.2,0,.15.64.27,1.29.37,1.95,0,.13.21.1.19,0Z"/></g><g class="cls-14"><path class="cls-5" d="M11.61,41.62a3.4,3.4,0,0,1-1-1.07.11.11,0,0,0-.13,0,.09.09,0,0,0,0,.13,3.4,3.4,0,0,0,1,1.14c.1.07.22-.08.11-.15Z"/></g><g class="cls-14"><path class="cls-5" d="M12,41.57a4.05,4.05,0,0,0,0-1.3.1.1,0,0,0-.19,0,4.1,4.1,0,0,1,0,1.26c0,.12.17.14.2,0Z"/></g><path class="cls-13" d="M12,41.84a3.26,3.26,0,0,1,.89-1.25,1.57,1.57,0,0,1,.76-.38,1.32,1.32,0,0,1,1.13.51,1.77,1.77,0,0,1,.43,1.12,1,1,0,0,1-.1.47,1.21,1.21,0,0,1-.87.57,2.39,2.39,0,0,1-2-.54"/><g class="cls-14"><path class="cls-5" d="M12.28,42.12a5.57,5.57,0,0,1,1.8-.74c.12,0,.1-.22,0-.19a5.33,5.33,0,0,0-1.89.78c-.11.06,0,.22.11.15Z"/></g><g class="cls-14"><path class="cls-5" d="M12.29,42.21c.66-.09,1.32-.2,2-.34a.1.1,0,0,0,0-.19c-.65.14-1.3.25-2,.33a.1.1,0,0,0,0,.2Z"/></g><g class="cls-14"><path class="cls-5" d="M12.32,42a3.25,3.25,0,0,1,1.07-.95.1.1,0,0,0,.06-.13.11.11,0,0,0-.13,0,3.62,3.62,0,0,0-1.16,1,.1.1,0,0,0,.16.12Z"/></g><g class="cls-14"><path class="cls-5" d="M12.36,42.36a4.37,4.37,0,0,0,1.3,0,.1.1,0,0,0,0-.19,4,4,0,0,1-1.25,0c-.13,0-.16.16,0,.19Z"/></g><path class="cls-13" d="M12,42.31a3.18,3.18,0,0,1,1.21.94,1.4,1.4,0,0,1,.35.77A1.32,1.32,0,0,1,13,45.13a1.8,1.8,0,0,1-1.13.39,1.14,1.14,0,0,1-.48-.12,1.22,1.22,0,0,1-.53-.89,2.37,2.37,0,0,1,.62-2"/><g class="cls-14"><path class="cls-5" d="M11.71,42.58a5.2,5.2,0,0,1,.67,1.82c0,.13.22.11.2,0a5.7,5.7,0,0,0-.71-1.92c-.06-.11-.22,0-.16.11Z"/></g><g class="cls-14"><path class="cls-5" d="M11.63,42.59c0,.66.14,1.32.25,2,0,.12.22.11.2,0-.12-.65-.2-1.31-.26-2a.1.1,0,0,0-.19,0Z"/></g><g class="cls-14"><path class="cls-5" d="M11.82,42.62a3.37,3.37,0,0,1,.91,1.11.1.1,0,1,0,.18-.07,3.58,3.58,0,0,0-1-1.19c-.1-.08-.23.07-.13.15Z"/></g><g class="cls-14"><path class="cls-5" d="M11.47,42.65a4.35,4.35,0,0,0-.1,1.3.1.1,0,0,0,.2,0,3.76,3.76,0,0,1,.1-1.25c0-.12-.17-.16-.2,0Z"/></g><path class="cls-6" d="M12.24,42.4a1,1,0,0,1-.55.38.59.59,0,0,1-.58-.3.79.79,0,0,1-.07-.67.9.9,0,0,1,.12-.24.88.88,0,0,1,.25-.18.75.75,0,0,1,.3-.09.64.64,0,0,1,.6.37.76.76,0,0,1-.07.73"/><path class="cls-13" d="M76.58,15.62a3.19,3.19,0,0,1-1.12,1,1.49,1.49,0,0,1-.81.23,1.3,1.3,0,0,1-1-.72A1.74,1.74,0,0,1,73.43,15a1,1,0,0,1,.19-.44,1.19,1.19,0,0,1,1-.39,2.34,2.34,0,0,1,1.84.92"/><g class="cls-14"><path class="cls-5" d="M76.36,15.29a5.68,5.68,0,0,1-1.91.37c-.12,0-.14.19,0,.19a5.52,5.52,0,0,0,2-.39c.12-.05,0-.22-.08-.17Z"/></g><g class="cls-14"><path class="cls-5" d="M76.36,15.2q-1-.07-2-.06c-.13,0-.14.2,0,.2.66,0,1.33,0,2,.05a.1.1,0,0,0,0-.19Z"/></g><g class="cls-14"><path class="cls-5" d="M76.3,15.38a3.31,3.31,0,0,1-1.24.73.1.1,0,0,0-.08.11.11.11,0,0,0,.12.08,3.63,3.63,0,0,0,1.33-.77.1.1,0,0,0-.13-.15Z"/></g><g class="cls-14"><path class="cls-5" d="M76.33,15a4.22,4.22,0,0,0-1.27-.31.1.1,0,0,0,0,.2,4,4,0,0,1,1.22.29c.11,0,.18-.13.06-.18Z"/></g><path class="cls-13" d="M76.68,15a3.32,3.32,0,0,1-1.26-.87,1.6,1.6,0,0,1-.39-.75,1.33,1.33,0,0,1,.49-1.14,1.79,1.79,0,0,1,1.11-.45,1.11,1.11,0,0,1,.48.09,1.25,1.25,0,0,1,.58.87,2.36,2.36,0,0,1-.51,2"/><g class="cls-14"><path class="cls-5" d="M77,14.66a5.3,5.3,0,0,1-.76-1.78c0-.12-.22-.1-.2,0a5.73,5.73,0,0,0,.81,1.88c.07.11.22,0,.15-.12Z"/></g><g class="cls-14"><path class="cls-5" d="M77.05,14.65q-.15-1-.36-2c0-.13-.22-.1-.2,0,.15.65.27,1.3.36,2,0,.12.21.09.2,0Z"/></g><g class="cls-14"><path class="cls-5" d="M76.85,14.63a3.25,3.25,0,0,1-1-1.06c0-.05-.08-.08-.13-.05a.08.08,0,0,0-.05.12,3.42,3.42,0,0,0,1,1.15.1.1,0,0,0,.12-.16Z"/></g><g class="cls-14"><path class="cls-5" d="M77.2,14.59a4.11,4.11,0,0,0,0-1.31.1.1,0,0,0-.19,0,4,4,0,0,1,0,1.25c0,.12.17.15.2,0Z"/></g><path class="cls-13" d="M77.24,14.86a3.26,3.26,0,0,1,.89-1.25,1.5,1.5,0,0,1,.76-.39,1.37,1.37,0,0,1,1.13.51,1.77,1.77,0,0,1,.43,1.12,1.15,1.15,0,0,1-.1.48,1.2,1.2,0,0,1-.87.56,2.33,2.33,0,0,1-2-.54"/><g class="cls-14"><path class="cls-5" d="M77.52,15.14a5.16,5.16,0,0,1,1.8-.74c.12,0,.1-.22,0-.19a5.53,5.53,0,0,0-1.88.77c-.11.07,0,.22.11.16Z"/></g><g class="cls-14"><path class="cls-5" d="M77.53,15.22c.66-.08,1.32-.19,2-.33.13,0,.1-.22,0-.19-.65.14-1.3.25-2,.33-.12,0-.1.21,0,.19Z"/></g><g class="cls-14"><path class="cls-5" d="M77.55,15a3.39,3.39,0,0,1,1.08-.95.11.11,0,0,0,.06-.13.1.1,0,0,0-.13,0,3.52,3.52,0,0,0-1.16,1c-.07.1.08.22.15.12Z"/></g><g class="cls-14"><path class="cls-5" d="M77.6,15.37a4,4,0,0,0,1.3.06.1.1,0,0,0,0-.2,4.1,4.1,0,0,1-1.26-.05.1.1,0,0,0,0,.19Z"/></g><path class="cls-13" d="M77.25,15.32a3.28,3.28,0,0,1,1.21.94,1.55,1.55,0,0,1,.35.77,1.32,1.32,0,0,1-.55,1.11,1.69,1.69,0,0,1-1.13.39,1,1,0,0,1-.48-.11,1.24,1.24,0,0,1-.53-.9,2.39,2.39,0,0,1,.62-2"/><g class="cls-14"><path class="cls-5" d="M77,15.6a5.2,5.2,0,0,1,.67,1.82c0,.12.22.11.2,0a5.73,5.73,0,0,0-.71-1.91c-.06-.11-.22,0-.16.11Z"/></g><g class="cls-14"><path class="cls-5" d="M76.87,15.6c0,.67.14,1.32.25,2,0,.12.22.1.2,0-.12-.65-.2-1.31-.26-2a.1.1,0,0,0-.19,0Z"/></g><g class="cls-14"><path class="cls-5" d="M77.06,15.63A3.31,3.31,0,0,1,78,16.75a.1.1,0,0,0,.12.05.08.08,0,0,0,.06-.12,3.72,3.72,0,0,0-1-1.2c-.1-.07-.23.08-.13.15Z"/></g><g class="cls-14"><path class="cls-5" d="M76.71,15.66a4.4,4.4,0,0,0-.1,1.3.1.1,0,0,0,.2,0,3.76,3.76,0,0,1,.1-1.25.1.1,0,0,0-.2,0Z"/></g><path class="cls-6" d="M77.48,15.42a1,1,0,0,1-.55.38.63.63,0,0,1-.59-.3.85.85,0,0,1-.06-.68.61.61,0,0,1,.37-.41.75.75,0,0,1,.3-.09.64.64,0,0,1,.6.36.78.78,0,0,1-.07.74"/><path class="cls-13" d="M53.77,18a2.36,2.36,0,0,1-.84.79,1.06,1.06,0,0,1-.62.17,1,1,0,0,1-.76-.54,1.33,1.33,0,0,1-.16-.89.87.87,0,0,1,.15-.34.92.92,0,0,1,.73-.29,1.78,1.78,0,0,1,1.39.69"/><g class="cls-14"><path class="cls-5" d="M53.6,17.7a3.87,3.87,0,0,1-1.43.28c-.1,0-.11.15,0,.15a4.42,4.42,0,0,0,1.52-.3c.08,0,0-.16-.07-.13Z"/></g><g class="cls-14"><path class="cls-5" d="M53.61,17.63c-.5,0-1-.05-1.5,0-.1,0-.11.15,0,.15.5,0,1,0,1.5,0,.09,0,.1-.14,0-.15Z"/></g><g class="cls-14"><path class="cls-5" d="M53.56,17.78a2.64,2.64,0,0,1-.93.54.08.08,0,0,0-.06.09s0,.07.08.05a2.6,2.6,0,0,0,1-.57c.07-.07,0-.18-.1-.11Z"/></g><g class="cls-14"><path class="cls-5" d="M53.58,17.51a3.39,3.39,0,0,0-.95-.23.08.08,0,0,0,0,.15,2.89,2.89,0,0,1,.91.22c.09,0,.14-.1,0-.14Z"/></g><path class="cls-13" d="M53.85,17.45a2.51,2.51,0,0,1-1-.66,1.13,1.13,0,0,1-.3-.57,1,1,0,0,1,.37-.86,1.37,1.37,0,0,1,.84-.34.86.86,0,0,1,.36.07.91.91,0,0,1,.44.66,1.77,1.77,0,0,1-.39,1.5"/><g class="cls-14"><path class="cls-5" d="M54.06,17.23a4.15,4.15,0,0,1-.58-1.35c0-.09-.16-.07-.14,0a4.25,4.25,0,0,0,.6,1.42c.06.08.17,0,.12-.09Z"/></g><g class="cls-14"><path class="cls-5" d="M54.12,17.22c-.07-.49-.16-1-.27-1.47a.07.07,0,1,0-.14,0c.11.48.2,1,.27,1.47,0,.09.16.07.14,0Z"/></g><g class="cls-14"><path class="cls-5" d="M54,17.21a2.47,2.47,0,0,1-.73-.81.08.08,0,0,0-.1,0s-.06.06,0,.09a2.68,2.68,0,0,0,.78.86c.08.06.16-.06.09-.11Z"/></g><g class="cls-14"><path class="cls-5" d="M54.24,17.17a2.93,2.93,0,0,0,0-1,.07.07,0,1,0-.14,0,3,3,0,0,1,0,.94c0,.1.13.12.15,0Z"/></g><path class="cls-13" d="M54.27,17.38a2.35,2.35,0,0,1,.67-.94,1.13,1.13,0,0,1,.57-.3,1,1,0,0,1,.86.39,1.29,1.29,0,0,1,.32.84.86.86,0,0,1-.07.36.92.92,0,0,1-.66.43,1.78,1.78,0,0,1-1.5-.41"/><g class="cls-14"><path class="cls-5" d="M54.48,17.59A4,4,0,0,1,55.84,17c.09,0,.07-.16,0-.14a4,4,0,0,0-1.42.58c-.08.05,0,.17.08.12Z"/></g><g class="cls-14"><path class="cls-5" d="M54.49,17.65A14.74,14.74,0,0,0,56,17.4c.09,0,.08-.16,0-.14-.49.1-1,.18-1.48.25-.09,0-.07.16,0,.14Z"/></g><g class="cls-14"><path class="cls-5" d="M54.51,17.51a2.33,2.33,0,0,1,.81-.72.07.07,0,0,0,0-.1s-.06-.06-.09,0a2.61,2.61,0,0,0-.88.77.08.08,0,0,0,.12.09Z"/></g><g class="cls-14"><path class="cls-5" d="M54.54,17.77a3.58,3.58,0,0,0,1,0,.08.08,0,0,0,0-.15,3,3,0,0,1-.95,0c-.09,0-.11.13,0,.15Z"/></g><path class="cls-13" d="M54.27,17.73a2.38,2.38,0,0,1,.92.71,1.15,1.15,0,0,1,.27.58,1,1,0,0,1-.42.84,1.34,1.34,0,0,1-.86.29.73.73,0,0,1-.35-.09.88.88,0,0,1-.4-.67,1.78,1.78,0,0,1,.46-1.49"/><g class="cls-14"><path class="cls-5" d="M54.05,17.94a4,4,0,0,1,.51,1.37c0,.09.16.08.14,0a4,4,0,0,0-.53-1.45c0-.08-.16,0-.12.09Z"/></g><g class="cls-14"><path class="cls-5" d="M54,17.94c0,.5.11,1,.19,1.49,0,.09.16.08.15,0-.09-.5-.15-1-.2-1.49,0-.1-.15-.08-.14,0Z"/></g><g class="cls-14"><path class="cls-5" d="M54.13,18a2.53,2.53,0,0,1,.69.84.07.07,0,1,0,.14-.05,2.66,2.66,0,0,0-.73-.9c-.07-.06-.17,0-.1.11Z"/></g><g class="cls-14"><path class="cls-5" d="M53.87,18a3.29,3.29,0,0,0-.07,1c0,.09.15.08.14,0A3,3,0,0,1,54,18c0-.09-.12-.12-.15,0Z"/></g><path class="cls-6" d="M54.45,17.8a.7.7,0,0,1-.41.29.5.5,0,0,1-.45-.23.61.61,0,0,1,0-.51.51.51,0,0,1,.09-.18.46.46,0,0,1,.18-.13.62.62,0,0,1,.23-.07.51.51,0,0,1,.46.28.57.57,0,0,1-.06.55"/><path class="cls-6" d="M27.72,99.52a3.34,3.34,0,0,1-.8,1.31,1.58,1.58,0,0,1-.73.44,1.32,1.32,0,0,1-1.16-.42,1.75,1.75,0,0,1-.52-1.08,1.14,1.14,0,0,1,.06-.49,1.25,1.25,0,0,1,.83-.63,2.41,2.41,0,0,1,2,.39"/><path class="cls-6" d="M28.31,98.71a3.19,3.19,0,0,1,1-1.12,1.57,1.57,0,0,1,.8-.3,1.34,1.34,0,0,1,1.06.65,1.78,1.78,0,0,1,.29,1.16,1.1,1.1,0,0,1-.16.46,1.2,1.2,0,0,1-.93.46,2.38,2.38,0,0,1-1.91-.78"/><g class="cls-14"><path class="cls-5" d="M28.56,99a5.33,5.33,0,0,1,1.87-.52c.13,0,.13-.2,0-.19a5.67,5.67,0,0,0-2,.54c-.11,0,0,.22.1.17Z"/></g><g class="cls-14"><path class="cls-5" d="M28.56,99.11c.66,0,1.33,0,2-.09.12,0,.12-.2,0-.19-.66.06-1.33.09-2,.09-.13,0-.13.2,0,.19Z"/></g><g class="cls-14"><path class="cls-5" d="M28.6,98.92a3.45,3.45,0,0,1,1.19-.81.1.1,0,0,0,.07-.12.09.09,0,0,0-.12-.07,3.6,3.6,0,0,0-1.27.87c-.09.09.05.23.13.13Z"/></g><g class="cls-14"><path class="cls-5" d="M28.6,99.27a4.05,4.05,0,0,0,1.29.21.1.1,0,1,0,0-.19,3.76,3.76,0,0,1-1.24-.21c-.11,0-.17.15,0,.19Z"/></g><path class="cls-6" d="M28.26,99.38a3.29,3.29,0,0,1,1.32.78,1.52,1.52,0,0,1,.45.72,1.34,1.34,0,0,1-.41,1.17,1.71,1.71,0,0,1-1.07.53,1,1,0,0,1-.49,0,1.22,1.22,0,0,1-.64-.82,2.36,2.36,0,0,1,.36-2"/><g class="cls-14"><path class="cls-5" d="M28,99.69a5.39,5.39,0,0,1,.9,1.73c0,.12.22.08.19,0a5.73,5.73,0,0,0-.94-1.82c-.08-.1-.22,0-.15.13Z"/></g><g class="cls-14"><path class="cls-5" d="M27.92,99.71c.14.65.31,1.29.5,1.92,0,.12.23.08.19,0-.19-.63-.36-1.27-.5-1.92,0-.12-.22-.08-.19,0Z"/></g><g class="cls-14"><path class="cls-5" d="M28.11,99.72a3.28,3.28,0,0,1,1.05,1,.1.1,0,0,0,.13,0,.11.11,0,0,0,0-.14,3.62,3.62,0,0,0-1.11-1.06.1.1,0,0,0-.11.17Z"/></g><g class="cls-14"><path class="cls-5" d="M27.77,99.79a4.38,4.38,0,0,0,.07,1.3c0,.12.21.08.19,0A3.75,3.75,0,0,1,28,99.8c0-.13-.18-.14-.2,0Z"/></g><g class="cls-15"><path class="cls-5" d="M27.41,99.26a5.17,5.17,0,0,1-1.74.87c-.12,0-.08.23,0,.19a5.71,5.71,0,0,0,1.83-.91c.1-.08,0-.22-.13-.15Z"/></g><g class="cls-15"><path class="cls-5" d="M27.39,99.18c-.65.13-1.29.29-1.93.48-.12,0-.08.22,0,.19.63-.19,1.28-.35,1.93-.48.12,0,.08-.22,0-.19Z"/></g><g class="cls-14"><path class="cls-5" d="M27.38,99.37a3.17,3.17,0,0,1-1,1,.1.1,0,0,0,.09.18,3.77,3.77,0,0,0,1.08-1.1.1.1,0,0,0-.17-.11Z"/></g><g class="cls-14"><path class="cls-5" d="M27.32,99a4.11,4.11,0,0,0-1.31,0c-.12,0-.08.21,0,.19a3.74,3.74,0,0,1,1.25,0,.1.1,0,0,0,0-.2Z"/></g><path class="cls-6" d="M27.67,99.06a3.27,3.27,0,0,1-1.28-.85,1.55,1.55,0,0,1-.41-.74,1.32,1.32,0,0,1,.47-1.15,1.69,1.69,0,0,1,1.1-.47,1,1,0,0,1,.48.08,1.22,1.22,0,0,1,.6.85,2.39,2.39,0,0,1-.47,2"/><g class="cls-14"><path class="cls-5" d="M27.94,98.76a5.36,5.36,0,0,1-.8-1.77c0-.12-.22-.09-.19,0a5.49,5.49,0,0,0,.84,1.86c.07.11.22,0,.15-.12Z"/></g><g class="cls-14"><path class="cls-5" d="M28,98.75c-.11-.66-.24-1.31-.41-2,0-.12-.22-.09-.19,0,.16.64.3,1.29.41,2a.1.1,0,0,0,.19,0Z"/></g><g class="cls-14"><path class="cls-5" d="M27.83,98.73a3.28,3.28,0,0,1-1-1,.1.1,0,0,0-.13,0,.11.11,0,0,0-.05.13,3.55,3.55,0,0,0,1.06,1.12c.1.07.22-.09.11-.16Z"/></g><g class="cls-14"><path class="cls-5" d="M28.18,98.68a4.11,4.11,0,0,0,0-1.31.1.1,0,0,0-.19,0,4.1,4.1,0,0,1,0,1.26c0,.12.18.14.2,0Z"/></g><path class="cls-10" d="M27.43,99a.9.9,0,0,1,.52-.42.62.62,0,0,1,.61.25.87.87,0,0,1,.11.67.64.64,0,0,1-.1.24.81.81,0,0,1-.24.21A.92.92,0,0,1,28,100a.68.68,0,0,1-.63-.32.78.78,0,0,1,0-.74"/><path class="cls-6" d="M27.8,79.18a2,2,0,0,1-.54.89,1,1,0,0,1-.49.3.88.88,0,0,1-.79-.29,1.12,1.12,0,0,1-.35-.73.75.75,0,0,1,0-.33.81.81,0,0,1,.56-.42,1.62,1.62,0,0,1,1.38.26"/><path class="cls-6" d="M28.21,78.64a2.16,2.16,0,0,1,.7-.77,1,1,0,0,1,.54-.2.91.91,0,0,1,.72.44,1.11,1.11,0,0,1,.2.79.67.67,0,0,1-.1.31.86.86,0,0,1-.64.31A1.62,1.62,0,0,1,28.34,79"/><g class="cls-14"><path class="cls-5" d="M28.38,78.85a3.76,3.76,0,0,1,1.27-.35c.08,0,.08-.14,0-.13a3.86,3.86,0,0,0-1.34.36c-.08,0,0,.16.07.12Z"/></g><g class="cls-14"><path class="cls-5" d="M28.38,78.91c.45,0,.9,0,1.34-.06a.07.07,0,0,0,0-.14c-.44,0-.89.06-1.34.07a.07.07,0,1,0,0,.13Z"/></g><g class="cls-14"><path class="cls-5" d="M28.41,78.78a2.21,2.21,0,0,1,.8-.55s.06,0,.05-.08a.07.07,0,0,0-.08-.05,2.36,2.36,0,0,0-.87.59c0,.06,0,.15.1.09Z"/></g><g class="cls-14"><path class="cls-5" d="M28.41,79a2.57,2.57,0,0,0,.87.15.07.07,0,1,0,0-.13,3,3,0,0,1-.84-.14c-.08,0-.11.1,0,.12Z"/></g><path class="cls-6" d="M28.17,79.09a2.11,2.11,0,0,1,.9.53,1,1,0,0,1,.3.49.89.89,0,0,1-.27.79,1.18,1.18,0,0,1-.73.36.62.62,0,0,1-.33,0,.78.78,0,0,1-.43-.55,1.58,1.58,0,0,1,.24-1.38"/><g class="cls-14"><path class="cls-5" d="M28,79.3a3.74,3.74,0,0,1,.61,1.17c0,.08.15,0,.13,0a4.12,4.12,0,0,0-.64-1.23.07.07,0,0,0-.1.09Z"/></g><g class="cls-14"><path class="cls-5" d="M27.94,79.31c.1.44.21.88.34,1.31,0,.08.16,0,.13,0-.13-.43-.24-.86-.34-1.3,0-.09-.15-.06-.13,0Z"/></g><g class="cls-14"><path class="cls-5" d="M28.07,79.32a2.07,2.07,0,0,1,.71.67.08.08,0,0,0,.09,0,.07.07,0,0,0,0-.09,2.49,2.49,0,0,0-.75-.73c-.08,0-.15.07-.08.12Z"/></g><g class="cls-14"><path class="cls-5" d="M27.84,79.36a3,3,0,0,0,.05.89c0,.08.14,0,.13,0a2.42,2.42,0,0,1,0-.85.07.07,0,0,0-.14,0Z"/></g><g class="cls-15"><path class="cls-5" d="M27.59,79a3.49,3.49,0,0,1-1.17.59c-.08,0-.06.15,0,.13a3.8,3.8,0,0,0,1.24-.62c.07,0,0-.15-.09-.1Z"/></g><g class="cls-15"><path class="cls-5" d="M27.58,79c-.44.09-.88.2-1.31.32-.08,0-.05.16,0,.13.43-.12.87-.23,1.31-.32a.07.07,0,0,0,0-.13Z"/></g><g class="cls-14"><path class="cls-5" d="M27.58,79.08a2.39,2.39,0,0,1-.68.7.07.07,0,0,0,0,.09.07.07,0,0,0,.09,0,2.45,2.45,0,0,0,.73-.74c0-.08-.07-.15-.11-.08Z"/></g><g class="cls-14"><path class="cls-5" d="M27.53,78.85a3.25,3.25,0,0,0-.88,0c-.09,0-.06.15,0,.13a3,3,0,0,1,.85,0,.07.07,0,1,0,0-.13Z"/></g><path class="cls-6" d="M27.77,78.87a2.12,2.12,0,0,1-.86-.58.93.93,0,0,1-.28-.5.91.91,0,0,1,.31-.78,1.18,1.18,0,0,1,.75-.32.74.74,0,0,1,.33,0,.83.83,0,0,1,.4.58,1.65,1.65,0,0,1-.31,1.37"/><g class="cls-14"><path class="cls-5" d="M28,78.67a3.63,3.63,0,0,1-.55-1.2c0-.08-.15-.06-.13,0a3.88,3.88,0,0,0,.57,1.26c0,.07.16,0,.11-.08Z"/></g><g class="cls-14"><path class="cls-5" d="M28,78.66c-.08-.45-.17-.89-.28-1.32,0-.08-.15-.06-.13,0q.16.65.27,1.32c0,.08.15.06.14,0Z"/></g><g class="cls-14"><path class="cls-5" d="M27.88,78.65a2.39,2.39,0,0,1-.67-.71.07.07,0,0,0-.09,0,.06.06,0,0,0,0,.09,2.37,2.37,0,0,0,.72.76.07.07,0,0,0,.07-.11Z"/></g><g class="cls-14"><path class="cls-5" d="M28.12,78.61a3.24,3.24,0,0,0,0-.88.07.07,0,1,0-.13,0,2.69,2.69,0,0,1,0,.85c0,.08.12.1.14,0Z"/></g><path class="cls-10" d="M27.61,78.81a.69.69,0,0,1,.35-.28.42.42,0,0,1,.41.17.53.53,0,0,1,.08.46.33.33,0,0,1-.07.16.54.54,0,0,1-.16.14.62.62,0,0,1-.19.07.43.43,0,0,1-.43-.21.52.52,0,0,1,0-.51"/></svg>