<svg xmlns="http://www.w3.org/2000/svg" viewBox="0 0 205.62 276.43"><defs><style>.cls-1{isolation:isolate;}.cls-2{opacity:0.8;}.cls-3{fill:#f5b6b5;mix-blend-mode:multiply;}</style></defs><title>product_bg_phone</title><g class="cls-1"><g id="圖層_1" data-name="圖層 1"><g class="cls-2"><path class="cls-3" d="M173.64,273.47V167.56h3.56V131.7c17.54-3,26.29-14.61,26.29-14.61-36.72,5-45.41-22.84-45.41-22.84L166,60.82a32.11,32.11,0,0,0,17-15.58c-63.27,0-76.14-30.34-80.52-41.88h0C98.07,14.9,85.2,45.24,21.93,45.24a32.11,32.11,0,0,0,17,15.58l7.9,33.43-3.43,3.46c-4.4,4.92-15.82,23-42,19.38A45.48,45.48,0,0,0,27.7,131.51v36.05h3.56V273.47Zm-6-141.73h3.89v3.88h-3.89Zm-8.58,0h3.88v3.88h-3.88ZM113,61.15h6.73V74.94H113Zm-9.26,0h6.74V74.94h-6.74Zm-9.25,0h6.73V74.94H94.46Zm-9.26,0h6.73V74.94H85.2ZM51.53,93.64H153.37v1.9H51.53Zm102.81,38.1v3.88h-3.88v-3.88Zm-8.59,0v3.88h-3.88v-3.88Zm-8.58,0v3.88h-3.89v-3.88Zm-8.59,0v3.88h-3.89v-3.88Zm-48.37,0v3.88H76.32v-3.88Zm-8.59,0v3.88H67.74v-3.88Zm-8.59,0v3.88H59.15v-3.88Zm-12.47,0h3.88v3.88H50.56Zm-8.59,0h3.89v3.88H42Zm-8.59,0h3.89v3.88H33.38Zm138.53,37.08H33v-1.38H171.91Zm-51.16-37.08v3.88h-3.88v-3.88Zm-8.59,0v3.88h-3.88v-3.88Zm-12.47,0h3.89v3.88H99.69Zm-8.59,0H95v3.88H91.1Zm-8.58,0H86.4v3.88H82.52Z"/></g></g></g></svg>