<svg xmlns="http://www.w3.org/2000/svg" viewBox="0 0 339.51 149.62"><defs><style>.cls-1{isolation:isolate;}.cls-2{opacity:0.8;}.cls-3{fill:#f5b6b5;mix-blend-mode:multiply;}</style></defs><title>product_bg</title><g class="cls-1"><g id="圖層_1" data-name="圖層 1"><g class="cls-2"><path class="cls-3" d="M288.14,148.07V139.9h5.93V121.84c29.17-5,43.73-14.33,43.73-14.33-61.08,8.36-75.54-21.37-75.54-21.37l13.13-29c20.37-7.76,28.28-19.28,28.28-19.28-105.27,0-126.69-17.2-134-36.4h0c-7.28,19.2-28.7,36.4-134,36.4,0,0,7.92,11.52,28.28,19.28l13.14,29L71.42,91.9c-7.32,8.19-26.32,21.56-69.84,15.61,0,0,14.92,8.89,43.74,14V139.9h5.92v8.17Zm-10-26.17h6.46v6.46h-6.46Zm-14.29,0h6.46v6.46h-6.46ZM187.2,57.69h11.2v18H187.2Zm-15.41,0H183v18h-11.2Zm-15.4,0h11.2v18h-11.2Zm-15.4,0h11.2v18H141ZM85,85.13H254.42v3.16H85ZM256,121.9v6.46h-6.46V121.9Zm-14.29,0v6.46h-6.46V121.9Zm-14.29,0v6.46H221V121.9Zm-14.29,0v6.46H206.7V121.9Zm-80.48,0v6.46h-6.46V121.9Zm-14.29,0v6.46h-6.46V121.9Zm-14.29,0v6.46H97.64V121.9Zm-20.75,0h6.47v6.46H83.35Zm-14.29,0h6.47v6.46H69.06Zm-14.28,0h6.46v6.46H54.78ZM285.26,142H54.13v-2.3H285.26Zm-85.12-20.1v6.46h-6.46V121.9Zm-14.29,0v6.46h-6.46V121.9Zm-20.75,0h6.46v6.46H165.1Zm-14.29,0h6.46v6.46h-6.46Zm-14.29,0H143v6.46h-6.47Z"/></g></g></g></svg>