<svg id="圖層_1" data-name="圖層 1" xmlns="http://www.w3.org/2000/svg" viewBox="0 0 115.53 115.66"><defs><style>.cls-1{fill:#c52149;}.cls-2{opacity:0.54;}.cls-3{fill:#ef813d;}.cls-4{font-size:28.43px;fill:#efe375;font-family:LiSu;}</style></defs><title>ranking</title><rect class="cls-1" x="13.47" y="13.63" width="88.63" height="88.63" rx="13.65" transform="translate(57.9 -23.89) rotate(45)"/><g class="cls-2"><path class="cls-3" d="M102.23,49.93,66,13.7a10,10,0,0,1-1.11.77l36.36,36.36C101.55,50.52,101.88,50.24,102.23,49.93Z"/><path class="cls-3" d="M50.56,14.6c-.37-.23-.58-.72-.86-1L13.58,49.7c.17.44.38.87.59,1.29Z"/><path class="cls-3" d="M50.76,101.5,14.41,65.15c-.26.35-.53.71-.79,1.08L49.7,102.31C50,102,50.4,101.76,50.76,101.5Z"/><path class="cls-3" d="M101.34,65,65.1,101.22c.31.29.65.58,1,.9L102,66.2A2.23,2.23,0,0,1,101.34,65Z"/><path class="cls-3" d="M57.68,17.74a2.83,2.83,0,0,0,1.19,1.14A3,3,0,0,0,62,18.43,2.19,2.19,0,0,0,62.61,16a2,2,0,0,0-.22-.49,2.24,2.24,0,0,0,1.26-.58,1.74,1.74,0,0,0,.54.19,2.47,2.47,0,0,0,2.74-2,2.61,2.61,0,0,0-.52-2.35A5,5,0,0,0,62.56,9.2h0A7.94,7.94,0,0,0,60,6.74a4.39,4.39,0,0,1-1.58-1.88l0,0,0-.06,0,0,0,0,0,0-.05,0-.06,0,0,0h0L58,4.5l-.06,0h-.25l-.06,0-.06,0h0l0,0a.32.32,0,0,0-.12.08l0,0a.43.43,0,0,0-.11.12l0,0,0,.06A4.49,4.49,0,0,1,55.6,6.74a7.81,7.81,0,0,0-2.54,2.47h0a5,5,0,0,0-3.86,1.53,2.59,2.59,0,0,0-.6,1.67,3.23,3.23,0,0,0,.08.68,2.47,2.47,0,0,0,2.74,2,1.37,1.37,0,0,0,.36-.11,2.28,2.28,0,0,0,1.22.5,3,3,0,0,0-.22.48,2.84,2.84,0,0,0-.13.8,2.17,2.17,0,0,0,.78,1.66,2.76,2.76,0,0,0,4.29-.69Zm-3.57-.14a1.13,1.13,0,0,1-.32-1.29.81.81,0,0,1,.9-.64c.3.08.42.39.33.86a.55.55,0,1,0,1.08.21A1.68,1.68,0,0,0,55,14.61a1.72,1.72,0,0,0-1.07.07h-.1a2.48,2.48,0,0,1-1.32-.22,1.86,1.86,0,0,0,.29-.51,1.37,1.37,0,0,0-.3-1.4.66.66,0,0,0-1,.87c0,.06,0,.08,0,.11a.56.56,0,0,1-.39.29c-.56.1-1.08-.45-1.22-1a1.32,1.32,0,0,1,.26-1.22,3.61,3.61,0,0,1,2.55-1A2.46,2.46,0,0,0,53.27,12a2.48,2.48,0,0,0,3.32.76,1.85,1.85,0,0,0,.81-1.61A1.39,1.39,0,0,0,56.57,10,.66.66,0,0,0,56,11.15c.08,0,.08,0,.08.08a.55.55,0,0,1-.24.42,1.22,1.22,0,0,1-1.54-.47,1.12,1.12,0,0,1-.26-.9c.16-1,1.71-2.06,2.3-2.46a6.16,6.16,0,0,0,1.44-1.39,6,6,0,0,0,1.44,1.39c.58.4,2.13,1.47,2.29,2.46a1.12,1.12,0,0,1-.26.9,1.21,1.21,0,0,1-1.53.47.55.55,0,0,1-.25-.42s0-.05.08-.08a.67.67,0,0,0,.32-.88A.65.65,0,0,0,59,10a1.4,1.4,0,0,0-.84,1.16A1.86,1.86,0,0,0,59,12.73,2.48,2.48,0,0,0,62.31,12a2.6,2.6,0,0,0,.54-1.45,3.63,3.63,0,0,1,2.55,1,1.35,1.35,0,0,1,.26,1.22c-.14.58-.67,1.14-1.22,1a.58.58,0,0,1-.4-.29s0,0,0-.11a.66.66,0,0,0-1-.87,1.42,1.42,0,0,0-.3,1.4,1.79,1.79,0,0,0,.2.39,2.09,2.09,0,0,1-1.5.34h0a1.69,1.69,0,0,0-1.06-.07,1.67,1.67,0,0,0-1.13,2.13.55.55,0,1,0,1.08-.21c-.09-.47,0-.78.33-.86a.8.8,0,0,1,.89.65,1.1,1.1,0,0,1-.32,1.28,1.88,1.88,0,0,1-1.88.3,2.53,2.53,0,0,1-1.14-1.8l0-.05s0,0,0-.05l0-.06,0,0a.21.21,0,0,1,0-.06l0,0,0,0,0,0-.06,0,0,0-.08,0h-.24l-.1,0h0l-.07,0,0,0-.05,0,0,0,0,0,0,0,0,.05s0,0,0,0l0,.07v0A2.59,2.59,0,0,1,56,17.9,1.91,1.91,0,0,1,54.11,17.6Z"/><path class="cls-3" d="M57.9,98.15A3,3,0,0,0,56.71,97a3,3,0,0,0-3.1.45A2.21,2.21,0,0,0,53,99.92a3.15,3.15,0,0,0,.22.49,2.14,2.14,0,0,0-1.25.58,2.13,2.13,0,0,0-.55-.2,2.48,2.48,0,0,0-2.74,2,2.67,2.67,0,0,0,.52,2.35A5,5,0,0,0,53,106.69h0a7.91,7.91,0,0,0,2.54,2.47A4.43,4.43,0,0,1,57.19,111l0,0,0,.06,0,.05,0,0s0,0,0,0l.05,0,.06,0,0,0h0l.06,0H58l.07,0h0a.57.57,0,0,0,.13-.08l0,0a.69.69,0,0,0,.11-.13l0,0,0-.06A4.33,4.33,0,0,1,60,109.16a8,8,0,0,0,2.55-2.47h0a5,5,0,0,0,3.85-1.53A2.6,2.6,0,0,0,67,103.5a2.72,2.72,0,0,0-.09-.69,2.48,2.48,0,0,0-2.74-2,1.65,1.65,0,0,0-.36.11,2.33,2.33,0,0,0-1.22-.5,2.12,2.12,0,0,0,.22-.48,2.51,2.51,0,0,0,.13-.79,2.16,2.16,0,0,0-.78-1.67,3,3,0,0,0-3.1-.45A2.87,2.87,0,0,0,57.9,98.15Zm3.56.15a1.11,1.11,0,0,1,.32,1.28.81.81,0,0,1-.9.64c-.3-.08-.41-.39-.32-.85a.56.56,0,0,0-.44-.65.54.54,0,0,0-.64.43,1.68,1.68,0,0,0,1.13,2.14,1.81,1.81,0,0,0,1.07-.08h.09a2.53,2.53,0,0,1,1.33.22,1.71,1.71,0,0,0-.3.5,1.42,1.42,0,0,0,.3,1.4.66.66,0,0,0,.93.06.65.65,0,0,0,0-.93c0-.06,0-.08,0-.1a.52.52,0,0,1,.39-.29c.55-.11,1.08.45,1.22,1a1.35,1.35,0,0,1-.26,1.22,3.68,3.68,0,0,1-2.55,1,2.63,2.63,0,0,0-.54-1.46,2.49,2.49,0,0,0-3.32-.76,1.87,1.87,0,0,0-.82,1.61,1.41,1.41,0,0,0,.84,1.17.66.66,0,0,0,.55-1.19c-.07,0-.08-.06-.08-.08a.55.55,0,0,1,.24-.42,1.22,1.22,0,0,1,1.54.46,1.13,1.13,0,0,1,.26.9c-.16,1-1.71,2.06-2.29,2.47a5.93,5.93,0,0,0-1.44,1.38,6.12,6.12,0,0,0-1.44-1.38c-.59-.41-2.14-1.48-2.3-2.47a1.13,1.13,0,0,1,.26-.9,1.23,1.23,0,0,1,1.54-.46.52.52,0,0,1,.24.42s0,0-.08.08a.65.65,0,0,0-.32.87.67.67,0,0,0,.88.32,1.4,1.4,0,0,0,.83-1.17,1.86,1.86,0,0,0-.81-1.61,2.66,2.66,0,0,0-3.86,2.22,3.66,3.66,0,0,1-2.55-1,1.32,1.32,0,0,1-.26-1.22c.14-.58.66-1.14,1.22-1a.54.54,0,0,1,.39.29s0,0,0,.1a.66.66,0,1,0,1,.87,1.37,1.37,0,0,0,.3-1.4,1.54,1.54,0,0,0-.2-.38,2.06,2.06,0,0,1,1.5-.34h.06a1.76,1.76,0,0,0,1.06.08,1.7,1.7,0,0,0,1.13-2.14.55.55,0,0,0-.65-.43.56.56,0,0,0-.44.65c.1.46,0,.77-.32.85a.81.81,0,0,1-.9-.64,1.11,1.11,0,0,1,.32-1.28,1.86,1.86,0,0,1,1.89-.3,2.57,2.57,0,0,1,1.14,1.79.43.43,0,0,0,0,0s0,0,0,0l0,.06s0,0,0,0l0,.05,0,0,0,0,0,0,0,0,0,0,.08,0H58l.09,0h0l.07,0,0,0,.05,0,0,0,0,0,0,0,0,0,0,0s0,0,0-.06v0A2.51,2.51,0,0,1,59.58,98,1.84,1.84,0,0,1,61.46,98.3Z"/><path class="cls-3" d="M98,57.84A2.83,2.83,0,0,0,96.85,59a3,3,0,0,0,.45,3.09,2.21,2.21,0,0,0,2.46.65,2.43,2.43,0,0,0,.49-.22,2.17,2.17,0,0,0,.58,1.26,2.06,2.06,0,0,0-.2.54,2.48,2.48,0,0,0,2,2.74,2.61,2.61,0,0,0,2.35-.52,5,5,0,0,0,1.53-3.85v0A7.91,7.91,0,0,0,109,60.13a4.33,4.33,0,0,1,1.88-1.58l0,0,.06,0,0,0,0,0,.05,0,0,0,0-.06s0,0,0,0h0l0-.07s0,0,0-.06a.13.13,0,0,0,0-.06s0,0,0-.06,0,0,0-.07a.13.13,0,0,0,0-.06s0,0,0-.06l0-.06v0s0,0,0,0l-.08-.13s0,0,0,0a.69.69,0,0,0-.13-.11l0,0-.06,0A4.43,4.43,0,0,1,109,55.76a7.91,7.91,0,0,0-2.47-2.54v0A5,5,0,0,0,105,49.32a2.59,2.59,0,0,0-1.66-.6,3.32,3.32,0,0,0-.69.08,2.48,2.48,0,0,0-2,2.74,1.37,1.37,0,0,0,.11.36,2.37,2.37,0,0,0-.5,1.22,2.67,2.67,0,0,0-.48-.22,2.47,2.47,0,0,0-.79-.13,2.19,2.19,0,0,0-1.67.78,3,3,0,0,0-.45,3.1A3,3,0,0,0,98,57.84Zm.15-3.57A1.11,1.11,0,0,1,99.42,54a.81.81,0,0,1,.64.9c-.08.3-.39.42-.85.33A.55.55,0,1,0,99,56.26a1.69,1.69,0,0,0,2.14-1.13,1.8,1.8,0,0,0-.08-1.07.38.38,0,0,0,0-.1,2.48,2.48,0,0,1,.22-1.32,1.68,1.68,0,0,0,.5.29,1.37,1.37,0,0,0,1.4-.3.66.66,0,1,0-.87-1c-.06.05-.08.05-.1,0a.54.54,0,0,1-.29-.39c-.11-.56.45-1.08,1-1.22a1.31,1.31,0,0,1,1.21.26,3.66,3.66,0,0,1,1,2.55,2.54,2.54,0,0,0-1.46.53,2.5,2.5,0,0,0-.76,3.33,1.86,1.86,0,0,0,1.61.81,1.4,1.4,0,0,0,1.17-.83.67.67,0,0,0-.32-.88.65.65,0,0,0-.87.32c0,.08-.06.08-.08.08a.52.52,0,0,1-.42-.24,1.23,1.23,0,0,1,.46-1.54,1.13,1.13,0,0,1,.9-.26c1,.16,2.06,1.71,2.47,2.3A6.12,6.12,0,0,0,109.3,58a5.93,5.93,0,0,0-1.38,1.44c-.41.58-1.48,2.13-2.47,2.29a1.13,1.13,0,0,1-.9-.26,1.22,1.22,0,0,1-.46-1.54.55.55,0,0,1,.42-.24s0,0,.08.08a.66.66,0,1,0,1.19-.55,1.41,1.41,0,0,0-1.17-.84,1.87,1.87,0,0,0-1.61.82,2.49,2.49,0,0,0,.76,3.32,2.63,2.63,0,0,0,1.46.54,3.68,3.68,0,0,1-1,2.55,1.34,1.34,0,0,1-1.21.26c-.59-.14-1.15-.67-1-1.23a.56.56,0,0,1,.29-.39s0,0,.1,0a.66.66,0,1,0,.87-1,1.42,1.42,0,0,0-1.4-.3,2,2,0,0,0-.38.2,2.06,2.06,0,0,1-.34-1.5.09.09,0,0,0,0,0,1.77,1.77,0,0,0,.08-1.06A1.68,1.68,0,0,0,99,59.42a.55.55,0,0,0,.22,1.08c.46-.09.77,0,.85.32a.81.81,0,0,1-.64.9,1.11,1.11,0,0,1-1.28-.32,1.84,1.84,0,0,1-.3-1.88,2.51,2.51,0,0,1,1.79-1.14l.05,0h0l.06,0h0l0,0,0,0,0,0,0,0,0-.06s0,0,0,0a.19.19,0,0,0,0-.08v0h0a.28.28,0,0,0,0-.09v0a.28.28,0,0,0,0-.09h0l0-.1v0l0-.07s0,0,0,0l0,0,0,0-.05,0,0,0,0,0h0l-.06,0h0a2.57,2.57,0,0,1-1.79-1.14A1.86,1.86,0,0,1,98.14,54.27Z"/><path class="cls-3" d="M17.58,58.06a2.89,2.89,0,0,0,1.14-1.19,3,3,0,0,0-.45-3.1,2.19,2.19,0,0,0-2.45-.65,2.48,2.48,0,0,0-.49.22,2.2,2.2,0,0,0-.58-1.25,1.8,1.8,0,0,0,.19-.55,2.47,2.47,0,0,0-2-2.74,2.67,2.67,0,0,0-2.35.52A5,5,0,0,0,9,53.17s0,0,0,0a7.81,7.81,0,0,0-2.47,2.54A4.49,4.49,0,0,1,4.7,57.35l0,0-.06,0,0,0,0,0,0,.05,0,0,0,.06,0,0v0a.14.14,0,0,0,0,.06l0,.06a.13.13,0,0,1,0,.06V58a.13.13,0,0,1,0,.06l0,.06a.19.19,0,0,0,0,.07h0l0,0a.57.57,0,0,0,.08.13,0,0,0,0,0,0,0,.43.43,0,0,0,.12.11l0,0,.06,0a4.39,4.39,0,0,1,1.88,1.58,7.81,7.81,0,0,0,2.47,2.54s0,0,0,0a5,5,0,0,0,1.53,3.85,2.61,2.61,0,0,0,1.67.61,2.71,2.71,0,0,0,.68-.09,2.47,2.47,0,0,0,2-2.74,1.65,1.65,0,0,0-.11-.36,2.25,2.25,0,0,0,.5-1.22,2.34,2.34,0,0,0,.48.22,2.53,2.53,0,0,0,.8.13,2.17,2.17,0,0,0,1.66-.78,3,3,0,0,0,.45-3.1A2.81,2.81,0,0,0,17.58,58.06Zm-.14,3.56a1.13,1.13,0,0,1-1.29.32.79.79,0,0,1-.63-.9c.07-.3.38-.42.85-.32a.56.56,0,0,0,.65-.44.55.55,0,0,0-.44-.64,1.67,1.67,0,0,0-2.13,1.12,1.75,1.75,0,0,0,.07,1.08v.09a2.53,2.53,0,0,1-.22,1.33,1.9,1.9,0,0,0-.51-.3,1.42,1.42,0,0,0-1.4.3.66.66,0,0,0-.05.93.65.65,0,0,0,.92,0,.13.13,0,0,1,.11,0,.58.58,0,0,1,.29.39c.1.56-.45,1.09-1,1.23a1.35,1.35,0,0,1-1.22-.26,3.63,3.63,0,0,1-1-2.55,2.6,2.6,0,0,0,1.45-.54,2.48,2.48,0,0,0,.76-3.32A1.86,1.86,0,0,0,11,58.33a1.4,1.4,0,0,0-1.16.84.65.65,0,0,0,.32.87.66.66,0,0,0,.87-.32c0-.07,0-.08.08-.08a.58.58,0,0,1,.42.24A1.22,1.22,0,0,1,11,61.42a1.12,1.12,0,0,1-.9.26c-1-.16-2.06-1.71-2.46-2.29A5.79,5.79,0,0,0,6.27,58a6,6,0,0,0,1.39-1.44c.4-.59,1.47-2.14,2.46-2.3a1.12,1.12,0,0,1,.9.26A1.22,1.22,0,0,1,11.49,56a.53.53,0,0,1-.42.24s-.05,0-.08-.08a.66.66,0,1,0-1.19.56,1.39,1.39,0,0,0,1.16.83,1.85,1.85,0,0,0,1.61-.81,2.49,2.49,0,0,0-.76-3.33,2.51,2.51,0,0,0-1.45-.53,3.61,3.61,0,0,1,1-2.55,1.32,1.32,0,0,1,1.22-.26c.59.14,1.14.66,1,1.22a.56.56,0,0,1-.29.39s0,0-.11,0a.65.65,0,0,0-.92.05.66.66,0,0,0,.05.93,1.37,1.37,0,0,0,1.4.3,1.79,1.79,0,0,0,.39-.2,2.06,2.06,0,0,1,.34,1.5v.06a1.65,1.65,0,0,0,2.06,2.19.56.56,0,0,0-.21-1.09c-.47.1-.78,0-.85-.32s.11-.73.64-.9a1.12,1.12,0,0,1,1.28.32,1.9,1.9,0,0,1,.3,1.89,2.59,2.59,0,0,1-1.8,1.14h0l-.05,0-.06,0,0,0a.1.1,0,0,0-.05,0l0,0,0,0s0,0,0,0,0,0,0,0l0,0s0,0,0,.08v0h0s0,.06,0,.09v0h0s0,.07,0,.1h0l0,.09v0a.16.16,0,0,0,0,.07l0,0a.1.1,0,0,0,0,0l0,0,0,0,0,0,.05,0,0,0,.07,0h0a2.53,2.53,0,0,1,1.8,1.14A1.89,1.89,0,0,1,17.44,61.62Z"/></g><text class="cls-4" transform="translate(43.57 49.88)">狀<tspan x="0" y="34.12">元</tspan></text></svg>