<svg id="圖層_1" data-name="圖層 1" xmlns="http://www.w3.org/2000/svg" viewBox="0 0 455.55 957.96"><defs><style>.cls-1{fill:#f2a7a8;stroke:#f2a7a8;stroke-miterlimit:10;stroke-width:1.36px;}</style></defs><title>season_recommend_bg_phone</title><path class="cls-1" d="M17.46,942.9V15.83H438.24V942.9ZM18.87,17.24V941.49h418V17.24Z"/><path class="cls-1" d="M7.59,923.22V35.5H9A28.16,28.16,0,0,0,37.13,7.37V6H418.57V7.37A28.16,28.16,0,0,0,446.7,35.5h1.41V923.22H446.7a28.16,28.16,0,0,0-28.13,28.13v1.41H37.13v-1.41A28.16,28.16,0,0,0,9,923.22ZM10.41,38.29V920.44a31,31,0,0,1,29.51,29.5H415.78a31,31,0,0,1,29.51-29.5V38.29A31,31,0,0,1,415.78,8.78H39.92A31,31,0,0,1,10.41,38.29Z"/></svg>