<svg id="圖層_1" data-name="圖層 1" xmlns="http://www.w3.org/2000/svg" viewBox="0 0 1145.25 509.43"><defs><style>.cls-1{opacity:0.71;}.cls-2,.cls-3{fill:#f2a7a8;}.cls-3{stroke:#f2a7a8;stroke-miterlimit:10;stroke-width:2px;}</style></defs><title>season_recommend_bg</title><g class="cls-1"><path class="cls-2" d="M445.84,394.66h-1.35v.63C444.94,395.06,445.38,394.85,445.84,394.66Z"/></g><path class="cls-3" d="M1114.32,482H30.93V27.47H1114.32ZM33,479.9H1112.26V29.53H33Z"/><path class="cls-3" d="M1085.48,496.43H59.77v-2.07a41.29,41.29,0,0,0-41.24-41.24H16.47V56.31h2.06A41.29,41.29,0,0,0,59.77,15.07V13H1085.48v2.06a41.29,41.29,0,0,0,41.24,41.24h2.06V453.12h-2.06a41.29,41.29,0,0,0-41.24,41.24ZM63.86,492.3H1081.4A45.42,45.42,0,0,1,1124.65,449V60.39a45.41,45.41,0,0,1-43.25-43.25H63.86A45.43,45.43,0,0,1,20.6,60.39V449A45.44,45.44,0,0,1,63.86,492.3Z"/></svg>