<svg id="圖層_1" data-name="圖層 1" xmlns="http://www.w3.org/2000/svg" viewBox="0 0 123.66 123.77"><title>window01</title><path d="M60.62,1.43a65.76,65.76,0,0,1,9.68.48,58.35,58.35,0,0,1,9.36,2,60.05,60.05,0,0,1,6.86,2.54,63.92,63.92,0,0,1,9.17,5,61,61,0,0,1,19,20.12,59.56,59.56,0,0,1,3.18,6.21A61.51,61.51,0,0,1,120.55,45a70.43,70.43,0,0,1,1.73,7.58c.33,1.83.64,3.67.88,5.52a12.51,12.51,0,0,1,0,2.12c-.11,2.36.17,4.73-.26,7.09-.61,3.36-.93,6.78-1.85,10.08a73,73,0,0,1-3.37,9.24,66.91,66.91,0,0,1-5.17,9.67,56.15,56.15,0,0,1-9.29,10.94,51.9,51.9,0,0,1-8.32,6.26,63.35,63.35,0,0,1-8.83,4.43,68.6,68.6,0,0,1-9.37,3,62.07,62.07,0,0,1-8.64,1.54,59,59,0,0,1-9.77.22A59.69,59.69,0,0,1,50,121.63a59.8,59.8,0,0,1-21.34-8.76,61.38,61.38,0,0,1-6.73-5.21A54.74,54.74,0,0,1,17.18,103c-1.46-1.63-2.79-3.38-4.09-5.15a54.59,54.59,0,0,1-4.5-7.37,55.46,55.46,0,0,1-2.38-5.27c-.68-1.76-1.28-3.54-1.87-5.33-.43-1.33-.76-2.69-1.09-4s-.68-2.94-.93-4.42c-.31-1.84-.55-3.68-.71-5.54a58.79,58.79,0,0,1-.2-7.39c.09-1.88.3-3.75.56-5.62a50.14,50.14,0,0,1,1.63-7.6,55.84,55.84,0,0,1,3.25-8.36,65.41,65.41,0,0,1,3.63-6.5c1.2-1.92,2.59-3.71,4-5.5a73.73,73.73,0,0,1,7.41-8.09,55.93,55.93,0,0,1,6.5-5.18A50.37,50.37,0,0,1,35.6,7.4a59.59,59.59,0,0,1,5.66-2.34,69.15,69.15,0,0,1,7.09-2A66.83,66.83,0,0,1,55,1.88C56.75,1.64,58.54,1.54,60.62,1.43Zm-29.09,82h0V81.2c0-3.2,0-6.4,0-9.6a15,15,0,0,0-.12-2.92c-.05-.28-.11-.45-.43-.45H24.22c-.3,0-.45.12-.45.43,0,1.27,0,2.53,0,3.8,0,1.8,0,3.59,0,5.39s0,3.5,0,5.26,0,3.5,0,5.26c0,2.59-.06,5.19.08,7.78a2,2,0,0,0,1.88,2.13,16.9,16.9,0,0,0,4.38.06,1.4,1.4,0,0,0,1.38-1.42c0-1.31,0-2.62.05-3.93ZM86.67,68.19H83.6c-.24,0-.49-.07-.5.33,0,1.3,0,2.61,0,3.92,0,1.7.08,3.41.06,5.11,0,2.06,0,4.12,0,6.18,0,.84,0,1.68,0,2.52,0,1.16,0,2.31,0,3.46s0,2.13,0,3.19a23.89,23.89,0,0,0,.2,3.77A1.8,1.8,0,0,0,84.9,98.2a14.89,14.89,0,0,0,4.37.13,1.59,1.59,0,0,0,1.62-1.81c0-.86,0-1.73,0-2.6,0-1.86,0-3.72,0-5.58l0-2.92c0-1,0-2,0-3.06s0-2.12,0-3.18c0-1.73-.09-3.45,0-5.18s0-3.41,0-5.11c0-.52-.22-.71-.72-.7C88.93,68.21,87.8,68.19,86.67,68.19ZM90.61,41h0V33.26c0-2.29,0-4.57,0-6.86,0-.28-.06-.53-.39-.47a14,14,0,0,1-2.33,0c-1.12,0-2.26.06-3.38,0s-1.36,0-1.37,1.27V54.9c0,1,.07,1.06,1.11,1.05,1.93,0,3.86,0,5.78,0,.44,0,.58-.14.56-.58,0-.89,0-1.77,0-2.66ZM23.94,41h0V43.5c0,3.93,0,7.87,0,11.8,0,.67.22.75.79.74,1.87,0,3.73,0,5.6,0,1,0,1,0,1-1q0-4.37,0-8.73c0-3.19,0-6.39-.05-9.58,0-3.42,0-6.84,0-10.25,0-.48-.18-.61-.63-.6q-3.06,0-6.13,0c-.46,0-.61.13-.61.6C24,31.35,23.94,36.2,23.94,41Zm76.46.08v-1.2c0-3.57,0-7.14,0-10.72a23.62,23.62,0,0,0,0-2.66c0-.36-.18-.45-.52-.53a12.84,12.84,0,0,0-2.32,0,26,26,0,0,0-3.18,0c-1,.05-1,.1-1,1.1,0,1.89,0,3.77,0,5.66,0,2.62,0,5.24,0,7.86,0,3.2,0,6.4,0,9.59,0,1.71,0,3.42,0,5.13,0,.45.12.7.64.7q2.9,0,5.79,0c.48,0,.64-.21.64-.63v-2.6C100.41,48.89,100.4,45,100.4,41.12Zm0,41.74c-.08-.69,0-1.72,0-2.74l0-5.26c0-2.06,0-4.12,0-6.19,0-.43-.21-.51-.58-.5-2,0-3.91,0-5.86,0-.42,0-.58.12-.58.57,0,1.91,0,3.82,0,5.73,0,3.15,0,6.3,0,9.46q0,6.83,0,13.66c0,.5.15.65.65.65,1.91,0,3.82,0,5.73,0,.56,0,.73-.19.72-.73,0-1.24,0-2.49,0-3.73V82.86ZM37.63,55.92v0c1,0,2,0,2.93,0,.42,0,.5-.11.48-.54,0-1.06,0-2.12,0-3.18S41,50,41,49s0-1.95,0-2.92,0-2.13,0-3.19,0-2.34,0-3.51,0-2.13,0-3.19,0-2,0-2.92,0-2.13,0-3.19,0-2.35,0-3.52c0-.42,0-.64-.55-.63-1.82,0-3.64,0-5.46,0-.75,0-1,.26-1.08,1,0,.47.08.93.06,1.4-.06,2.12,0,4.24,0,6.37,0,.82,0,1.64,0,2.45,0,1.09,0,2.17,0,3.26s0,2.34,0,3.51c0,1,0,2,0,3s0,2,0,3c0,1.76,0,3.53-.05,5.3,0,.5.22.74.72.73C35.68,55.91,36.66,55.92,37.63,55.92ZM41,83.24h0V77.12c0-2.66,0-5.32,0-8,0-.89,0-.93-.93-.91-1.81,0-3.63,0-5.45,0-.46,0-.54.12-.59.54a26.22,26.22,0,0,0,0,2.66c0,1-.06,2.07,0,3.11,0,1.2,0,2.39,0,3.58,0,1,0,2,0,2.92s.09,2.09,0,3.12,0,2.08,0,3.12c-.06,1.74,0,3.49,0,5.24S34,96,34,97.71c0,.37.11.51.49.51,2,0,4,0,5.94,0,.38,0,.57-.12.57-.53,0-1.24,0-2.49,0-3.73V83.24Zm5-41c-.31,0-.62,0-.93,0a1.34,1.34,0,0,0-1.49,1.42c0,1.51.11,3,.13,4.52a38.33,38.33,0,0,1-.16,5.25,6.43,6.43,0,0,0,.36,3.08A8.5,8.5,0,0,0,47,60.05c.3.22.43,0,.62-.13.81-.66,1.41-1.52,2.17-2.23a5.29,5.29,0,0,1,4-1.67c2.17.12,4.34.11,6.51.11.32,0,.56-.08.49-.44a9.47,9.47,0,0,1,0-1.92c-.07-2,0-3.94,0-5.91,0-.31-.06-.51-.43-.51-.82,0-1.64,0-2.46,0-1.49,0-3,0-4.46-.06s-2-.66-2.11-2.08c-.08-.84-.16-1.68-.22-2.52,0-.39-.19-.53-.59-.52C49,42.22,47.5,42.28,46,42.22ZM57.83,76.79c.51-.1,1.49.12,2.46,0,.4-.07.55-.19.61-.61a13.76,13.76,0,0,0,0-2.13c0-1.74,0-3.49.08-5.24,0-.46-.12-.7-.64-.69-1.89,0-3.77,0-5.66,0-1.22,0-2.49.32-3.61-.52a8,8,0,0,1-1.18-1.07,14.92,14.92,0,0,0-2-2.09c-.24-.17-.49-.42-.83-.19s-.73.43-1,.7a7.11,7.11,0,0,0-2.48,6.32,89.45,89.45,0,0,1,.09,10c0,.38,0,.56.5.54,1.13,0,2.26,0,3.39,0s2.12,0,3.19,0c.47,0,.61-.23.63-.65a8.5,8.5,0,0,0-.1-1.59c-.24-1.68-.2-2.72,2.2-2.7C54.71,76.74,56,76.91,57.83,76.79Zm5.62-4.37h0c0,1.26,0,2.53,0,3.79,0,.34,0,.67.48.6a20,20,0,0,1,2.32,0c1.6-.07,3.19,0,4.78,0s2.1.63,2.28,2c.09.74.14,1.5.18,2.25,0,.37.1.58.53.58,2,0,4,0,5.92,0,.65,0,.87-.24.85-.86-.06-1.68-.07-3.37-.12-5a36.27,36.27,0,0,1,.15-5.11,6.5,6.5,0,0,0-3-6.49.57.57,0,0,0-.83,0,12.54,12.54,0,0,0-1.53,1.56,5.59,5.59,0,0,1-5.33,2.37c-2-.19-4-.05-6.06-.09-.41,0-.58.1-.57.56C63.47,69.88,63.45,71.15,63.45,72.42ZM77.2,60.55c.89-.87,1.78-1.67,2.58-2.56a2.48,2.48,0,0,0,.79-1.5c.06-1.22.18-2.44.18-3.66,0-3.37,0-6.75,0-10.12,0-.23-.07-.32-.3-.33-1.32,0-2.65-.07-4,0-.69,0-1.37,0-2.06,0-.86,0-1,.11-.94,1s0,1.69,0,2.53-.42,1.42-1.35,1.48c-.77.05-1.55,0-2.33,0-1.75,0-3.51,0-5.26,0-.91,0-1,.1-1,1s0,2.08,0,3.12,0,1.95,0,2.92c-.08,1.7-.06,1.72,1.57,1.69S68.32,56,69.94,56a7.84,7.84,0,0,1,4.54,1.29A10.57,10.57,0,0,1,77.2,60.55ZM55.78,89.39c-.44-.07-1.1,0-1.77,0s-1.38,0-2.06,0c-.46,0-.7-.12-.69-.64,0-1.09,0-2.18,0-3.27s-.54-1.47-1.54-1.24a5.32,5.32,0,0,1-1.78,0c-.6-.07-1.19-.16-1.78-.25-1.23-.19-3,1-2.51,2.55a2.39,2.39,0,0,1,0,.6c0,1.19-.06,2.39-.06,3.58,0,1.76.09,3.51,0,5.26s.46,2.27,2.08,2.28H51.2l9.12,0c.23,0,.44,0,.44-.33,0-.51.07-1,.06-1.53,0-2.06-.06-4.11,0-6.17,0-.82,0-.92-.89-.93C58.63,89.37,57.32,89.39,55.78,89.39ZM80.61,32.64c.13-.84,0-1.86,0-2.88s0-2.31,0-3.46c0-.41-.18-.56-.57-.54s-.93,0-1.4,0l-13.72,0c-1.12,0-1.63.51-1.62,1.63,0,2,0,4.08,0,6.13,0,.83.18,1.05,1,1.15a5.94,5.94,0,0,0,.73,0c2.29,0,4.57,0,6.85.11a1.35,1.35,0,0,1,1.41,1.31c0,.82.17,1.63.13,2.46s.18,1.15,1.16,1.14c1.86,0,3.72-.06,5.58-.06.38,0,.44-.11.44-.44C80.61,37.08,80.61,35,80.61,32.64ZM56.13,34.78h4.22c.27,0,.55,0,.47-.38a13.76,13.76,0,0,1,0-2.13c-.07-1.92-.06-3.84,0-5.77,0-.49-.12-.67-.63-.65-1,0-2.09,0-3.13,0l-5.32,0c-2.51,0-5,.05-7.52,0-.62,0-.68.2-.67.72,0,1.84,0,3.68,0,5.53a41.42,41.42,0,0,0,.2,6.1,1.63,1.63,0,0,0,1.49,1.45,21.13,21.13,0,0,0,4.9.09c.84-.06,1-.25,1.09-1.1a8.66,8.66,0,0,0-.19-1.91c-.1-.94.16-1.63.74-1.83a3,3,0,0,1,1.5-.22C54.35,34.88,55.4,34.66,56.13,34.78ZM72.37,98.32v0h7.32c.82,0,.88-.09.86-1,0-1.75-.06-3.5,0-5.25,0-2.39,0-4.79,0-7.18,0-.23,0-.45-.32-.45l-6.2,0c-.39,0-.59.15-.62.59-.07,1.22,0,2.43,0,3.65,0,.31.11.68-.37.69-1.47,0-2.93,0-4.39,0l-4.86,0c-.27,0-.44.05-.44.41,0,2.35-.13,4.71.1,7.06a1.51,1.51,0,0,0,1.6,1.5Zm-.25-74.86v0c2.7,0,5.41,0,8.12,0,.39,0,.51-.11.5-.49-.07-3.19.06-6.39-.09-9.58a1.58,1.58,0,0,0-1.22-1.6Q77,11,74.55,10.21c-.91-.28-1-.2-1.1.76-.07.78,0,1.55-.11,2.33-.17,1-.32,1.2-1.36,1.39a11.84,11.84,0,0,1-2.06,0c-1.93.06-3.85.06-5.77,0-.48,0-.71.06-.7.64,0,2.49,0,5,0,7.46,0,.56.21.66.7.66C66.79,23.45,69.45,23.46,72.12,23.46Zm-.29,77.25c-.59-.1-1.45.05-2.32,0-1.66-.06-3.33,0-5,0-1.12,0-1.12.06-1.12,1.18v6.39c0,.87.15,1.06,1,1.1,1,0,2.09,0,3.13,0a24.78,24.78,0,0,1,4,.16,1.65,1.65,0,0,1,1.53,1.5,14.93,14.93,0,0,1,.32,2.31c0,.48.17.76.8.55,1.39-.45,2.82-.77,4.21-1.22,1.78-.57,2.44-.93,2.21-3,0-.11,0-.22,0-.33.18-2.51,0-5,.08-7.52,0-1.16-.06-1.18-1.25-1.17C77,100.73,74.57,100.71,71.83,100.71ZM43.63,19.3c0,.72,0,2,0,3.34,0,.49.21.64.62.64,1,0,2,0,3,0s2,0,3.05,0,2.13.08,3.19.05,2.39,0,3.58,0,2.13,0,3.19-.05c.35,0,.5-.18.52-.53.1-1.18,0-2.35,0-3.52s-.06-2.09,0-3.12,0-1.31-1.17-1.33h-.26c-2.13,0-4.25,0-6.37,0-1.29,0-1.79-.67-1.75-1.88a14.46,14.46,0,0,0-.08-2.46c0-.29-.1-.45-.45-.35-1.94.59-3.88,1.14-5.8,1.74a1.8,1.8,0,0,0-1.28,1.76C43.65,15.25,43.51,17,43.63,19.3Zm17.25,85.87h0c0-1.27,0-2.53,0-3.8,0-.49-.23-.54-.62-.53-2.41,0-4.83,0-7.25,0l-9,0c-.29,0-.47.06-.45.4.07,1.42,0,2.83,0,4.25,0,1.76,0,3.54.09,5.3a1.35,1.35,0,0,0,1,1.46c.5.18,1,.33,1.52.48,1.49.44,3,.86,4.47,1.31.43.13.6,0,.59-.44a23.71,23.71,0,0,1,0-2.53c0-.56-.3-1.33.17-1.62s1.16-.15,1.75-.15c2.39,0,4.78,0,7.17.07.36,0,.53-.08.52-.49C60.87,107.65,60.88,106.41,60.88,105.17Zm8.28-39.35a7.05,7.05,0,0,0,1.58-.15,7.89,7.89,0,0,0,4.51-3.31.48.48,0,0,0,0-.64,7.2,7.2,0,0,0-6.53-3.39c-1.35,0-2.7.17-4,.23a54.5,54.5,0,0,1-8.38-.18,6.49,6.49,0,0,0-4.8,1.13,12.45,12.45,0,0,0-2,2.05.68.68,0,0,0-.08.94,7.26,7.26,0,0,0,2.84,2.63c1.85.89,3.8.69,5.75.57,1.71-.1,3.42-.17,5.12-.14C65.13,65.58,67.14,65.73,69.16,65.82Zm33.65,13.8h.11c0,.53,0,1.07,0,1.6s.14.57.53.53.71-.08,1.07-.08c1.76,0,3.53,0,5.3.09.63,0,.91-.28.91-.86,0-1,0-2.08-.07-3.12s0-1,.88-.93c1.56.17,2.29-.6,2.56-2.13.39-2.14.74-4.28,1.13-6.42.07-.4.06-.55-.39-.39a5,5,0,0,1-5.14-1c-1.07-.87-2-1.92-3-2.86-.26-.25-.4-.31-.67,0a18.15,18.15,0,0,1-1.44,1.47A4.77,4.77,0,0,0,103,69c0,1.4-.13,2.79-.15,4.19C102.79,75.33,102.81,77.47,102.81,79.62ZM105.6,42.2v0c-.33,0-.66,0-1,0-1.21,0-1.74.53-1.7,1.74.06,1.71.11,3.42.13,5.12,0,1.55-.16,3.1-.25,4.65a5.79,5.79,0,0,0,.84,3.37,10.37,10.37,0,0,0,2.24,2.52c1,.89.84.84,1.61-.16,1.86-2.37,4.11-3.9,7.3-3.43.37.05.43-.1.38-.4s-.06-.49-.1-.73c-.27-1.64-.57-3.27-.82-4.91-.31-2-1.2-2.77-3.16-2.63-.24,0-.39,0-.39-.29,0-1.44,0-2.87,0-4.31,0-.44-.12-.52-.52-.52C108.66,42.21,107.13,42.2,105.6,42.2Zm-84.24,5c0-1.67,0-3,0-4.37,0-.48-.16-.56-.57-.56-1.95,0-3.91,0-5.86,0-.67,0-.86.28-.87.84,0,.83,0,1.65,0,2.47a1.87,1.87,0,0,1-1.93,1.92c-1.09,0-1.18.1-1.41,1.21-.45,2.19-.88,4.39-1.36,6.57-.08.39,0,.48.34.52.79.09,1.58.21,2.37.28a5,5,0,0,1,2.79,1.12A22.47,22.47,0,0,1,17.31,60c.25.28.41.34.69.1.52-.45,1.09-.85,1.57-1.33a5.7,5.7,0,0,0,1.91-4.83C21.2,51.57,21.51,49.25,21.36,47.24Zm-3.71,34.5v0c1,0,1.91,0,2.86,0,.75,0,.92-.3.88-.94-.08-1.2-.09-2.4-.11-3.59a40.87,40.87,0,0,1,.09-5.19,16,16,0,0,0,.12-2.39,7,7,0,0,0-3.36-5.45c-.24-.16-.49-.29-.69,0a15.15,15.15,0,0,1-1.06,1.2c-1.66,1.92-3.61,3.12-6.28,2.67-.89-.15-.93-.07-.73.81l1.44,6.63c.2.89.48,1.14,1.4,1.16,1.4,0,2,.66,1.91,2-.06.82,0,1.65-.06,2.46,0,.41.11.56.52.55C15.6,81.72,16.63,81.74,17.65,81.74ZM86.59,66a10.39,10.39,0,0,0,2.59-.26,1.75,1.75,0,0,0,1.56-1.89,7.31,7.31,0,0,1,.08-1.32A21.41,21.41,0,0,0,91,60.3a1.64,1.64,0,0,0-1-1.65,7.78,7.78,0,0,0-6.15,0,11.85,11.85,0,0,0-4.3,3.26c-.19.2-.22.33,0,.55C81.41,64.49,83.55,66,86.59,66ZM35.83,58.49c-.51,0-.82,0-1.13,0s-.75,0-.75.62c0,1.57,0,3.14,0,4.72,0,.44.47.86,0,1.35-.13.15.1.3.3.33,1.27.16,2.54.42,3.82.47a7.07,7.07,0,0,0,2.94-.38A9.82,9.82,0,0,0,45,62.4a.54.54,0,0,0,0-.67,6.86,6.86,0,0,0-6.15-3.37C37.76,58.45,36.69,58.34,35.83,58.49Zm-6.36,7.28c.27,0,.38,0,.49,0,1,0,1.28-.25,1.49-1.2a7.08,7.08,0,0,0,.06-1.66c0-1-.11-2-.05-3s-.12-1.33-1.21-1.35-2.21-.15-3.32-.13a8.06,8.06,0,0,0-4.37,1.14A9.32,9.32,0,0,0,20.15,62c-.3.42-.34.7.2,1a6.5,6.5,0,0,1,1,.72c1.15.86,2.28,1.81,3.8,1.87S28.13,65.64,29.47,65.77Zm67.21-7.53a15.25,15.25,0,0,0-3,.45c-.25.09-.41.18-.37.46a21.3,21.3,0,0,1,0,2.65c0,1.11,0,2.21,0,3.32,0,.41.09.58.5.56a10.18,10.18,0,0,1,1.46,0,16.61,16.61,0,0,0,4.67-.16,6.11,6.11,0,0,0,3.74-2.37c.9-1.16.92-1.21-.13-2.22l0,0A8.71,8.71,0,0,0,96.68,58.24Zm-13.48-40h0v4.52c0,.27,0,.47.39.47,2.23,0,4.47,0,6.71,0,.38,0,.56-.12.58-.53a36.3,36.3,0,0,0-.13-4.78,1.78,1.78,0,0,0-1-1.42c-2-1.06-4-2.1-5.93-3.16-.46-.24-.63-.14-.62.39C83.22,15.21,83.2,16.72,83.2,18.23Zm3.87,82.65v0c-1,0-2,0-3,0-.62,0-.85.24-.85.8a3,3,0,0,0,0,.6,25.84,25.84,0,0,1,0,3c.07,1.65,0,3.31,0,5,0,.32.08.43.44.34a18,18,0,0,0,4.21-1.6,5.39,5.39,0,0,0,3-4.65,20.13,20.13,0,0,0-.18-2.91c0-.47-.2-.6-.65-.58C89,100.9,88.05,100.88,87.07,100.88ZM66.6,37.13c-.85,0-1.69,0-2.53,0-.67,0-.8.26-.76.83.13,1.81.06,3.63,0,5.45,0,1.22.4,1.69,1.67,1.65s2.61,0,3.91,0c1.93,0,2.15-.2,2.13-2.15,0-1.28-.08-2.57,0-3.86a1.81,1.81,0,0,0-1.7-1.91C68.42,37.1,67.51,37.13,66.6,37.13ZM37.51,23.39c.93,0,1.86,0,2.79,0,.52,0,.71-.18.71-.69,0-3,0-5.94,0-8.91,0-.39-.22-.23-.39-.18-.87.28-1.76.5-2.6.86A8.69,8.69,0,0,0,35,16.65a7.22,7.22,0,0,0-.83,6.45c.12.24.29.21.49.22C35.6,23.39,36.55,23.4,37.51,23.39Zm.12,77.51v0H35c-1,0-1.11.13-1.12,1.1a2.62,2.62,0,0,0,.13,1.3.26.26,0,0,1,0,.19,5,5,0,0,0,.13,2.88,2.27,2.27,0,0,0,.86,1.39,58.13,58.13,0,0,0,5.59,3.06c.27.15.41.1.42-.24s0-.93,0-1.4c0-2.55,0-5.1,0-7.64,0-.5-.16-.61-.6-.6C39.49,100.92,38.56,100.9,37.63,100.9ZM70.76,83.23h0V79.9c0-.35-.07-.6-.51-.6H64.07c-.36,0-.54.14-.54.5,0,1.13-.05,2.26-.05,3.38s.1,2,0,3c0,.61.2.68.65.68,2,0,4,0,6,.08.42,0,.58-.13.57-.57C70.74,85.36,70.76,84.3,70.76,83.23ZM60.83,41.12c0-1.11,0-2.22,0-3.33,0-.41-.15-.53-.55-.53-1.94,0-3.89,0-5.84,0-.46,0-.63.13-.62.6,0,2.15,0,4.3,0,6.45,0,.49.15.64.65.63,1.92,0,3.85,0,5.78,0,.43,0,.59-.12.58-.56C60.82,43.29,60.84,42.21,60.83,41.12Zm-3.64,45.7v0h2.46c1.12,0,1.17-.1,1.16-1.21,0-1.91,0-3.81,0-5.71,0-.42-.09-.6-.54-.59-1.93,0-3.85,0-5.78,0-.74,0-.76,0-.74.78,0,1,0,2.07,0,3.11s0,2,0,3c0,.44.23.62.67.61C55.32,86.81,56.25,86.82,57.19,86.82ZM103,90.34h0v4.73c0,.29,0,.6.37.69s.56-.15.73-.44.52-.88.79-1.31q2.76-4.32,5.51-8.64c.13-.21.38-.39.16-.7a.88.88,0,0,0-.83-.44c-1.73,0-3.46,0-5.19.09-1.1,0-1.52.46-1.53,1.55C102.94,87.36,103,88.85,103,90.34Zm4.93-50.46a9.09,9.09,0,0,0,2.39-.26c.38-.08.47-.24.23-.59-.51-.78-1-1.57-1.5-2.35l-5.09-8c-.14-.24-.24-.49-.6-.34s-.39.33-.39.67c0,1.84,0,3.68,0,5.52a16.52,16.52,0,0,0,.3,3.9,1.83,1.83,0,0,0,1.71,1.5A13.16,13.16,0,0,0,107.88,39.88ZM13.59,84.35c.81,1.33,1.52,2.52,2.26,3.69C17.4,90.5,19,93,20.52,95.4c.12.18.15.46.46.35s.26-.33.26-.55c0-3.43,0-6.85,0-10.27,0-.47-.16-.59-.62-.58-1.87,0-3.73,0-5.6,0Zm7.67-46.46h0c0-2.12,0-4.25,0-6.37,0-.83,0-1.64,0-2.46,0-.28-.07-.58-.37-.65s-.37.24-.49.45c-.38.62-.77,1.24-1.16,1.85Q16.63,34.93,14,39.13c-.25.39-.12.5.26.53l.47,0c2.06,0,4.11-.07,6.17,0,.24,0,.44,0,.42-.35S21.26,38.38,21.26,37.89Zm94.26,23.53h0V59.28c0-.25,0-.47-.33-.57a4.44,4.44,0,0,0-3.43.19,12.38,12.38,0,0,0-3.43,3.1c-.22.23-.08.38.1.55l1.94,1.82a6.31,6.31,0,0,0,2,1.32A2.17,2.17,0,0,0,115.5,64,20.34,20.34,0,0,0,115.52,61.42ZM11,58.42l-1.12.12c-.58.05-.89.26-.89,1,0,1.46,0,2.92.06,4.38a1.84,1.84,0,0,0,1.73,1.87,3.75,3.75,0,0,0,2.72-.85c.91-.79,1.62-1.76,2.49-2.59.2-.19.09-.32-.06-.49-.57-.59-1.09-1.23-1.68-1.8A4.5,4.5,0,0,0,11,58.42Zm57.13-46a3.82,3.82,0,0,0,2.51-1,1.21,1.21,0,0,0-.25-1.87,4.63,4.63,0,0,0-1.6-.38c-1.15-.07-2.3-.15-3.43-.33-1.66-.25-2.31.34-2.06,2,0,.13,0,.26.07.39.21.94.41,1.1,1.35,1.11A28.09,28.09,0,0,1,68.17,12.45Zm-1.45,99.39H64c-.39,0-.57.16-.56.56,0,.8,0,1.6,0,2.39,0,.32.1.45.43.4,1.82-.24,3.67-.18,5.48-.52a1.85,1.85,0,0,0,1.5-1.52.89.89,0,0,0-.48-1,2.22,2.22,0,0,0-1.12-.36ZM56.61,9.25a6.69,6.69,0,0,0-1.79.1,1.37,1.37,0,0,0-1.16,1.05,1.24,1.24,0,0,0,1.17,1.82c.9.07,1.81,0,2.72,0s1.59.08,2.38,0,.91-.2.92-1a9.08,9.08,0,0,1,0-1.73c.12-.68,0-.76-.71-.67C58.94,9,57.78,9.12,56.61,9.25ZM58.36,115h1.4c.91,0,1.07-.18,1.08-1.1,0-.51-.08-1-.06-1.52s-.13-.46-.46-.45h-6a.54.54,0,0,0-.62.44,1.8,1.8,0,0,0,1.85,2.59A16.15,16.15,0,0,0,58.36,115Zm-27-96.39-5.64,4.74h5.21c.31,0,.43-.14.43-.45C31.36,21.49,31.37,20.1,31.37,18.58ZM31.3,105.5a39.64,39.64,0,0,0,.11-4c0-.49-.23-.64-.71-.62-.73,0-1.46,0-2.2,0H26l-.06.18Zm62-.17,5.52-4.43H94c-.43,0-.61.17-.61.58C93.35,102.7,93.34,103.91,93.34,105.33Zm0-86.55c0,1.44,0,2.68,0,3.92,0,.34.07.55.47.55,1.48,0,3,0,4.45,0,.13,0,.3,0,.35-.13s-.11-.23-.2-.31l-2.65-2.12Z"/></svg>